<?xml version="1.0" encoding="utf-8"?>
<!-- Generator: Adobe Illustrator 19.1.0, SVG Export Plug-In . SVG Version: 6.00 Build 0)  -->
<svg version="1.1" id="Layer_1" xmlns="http://www.w3.org/2000/svg" xmlns:xlink="http://www.w3.org/1999/xlink" x="0px" y="0px"
	 viewBox="0 0 592.7 422.7" style="enable-background:new 0 0 592.7 422.7;" xml:space="preserve">
<style type="text/css">
	.st0{fill:#6077DF;}
	.st1{fill:#FFCA00;}
	.st2{fill:#035E87;}
	.st3{enable-background:new    ;}
	.st4{fill:#BDBDBD;}
	.st5{fill:#C9C9C9;}
	.st6{fill:#FFFFFF;}
	.st7{fill:#EBEBEB;}
	.st8{fill:#999999;}
	.st9{fill:#FFB300;}
	.st10{fill:#3C3D00;}
	.st11{fill:#F5F5F5;}
	.st12{fill:#212221;}
	.st13{fill:#F2A012;}
	.st14{fill:#D68E10;}
	.st15{fill:#4B4B4B;}
	.st16{fill:#4F4F4F;}
	.st17{fill:#333333;}
	.st18{fill:#484848;}
	.st19{fill:#DE8E11;}
	.st20{fill:#D68910;}
	.st21{fill:#EB9611;}
	.st22{fill:#EDA800;}
	.st23{fill:#BF7B0F;}
	.st24{fill:#F5AE02;}
	.st25{fill:#F29B12;}
	.st26{fill:#E89A11;}
	.st27{fill:#A11D11;}
	.st28{opacity:0.18;}
	.st29{fill:#415464;}
	.st30{fill:#4CDAB0;}
	.st31{fill:#E0E0E0;}
	.st32{opacity:0.75;fill:#3A4F9B;}
	.st33{opacity:0.27;fill:#375056;}
	.st34{fill:#BA8B75;}
	.st35{fill:#242424;}
	.st36{fill:#2B3E4F;}
	.st37{fill:#DCDCDC;}
	.st38{fill:#DEB09D;}
	.st39{fill:#EBF1F5;}
	.st40{fill:#025074;}
	.st41{fill:#E9AE93;}
	.st42{fill:#291222;}
	.st43{fill:#3E1C33;}
	.st44{fill:#E9C2B0;}
	.st45{fill:#F9CFB3;}
	.st46{clip-path:url(#SVGID_2_);enable-background:new    ;}
	.st47{fill:#AA2A41;}
	.st48{fill:#D43451;}
	.st49{fill:#FF3F61;}
	.st50{fill:#9F273C;}
	.st51{fill:none;stroke:#6AEFC3;stroke-miterlimit:10;}
	.st52{fill:none;stroke:#6AEFC3;stroke-miterlimit:10;stroke-dasharray:5.915,5.915;}
	.st53{fill:none;stroke:#6AEFC3;stroke-miterlimit:10;stroke-dasharray:6.0713,6.0713;}
	.st54{fill:none;stroke:#6AEFC3;stroke-miterlimit:10;stroke-dasharray:5.9151,5.9151;}
	.st55{fill:none;stroke:#6AEFC3;stroke-miterlimit:10;stroke-dasharray:6.0712,6.0712;}
	.st56{fill:#CCCCCC;}
	.st57{fill:#E6E6E6;}
	.st58{fill:#F2F2F2;}
	.st59{fill-rule:evenodd;clip-rule:evenodd;fill:#FFFFFF;}
	.st60{opacity:0.27;}
	.st61{fill:#375056;}
	.st62{fill:#6EC6E6;}
	.st63{opacity:0.17;}
	.st64{fill:#28A7C9;}
	.st65{fill:#ADECF7;}
	.st66{clip-path:url(#SVGID_4_);}
	.st67{fill:#FEC363;}
	.st68{fill:#353F49;}
	.st69{fill:#474F59;}
	.st70{clip-path:url(#SVGID_6_);}
	.st71{fill:#A3A3EF;}
	.st72{fill:#BABAF4;}
	.st73{clip-path:url(#SVGID_8_);}
	.st74{fill:#F2B50A;}
	.st75{opacity:0.15;}
	.st76{fill:#97723F;}
	.st77{fill:#856231;}
	.st78{fill:#BD553D;}
	.st79{fill:#3E626A;}
	.st80{opacity:0.3;}
	.st81{opacity:0.42;}
	.st82{opacity:0.5;}
	.st83{fill:none;stroke:#6AEFC3;stroke-miterlimit:10;stroke-dasharray:6,6;}
	.st84{clip-path:url(#SVGID_10_);}
	.st85{fill:#3FBC92;}
	.st86{fill:#FDFFFE;}
	.st87{fill:#2B0D04;}
	.st88{fill:#134663;}
	.st89{fill:#DEF3EE;}
	.st90{clip-path:url(#SVGID_12_);enable-background:new    ;}
	.st91{clip-path:url(#SVGID_14_);}
	.st92{clip-path:url(#SVGID_16_);}
	.st93{clip-path:url(#SVGID_18_);}
	.st94{clip-path:url(#SVGID_20_);enable-background:new    ;}
	.st95{clip-path:url(#SVGID_22_);}
	.st96{clip-path:url(#SVGID_24_);}
	.st97{clip-path:url(#SVGID_26_);}
	.st98{clip-path:url(#SVGID_28_);enable-background:new    ;}
	.st99{clip-path:url(#SVGID_30_);}
	.st100{clip-path:url(#SVGID_32_);}
	.st101{clip-path:url(#SVGID_34_);}
	.st102{fill:#2FB286;}
	.st103{clip-path:url(#SVGID_36_);}
	.st104{clip-path:url(#SVGID_38_);}
	.st105{opacity:0.2;}
	.st106{fill:#585858;}
	.st107{fill:#616161;}
	.st108{fill:#505050;}
	.st109{fill:#414141;}
	.st110{fill:#232423;}
	.st111{fill:#424342;}
	.st112{fill:#C27508;}
	.st113{fill:#F0910A;}
	.st114{fill:#3E3F3E;}
	.st115{fill:#2F302F;}
	.st116{fill:#1F1F1F;}
	.st117{fill:#272727;}
	.st118{fill:#1E1E1E;}
	.st119{clip-path:url(#SVGID_40_);enable-background:new    ;}
	.st120{clip-path:url(#SVGID_42_);}
	.st121{clip-path:url(#SVGID_44_);}
	.st122{clip-path:url(#SVGID_46_);}
	.st123{opacity:0.75;}
	.st124{fill:#3A4F9B;}
	.st125{fill:#2E2F2E;}
	.st126{fill:#303130;}
	.st127{fill:#3D3E3D;}
	.st128{fill:#A26207;}
	.st129{fill:#A86507;}
	.st130{clip-path:url(#SVGID_48_);}
	.st131{clip-path:url(#SVGID_50_);}
	.st132{opacity:0.7656;fill:#3A4F9B;}
	.st133{opacity:0.7812;fill:#3A4F9B;}
	.st134{opacity:0.7969;fill:#3A4F9B;}
	.st135{opacity:0.8125;fill:#3A4F9B;}
	.st136{opacity:0.8281;fill:#3A4F9B;}
	.st137{opacity:0.8438;fill:#3A4F9B;}
	.st138{opacity:0.8594;fill:#3A4F9B;}
	.st139{opacity:0.875;fill:#3A4F9B;}
	.st140{opacity:0.8906;fill:#3A4F9B;}
	.st141{opacity:0.9062;fill:#3A4F9B;}
	.st142{opacity:0.9219;fill:#3A4F9B;}
	.st143{opacity:0.9375;fill:#3A4F9B;}
	.st144{opacity:0.9531;fill:#3A4F9B;}
	.st145{opacity:0.9688;fill:#3A4F9B;}
	.st146{opacity:0.9844;fill:#3A4F9B;}
	.st147{clip-path:url(#SVGID_52_);}
	.st148{clip-path:url(#SVGID_54_);}
	.st149{clip-path:url(#SVGID_56_);}
	.st150{clip-path:url(#SVGID_58_);}
	.st151{clip-path:url(#SVGID_60_);enable-background:new    ;}
	.st152{clip-path:url(#SVGID_62_);}
	.st153{clip-path:url(#SVGID_64_);}
	.st154{clip-path:url(#SVGID_66_);}
	.st155{clip-path:url(#SVGID_68_);}
	.st156{clip-path:url(#SVGID_70_);enable-background:new    ;}
	.st157{clip-path:url(#SVGID_72_);enable-background:new    ;}
	.st158{clip-path:url(#SVGID_74_);}
	.st159{clip-path:url(#SVGID_76_);}
	.st160{clip-path:url(#SVGID_78_);}
	.st161{clip-path:url(#SVGID_80_);}
	.st162{clip-path:url(#SVGID_82_);}
	.st163{clip-path:url(#SVGID_84_);}
</style>
<g>
	<path class="st1" d="M385.1,98.3c-6.7-6.7-9-15.8-6.2-24.2c2.6-7.7,8.9-13.2,16.6-14.3c3.3-0.5,7.4-0.5,12.2-0.5
		c17.4,0.1,41.2,0.1,46.8-25.8c4.8-22.2,22.8-25.3,30.3-25.6c10.3-0.4,20.2,3.4,21.7,8.4c3,10-9.8,19.2-10.3,19.6l-0.9-1.3
		c0.1-0.1,12.4-8.9,9.7-17.8c-1.1-3.8-9.7-7.7-20.1-7.2c-7.1,0.3-24.2,3.2-28.8,24.4C450.2,61.1,425.7,61,407.8,61
		c-4.7,0-8.8,0-12,0.4c-7.1,1-12.9,6.1-15.3,13.2c-2.6,7.8-0.5,16.2,5.8,22.5L385.1,98.3z"/>
	<path class="st2" d="M395,109.7c-14.5-8.6-22.1-19-20.7-28.6c0.9-6.3,5.6-11.4,12.1-13.1c3.4-0.9,7.2-1.3,11.1-1.8
		c11.4-1.3,24.2-2.8,34.2-15.8c3-4,5.9-8.5,9-13.3c10.4-16.4,22.2-35,44.3-34.8c6.7,0,11.2,2.1,13.2,6c5.4,10.2-7.2,29.4-7.8,30.2
		l-1.3-0.9c0.1-0.2,12.7-19.2,7.7-28.6C495,5.7,491,4,484.9,3.9C463.7,3.8,452.1,22,442,38c-3.1,4.8-6,9.4-9,13.4
		c-10.4,13.5-23.6,15.1-35.3,16.4c-3.9,0.5-7.6,0.9-10.9,1.8c-5.9,1.5-10.2,6.1-10.9,11.8c-1.2,8.9,6,18.7,20,27L395,109.7z"/>
	<g>
		<g>
			<g class="st3">
				<g>
					<g class="st3">
						<path class="st4" d="M486,81.1l26.1-14.9c0,1.4-0.5,2.4-1.3,2.8l-26.1,14.9C485.5,83.5,486,82.5,486,81.1L486,81.1z"/>
					</g>
				</g>
				<g>
					<g class="st3">
						<path class="st5" d="M458.6,38.2l26.1-14.9c0.8-0.5,1.9-0.4,3.2,0.3l-26.1,14.9C460.5,37.8,459.4,37.7,458.6,38.2L458.6,38.2z
							"/>
					</g>
				</g>
				<g>
					<polygon class="st4" points="486.2,58 512.3,43 512.1,66.1 486,81.1 					"/>
				</g>
				<g>
					<polygon class="st6" points="461.8,38.5 487.9,23.6 507.9,35.3 481.8,50.3 					"/>
				</g>
				<g>
					<g class="st3">
						<path class="st7" d="M481.8,50.3l26.1-14.9c2.4,1.4,4.4,4.9,4.4,7.7L486.2,58C486.2,55.1,484.3,51.7,481.8,50.3L481.8,50.3z"
							/>
					</g>
				</g>
				<g>
					<path class="st8" d="M481.8,50.3c2.4,1.4,4.4,4.9,4.4,7.7L486,81.1c0,2.8-2,3.9-4.5,2.5l-20.1-11.7c-2.4-1.4-4.4-4.9-4.4-7.7
						l0.2-23.1c0-2.8,2-3.9,4.5-2.5L481.8,50.3z"/>
					<path class="st4" d="M483.5,83.4c-0.5,0-1-0.2-1.6-0.5l-20.1-11.7c-2.2-1.3-4-4.5-4-7l0.2-23.1c0-0.5,0.1-2.3,1.7-2.3
						c0.5,0,1,0.2,1.6,0.5L481.4,51c2.2,1.3,4,4.5,4,7l-0.2,23.1C485.2,81.6,485,83.4,483.5,83.4z"/>
				</g>
			</g>
			<g>
				<path class="st8" d="M471.2,48c6.4,3.7,11.5,12.8,11.5,20.1c-0.1,7.4-5.3,10.3-11.7,6.6c-6.4-3.7-11.5-12.7-11.4-20.1
					C459.6,47.2,464.8,44.3,471.2,48z"/>
			</g>
		</g>
		<g>
			<g class="st3">
				<path class="st9" d="M386.6,92.2l77-43.3c1.6-0.9,3.6-0.9,5.9,0l-77,43.3C390.2,91.3,388.2,91.3,386.6,92.2L386.6,92.2z"/>
				<g class="st3">
					<g class="st3">
						<path class="st1" d="M471.1,49.7c-0.5-0.3-1-0.6-1.5-0.8l-77,43.3c0.5,0.2,1,0.5,1.5,0.8c5,2.9,9.2,9.5,10.1,15.5l77-43.3
							C480.2,59.2,476.1,52.6,471.1,49.7z"/>
						<path class="st9" d="M404.1,108.5l77-43.3c0.1,0.9,0.2,1.8,0.2,2.6c0,3.3-1.2,5.6-3.1,6.7l-77,43.3c1.9-1.1,3.1-3.4,3.1-6.7
							C404.3,110.2,404.3,109.3,404.1,108.5L404.1,108.5z"/>
					</g>
				</g>
				<g>
					<path class="st10" d="M394,93c5.8,3.4,10.4,11.5,10.3,18.1c-0.1,6.6-4.8,9.3-10.5,5.9c-5.7-3.4-10.4-11.5-10.3-18.1
						C383.6,92.3,388.3,89.6,394,93z"/>
				</g>
			</g>
		</g>
		<g>
			<g class="st3">
				<g>
					<polygon class="st11" points="552.3,223.8 552.2,238.1 431.7,303.5 431.9,289.2 					"/>
				</g>
				<g>
					<polygon class="st4" points="431.9,289.2 431.7,303.5 311.4,233 311.5,218.7 					"/>
				</g>
				<g>
					<polygon class="st6" points="552.3,223.8 431.9,289.2 311.5,218.7 421.3,161.7 					"/>
				</g>
			</g>
		</g>
		<g>
			<g>
				<g class="st3">
					<g class="st3">
						<g class="st3">
							<path class="st12" d="M385.5,233.4l0,2c0,2.1,1.3,4.1,4,5.7l0-2C386.8,237.5,385.5,235.5,385.5,233.4L385.5,233.4z"/>
						</g>
					</g>
					<g class="st3">
						<g class="st3">
							<path class="st9" d="M448,254.5l0,2c0.2-0.1,0.4-0.2,0.5-0.3l0-2C448.4,254.3,448.2,254.4,448,254.5L448,254.5z"/>
							<path class="st9" d="M448.6,254.2l0,2c0.9-0.6,1.7-1.2,2.2-1.9l0-2C450.2,253,449.5,253.6,448.6,254.2L448.6,254.2z"/>
							<path class="st13" d="M450.8,252.3l0,2c0.5-0.6,0.8-1.1,1.1-1.7l0-2C451.6,251.1,451.3,251.7,450.8,252.3L450.8,252.3z"/>
							<path class="st13" d="M451.9,250.5l0,2c0.2-0.6,0.3-1.2,0.3-1.8l0-2C452.2,249.4,452.1,250,451.9,250.5L451.9,250.5z"/>
						</g>
					</g>
					<g>
						<polygon class="st13" points="389.5,239.1 389.5,241.1 421.7,260.1 421.7,258.1 						"/>
					</g>
					<g>
						<polygon class="st9" points="441.5,258.2 441.5,260.2 448,256.5 448,254.5 						"/>
					</g>
					<g class="st3">
						<g class="st3">
							<path class="st13" d="M421.7,258.1l0,2c0.8,0.5,1.6,0.9,2.5,1.2l0-2C423.4,259,422.5,258.6,421.7,258.1L421.7,258.1z"/>
							<path class="st13" d="M424.3,259.3l0,2c1,0.4,2,0.6,3,0.8l0-2C426.2,259.9,425.2,259.6,424.3,259.3L424.3,259.3z"/>
							<path class="st13" d="M427.3,260.1l0,2c1,0.2,2.1,0.3,3.1,0.4l0-2C429.4,260.5,428.3,260.3,427.3,260.1L427.3,260.1z"/>
							<path class="st9" d="M430.4,260.5l0,2c1.3,0.1,2.7,0,4-0.1l0-2C433.1,260.5,431.8,260.6,430.4,260.5L430.4,260.5z"/>
							<path class="st9" d="M434.5,260.4l0,2c2.6-0.3,5.1-1,7.1-2.2l0-2C439.5,259.4,437,260.1,434.5,260.4L434.5,260.4z"/>
						</g>
					</g>
					<g>
						<path class="st1" d="M389.7,227.7c-5.5,3.1-5.6,8.3-0.1,11.5l32.2,19c5.4,3.2,14.3,3.3,19.8,0.1l6.5-3.7
							c5.5-3.1,5.6-8.3,0.1-11.5l-32.2-19c-5.4-3.2-14.3-3.3-19.8-0.1L389.7,227.7z"/>
					</g>
				</g>
			</g>
			<g>
				<g class="st3">
					<g class="st3">
						<g>
							<path class="st14" d="M352.2,214.4l0,2c0,2.1,1.3,4.1,4,5.7l0-2C353.6,218.6,352.2,216.5,352.2,214.4L352.2,214.4z"/>
						</g>
					</g>
					<g class="st3">
						<g class="st3">
							<path class="st9" d="M414.8,235.6l0,2c0.2-0.1,0.4-0.2,0.5-0.3l0-2C415.1,235.3,414.9,235.5,414.8,235.6L414.8,235.6z"/>
							<path class="st9" d="M415.3,235.2l0,2c0.9-0.6,1.7-1.2,2.2-1.9l0-2C417,234,416.2,234.6,415.3,235.2L415.3,235.2z"/>
							<path class="st13" d="M417.5,233.3l0,2c0.5-0.6,0.8-1.1,1.1-1.7l0-2C418.4,232.2,418,232.8,417.5,233.3L417.5,233.3z"/>
							<path class="st13" d="M418.6,231.6l0,2c0.2-0.6,0.3-1.2,0.3-1.8l0-2C418.9,230.4,418.8,231,418.6,231.6L418.6,231.6z"/>
						</g>
					</g>
					<g>
						<polygon class="st13" points="356.3,220.2 356.2,222.2 388.4,241.2 388.4,239.1 						"/>
					</g>
					<g>
						<polygon class="st9" points="408.3,239.3 408.2,241.3 414.7,237.6 414.8,235.6 						"/>
					</g>
					<g class="st3">
						<g class="st3">
							<path class="st13" d="M388.4,239.1l0,2c0.8,0.5,1.6,0.9,2.5,1.2l0-2C390.1,240,389.2,239.6,388.4,239.1L388.4,239.1z"/>
							<path class="st13" d="M391,240.3l0,2c1,0.4,2,0.6,3,0.8l0-2C393,240.9,391.9,240.7,391,240.3L391,240.3z"/>
							<path class="st13" d="M394,241.2l0,2c1,0.2,2.1,0.3,3.1,0.4l0-2C396.1,241.5,395,241.4,394,241.2L394,241.2z"/>
							<path class="st9" d="M397.2,241.5l0,2c1.3,0.1,2.7,0,4-0.1l0-2C399.8,241.6,398.5,241.6,397.2,241.5L397.2,241.5z"/>
							<path class="st9" d="M401.2,241.4l0,2c2.6-0.3,5.1-1,7.1-2.2l0-2C406.2,240.4,403.8,241.1,401.2,241.4L401.2,241.4z"/>
						</g>
					</g>
					<g>
						<path class="st1" d="M356.4,208.7c-5.5,3.1-5.6,8.3-0.1,11.5l32.2,19c5.4,3.2,14.3,3.3,19.8,0.1l6.5-3.7
							c5.5-3.1,5.6-8.3,0.1-11.5l-32.2-19c-5.4-3.2-14.3-3.3-19.8-0.1L356.4,208.7z"/>
					</g>
				</g>
			</g>
			<g>
				<g class="st3">
					<g>
						<polygon class="st15" points="434,251.9 434,253.9 432.7,256.8 432.7,254.8 						"/>
					</g>
					<g>
						<polygon class="st16" points="432.7,254.8 432.7,256.8 427.6,257.6 427.7,255.6 						"/>
					</g>
					<g>
						<polygon class="st17" points="427.7,255.6 427.6,257.6 424,255.4 424,253.4 						"/>
					</g>
					<g>
						<polygon class="st18" points="434,251.9 432.7,254.8 427.7,255.6 424,253.4 425.3,250.5 430.4,249.8 						"/>
					</g>
				</g>
			</g>
			<g>
				<g class="st3">
					<g>
						<polygon class="st15" points="447.8,243.8 447.8,245.9 446.4,248.8 446.4,246.7 						"/>
					</g>
					<g>
						<polygon class="st16" points="446.4,246.7 446.4,248.8 441.4,249.5 441.4,247.5 						"/>
					</g>
					<g>
						<polygon class="st17" points="441.4,247.5 441.4,249.5 437.7,247.4 437.8,245.3 						"/>
					</g>
					<g>
						<polygon class="st18" points="447.8,243.8 446.4,246.7 441.4,247.5 437.8,245.3 439.1,242.4 444.1,241.7 						"/>
					</g>
				</g>
			</g>
			<g>
				<g class="st3">
					<g>
						<polygon class="st15" points="366.3,212.7 366.3,214.7 364.9,217.6 365,215.6 						"/>
					</g>
					<g>
						<polygon class="st16" points="365,215.6 364.9,217.6 359.9,218.3 360,216.3 						"/>
					</g>
					<g>
						<polygon class="st17" points="360,216.3 359.9,218.3 356.3,216.2 356.3,214.2 						"/>
					</g>
					<g>
						<polygon class="st18" points="366.3,212.7 365,215.6 360,216.3 356.3,214.2 357.6,211.3 362.6,210.5 						"/>
					</g>
				</g>
			</g>
			<g>
				<g class="st3">
					<g>
						<polygon class="st15" points="379.4,205 379.4,207 378,209.9 378.1,207.9 						"/>
					</g>
					<g>
						<polygon class="st16" points="378.1,207.9 378,209.9 373,210.6 373,208.6 						"/>
					</g>
					<g>
						<polygon class="st17" points="373,208.6 373,210.6 369.4,208.5 369.4,206.5 						"/>
					</g>
					<g>
						<polygon class="st18" points="379.4,205 378.1,207.9 373,208.6 369.4,206.5 370.7,203.6 375.7,202.8 						"/>
					</g>
				</g>
			</g>
		</g>
		<g>
			<g>
				<g class="st3">
					<g class="st3">
						<g class="st3">
							<path class="st12" d="M424.9,210.5l0,2c0,2.1,1.3,4.1,4,5.7l0-2C426.3,214.6,424.9,212.5,424.9,210.5L424.9,210.5z"/>
						</g>
					</g>
					<g class="st3">
						<g class="st3">
							<path class="st9" d="M487.5,231.6l0,2c0.2-0.1,0.4-0.2,0.5-0.3l0-2C487.8,231.4,487.7,231.5,487.5,231.6L487.5,231.6z"/>
							<path class="st9" d="M488,231.3l0,2c0.9-0.6,1.7-1.2,2.2-1.9l0-2C489.7,230,488.9,230.7,488,231.3L488,231.3z"/>
							<path class="st13" d="M490.3,229.3l0,2c0.5-0.6,0.8-1.1,1.1-1.7l0-2C491.1,228.2,490.7,228.8,490.3,229.3L490.3,229.3z"/>
							<path class="st13" d="M491.3,227.6l0,2c0.2-0.6,0.3-1.2,0.3-1.8l0-2C491.6,226.4,491.5,227,491.3,227.6L491.3,227.6z"/>
						</g>
					</g>
					<g>
						<polygon class="st13" points="429,218.6 429,220.6 461.2,237.2 461.2,235.2 						"/>
					</g>
					<g>
						<polygon class="st9" points="481,235.3 481,237.3 487.5,233.6 487.5,231.6 						"/>
					</g>
					<g class="st3">
						<g class="st3">
							<path class="st13" d="M461.2,235.2l0,2c0.8,0.5,1.6,0.9,2.5,1.2l0-2C462.8,236,461.9,235.6,461.2,235.2L461.2,235.2z"/>
							<path class="st13" d="M463.7,236.3l0,2c1,0.4,2,0.6,3,0.8l0-2C465.7,237,464.7,236.7,463.7,236.3L463.7,236.3z"/>
							<path class="st13" d="M466.7,237.2l0,2c1,0.2,2.1,0.3,3.1,0.4l0-2C468.8,237.5,467.7,237.4,466.7,237.2L466.7,237.2z"/>
							<path class="st9" d="M469.9,237.6l0,2c1.3,0.1,2.7,0,4-0.1l0-2C472.6,237.6,471.2,237.6,469.9,237.6L469.9,237.6z"/>
							<path class="st9" d="M473.9,237.5l0,2c2.6-0.3,5.1-1,7.1-2.2l0-2C479,236.4,476.5,237.2,473.9,237.5L473.9,237.5z"/>
						</g>
					</g>
					<g>
						<path class="st1" d="M429.1,204.7c-5.5,3.1-6.7,10.3-1.2,13.5l33.3,17c5.4,3.2,14.3,3.3,19.8,0.1l6.5-3.7
							c5.5-3.1,5.6-8.3,0.1-11.5l-32.2-19c-5.4-3.2-14.3-3.3-19.8-0.1L429.1,204.7z"/>
					</g>
				</g>
			</g>
			<g>
				<g class="st3">
					<g class="st3">
						<g>
							<path class="st14" d="M392.1,193.9l0,2c0,2.1,1.3,4.1,4,5.7l0-2C393.4,198,392.1,195.9,392.1,193.9L392.1,193.9z"/>
						</g>
					</g>
					<g class="st3">
						<g class="st3">
							<path class="st9" d="M454.2,212.6l0,2c0.2-0.1,0.4-0.2,0.5-0.3l0-2C454.6,212.4,454.4,212.5,454.2,212.6L454.2,212.6z"/>
							<path class="st9" d="M454.7,212.3l0,2c0.9-0.6,1.7-1.2,2.2-1.9l0-2C456.4,211.1,455.7,211.7,454.7,212.3L454.7,212.3z"/>
							<path class="st13" d="M457,210.4l0,2c0.5-0.6,0.8-1.1,1.1-1.7l0-2C457.8,209.2,457.4,209.8,457,210.4L457,210.4z"/>
							<path class="st13" d="M458,208.6l0,2c0.2-0.6,0.3-1.2,0.3-1.8l0-2C458.4,207.5,458.2,208,458,208.6L458,208.6z"/>
						</g>
					</g>
					<g>
						<polygon class="st13" points="395.7,197.2 395.7,199.2 427.9,218.2 427.9,216.2 						"/>
					</g>
					<g>
						<polygon class="st9" points="447.7,216.3 447.7,218.3 454.2,214.6 454.2,212.6 						"/>
					</g>
					<g class="st3">
						<g class="st3">
							<path class="st13" d="M427.9,216.2l0,2c0.8,0.5,1.6,0.9,2.5,1.2l0-2C429.5,217,428.7,216.7,427.9,216.2L427.9,216.2z"/>
							<path class="st13" d="M430.4,217.4l0,2c1,0.4,2,0.6,3,0.8l0-2C432.4,218,431.4,217.7,430.4,217.4L430.4,217.4z"/>
							<path class="st13" d="M433.4,218.2l0,2c1,0.2,2.1,0.3,3.1,0.4l0-2C435.5,218.5,434.5,218.4,433.4,218.2L433.4,218.2z"/>
							<path class="st9" d="M436.6,218.6l0,2c1.3,0.1,2.7,0,4-0.1l0-2C439.3,218.6,437.9,218.7,436.6,218.6L436.6,218.6z"/>
							<path class="st9" d="M440.6,218.5l0,2c2.6-0.3,5.1-1,7.1-2.2l0-2C445.7,217.5,443.2,218.2,440.6,218.5L440.6,218.5z"/>
						</g>
					</g>
					<g>
						<path class="st1" d="M396.9,186c7.2,5.8-6.6,8.1-1.2,11.3l32.2,19c5.4,3.2,14.3,3.3,19.8,0.1l6.5-3.7
							c5.5-3.1,5.6-8.3,0.1-11.5l-32.2-19c-5.4-3.2-14.3-3.3-19.8-0.1L396.9,186z"/>
					</g>
				</g>
			</g>
			<g>
				<g class="st3">
					<g>
						<polygon class="st15" points="473.5,229 473.4,231 472.1,233.9 472.1,231.9 						"/>
					</g>
					<g>
						<polygon class="st16" points="472.1,231.9 472.1,233.9 467.1,234.6 467.1,232.6 						"/>
					</g>
					<g>
						<polygon class="st17" points="467.1,232.6 467.1,234.6 463.4,232.5 463.4,230.5 						"/>
					</g>
					<g>
						<polygon class="st18" points="473.5,229 472.1,231.9 467.1,232.6 463.4,230.5 464.8,227.6 469.8,226.8 						"/>
					</g>
				</g>
			</g>
			<g>
				<g class="st3">
					<g>
						<polygon class="st15" points="487.2,220.9 487.2,222.9 485.8,225.8 485.9,223.8 						"/>
					</g>
					<g>
						<polygon class="st16" points="485.9,223.8 485.8,225.8 480.8,226.6 480.9,224.5 						"/>
					</g>
					<g>
						<polygon class="st17" points="480.9,224.5 480.8,226.6 477.2,224.4 477.2,222.4 						"/>
					</g>
					<g>
						<polygon class="st18" points="487.2,220.9 485.9,223.8 480.9,224.5 477.2,222.4 478.5,219.5 483.5,218.8 						"/>
					</g>
				</g>
			</g>
			<g>
				<g class="st3">
					<g>
						<polygon class="st15" points="405.7,189.7 405.7,191.8 404.4,194.7 404.4,192.6 						"/>
					</g>
					<g>
						<polygon class="st16" points="404.4,192.6 404.4,194.7 399.4,195.4 399.4,193.4 						"/>
					</g>
					<g>
						<polygon class="st17" points="399.4,193.4 399.4,195.4 395.7,193.3 395.7,191.2 						"/>
					</g>
					<g>
						<polygon class="st18" points="405.7,189.7 404.4,192.6 399.4,193.4 395.7,191.2 397.1,188.3 402.1,187.6 						"/>
					</g>
				</g>
			</g>
			<g>
				<g class="st3">
					<g>
						<polygon class="st15" points="418.8,182 418.8,184.1 417.5,187 417.5,184.9 						"/>
					</g>
					<g>
						<polygon class="st16" points="417.5,184.9 417.5,187 412.5,187.7 412.5,185.7 						"/>
					</g>
					<g>
						<polygon class="st17" points="412.5,185.7 412.5,187.7 408.8,185.6 408.8,183.5 						"/>
					</g>
					<g>
						<polygon class="st18" points="418.8,182 417.5,184.9 412.5,185.7 408.8,183.5 410.2,180.6 415.2,179.9 						"/>
					</g>
				</g>
			</g>
		</g>
		<g>
			<g class="st3">
				<g class="st3">
					<g class="st3">
						<path class="st19" d="M446.3,129.7c-1.9-0.2-3.8-0.1-5.8,0.3c-1.9,0.4-3.8,1.2-5.7,2.2l30.8,17.7c1.9-1,3.8-1.7,5.7-2.2
							c2-0.5,4-0.6,5.8-0.3L446.3,129.7z"/>
						<path class="st20" d="M477.1,147.4l-30.8-17.7c0.7,0.1,1.3,0.2,1.9,0.4c0.7,0.2,1.4,0.5,2.1,0.9l30.8,17.7
							c-0.6-0.4-1.3-0.7-2.1-0.9C478.4,147.6,477.8,147.5,477.1,147.4L477.1,147.4z"/>
					</g>
				</g>
				<g>
					<g class="st3">
						<path class="st13" d="M419,147.5c-0.4,0.7-0.9,1.4-1.3,2.1l-47.3,80.8l30.8,17.7l47.3-80.8c0.4-0.7,0.8-1.4,1.3-2.1L419,147.5
							z"/>
						<path class="st13" d="M449.8,165.2L419,147.5c2.4-3.8,5.1-7,7.9-9.6l30.8,17.7C454.9,158.2,452.2,161.5,449.8,165.2
							L449.8,165.2z"/>
						<path class="st21" d="M434.7,132.2c-0.3,0.2-0.6,0.3-1,0.5c-2.3,1.3-4.7,3.1-6.9,5.2l30.8,17.7c2.2-2.1,4.6-3.8,6.9-5.2
							c0.3-0.2,0.6-0.4,1-0.5L434.7,132.2z"/>
					</g>
				</g>
				<g>
					<path class="st9" d="M464.6,150.4c5-2.8,10-3.8,14.4-2.6c9.7,2.6,11.4,22.1,2.9,36.6l-12.3,24.8l-68.4,39l47.3-80.8
						C453.1,159.5,458.8,153.7,464.6,150.4z"/>
				</g>
			</g>
		</g>
		<g>
			<g class="st3">
				<g>
					<g class="st3">
						<path class="st19" d="M464.5,186.6l-6.2-3.6c-3.3-2-5.2-6.1-5.2-11.6l6.2,3.6C459.2,180.5,461.1,184.7,464.5,186.6
							L464.5,186.6z"/>
						<path class="st22" d="M459.2,175l-6.2-3.6c0-1.7,0.2-3.6,0.6-5.5l6.2,3.6C459.4,171.5,459.2,173.3,459.2,175L459.2,175z"/>
					</g>
				</g>
				<g>
					<g class="st3">
						<path class="st19" d="M503.3,39.9c-1.5,0.3-3,0.9-4.4,1.7c-0.3,0.1-0.5,0.3-0.8,0.4l6.2,3.6c0.3-0.1,0.5-0.3,0.8-0.4
							c1.5-0.8,3-1.3,4.4-1.7L503.3,39.9z"/>
						<path class="st23" d="M509.5,43.5l-6.2-3.6c0.3-0.1,0.6-0.1,0.9-0.2c1.2-0.2,2.3-0.2,3.3-0.1l6.2,3.6c-1-0.1-2.1-0.1-3.3,0.1
							C510.1,43.4,509.8,43.5,509.5,43.5L509.5,43.5z"/>
						<path class="st23" d="M513.7,43.3l-6.2-3.6c1.3,0.2,2.4,0.6,3.5,1.2l6.2,3.6C516.2,43.8,515,43.4,513.7,43.3L513.7,43.3z"/>
					</g>
				</g>
				<g>
					<g class="st3">
						<path class="st9" d="M482.1,61.9c-0.5,1.2-0.8,2.4-1.2,3.6l-26.8,98.1c-0.2,0.7-0.4,1.5-0.5,2.2l6.2,3.6
							c0.1-0.7,0.3-1.4,0.5-2.2l26.8-98.1c0.3-1.2,0.7-2.4,1.2-3.6L482.1,61.9z"/>
						<path class="st24" d="M488.3,65.6l-6.2-3.6c1.1-2.8,2.4-5.5,4.1-8l6.2,3.6C490.7,60,489.4,62.7,488.3,65.6L488.3,65.6z"/>
						<path class="st22" d="M492.4,57.5l-6.2-3.6c1.8-2.9,4-5.5,6.3-7.6l6.2,3.6C496.3,52,494.2,54.6,492.4,57.5L492.4,57.5z"/>
						<path class="st25" d="M498.7,49.9l-6.2-3.6c1.8-1.7,3.7-3.1,5.6-4.2l6.2,3.6C502.4,46.7,500.5,48.2,498.7,49.9L498.7,49.9z"/>
					</g>
				</g>
				<g>
					<path class="st1" d="M504.3,45.6c2-1.2,4.1-1.9,6.1-2.3c9.4-1.5,14.3,7.6,10.9,20.4l-26.8,98.1c-2.7,10-9.7,19.3-17.2,23.6
						c-2,1.2-4.1,1.9-6.1,2.3c-9.4,1.5-14.3-7.6-10.9-20.4l26.8-98.1C489.8,59.2,496.8,49.9,504.3,45.6z"/>
				</g>
			</g>
		</g>
		<g>
			<g class="st3">
				<g class="st3">
					<g class="st3">
						<path class="st20" d="M495.8,157.4l-12.7-7.1c-0.3-0.2-0.6-0.3-0.9-0.4l12.7,7.1C495.2,157,495.5,157.2,495.8,157.4
							L495.8,157.4z"/>
						<path class="st20" d="M494.9,156.9l-12.7-7.1c-0.8-0.3-1.7-0.4-2.6-0.4l12.7,7.1C493.2,156.5,494.1,156.6,494.9,156.9
							L494.9,156.9z"/>
						<path class="st21" d="M492.3,156.6l-12.7-7.1c-1.5,0.1-3.1,0.6-4.8,1.6l12.7,7.1C489.1,157.1,490.8,156.6,492.3,156.6
							L492.3,156.6z"/>
					</g>
				</g>
				<g>
					<g class="st3">
						<path class="st13" d="M487.4,158.1l-12.7-7.1c-2.5,1.4-4.8,3.6-6.7,6.2l12.7,7.1C482.6,161.7,484.9,159.5,487.4,158.1
							L487.4,158.1z"/>
						<path class="st13" d="M480.7,164.3l-12.7-7.1c-0.9,1.2-1.7,2.4-2.3,3.7l12.7,7.1C479.1,166.8,479.8,165.5,480.7,164.3
							L480.7,164.3z"/>
						<path class="st13" d="M478.4,168.1l-12.7-7.1c-0.7,1.3-1.2,2.6-1.7,4l12.7,7.1C477.1,170.7,477.7,169.4,478.4,168.1
							L478.4,168.1z"/>
						<path class="st26" d="M476.7,172l-12.7-7.1c-0.7,2.1-1.1,4.3-1.1,6.3c0,3.7,1.3,6.3,3.4,7.6l12.7,7.1
							c-2.1-1.2-3.4-3.9-3.4-7.6C475.6,176.3,476,174.2,476.7,172L476.7,172z"/>
					</g>
				</g>
				<g>
					<path class="st9" d="M487.4,158.1c-6.5,3.7-11.8,12.8-11.8,20.2c0,7.5,5.2,10.5,11.7,6.8c6.5-3.7,11.8-12.7,11.8-20.2
						C499.2,157.5,493.9,154.4,487.4,158.1z"/>
					<path class="st20" d="M484.6,179.5c-1.7,0-2.7-1.4-2.7-3.7c0-3.8,2.8-8.5,6.1-10.4c0.9-0.5,1.7-0.8,2.5-0.8
						c1.7,0,2.7,1.4,2.7,3.7c0,3.8-2.8,8.5-6.1,10.4C486.2,179.3,485.4,179.5,484.6,179.5L484.6,179.5z"/>
				</g>
			</g>
		</g>
		<g>
			<g class="st3">
				<g>
					<g class="st3">
						<path class="st7" d="M390.2,124.3l15.7-9c0,0.8-0.3,1.4-0.8,1.7l-15.7,9C389.8,125.8,390.1,125.2,390.2,124.3L390.2,124.3z"/>
					</g>
				</g>
				<g>
					<g class="st3">
						<path class="st5" d="M373.7,98.5l15.7-9c0.5-0.3,1.2-0.2,1.9,0.2l-15.7,9C374.8,98.3,374.2,98.2,373.7,98.5L373.7,98.5z"/>
					</g>
				</g>
				<g>
					<polygon class="st11" points="390.3,110.4 406,101.4 405.8,115.3 390.2,124.3 					"/>
				</g>
				<g>
					<polygon class="st6" points="375.6,98.7 391.3,89.7 403.3,96.8 387.6,105.8 					"/>
				</g>
				<g>
					<g class="st3">
						<path class="st7" d="M387.6,105.8l15.7-9c1.5,0.9,2.7,2.9,2.6,4.6l-15.7,9C390.3,108.7,389.1,106.6,387.6,105.8L387.6,105.8z"
							/>
					</g>
				</g>
				<g>
					<path class="st8" d="M387.6,105.8c1.5,0.9,2.7,2.9,2.6,4.6l-0.1,13.9c0,1.7-1.2,2.4-2.7,1.5l-12.1-7.1
						c-1.5-0.9-2.7-2.9-2.6-4.6l0.1-13.9c0-1.7,1.2-2.4,2.7-1.5L387.6,105.8z"/>
					<path class="st4" d="M388.7,125.4c-0.2,0-0.4,0-0.8-0.3l-12.1-7.1c-1.2-0.7-2.2-2.5-2.2-3.9l0.1-13.9c0-0.4,0.1-1.1,0.7-1.1
						c0.2,0,0.4,0,0.8,0.3l12.1,7.1c1.2,0.7,2.2,2.5,2.2,3.9l-0.1,13.9C389.3,124.7,389.2,125.4,388.7,125.4z"/>
				</g>
			</g>
		</g>
		<g>
			<g>
				<g class="st3">
					<g class="st3">
						<g class="st3">
							<path class="st27" d="M519.9,52.2l-6.5-3.8c-0.2-0.1-0.5-0.3-0.8-0.4l6.5,3.8C519.4,51.9,519.7,52,519.9,52.2L519.9,52.2z"/>
							<path class="st20" d="M519.2,51.8l-6.5-3.8c-0.7-0.3-1.5-0.4-2.3-0.3l6.5,3.8C517.7,51.4,518.5,51.5,519.2,51.8L519.2,51.8z"
								/>
							<path class="st21" d="M516.9,51.5l-6.5-3.8c-1.3,0.1-2.7,0.5-4.2,1.4l6.5,3.8C514.2,52,515.6,51.5,516.9,51.5L516.9,51.5z"/>
						</g>
					</g>
					<g class="st3">
						<g class="st3">
							<path class="st13" d="M512.7,52.8l-6.5-3.8c-2.2,1.2-4.2,3.1-5.8,5.4l6.5,3.8C508.5,56,510.5,54.1,512.7,52.8L512.7,52.8z"/>
							<path class="st13" d="M506.8,58.2l-6.5-3.8c-0.8,1-1.4,2.1-2,3.2l6.5,3.8C505.4,60.3,506.1,59.3,506.8,58.2L506.8,58.2z"/>
							<path class="st13" d="M504.8,61.5l-6.5-3.8c-0.6,1.1-1.1,2.3-1.5,3.4l6.5,3.8C503.7,63.7,504.2,62.6,504.8,61.5L504.8,61.5z"
								/>
							<path class="st26" d="M503.4,64.9l-6.5-3.8c-0.6,1.8-1,3.7-1,5.5c0,3.2,1.1,5.5,2.9,6.6l6.5,3.8c-1.8-1.1-2.9-3.3-2.9-6.6
								C502.4,68.6,502.7,66.7,503.4,64.9L503.4,64.9z"/>
						</g>
					</g>
					<g>
						<path class="st9" d="M512.7,52.8c-5.6,3.2-10.2,11.1-10.3,17.5s4.5,9.1,10.2,5.9c5.6-3.2,10.2-11.1,10.3-17.5
							C522.9,52.3,518.3,49.6,512.7,52.8z"/>
					</g>
				</g>
			</g>
			<path class="st20" d="M510.2,70.9c-1.4,0-2.3-1.2-2.3-3.2c0-3.3,2.3-7.3,5.2-8.9c0.7-0.4,1.5-0.6,2.1-0.6c1.4,0,2.3,1.2,2.3,3.2
				c0,3.3-2.3,7.3-5.2,8.9C511.6,70.7,510.8,70.9,510.2,70.9L510.2,70.9z"/>
		</g>
	</g>
</g>
<g class="st28">
	<polygon class="st8" points="369.7,189 406.9,169.6 407,169.5 389.8,199.1 	"/>
</g>
<g>
	<g>
		<g>
			<g class="st3">
				<g>
					<polygon class="st6" points="552.1,262.9 583.7,244.5 583.8,207.9 552.2,226.3 					"/>
				</g>
				<g>
					<polygon class="st29" points="552.2,226.3 583.8,207.9 575.4,172.2 543.8,190.6 					"/>
				</g>
				<g>
					<polygon class="st6" points="543.8,190.6 575.4,172.2 561.9,164.4 530.3,182.8 					"/>
				</g>
				<g>
					<polygon class="st5" points="530.3,182.8 530.2,213.5 530.1,250.2 552.1,262.9 552.2,226.3 543.8,190.6 					"/>
				</g>
			</g>
		</g>
		<polygon class="st30" points="576.8,185.8 574.3,174.8 545.7,191.4 548.3,202.2 		"/>
		<polygon class="st31" points="578.8,186.6 583.8,207.9 552.2,226.3 547.2,204.8 		"/>
	</g>
</g>
<g>
	<g>
		<g>
			<g>
				<path class="st8" d="M381.1,108.8c1.9,1.1,3.5,3.8,3.5,6c0,2.2-1.6,3.1-3.5,2c-1.9-1.1-3.5-3.8-3.5-6
					C377.6,108.6,379.2,107.7,381.1,108.8z"/>
			</g>
		</g>
	</g>
</g>
<g class="st123">
	<path class="st124" d="M386.4,409c-13.6,6.8-35.7,6.8-49.3,0L13.8,247.3c-13.6-6.8-13.6-17.8,0-24.6l128.5-64.2
		c13.6-6.8,35.7-6.8,49.3,0l323.4,161.7c13.6,6.8,13.6,17.8,0,24.6L386.4,409z"/>
	<path class="st124" d="M388.9,409c-13.6,6.8-35.7,6.8-49.3,0L16.3,247.3c-13.6-6.8-13.6-17.8,0-24.6l128.5-64.2
		c13.6-6.8,35.7-6.8,49.3,0l323.4,161.7c13.6,6.8,13.6,17.8,0,24.6L388.9,409z"/>
	<path class="st124" d="M391.4,409c-13.6,6.8-35.7,6.8-49.3,0L18.8,247.3c-13.6-6.8-13.6-17.8,0-24.6l128.5-64.2
		c13.6-6.8,35.7-6.8,49.3,0l323.4,161.7c13.6,6.8,13.6,17.8,0,24.6L391.4,409z"/>
	<path class="st124" d="M394,409c-13.6,6.8-35.7,6.8-49.3,0L21.3,247.3c-13.6-6.8-13.6-17.8,0-24.6l128.5-64.2
		c13.6-6.8,35.7-6.8,49.3,0l323.4,161.7c13.6,6.8,13.6,17.8,0,24.6L394,409z"/>
	<path class="st124" d="M396.5,409c-13.6,6.8-35.7,6.8-49.3,0L23.8,247.3c-13.6-6.8-13.6-17.8,0-24.6l128.5-64.2
		c13.6-6.8,35.7-6.8,49.3,0l323.4,161.7c13.6,6.8,13.6,17.8,0,24.6L396.5,409z"/>
	<path class="st124" d="M399,409c-13.6,6.8-35.7,6.8-49.3,0L26.4,247.3c-13.6-6.8-13.6-17.8,0-24.6l128.5-64.2
		c13.6-6.8,35.7-6.8,49.3,0l323.4,161.7c13.6,6.8,13.6,17.8,0,24.6L399,409z"/>
	<path class="st124" d="M401.5,409c-13.6,6.8-35.7,6.8-49.3,0L28.9,247.3c-13.6-6.8-13.6-17.8,0-24.6l128.5-64.2
		c13.6-6.8,35.7-6.8,49.3,0L530,320.1c13.6,6.8,13.6,17.8,0,24.6L401.5,409z"/>
	<path class="st124" d="M404,409c-13.6,6.8-35.7,6.8-49.3,0L31.4,247.3c-13.6-6.8-13.6-17.8,0-24.6l128.5-64.2
		c13.6-6.8,35.7-6.8,49.3,0l323.4,161.7c13.6,6.8,13.6,17.8,0,24.6L404,409z"/>
	<path class="st124" d="M406.6,409c-13.6,6.8-35.7,6.8-49.3,0L33.9,247.3c-13.6-6.8-13.6-17.8,0-24.6l128.5-64.2
		c13.6-6.8,35.7-6.8,49.3,0L535,320.1c13.6,6.8,13.6,17.8,0,24.6L406.6,409z"/>
	<path class="st124" d="M409.1,409c-13.6,6.8-35.7,6.8-49.3,0L36.4,247.3c-13.6-6.8-13.6-17.8,0-24.6l128.5-64.2
		c13.6-6.8,35.7-6.8,49.3,0l323.4,161.7c13.6,6.8,13.6,17.8,0,24.6L409.1,409z"/>
	<path class="st124" d="M411.6,409c-13.6,6.8-35.7,6.8-49.3,0L39,247.3c-13.6-6.8-13.6-17.8,0-24.6l128.5-64.2
		c13.6-6.8,35.7-6.8,49.3,0L540,320.1c13.6,6.8,13.6,17.8,0,24.6L411.6,409z"/>
	<path class="st124" d="M414.1,409c-13.6,6.8-35.7,6.8-49.3,0L41.5,247.3c-13.6-6.8-13.6-17.8,0-24.6l128.5-64.2
		c13.6-6.8,35.7-6.8,49.3,0l323.4,161.7c13.6,6.8,13.6,17.8,0,24.6L414.1,409z"/>
	<path class="st124" d="M416.6,409c-13.6,6.8-35.7,6.8-49.3,0L44,247.3c-13.6-6.8-13.6-17.8,0-24.6l128.5-64.2
		c13.6-6.8,35.7-6.8,49.3,0l323.4,161.7c13.6,6.8,13.6,17.8,0,24.6L416.6,409z"/>
	<path class="st124" d="M419.2,409c-13.6,6.8-35.7,6.8-49.3,0L46.5,247.3c-13.6-6.8-13.6-17.8,0-24.6L175,158.4
		c13.6-6.8,35.7-6.8,49.3,0l323.4,161.7c13.6,6.8,13.6,17.8,0,24.6L419.2,409z"/>
	<path class="st124" d="M421.7,409c-13.6,6.8-35.7,6.8-49.3,0L49,247.3c-13.6-6.8-13.6-17.8,0-24.6l128.5-64.2
		c13.6-6.8,35.7-6.8,49.3,0l323.4,161.7c13.6,6.8,13.6,17.8,0,24.6L421.7,409z"/>
	<path class="st124" d="M424.2,409c-13.6,6.8-35.7,6.8-49.3,0L51.6,247.3c-13.6-6.8-13.6-17.8,0-24.6L180,158.4
		c13.6-6.8,35.7-6.8,49.3,0l323.4,161.7c13.6,6.8,13.6,17.8,0,24.6L424.2,409z"/>
	<path class="st124" d="M426.7,409c-13.6,6.8-35.7,6.8-49.3,0L54.1,247.3c-13.6-6.8-13.6-17.8,0-24.6l128.5-64.2
		c13.6-6.8,35.7-6.8,49.3,0l323.4,161.7c13.6,6.8,13.6,17.8,0,24.6L426.7,409z"/>
</g>
<path class="st57" d="M565.3,332.6c0-0.1,0-0.3,0-0.4v-23.1l-9.4,11.4c-0.3-0.1-0.5-0.3-0.8-0.4L231.8,158.4
	c-13.6-6.8-35.7-6.8-49.3,0l-128,64l-0.8-0.5l-9.9-10.4v23.7c0,0,0,0,0,0c0.1,4.4,3.5,8.8,10.2,12.1L377.4,409
	c13.6,6.8,35.7,6.8,49.3,0l128.4-64.2c6.4-3.2,9.7-7.3,10.1-11.5l0.1-0.1V332.6z"/>
<path class="st58" d="M371.8,382.5v23.6l5.7,2.8c13.6,6.8,35.7,6.8,49.3,0l7.6-3.8l0-0.1l0.1-24.5l-54.6-2.6L371.8,382.5z"/>
<g>
	<g>
		<g>
			<path class="st58" d="M426.7,385.2c-13.6,6.8-35.7,6.8-49.3,0L54.1,223.6c-13.6-6.8-13.6-17.8,0-24.6l128.5-64.2
				c13.6-6.8,35.7-6.8,49.3,0l323.4,161.7c13.6,6.8,13.6,17.8,0,24.6L426.7,385.2z"/>
			<path class="st6" d="M424.5,384.1c-12.4,6.2-32.5,6.2-44.8,0L56.3,222.4c-12.4-6.2-12.4-16.2,0-22.4l128.5-64.2
				c12.4-6.2,32.5-6.2,44.8,0l323.4,161.7c12.4,6.2,12.4,16.2,0,22.4L424.5,384.1z"/>
			<g>
				<polygon class="st30" points="91.8,232.8 250.9,153.2 523.1,289.3 363.9,368.8 				"/>
			</g>
			<g>
				<path class="st56" d="M484.4,333.4c9.1,4.5,9.1,11.9,0,16.4c-9.1,4.5-23.8,4.5-32.9,0c-9.1-4.5-9.1-11.9,0-16.4
					C460.6,328.9,475.3,328.9,484.4,333.4z"/>
				<path class="st6" d="M483.8,333.7c8.7,4.4,8.7,11.4,0,15.8c-8.7,4.4-22.9,4.4-31.6,0c-8.7-4.4-8.7-11.4,0-15.8
					C460.9,329.4,475.1,329.4,483.8,333.7z"/>
			</g>
		</g>
		<polygon class="st57" points="266.5,160.3 106.7,240.2 90.4,232.8 250.9,152.5 		"/>
	</g>
	<path class="st57" d="M250.9,152.5L90.4,232.8l0,0c0,0,1.3,0.7,1.3,0.7l159.1-79.6l271.5,135.7l1.3-0.7L250.9,152.5z"/>
	<g>
		<g>
			<path class="st6" d="M107.3,233.1c0.7,0.4,0.7,0.9,0,1.3c-0.7,0.4-1.9,0.4-2.6,0c-0.7-0.4-0.7-0.9,0-1.3
				C105.4,232.7,106.5,232.7,107.3,233.1z"/>
			<path class="st6" d="M111.7,230.9c0.7,0.4,0.7,0.9,0,1.3c-0.7,0.4-1.9,0.4-2.6,0c-0.7-0.4-0.7-0.9,0-1.3
				C109.8,230.5,111,230.5,111.7,230.9z"/>
			<path class="st6" d="M115.9,228.7c0.7,0.4,0.7,0.9,0,1.3c-0.7,0.4-1.9,0.4-2.6,0c-0.7-0.4-0.7-0.9,0-1.3
				C114.1,228.4,115.2,228.4,115.9,228.7z"/>
			<path class="st6" d="M120.2,226.6c0.7,0.4,0.7,0.9,0,1.3c-0.7,0.4-1.9,0.4-2.6,0c-0.7-0.4-0.7-0.9,0-1.3
				C118.3,226.3,119.5,226.2,120.2,226.6z"/>
			<path class="st6" d="M124.4,224.5c0.7,0.4,0.7,0.9,0,1.3c-0.7,0.4-1.9,0.4-2.6,0c-0.7-0.4-0.7-0.9,0-1.3
				C122.6,224.1,123.7,224.1,124.4,224.5z"/>
		</g>
		<g>
			<g>
				<path class="st6" d="M255,161.1l-10.7,5.3l-5.3-2.6l10.7-5.3L255,161.1z M244.3,165.7l9.3-4.6l-3.9-1.9l-9.3,4.6L244.3,165.7z"
					/>
			</g>
			<polygon class="st59" points="254.5,159.9 253.2,160.5 250.7,159.3 252,158.7 			"/>
			<polygon class="st59" points="250.2,162.3 244.2,165.3 241.1,163.8 247.1,160.8 			"/>
		</g>
		<g>
			<path class="st6" d="M139.1,219.8c0,0.3-0.4,0.5-1,0.5c-0.5,0-1-0.2-0.9-0.5c0-0.3,0.5-0.5,1-0.5
				C138.7,219.4,139.2,219.6,139.1,219.8z"/>
			<path class="st6" d="M138.2,218.5l0-0.5c-2,0-3.6,0.8-3.7,1.8c0,0.1,0,0.1,0,0.2l1,0c0-0.1,0-0.1,0-0.2
				C135.5,219.1,136.8,218.5,138.2,218.5z"/>
			<path class="st6" d="M138.3,217.4l0-0.5c-3.2,0-5.9,1.2-5.9,2.8c0,0.1,0,0.1,0,0.2l1,0c0-0.1,0-0.1,0-0.2
				C133.4,218.5,135.6,217.4,138.3,217.4z"/>
			<path class="st6" d="M138.3,216.1l0-0.5c-4.6,0-8.4,1.8-8.5,4.1c0,0.1,0,0.1,0,0.2l1,0c0-0.1,0-0.1,0-0.2
				C130.9,217.7,134.2,216.1,138.3,216.1z"/>
		</g>
		<g>
			<path class="st6" d="M176,200.3l-0.7,0.3l-3.8-1.9c0,0.1-0.1,0.3-0.2,0.5c-0.1,0.2-0.3,0.4-0.4,0.5l-0.6-0.3
				c0.2-0.3,0.4-0.5,0.4-0.8c0.1-0.3,0.1-0.5,0-0.6l0.4-0.2L176,200.3z"/>
			<path class="st6" d="M180.8,197.3l0.6,0.3l-3.7,1.9c-0.1-0.1-0.3-0.2-0.3-0.2c-0.1-0.2-0.2-0.3-0.2-0.5c0-0.2,0.1-0.5,0.2-0.8
				c0.2-0.5,0.3-0.9,0.2-1.1c0-0.2-0.2-0.4-0.4-0.5c-0.2-0.1-0.5-0.2-0.9-0.2c-0.4,0-0.7,0.1-1,0.3c-0.3,0.2-0.5,0.3-0.5,0.5
				c0,0.2,0.1,0.4,0.4,0.5l-0.8,0.3c-0.4-0.3-0.6-0.5-0.5-0.8c0.1-0.3,0.4-0.5,0.9-0.8c0.5-0.3,1.1-0.4,1.7-0.4c0.6,0,1,0.1,1.4,0.2
				c0.2,0.1,0.3,0.2,0.4,0.4c0.1,0.1,0.1,0.3,0.1,0.5c0,0.2-0.1,0.5-0.2,1c-0.1,0.4-0.2,0.6-0.2,0.7c0,0.1,0,0.2,0,0.3L180.8,197.3z
				"/>
			<path class="st6" d="M179.6,195.7l-0.7-0.3l0.8-0.4l0.7,0.3L179.6,195.7z M182.5,197.1l-0.7-0.3l0.8-0.4l0.7,0.3L182.5,197.1z"/>
			<path class="st6" d="M181.9,195c-0.6-0.3-1-0.6-1.2-0.8c-0.2-0.2-0.3-0.5-0.2-0.7s0.3-0.4,0.7-0.6c0.3-0.2,0.6-0.3,0.9-0.3
				c0.3-0.1,0.7-0.1,1-0.1c0.3,0,0.7,0.1,1.1,0.2c0.4,0.1,0.8,0.3,1.3,0.5c0.6,0.3,1,0.5,1.2,0.8c0.2,0.2,0.3,0.5,0.2,0.7
				c-0.1,0.2-0.3,0.4-0.7,0.7c-0.5,0.3-1.1,0.4-1.8,0.4C183.6,195.7,182.8,195.4,181.9,195z M182.6,194.6c0.8,0.4,1.4,0.6,1.9,0.6
				c0.5,0,0.9,0,1.2-0.2c0.3-0.2,0.4-0.4,0.4-0.6c0-0.2-0.5-0.6-1.3-1c-0.8-0.4-1.4-0.6-1.9-0.6c-0.5,0-0.9,0-1.2,0.2
				c-0.3,0.2-0.5,0.3-0.4,0.6C181.4,193.9,181.8,194.2,182.6,194.6z"/>
			<path class="st6" d="M186.2,192.8c-0.6-0.3-1-0.5-1.2-0.8c-0.2-0.2-0.3-0.5-0.2-0.7c0.1-0.2,0.3-0.4,0.7-0.6
				c0.3-0.2,0.6-0.3,0.9-0.3c0.3-0.1,0.7-0.1,1-0.1c0.3,0,0.7,0.1,1.1,0.2c0.4,0.1,0.8,0.3,1.3,0.5c0.6,0.3,1,0.5,1.2,0.8
				c0.2,0.2,0.3,0.5,0.2,0.7c-0.1,0.2-0.3,0.4-0.7,0.7c-0.5,0.3-1.1,0.4-1.8,0.4C188,193.5,187.1,193.3,186.2,192.8z M186.9,192.5
				c0.8,0.4,1.4,0.6,1.9,0.6c0.5,0,0.9,0,1.2-0.2c0.3-0.2,0.4-0.4,0.4-0.6c0-0.2-0.5-0.6-1.3-1c-0.8-0.4-1.4-0.6-1.9-0.6
				c-0.5,0-0.9,0-1.2,0.2c-0.3,0.2-0.5,0.3-0.4,0.6C185.7,191.7,186.1,192.1,186.9,192.5z"/>
		</g>
	</g>
</g>
<g>
	<g>
		<path class="st56" d="M92.3,260.4c0,2.5-2,3.6-4.6,2.3c-2.5-1.3-4.6-4.3-4.6-6.9c0-0.9,0.3-1.7,0.8-2.1c0.8-0.8,2.2-0.9,3.8-0.1
			C90.3,254.8,92.3,257.9,92.3,260.4z"/>
		<path class="st56" d="M92.5,260.2c0,2.5-2,3.6-4.6,2.3c-2.5-1.3-4.6-4.3-4.6-6.9c0-0.9,0.3-1.7,0.8-2.1c0.8-0.8,2.2-0.9,3.8-0.1
			C90.5,254.6,92.5,257.7,92.5,260.2z"/>
		<path class="st56" d="M92.7,260c0,2.5-2.1,3.6-4.6,2.3c-2.5-1.3-4.6-4.3-4.6-6.9c0-0.9,0.3-1.7,0.8-2.1c0.8-0.8,2.2-0.9,3.8-0.1
			C90.7,254.4,92.7,257.5,92.7,260z"/>
		<path class="st56" d="M92.9,259.8c0,2.5-2.1,3.6-4.6,2.3c-2.5-1.3-4.6-4.3-4.6-6.9c0-0.9,0.3-1.7,0.8-2.1c0.8-0.8,2.2-0.9,3.8-0.1
			C90.8,254.2,92.9,257.3,92.9,259.8z"/>
		<path class="st56" d="M93.1,259.6c0,2.5-2.1,3.6-4.6,2.3c-2.5-1.3-4.6-4.3-4.6-6.9c0-0.9,0.3-1.7,0.8-2.1c0.8-0.8,2.2-0.9,3.8-0.1
			C91,254,93.1,257.1,93.1,259.6z"/>
		<path class="st56" d="M93.3,259.4c0,2.5-2.1,3.6-4.6,2.3c-2.5-1.3-4.6-4.3-4.6-6.9c0-0.9,0.3-1.7,0.8-2.1c0.8-0.8,2.2-0.9,3.8-0.1
			C91.2,253.8,93.3,256.9,93.3,259.4z"/>
		<path class="st56" d="M93.5,259.2c0,2.5-2.1,3.6-4.6,2.3c-2.5-1.3-4.6-4.3-4.6-6.9c0-0.9,0.3-1.7,0.8-2.1c0.8-0.8,2.2-0.9,3.8-0.1
			C91.4,253.6,93.5,256.7,93.5,259.2z"/>
		<path class="st56" d="M93.7,259c0,2.5-2.1,3.6-4.6,2.3c-2.5-1.3-4.6-4.3-4.6-6.9c0-0.9,0.3-1.7,0.8-2.1c0.8-0.8,2.2-0.9,3.8-0.1
			C91.6,253.4,93.7,256.5,93.7,259z"/>
		<path class="st56" d="M93.9,258.8c0,2.5-2.1,3.6-4.6,2.3c-2.5-1.3-4.6-4.3-4.6-6.9c0-0.9,0.3-1.7,0.8-2.1c0.8-0.8,2.2-0.9,3.8-0.1
			C91.8,253.2,93.9,256.3,93.9,258.8z"/>
		<path class="st56" d="M94.1,258.6c0,2.5-2.1,3.6-4.6,2.3c-2.5-1.3-4.6-4.3-4.6-6.9c0-0.9,0.3-1.7,0.8-2.1c0.8-0.8,2.2-0.9,3.8-0.1
			C92,253,94.1,256.1,94.1,258.6z"/>
		<path class="st56" d="M94.2,258.4c0,2.5-2.1,3.6-4.6,2.3c-2.5-1.3-4.6-4.3-4.6-6.9c0-0.9,0.3-1.7,0.8-2.1c0.8-0.8,2.2-0.9,3.8-0.1
			C92.2,252.8,94.2,255.9,94.2,258.4z"/>
		<path class="st56" d="M94.4,258.2c0,2.5-2.1,3.6-4.6,2.3c-2.5-1.3-4.6-4.3-4.6-6.9c0-0.9,0.3-1.7,0.8-2.1c0.8-0.8,2.2-0.9,3.8-0.1
			C92.4,252.6,94.4,255.7,94.4,258.2z"/>
		<path class="st56" d="M94.6,258c0,2.5-2.1,3.6-4.6,2.3c-2.5-1.3-4.6-4.3-4.6-6.9c0-0.9,0.3-1.7,0.8-2.1c0.8-0.8,2.2-0.9,3.8-0.1
			C92.6,252.4,94.6,255.5,94.6,258z"/>
		<path class="st56" d="M94.8,257.8c0,2.5-2.1,3.6-4.6,2.3c-2.5-1.3-4.6-4.3-4.6-6.9c0-0.9,0.3-1.7,0.8-2.1c0.8-0.8,2.2-0.9,3.8-0.1
			C92.8,252.2,94.8,255.3,94.8,257.8z"/>
		<path class="st56" d="M95,257.6c0,2.5-2.1,3.6-4.6,2.3c-2.5-1.3-4.6-4.3-4.6-6.9c0-0.9,0.3-1.7,0.8-2.1c0.8-0.8,2.2-0.9,3.8-0.1
			C93,252,95,255.1,95,257.6z"/>
		<path class="st56" d="M95.2,257.4c0,2.5-2.1,3.6-4.6,2.3c-2.5-1.3-4.6-4.3-4.6-6.9c0-0.9,0.3-1.7,0.8-2.1c0.8-0.8,2.2-0.9,3.8-0.1
			C93.2,251.8,95.2,254.9,95.2,257.4z"/>
		<path class="st56" d="M95.4,257.2c0,2.5-2.1,3.6-4.6,2.3c-2.5-1.3-4.6-4.3-4.6-6.9c0-0.9,0.3-1.7,0.8-2.1c0.8-0.8,2.2-0.9,3.8-0.1
			C93.4,251.6,95.4,254.7,95.4,257.2z"/>
	</g>
	<g>
		<g>
			<path class="st58" d="M95.6,256.9c0,2.5-2,3.6-4.6,2.3c-2.5-1.3-4.6-4.3-4.6-6.9c0-0.9,0.3-1.7,0.8-2.1c0.8-0.8,2.2-0.9,3.8-0.1
				C93.6,251.3,95.6,254.4,95.6,256.9z"/>
			<polygon class="st58" points="85.8,251.7 87.4,250.1 92.9,252.9 94.5,255.9 95,259.1 93.1,260.8 			"/>
		</g>
		<path class="st6" d="M94.2,258.3c0,2.5-2,3.6-4.6,2.3c-2.5-1.3-4.6-4.3-4.6-6.9c0-2.5,2-3.6,4.6-2.3
			C92.2,252.7,94.2,255.8,94.2,258.3z"/>
	</g>
</g>
<g>
	<g>
		<path class="st56" d="M119,273.6c0,2.5-2.1,3.6-4.6,2.3c-2.5-1.3-4.6-4.3-4.6-6.9c0-0.9,0.3-1.7,0.8-2.1c0.8-0.8,2.2-0.9,3.8-0.1
			C116.9,268,119,271.1,119,273.6z"/>
		<path class="st56" d="M119.1,273.4c0,2.5-2.1,3.6-4.6,2.3c-2.5-1.3-4.6-4.3-4.6-6.9c0-0.9,0.3-1.7,0.8-2.1
			c0.8-0.8,2.2-0.9,3.8-0.1C117.1,267.8,119.1,270.9,119.1,273.4z"/>
		<path class="st56" d="M119.3,273.2c0,2.5-2.1,3.6-4.6,2.3c-2.5-1.3-4.6-4.3-4.6-6.9c0-0.9,0.3-1.7,0.8-2.1
			c0.8-0.8,2.2-0.9,3.8-0.1C117.3,267.6,119.3,270.7,119.3,273.2z"/>
		<path class="st56" d="M119.5,273c0,2.5-2.1,3.6-4.6,2.3c-2.5-1.3-4.6-4.3-4.6-6.9c0-0.9,0.3-1.7,0.8-2.1c0.8-0.8,2.2-0.9,3.8-0.1
			C117.5,267.4,119.5,270.5,119.5,273z"/>
		<path class="st56" d="M119.7,272.8c0,2.5-2.1,3.6-4.6,2.3c-2.5-1.3-4.6-4.3-4.6-6.9c0-0.9,0.3-1.7,0.8-2.1
			c0.8-0.8,2.2-0.9,3.8-0.1C117.7,267.2,119.7,270.3,119.7,272.8z"/>
		<path class="st56" d="M119.9,272.6c0,2.5-2.1,3.6-4.6,2.3c-2.5-1.3-4.6-4.3-4.6-6.9c0-0.9,0.3-1.7,0.8-2.1
			c0.8-0.8,2.2-0.9,3.8-0.1C117.9,267,119.9,270.1,119.9,272.6z"/>
		<path class="st56" d="M120.1,272.4c0,2.5-2.1,3.6-4.6,2.3c-2.5-1.3-4.6-4.3-4.6-6.9c0-0.9,0.3-1.7,0.8-2.1
			c0.8-0.8,2.2-0.9,3.8-0.1C118.1,266.8,120.1,269.9,120.1,272.4z"/>
		<path class="st56" d="M120.3,272.2c0,2.5-2.1,3.6-4.6,2.3c-2.5-1.3-4.6-4.3-4.6-6.9c0-0.9,0.3-1.7,0.8-2.1
			c0.8-0.8,2.2-0.9,3.8-0.1C118.3,266.6,120.3,269.7,120.3,272.2z"/>
		<path class="st56" d="M120.5,272c0,2.5-2.1,3.6-4.6,2.3c-2.5-1.3-4.6-4.3-4.6-6.9c0-0.9,0.3-1.7,0.8-2.1c0.8-0.8,2.2-0.9,3.8-0.1
			C118.4,266.4,120.5,269.5,120.5,272z"/>
		<path class="st56" d="M120.7,271.8c0,2.5-2.1,3.6-4.6,2.3c-2.5-1.3-4.6-4.3-4.6-6.9c0-0.9,0.3-1.7,0.8-2.1
			c0.8-0.8,2.2-0.9,3.8-0.1C118.6,266.2,120.7,269.3,120.7,271.8z"/>
		<path class="st56" d="M120.9,271.6c0,2.5-2.1,3.6-4.6,2.3c-2.5-1.3-4.6-4.3-4.6-6.9c0-0.9,0.3-1.7,0.8-2.1
			c0.8-0.8,2.2-0.9,3.8-0.1C118.8,266,120.9,269.1,120.9,271.6z"/>
		<path class="st56" d="M121.1,271.4c0,2.5-2.1,3.6-4.6,2.3c-2.5-1.3-4.6-4.3-4.6-6.9c0-0.9,0.3-1.7,0.8-2.1
			c0.8-0.8,2.2-0.9,3.8-0.1C119,265.8,121.1,268.9,121.1,271.4z"/>
		<path class="st56" d="M121.3,271.2c0,2.5-2.1,3.6-4.6,2.3c-2.5-1.3-4.6-4.3-4.6-6.9c0-0.9,0.3-1.7,0.8-2.1
			c0.8-0.8,2.2-0.9,3.8-0.1C119.2,265.6,121.3,268.7,121.3,271.2z"/>
		<path class="st56" d="M121.5,271c0,2.5-2.1,3.6-4.6,2.3c-2.5-1.3-4.6-4.3-4.6-6.9c0-0.9,0.3-1.7,0.8-2.1c0.8-0.8,2.2-0.9,3.8-0.1
			C119.4,265.4,121.5,268.5,121.5,271z"/>
		<path class="st56" d="M121.7,270.8c0,2.5-2.1,3.6-4.6,2.3c-2.5-1.3-4.6-4.3-4.6-6.9c0-0.9,0.3-1.7,0.8-2.1
			c0.8-0.8,2.2-0.9,3.8-0.1C119.6,265.2,121.7,268.3,121.7,270.8z"/>
		<path class="st56" d="M121.8,270.6c0,2.5-2,3.6-4.6,2.3c-2.5-1.3-4.6-4.3-4.6-6.9c0-0.9,0.3-1.7,0.8-2.1c0.8-0.8,2.2-0.9,3.8-0.1
			C119.8,265,121.8,268.1,121.8,270.6z"/>
		<path class="st56" d="M122,270.4c0,2.5-2,3.6-4.6,2.3c-2.5-1.3-4.6-4.3-4.6-6.9c0-0.9,0.3-1.7,0.8-2.1c0.8-0.8,2.2-0.9,3.8-0.1
			C120,264.8,122,267.9,122,270.4z"/>
	</g>
	<g>
		<g>
			<path class="st58" d="M122.2,270.4c0,2.5-2.1,3.6-4.6,2.3c-2.5-1.3-4.6-4.3-4.6-6.9c0-0.9,0.3-1.7,0.8-2.1
				c0.8-0.8,2.2-0.9,3.8-0.1C120.1,264.8,122.2,267.8,122.2,270.4z"/>
			<polygon class="st58" points="112.3,265.1 113.9,263.5 119.4,266.4 121.1,269.3 121.5,272.5 119.6,274.2 			"/>
		</g>
		<path class="st6" d="M120.8,271.8c0,2.5-2.1,3.6-4.6,2.3c-2.5-1.3-4.6-4.3-4.6-6.9s2-3.6,4.6-2.3
			C118.7,266.2,120.8,269.2,120.8,271.8z"/>
	</g>
</g>
<g>
	<g>
		<path class="st56" d="M146.6,286.7c0,2.5-2,3.6-4.6,2.3c-2.5-1.3-4.6-4.3-4.6-6.9c0-0.9,0.3-1.7,0.8-2.1c0.8-0.8,2.2-0.9,3.8-0.1
			C144.5,281.1,146.6,284.2,146.6,286.7z"/>
		<path class="st56" d="M146.8,286.5c0,2.5-2,3.6-4.6,2.3c-2.5-1.3-4.6-4.3-4.6-6.9c0-0.9,0.3-1.7,0.8-2.1c0.8-0.8,2.2-0.9,3.8-0.1
			C144.7,280.9,146.8,284,146.8,286.5z"/>
		<path class="st56" d="M147,286.3c0,2.5-2,3.6-4.6,2.3c-2.5-1.3-4.6-4.3-4.6-6.9c0-0.9,0.3-1.7,0.8-2.1c0.8-0.8,2.2-0.9,3.8-0.1
			C144.9,280.7,147,283.8,147,286.3z"/>
		<path class="st56" d="M147.1,286.1c0,2.5-2,3.6-4.6,2.3c-2.5-1.3-4.6-4.3-4.6-6.9c0-0.9,0.3-1.7,0.8-2.1c0.8-0.8,2.2-0.9,3.8-0.1
			C145.1,280.5,147.1,283.6,147.1,286.1z"/>
		<path class="st56" d="M147.3,285.9c0,2.5-2,3.6-4.6,2.3c-2.5-1.3-4.6-4.3-4.6-6.9c0-0.9,0.3-1.7,0.8-2.1c0.8-0.8,2.2-0.9,3.8-0.1
			C145.3,280.3,147.3,283.4,147.3,285.9z"/>
		<path class="st56" d="M147.5,285.7c0,2.5-2,3.6-4.6,2.3c-2.5-1.3-4.6-4.3-4.6-6.9c0-0.9,0.3-1.7,0.8-2.1c0.8-0.8,2.2-0.9,3.8-0.1
			C145.5,280.1,147.5,283.2,147.5,285.7z"/>
		<path class="st56" d="M147.7,285.5c0,2.5-2,3.6-4.6,2.3c-2.5-1.3-4.6-4.3-4.6-6.9c0-0.9,0.3-1.7,0.8-2.1c0.8-0.8,2.2-0.9,3.8-0.1
			C145.7,279.9,147.7,283,147.7,285.5z"/>
		<path class="st56" d="M147.9,285.3c0,2.5-2,3.6-4.6,2.3c-2.5-1.3-4.6-4.3-4.6-6.9c0-0.9,0.3-1.7,0.8-2.1c0.8-0.8,2.2-0.9,3.8-0.1
			C145.9,279.7,147.9,282.8,147.9,285.3z"/>
		<path class="st56" d="M148.1,285.1c0,2.5-2,3.6-4.6,2.3c-2.5-1.3-4.6-4.3-4.6-6.9c0-0.9,0.3-1.7,0.8-2.1c0.8-0.8,2.2-0.9,3.8-0.1
			C146.1,279.5,148.1,282.6,148.1,285.1z"/>
		<path class="st56" d="M148.3,284.9c0,2.5-2,3.6-4.6,2.3c-2.5-1.3-4.6-4.3-4.6-6.9c0-0.9,0.3-1.7,0.8-2.1c0.8-0.8,2.2-0.9,3.8-0.1
			C146.3,279.3,148.3,282.4,148.3,284.9z"/>
		<path class="st56" d="M148.5,284.8c0,2.5-2,3.6-4.6,2.3c-2.5-1.3-4.6-4.3-4.6-6.9c0-0.9,0.3-1.7,0.8-2.1c0.8-0.8,2.2-0.9,3.8-0.1
			C146.4,279.1,148.5,282.2,148.5,284.8z"/>
		<path class="st56" d="M148.7,284.6c0,2.5-2,3.6-4.6,2.3c-2.5-1.3-4.6-4.3-4.6-6.9c0-0.9,0.3-1.7,0.8-2.1c0.8-0.8,2.2-0.9,3.8-0.1
			C146.6,278.9,148.7,282,148.7,284.6z"/>
		<path class="st56" d="M148.9,284.4c0,2.5-2,3.6-4.6,2.3c-2.5-1.3-4.6-4.3-4.6-6.9c0-0.9,0.3-1.7,0.8-2.1c0.8-0.8,2.2-0.9,3.8-0.1
			C146.8,278.8,148.9,281.8,148.9,284.4z"/>
		<path class="st56" d="M149.1,284.2c0,2.5-2,3.6-4.6,2.3c-2.5-1.3-4.6-4.3-4.6-6.9c0-0.9,0.3-1.7,0.8-2.1c0.8-0.8,2.2-0.9,3.8-0.1
			C147,278.6,149.1,281.6,149.1,284.2z"/>
		<path class="st56" d="M149.3,284c0,2.5-2,3.6-4.6,2.3c-2.5-1.3-4.6-4.3-4.6-6.9c0-0.9,0.3-1.7,0.8-2.1c0.8-0.8,2.2-0.9,3.8-0.1
			C147.2,278.4,149.3,281.4,149.3,284z"/>
		<path class="st56" d="M149.5,283.8c0,2.5-2,3.6-4.6,2.3c-2.5-1.3-4.6-4.3-4.6-6.9c0-0.9,0.3-1.7,0.8-2.1c0.8-0.8,2.2-0.9,3.8-0.1
			C147.4,278.2,149.5,281.2,149.5,283.8z"/>
		<path class="st56" d="M149.7,283.6c0,2.5-2,3.6-4.6,2.3c-2.5-1.3-4.6-4.3-4.6-6.9c0-0.9,0.3-1.7,0.8-2.1c0.8-0.8,2.2-0.9,3.8-0.1
			C147.6,278,149.7,281,149.7,283.6z"/>
	</g>
	<g>
		<g>
			<path class="st58" d="M149.7,283.6c0,2.5-2,3.6-4.6,2.3c-2.5-1.3-4.6-4.3-4.6-6.9c0-0.9,0.3-1.7,0.8-2.1c0.8-0.8,2.2-0.9,3.8-0.1
				C147.6,278,149.7,281,149.7,283.6z"/>
			<polygon class="st58" points="139.8,278.3 141.4,276.7 146.9,279.6 148.6,282.5 148.8,285.7 147.1,287.4 			"/>
		</g>
		<path class="st6" d="M148.3,284.9c0,2.5-2,3.6-4.6,2.3c-2.5-1.3-4.6-4.3-4.6-6.9c0-2.5,2.1-3.6,4.6-2.3
			C146.2,279.3,148.3,282.4,148.3,284.9z"/>
	</g>
</g>
<g class="st75">
	<polygon class="st61" points="158.1,225.2 285.7,162.2 492.8,265.7 365.3,328.8 	"/>
</g>
<g>
	<g>
		<polygon class="st57" points="188.7,225.5 188.7,219.2 309.4,165.4 514.9,261.9 514.4,267.8 394.7,328.2 		"/>
	</g>
	<g>
		<polygon class="st6" points="188.7,219.2 309.4,159.1 514.9,261.9 394.7,322 		"/>
	</g>
	<g class="st80">
		<polygon class="st30" points="206.3,219.2 311.7,166.6 452.9,236.7 347.5,289.3 		"/>
	</g>
	<g>
		<polygon class="st6" points="338.4,293.5 458,233.6 514.2,261.8 394.6,321.6 		"/>
	</g>
	<g class="st81">
		<polygon class="st30" points="355.1,293.6 396.9,272.1 407.6,277.7 365.9,299.2 		"/>
	</g>
	<g class="st82">
		<polygon class="st30" points="374,302.3 477.3,248.3 482.9,250.5 378.9,304.9 		"/>
	</g>
	<g class="st82">
		<polygon class="st30" points="380.8,306 484.1,251.9 489.7,254.2 385.7,308.5 		"/>
	</g>
</g>
<line class="st83" x1="207.2" y1="233" x2="207.2" y2="246"/>
<line class="st83" x1="347.2" y1="304" x2="347.2" y2="317"/>
<g>
	<g>
		<g>
			<polygon class="st102" points="192.9,148 192.9,140.5 298.2,95.3 439.5,157.9 439.5,165.4 334.1,218.1 			"/>
		</g>
		<g>
			<polygon class="st30" points="192.9,140.5 298.2,87.8 439.5,157.9 334.1,210.6 			"/>
		</g>
	</g>
	<g>
		<g>
			<g>
				<g class="st3">
					<defs>
						<polygon id="SVGID_57_" class="st3" points="325.2,177.8 251.6,140.2 302.4,114.3 375.9,152 						"/>
					</defs>
					<clipPath id="SVGID_2_">
						<use xlink:href="#SVGID_57_"  style="overflow:visible;"/>
					</clipPath>
					<g style="clip-path:url(#SVGID_2_);">
						<g>
							<g>
								<g>
									<path class="st85" d="M295.8,119.3c-3.2,1.6-6.5,3.9-8.2,6.6c-1.6,2.6-1.9,5.8,0.8,9.4c0.3,0,0.7-0.1,1.1-0.2l12.8-18.5
										c-0.3,0.1-0.6,0.2-1,0.4C299.9,117.4,297.9,118.2,295.8,119.3"/>
									<path class="st30" d="M302.4,116.5l-12.8,18.5c0.4-0.1,0.7-0.1,1.2-0.2c1.9-0.4,4.5-1.2,7-2.4c2.7-1.4,5.3-3.4,6.8-6.3
										c2.7-5.3-0.3-8.6-1.6-9.8C302.7,116.4,302.6,116.5,302.4,116.5"/>
									<path class="st29" d="M267.6,136.4c-0.4,0.2-0.4,0.5-0.1,0.8c0.4,0.3,1.1,0.3,1.6,0.1c3.3-1.3,6.9-1.7,10.7-1.6
										c5.6,0.2,11.3,1.8,15.8,3.4c2.2,0.8,4.2,1.6,5.6,2.2c0.7,0,1.4,0.1,2.1,0.1c-0.1-0.3-0.2-0.6-0.2-0.8
										c-2.5-1.1-6.5-2.8-11.3-4.1c-0.5-0.1-1.1-0.3-1.6-0.4c-1.3,0.2-2.2,0.3-2.2,0.3l-0.9,0.1l-0.3-0.4
										c-0.2-0.3-0.4-0.6-0.6-0.9c-2-0.3-4.1-0.6-6.2-0.7C275.8,134.4,271.5,134.9,267.6,136.4
										C267.7,136.4,267.7,136.4,267.6,136.4"/>
									<path class="st72" d="M297.8,155.5l-4,1.1c-1.9-1.7-2.8-3.7-2.4-5.6c0.2-1,0.7-1.9,1.5-2.8c0.8-0.9,1.9-1.6,3.2-2.3
										l3.4,1.7c-1,0.5-1.8,1.1-2.4,1.7c-0.6,0.6-1,1.3-1.1,2C295.7,152.9,296.4,154.3,297.8,155.5 M310.6,134
										c-4.4,2.2-6.5,5.5-4.7,8l0.8,1.1l-2.1-0.4c-5.1-0.9-11.4,0.1-15.8,2.4c0,0,0,0,0,0c-2.3,1.2-4.1,2.7-4.8,4.3
										c-0.7,1.6-0.5,3.4,1.2,5.2c1.5,1.6,3.4,2.9,5.7,4.1c9,4.6,23.4,6.7,32.3,8.4c3,0.6,5.4,1.1,6.9,1.8
										c1.5,0.7,3.1,0.9,4.7,0.8c1.6-0.1,3.1-0.5,4.2-1.1c0,0,0,0,0,0c0,0,0,0,0,0c1.2-0.6,1.9-1.4,1.8-2.1l0-0.5l0.9-0.1
										c3.1-0.3,4.9-0.8,6.1-1.4l0.3-0.2l0.1,0l0,0l0.4-0.2c1.1-0.6,2.2-1.5,2.7-3.1l0.2-0.5l0.9,0c1.3,0,2.9-0.3,4.1-0.9
										c0,0,0,0,0,0c0,0,0,0,0,0c1.1-0.6,1.9-1.4,2.1-2.2c0.2-0.8-0.2-1.6-1.5-2.4c-1.3-0.8-2.3-2-3.5-3.5
										c-1.1-1.5-2.3-3.3-3.7-5.3c-2.8-3.9-6.7-8.2-12.7-11.2c-2.3-1.2-4.9-2.2-8-2.9l0.4-0.5l-0.4,0.5c-3.5-0.9-7-1-10.2-0.6
										C315.8,132,312.9,132.8,310.6,134"/>
									<path class="st29" d="M309,133.2c-3.9,2-6.3,4.7-5.9,7.4c0,0.3,0.1,0.6,0.2,0.8c-0.7-0.1-1.4-0.1-2.1-0.1
										c-5.1-0.1-10.3,1.1-14.1,3c-2.6,1.3-4.5,3-5.4,4.8c-0.8,1.9-0.5,3.9,1.4,6c1.6,1.7,3.7,3.1,6.2,4.4
										c6.5,3.3,15.1,5.3,22.8,6.8c3.8,0.7,7.4,1.3,10.3,1.9c2.9,0.6,5.2,1.1,6.2,1.6c2,0.9,4.3,1.2,6.5,1.1
										c2.1-0.1,4-0.7,5.5-1.4c1.3-0.7,2.2-1.5,2.4-2.4c2.9-0.3,5-0.9,6.4-1.6c0.1-0.1,0.3-0.1,0.4-0.2c0.1-0.1,0.3-0.1,0.4-0.2
										c1.4-0.7,2.5-1.7,3.1-3.2c1.8-0.1,3.4-0.6,4.7-1.2c1.4-0.7,2.5-1.7,2.7-2.8c0.3-1.1-0.3-2.3-2.1-3.3c-0.9-0.5-2-1.7-3-3.2
										c-3.3-4.5-7.3-12-16.9-16.9c-2.5-1.3-5.3-2.4-8.6-3.2l-0.4,0.5l-0.4,0.5c3,0.8,5.7,1.8,8,2.9c6,3.1,9.8,7.4,12.7,11.2
										c1.4,1.9,2.6,3.8,3.7,5.3c1.1,1.5,2.1,2.7,3.5,3.5c1.3,0.8,1.7,1.6,1.5,2.4c-0.2,0.8-1,1.6-2.1,2.2c0,0,0,0,0,0
										c0,0,0,0,0,0c-1.2,0.6-2.7,1-4.1,0.9l-0.9,0l-0.2,0.5c-0.5,1.6-1.6,2.5-2.7,3.1l-0.4,0.2l0,0l-0.1,0l-0.3,0.2
										c-1.2,0.6-3,1.1-6.1,1.4l-0.9,0.1l0,0.5c0.1,0.7-0.6,1.5-1.8,2.1c0,0,0,0,0,0c0,0,0,0,0,0c-1.1,0.6-2.7,1-4.2,1.1
										c-1.6,0.1-3.2-0.1-4.7-0.8c-1.5-0.7-3.9-1.2-6.9-1.8c-8.9-1.7-23.3-3.8-32.3-8.4c-2.3-1.2-4.3-2.5-5.7-4.1
										c-1.7-1.8-2-3.6-1.2-5.2c0.7-1.6,2.5-3.1,4.8-4.3c0,0,0,0,0,0c4.4-2.2,10.7-3.3,15.8-2.4l2.1,0.4l-0.8-1.1
										c-1.8-2.6,0.3-5.8,4.7-8c2.3-1.2,5.3-2.1,8.5-2.5c3.2-0.4,6.7-0.2,10.2,0.6l0.4-0.5l0.4-0.5c-4-1-8-1.2-11.7-0.7
										C314.8,130.9,311.6,131.9,309,133.2"/>
									<path class="st29" d="M288.4,135.3c-2.7-3.6-2.5-6.8-0.8-9.4c1.7-2.7,5-5,8.2-6.6c2.1-1,4.1-1.8,5.5-2.4
										c0.4-0.1,0.7-0.2,1-0.4c0.2-0.1,0.4-0.1,0.5-0.2c1.3,1.1,4.3,4.5,1.6,9.8c-1.5,2.9-4.1,4.9-6.8,6.3c-2.5,1.3-5,2-7,2.4
										c-0.4,0.1-0.8,0.2-1.2,0.2C289.1,135.2,288.7,135.2,288.4,135.3 M294.2,118.5c-3.3,1.7-6.9,4.1-8.7,7
										c-1.7,2.8-2,6.1,0.6,9.8c0.2,0.3,0.4,0.6,0.6,0.9l0.3,0.4l0.9-0.1c0,0,0.9-0.1,2.2-0.3c2.2-0.4,5.7-1.3,9-3c0,0,0,0,0,0
										c2.9-1.5,5.7-3.7,7.3-6.7c1.8-3.5,1.2-6.3,0.2-8.2c-1.1-1.9-2.6-2.9-2.7-3l-0.6-0.4l-0.8,0.2
										C302.6,115.1,298.5,116.3,294.2,118.5"/>
									<path class="st6" d="M296.2,146c-1.3,0.7-2.4,1.5-3.2,2.3c-0.8,0.9-1.3,1.8-1.5,2.8c-0.4,2,0.5,4,2.4,5.6l4-1.1
										c-1.4-1.2-2.1-2.7-1.7-4.1c0.2-0.7,0.5-1.4,1.1-2c0.6-0.6,1.4-1.2,2.4-1.7L296.2,146"/>
								</g>
							</g>
						</g>
					</g>
				</g>
			</g>
		</g>
	</g>
</g>
<g class="st105">
	<polygon class="st61" points="482.4,209.8 504,200.8 530.2,213.3 530.2,235.7 	"/>
</g>
<g>
	<g>
		<g>
			<g>
				<path class="st8" d="M380.8,109.7c1.6,0.9,2.8,3.1,2.8,4.9c0,1.8-1.3,2.5-2.8,1.6c-1.6-0.9-2.8-3.1-2.8-4.9
					C378,109.6,379.2,108.8,380.8,109.7z"/>
			</g>
		</g>
		<g>
			<g class="st3">
				<path class="st106" d="M380.3,110.7c-0.4-0.2-0.8-0.2-1.1,0l-8.8,5.1c0.3-0.2,0.7-0.2,1.1,0c0.1,0,0.2,0.1,0.3,0.1l8.8-5.1
					C380.5,110.8,380.4,110.8,380.3,110.7z"/>
				<g class="st3">
					<g class="st3">
						<path class="st107" d="M371.8,116l8.8-5.1c1,0.6,1.8,1.8,1.9,2.9l-8.8,5.1C373.6,117.8,372.8,116.5,371.8,116L371.8,116z"/>
						<path class="st108" d="M373.8,118.9l8.8-5.1c0,0.2,0,0.3,0,0.5c0,0.6-0.2,1.1-0.6,1.3l-8.8,5.1c0.4-0.2,0.6-0.7,0.6-1.3
							C373.8,119.2,373.8,119.1,373.8,118.9L373.8,118.9z"/>
					</g>
				</g>
				<g>
					<path class="st10" d="M371.8,116c1.1,0.6,2,2.2,2,3.4c0,1.3-0.9,1.8-2,1.1c-1.1-0.6-2-2.2-2-3.4
						C369.8,115.8,370.7,115.3,371.8,116z"/>
				</g>
			</g>
		</g>
		<g>
			<g class="st3">
				<g>
					<polygon class="st125" points="347.5,125.2 343.4,122.8 343.4,123.9 347.5,126.3 					"/>
				</g>
				<g>
					<polygon class="st126" points="356.7,119.8 352.6,117.5 343.4,122.8 347.5,125.2 					"/>
				</g>
				<g>
					<polygon class="st127" points="347.5,125.2 347.5,126.3 356.7,121 356.7,119.8 					"/>
				</g>
			</g>
			<g class="st3">
				<g>
					<polygon class="st128" points="372.2,135.1 368.1,132.8 368.1,133.9 372.2,136.3 					"/>
				</g>
				<g>
					<polygon class="st129" points="372.2,136.3 368.1,133.9 363,136.9 367.1,139.3 					"/>
				</g>
				<g>
					<polygon class="st129" points="372.2,135.1 368.1,132.8 363,135.7 367.1,138.1 					"/>
				</g>
				<g>
					<polygon class="st129" points="367.1,138.1 363,135.7 358.5,138.3 362.5,140.7 					"/>
				</g>
				<g>
					<polygon class="st1" points="362.5,140.7 358.5,138.3 358.5,139.5 362.5,141.9 					"/>
				</g>
				<g>
					<polygon class="st113" points="362.5,140.7 362.5,141.9 367.1,139.3 372.2,136.3 372.2,135.1 367.1,138.1 					"/>
				</g>
				<g>
					<polygon class="st129" points="369.1,134 365,131.6 363,132.8 367,135.1 					"/>
				</g>
				<g>
					<polygon class="st128" points="367,135.1 363,132.8 363,135.7 367.1,138.1 					"/>
				</g>
				<g>
					<polygon class="st129" points="369.1,130.4 365,128 363,129.2 367,131.6 					"/>
				</g>
				<g>
					<polygon class="st129" points="367,131.6 363,129.2 352.7,135.2 356.8,137.5 					"/>
				</g>
				<g>
					<polygon class="st128" points="367,113.9 362.9,111.5 363,129.2 367,131.6 					"/>
				</g>
				<g>
					<polygon class="st129" points="369,112.7 365,110.3 362.9,111.5 367,113.9 					"/>
				</g>
				<g>
					<polygon class="st128" points="372.1,103.2 368,100.9 368,102.1 372.1,104.4 					"/>
				</g>
				<g>
					<polygon class="st113" points="372.1,103.2 372.1,104.4 367,107.4 367,110.3 369,109.2 369,112.7 367,113.9 367,131.6 
						369.1,130.4 369.1,134 367,135.1 367.1,138.1 372.2,135.1 372.2,136.3 367.1,139.3 372.2,136.3 376.1,126.2 376,108.8 					"/>
				</g>
				<g>
					<polygon class="st129" points="372.1,104.4 368,102.1 362.9,105 367,107.4 					"/>
				</g>
				<g>
					<polygon class="st128" points="367,107.4 362.9,105 362.9,108 367,110.3 					"/>
				</g>
				<g>
					<polygon class="st1" points="347.5,121.6 343.4,119.2 343.4,122.8 347.5,125.2 					"/>
				</g>
				<g>
					<polygon class="st9" points="367,110.3 362.9,108 343.4,119.2 347.5,121.6 					"/>
				</g>
				<g>
					<polygon class="st113" points="347.5,121.6 347.5,125.2 356.7,119.8 367,113.9 369,112.7 369,109.2 367,110.3 					"/>
				</g>
				<g>
					<polygon class="st1" points="362.5,108.8 358.4,106.5 358.4,107.6 362.5,110 					"/>
				</g>
				<g>
					<polygon class="st113" points="362.5,108.8 362.5,110 367,107.4 372.1,104.4 372.1,103.2 					"/>
				</g>
				<g>
					<polygon class="st9" points="372.1,103.2 368,100.9 358.4,106.5 362.5,108.8 					"/>
				</g>
			</g>
		</g>
	</g>
</g>
<polygon class="st30" points="362.5,119.7 377.4,127.1 374.7,140.2 357.5,145.2 348.6,139.9 344.7,131.2 "/>
</svg>
