<?xml version="1.0" encoding="utf-8"?>
<!-- Generator: Adobe Illustrator 19.1.0, SVG Export Plug-In . SVG Version: 6.00 Build 0)  -->
<svg version="1.1" id="Layer_1" xmlns="http://www.w3.org/2000/svg" xmlns:xlink="http://www.w3.org/1999/xlink" x="0px" y="0px"
	 viewBox="0 0 569.3 292" style="enable-background:new 0 0 569.3 292;" xml:space="preserve">
<style type="text/css">
	.st0{fill:#6077DF;}
	.st1{fill:#FFCA00;}
	.st2{fill:#035E87;}
	.st3{enable-background:new    ;}
	.st4{fill:#BDBDBD;}
	.st5{fill:#C9C9C9;}
	.st6{fill:#FFFFFF;}
	.st7{fill:#EBEBEB;}
	.st8{fill:#999999;}
	.st9{fill:#FFB300;}
	.st10{fill:#3C3D00;}
	.st11{fill:#F5F5F5;}
	.st12{fill:#212221;}
	.st13{fill:#F2A012;}
	.st14{fill:#D68E10;}
	.st15{fill:#4B4B4B;}
	.st16{fill:#4F4F4F;}
	.st17{fill:#333333;}
	.st18{fill:#484848;}
	.st19{fill:#DE8E11;}
	.st20{fill:#D68910;}
	.st21{fill:#EB9611;}
	.st22{fill:#EDA800;}
	.st23{fill:#BF7B0F;}
	.st24{fill:#F5AE02;}
	.st25{fill:#F29B12;}
	.st26{fill:#E89A11;}
	.st27{fill:#A11D11;}
	.st28{opacity:0.18;}
	.st29{fill:#415464;}
	.st30{fill:#4CDAB0;}
	.st31{fill:#E0E0E0;}
	.st32{opacity:0.75;fill:#3A4F9B;}
	.st33{opacity:0.27;fill:#375056;}
	.st34{fill:#BA8B75;}
	.st35{fill:#242424;}
	.st36{fill:#2B3E4F;}
	.st37{fill:#DCDCDC;}
	.st38{fill:#DEB09D;}
	.st39{fill:#EBF1F5;}
	.st40{fill:#025074;}
	.st41{fill:#E9AE93;}
	.st42{fill:#291222;}
	.st43{fill:#3E1C33;}
	.st44{fill:#E9C2B0;}
	.st45{fill:#F9CFB3;}
	.st46{clip-path:url(#SVGID_2_);enable-background:new    ;}
	.st47{fill:#AA2A41;}
	.st48{fill:#D43451;}
	.st49{fill:#FF3F61;}
	.st50{fill:#9F273C;}
	.st51{fill:none;stroke:#6AEFC3;stroke-miterlimit:10;}
	.st52{fill:none;stroke:#6AEFC3;stroke-miterlimit:10;stroke-dasharray:5.915,5.915;}
	.st53{fill:none;stroke:#6AEFC3;stroke-miterlimit:10;stroke-dasharray:6.0713,6.0713;}
	.st54{fill:none;stroke:#6AEFC3;stroke-miterlimit:10;stroke-dasharray:5.9151,5.9151;}
	.st55{fill:none;stroke:#6AEFC3;stroke-miterlimit:10;stroke-dasharray:6.0712,6.0712;}
	.st56{fill:#CCCCCC;}
	.st57{fill:#E6E6E6;}
	.st58{fill:#F2F2F2;}
	.st59{fill-rule:evenodd;clip-rule:evenodd;fill:#FFFFFF;}
	.st60{opacity:0.27;}
	.st61{fill:#375056;}
	.st62{fill:#6EC6E6;}
	.st63{opacity:0.17;}
	.st64{fill:#28A7C9;}
	.st65{fill:#ADECF7;}
	.st66{clip-path:url(#SVGID_4_);}
	.st67{fill:#FEC363;}
	.st68{fill:#353F49;}
	.st69{fill:#474F59;}
	.st70{clip-path:url(#SVGID_6_);}
	.st71{fill:#A3A3EF;}
	.st72{fill:#BABAF4;}
	.st73{clip-path:url(#SVGID_8_);}
	.st74{fill:#F2B50A;}
	.st75{opacity:0.15;}
	.st76{fill:#97723F;}
	.st77{fill:#856231;}
	.st78{fill:#BD553D;}
	.st79{fill:#3E626A;}
	.st80{opacity:0.3;}
	.st81{opacity:0.42;}
	.st82{opacity:0.5;}
	.st83{fill:none;stroke:#6AEFC3;stroke-miterlimit:10;stroke-dasharray:6,6;}
	.st84{clip-path:url(#SVGID_10_);}
	.st85{fill:#3FBC92;}
	.st86{fill:#FDFFFE;}
	.st87{fill:#2B0D04;}
	.st88{fill:#134663;}
	.st89{fill:#DEF3EE;}
	.st90{clip-path:url(#SVGID_12_);enable-background:new    ;}
	.st91{clip-path:url(#SVGID_14_);}
	.st92{clip-path:url(#SVGID_16_);}
	.st93{clip-path:url(#SVGID_18_);}
	.st94{clip-path:url(#SVGID_20_);enable-background:new    ;}
	.st95{clip-path:url(#SVGID_22_);}
	.st96{clip-path:url(#SVGID_24_);}
	.st97{clip-path:url(#SVGID_26_);}
	.st98{clip-path:url(#SVGID_28_);enable-background:new    ;}
	.st99{clip-path:url(#SVGID_30_);}
	.st100{clip-path:url(#SVGID_32_);}
	.st101{clip-path:url(#SVGID_34_);}
	.st102{fill:#2FB286;}
	.st103{clip-path:url(#SVGID_36_);}
	.st104{clip-path:url(#SVGID_38_);}
	.st105{opacity:0.2;}
	.st106{fill:#585858;}
	.st107{fill:#616161;}
	.st108{fill:#505050;}
	.st109{fill:#414141;}
	.st110{fill:#232423;}
	.st111{fill:#424342;}
	.st112{fill:#C27508;}
	.st113{fill:#F0910A;}
	.st114{fill:#3E3F3E;}
	.st115{fill:#2F302F;}
	.st116{fill:#1F1F1F;}
	.st117{fill:#272727;}
	.st118{fill:#1E1E1E;}
	.st119{clip-path:url(#SVGID_40_);enable-background:new    ;}
	.st120{clip-path:url(#SVGID_42_);}
	.st121{clip-path:url(#SVGID_44_);}
	.st122{clip-path:url(#SVGID_46_);}
	.st123{opacity:0.75;}
	.st124{fill:#3A4F9B;}
	.st125{fill:#2E2F2E;}
	.st126{fill:#303130;}
	.st127{fill:#3D3E3D;}
	.st128{fill:#A26207;}
	.st129{fill:#A86507;}
	.st130{clip-path:url(#SVGID_48_);}
	.st131{clip-path:url(#SVGID_50_);}
	.st132{opacity:0.7656;fill:#3A4F9B;}
	.st133{opacity:0.7812;fill:#3A4F9B;}
	.st134{opacity:0.7969;fill:#3A4F9B;}
	.st135{opacity:0.8125;fill:#3A4F9B;}
	.st136{opacity:0.8281;fill:#3A4F9B;}
	.st137{opacity:0.8438;fill:#3A4F9B;}
	.st138{opacity:0.8594;fill:#3A4F9B;}
	.st139{opacity:0.875;fill:#3A4F9B;}
	.st140{opacity:0.8906;fill:#3A4F9B;}
	.st141{opacity:0.9062;fill:#3A4F9B;}
	.st142{opacity:0.9219;fill:#3A4F9B;}
	.st143{opacity:0.9375;fill:#3A4F9B;}
	.st144{opacity:0.9531;fill:#3A4F9B;}
	.st145{opacity:0.9688;fill:#3A4F9B;}
	.st146{opacity:0.9844;fill:#3A4F9B;}
	.st147{clip-path:url(#SVGID_52_);}
	.st148{clip-path:url(#SVGID_54_);}
	.st149{clip-path:url(#SVGID_56_);}
	.st150{clip-path:url(#SVGID_58_);}
	.st151{clip-path:url(#SVGID_60_);enable-background:new    ;}
	.st152{clip-path:url(#SVGID_62_);}
	.st153{clip-path:url(#SVGID_64_);}
	.st154{clip-path:url(#SVGID_66_);}
	.st155{clip-path:url(#SVGID_68_);}
	.st156{clip-path:url(#SVGID_70_);enable-background:new    ;}
	.st157{clip-path:url(#SVGID_72_);enable-background:new    ;}
	.st158{clip-path:url(#SVGID_74_);}
	.st159{clip-path:url(#SVGID_76_);}
	.st160{clip-path:url(#SVGID_78_);}
	.st161{clip-path:url(#SVGID_80_);}
	.st162{clip-path:url(#SVGID_82_);}
	.st163{clip-path:url(#SVGID_84_);}
</style>
<g class="st123">
	<path class="st124" d="M12.4,121.6c-13.6-6.8-13.6-17.8,0-24.6l128.5-64.2c13.6-6.8,35.7-6.8,49.3,0l323.4,161.7
		c13.6,6.8,13.6,17.8,0,24.6l-128.4,64.2c-13.6,6.8-35.7,6.8-49.3,0"/>
	<path class="st124" d="M14.9,121.6c-13.6-6.8-13.6-17.8,0-24.6l128.5-64.2c13.6-6.8,35.7-6.8,49.3,0L516,194.4
		c13.6,6.8,13.6,17.8,0,24.6l-128.4,64.2c-13.6,6.8-35.7,6.8-49.3,0l-20.2-10.1"/>
	<path class="st124" d="M17.5,121.6c-13.6-6.8-13.6-17.8,0-24.6l128.5-64.2c13.6-6.8,35.7-6.8,49.3,0l323.4,161.7
		c13.6,6.8,13.6,17.8,0,24.6l-128.4,64.2c-13.6,6.8-35.7,6.8-49.3,0l-40.4-20.2"/>
	<path class="st124" d="M20,121.6C6.4,114.8,6.4,103.8,20,97l128.5-64.2c13.6-6.8,35.7-6.8,49.3,0l323.4,161.7
		c13.6,6.8,13.6,17.8,0,24.6l-128.4,64.2c-13.6,6.8-35.7,6.8-49.3,0L282.7,253"/>
	<path class="st124" d="M22.5,121.6c-13.6-6.8-13.6-17.8,0-24.6l128.5-64.2c13.6-6.8,35.7-6.8,49.3,0l323.4,161.7
		c13.6,6.8,13.6,17.8,0,24.6l-128.4,64.2c-13.6,6.8-35.7,6.8-49.3,0L265,242.9"/>
	<path class="st124" d="M25,121.6c-13.6-6.8-13.6-17.8,0-24.6l128.5-64.2c13.6-6.8,35.7-6.8,49.3,0l323.4,161.7
		c13.6,6.8,13.6,17.8,0,24.6l-128.4,64.2c-13.6,6.8-35.7,6.8-49.3,0l-101-50.5"/>
	<path class="st124" d="M27.5,121.6c-13.6-6.8-13.6-17.8,0-24.6L156,32.7c13.6-6.8,35.7-6.8,49.3,0l323.4,161.7
		c13.6,6.8,13.6,17.8,0,24.6l-128.4,64.2c-13.6,6.8-35.7,6.8-49.3,0l-121.3-60.6"/>
	<path class="st124" d="M30.1,121.6c-13.6-6.8-13.6-17.8,0-24.6l128.5-64.2c13.6-6.8,35.7-6.8,49.3,0l323.4,161.7
		c13.6,6.8,13.6,17.8,0,24.6l-128.4,64.2c-13.6,6.8-35.7,6.8-49.3,0l-141.5-70.7"/>
	<path class="st124" d="M32.6,121.6C19,114.8,19,103.8,32.6,97L161,32.7c13.6-6.8,35.7-6.8,49.3,0l323.4,161.7
		c13.6,6.8,13.6,17.8,0,24.6l-128.4,64.2c-13.6,6.8-35.7,6.8-49.3,0l-161.7-80.8"/>
	<path class="st124" d="M35.1,121.6c-13.6-6.8-13.6-17.8,0-24.6l128.5-64.2c13.6-6.8,35.7-6.8,49.3,0l323.4,161.7
		c13.6,6.8,13.6,17.8,0,24.6l-128.4,64.2c-13.6,6.8-35.7,6.8-49.3,0l-181.9-90.9"/>
	<path class="st124" d="M37.6,121.6C24,114.8,24,103.8,37.6,97l128.5-64.2c13.6-6.8,35.7-6.8,49.3,0l323.4,161.7
		c13.6,6.8,13.6,17.8,0,24.6l-128.4,64.2c-13.6,6.8-35.7,6.8-49.3,0l-202.1-101"/>
	<path class="st124" d="M40.1,121.6c-13.6-6.8-13.6-17.8,0-24.6l128.5-64.2c13.6-6.8,35.7-6.8,49.3,0l323.4,161.7
		c13.6,6.8,13.6,17.8,0,24.6l-128.4,64.2c-13.6,6.8-35.7,6.8-49.3,0L141.2,172.1"/>
	<path class="st124" d="M42.7,121.6c-13.6-6.8-13.6-17.8,0-24.6l128.5-64.2c13.6-6.8,35.7-6.8,49.3,0l323.4,161.7
		c13.6,6.8,13.6,17.8,0,24.6l-128.4,64.2c-13.6,6.8-35.7,6.8-49.3,0L123.5,162"/>
	<path class="st124" d="M45.2,121.6c-13.6-6.8-13.6-17.8,0-24.6l128.5-64.2c13.6-6.8,35.7-6.8,49.3,0l323.4,161.7
		c13.6,6.8,13.6,17.8,0,24.6l-128.4,64.2c-13.6,6.8-35.7,6.8-49.3,0L105.8,151.9"/>
	<path class="st124" d="M47.7,121.6c-13.6-6.8-13.6-17.8,0-24.6l128.5-64.2c13.6-6.8,35.7-6.8,49.3,0l323.4,161.7
		c13.6,6.8,13.6,17.8,0,24.6l-128.4,64.2c-13.6,6.8-35.7,6.8-49.3,0L88.1,141.8"/>
	<path class="st124" d="M50.2,121.6c-13.6-6.8-13.6-17.8,0-24.6l128.5-64.2c13.6-6.8,35.7-6.8,49.3,0l323.4,161.7
		c13.6,6.8,13.6,17.8,0,24.6l-128.4,64.2c-13.6,6.8-35.7,6.8-49.3,0L70.4,131.7"/>
	<path class="st124" d="M425.4,283.3c-13.6,6.8-35.7,6.8-49.3,0L52.7,121.6c-13.6-6.8-13.6-17.8,0-24.6l128.5-64.2
		c13.6-6.8,35.7-6.8,49.3,0l323.4,161.7c13.6,6.8,13.6,17.8,0,24.6L425.4,283.3z"/>
</g>
<path class="st57" d="M564,206.9c0-0.1,0-0.3,0-0.4v-23.1l-9.4,11.4c-0.3-0.1-0.5-0.3-0.8-0.4L230.5,32.7c-13.6-6.8-35.7-6.8-49.3,0
	l-128,64l-0.8-0.5l-9.9-10.4v23.7c0,0,0,0,0,0c0.1,4.4,3.5,8.8,10.2,12.1l323.4,161.7c13.6,6.8,35.7,6.8,49.3,0l128.4-64.2
	c6.4-3.2,9.7-7.3,10.1-11.5l0.1-0.1V206.9z"/>
<path class="st58" d="M370.4,256.8v23.6l5.7,2.8c13.6,6.8,35.7,6.8,49.3,0l7.6-3.8l0-0.1l0.1-24.5l-54.6-2.6L370.4,256.8z"/>
<g>
	<g>
		<g>
			<path class="st58" d="M425.4,259.6c-13.6,6.8-35.7,6.8-49.3,0L52.7,97.9c-13.6-6.8-13.6-17.8,0-24.6L181.2,9
				c13.6-6.8,35.7-6.8,49.3,0l323.4,161.7c13.6,6.8,13.6,17.8,0,24.6L425.4,259.6z"/>
			<path class="st6" d="M423.1,258.4c-12.4,6.2-32.5,6.2-44.8,0L55,96.8c-12.4-6.2-12.4-16.2,0-22.4l128.5-64.2
				c12.4-6.2,32.5-6.2,44.8,0l323.4,161.7c12.4,6.2,12.4,16.2,0,22.4L423.1,258.4z"/>
			<g>
				<polygon class="st30" points="90.4,107.1 249.6,27.5 521.7,163.6 362.6,243.2 				"/>
			</g>
			<g>
				<path class="st56" d="M483.1,207.8c9.1,4.5,9.1,11.9,0,16.4c-9.1,4.5-23.8,4.5-32.9,0c-9.1-4.5-9.1-11.9,0-16.4
					C459.3,203.2,474,203.2,483.1,207.8z"/>
				<path class="st6" d="M482.4,208.1c8.7,4.4,8.7,11.4,0,15.8c-8.7,4.4-22.9,4.4-31.6,0c-8.7-4.4-8.7-11.4,0-15.8
					C459.6,203.7,473.7,203.7,482.4,208.1z"/>
			</g>
		</g>
		<polygon class="st57" points="265.1,34.6 105.3,114.6 89.1,107.1 249.6,26.9 		"/>
	</g>
	<path class="st57" d="M249.6,26.9L89.1,107.1l0,0c0,0,1.3,0.7,1.3,0.7l159.1-79.6l271.5,135.7l1.3-0.7L249.6,26.9z"/>
	<g>
		<g>
			<path class="st6" d="M105.9,107.4c0.7,0.4,0.7,0.9,0,1.3c-0.7,0.4-1.9,0.4-2.6,0c-0.7-0.4-0.7-0.9,0-1.3
				C104.1,107.1,105.2,107.1,105.9,107.4z"/>
			<path class="st6" d="M110.4,105.2c0.7,0.4,0.7,0.9,0,1.3c-0.7,0.4-1.9,0.4-2.6,0c-0.7-0.4-0.7-0.9,0-1.3
				C108.5,104.8,109.6,104.8,110.4,105.2z"/>
			<path class="st6" d="M114.6,103.1c0.7,0.4,0.7,0.9,0,1.3c-0.7,0.4-1.9,0.4-2.6,0c-0.7-0.4-0.7-0.9,0-1.3
				C112.7,102.7,113.9,102.7,114.6,103.1z"/>
			<path class="st6" d="M118.9,100.9c0.7,0.4,0.7,0.9,0,1.3c-0.7,0.4-1.9,0.4-2.6,0c-0.7-0.4-0.7-0.9,0-1.3
				C117,100.6,118.2,100.6,118.9,100.9z"/>
			<path class="st6" d="M123.1,98.8c0.7,0.4,0.7,0.9,0,1.3c-0.7,0.4-1.9,0.4-2.6,0c-0.7-0.4-0.7-0.9,0-1.3
				C121.2,98.5,122.4,98.5,123.1,98.8z"/>
		</g>
		<g>
			<g>
				<path class="st6" d="M253.7,35.4L243,40.8l-5.3-2.6l10.7-5.3L253.7,35.4z M243,40.1l9.3-4.6l-3.9-1.9l-9.3,4.6L243,40.1z"/>
			</g>
			<polygon class="st59" points="253.1,34.2 251.9,34.9 249.4,33.6 250.7,33 			"/>
			<polygon class="st59" points="248.9,36.6 242.8,39.7 239.8,38.1 245.8,35.1 			"/>
		</g>
		<g>
			<path class="st6" d="M137.8,94.2c0,0.3-0.4,0.5-1,0.5c-0.5,0-1-0.2-0.9-0.5c0-0.3,0.5-0.5,1-0.5
				C137.4,93.7,137.8,93.9,137.8,94.2z"/>
			<path class="st6" d="M136.9,92.8l0-0.5c-2,0-3.6,0.8-3.7,1.8c0,0.1,0,0.1,0,0.2l1,0c0-0.1,0-0.1,0-0.2
				C134.2,93.4,135.4,92.8,136.9,92.8z"/>
			<path class="st6" d="M136.9,91.7l0-0.5c-3.2,0-5.9,1.2-5.9,2.8c0,0.1,0,0.1,0,0.2l1,0c0-0.1,0-0.1,0-0.2
				C132,92.8,134.3,91.7,136.9,91.7z"/>
			<path class="st6" d="M137,90.5l0-0.5c-4.6,0-8.4,1.8-8.5,4.1c0,0.1,0,0.1,0,0.2l1,0c0-0.1,0-0.1,0-0.2
				C129.5,92.1,132.9,90.4,137,90.5z"/>
		</g>
		<g>
			<path class="st6" d="M174.6,74.7L174,75l-3.8-1.9c0,0.1-0.1,0.3-0.2,0.5c-0.1,0.2-0.3,0.4-0.4,0.5l-0.6-0.3
				c0.2-0.3,0.4-0.5,0.4-0.8c0.1-0.3,0.1-0.5,0-0.6l0.4-0.2L174.6,74.7z"/>
			<path class="st6" d="M179.4,71.7L180,72l-3.7,1.9c-0.1-0.1-0.3-0.2-0.3-0.2c-0.1-0.2-0.2-0.3-0.2-0.5c0-0.2,0.1-0.5,0.2-0.8
				c0.2-0.5,0.3-0.9,0.2-1.1c0-0.2-0.2-0.4-0.4-0.5c-0.2-0.1-0.5-0.2-0.9-0.2c-0.4,0-0.7,0.1-1,0.3c-0.3,0.2-0.5,0.3-0.5,0.5
				c0,0.2,0.1,0.4,0.4,0.5L173,72c-0.4-0.3-0.6-0.5-0.5-0.8c0.1-0.3,0.4-0.5,0.9-0.8c0.5-0.3,1.1-0.4,1.7-0.4c0.6,0,1,0.1,1.4,0.2
				c0.2,0.1,0.3,0.2,0.4,0.4c0.1,0.1,0.1,0.3,0.1,0.5c0,0.2-0.1,0.5-0.2,1c-0.1,0.4-0.2,0.6-0.2,0.7c0,0.1,0,0.2,0,0.3L179.4,71.7z"
				/>
			<path class="st6" d="M178.3,70l-0.7-0.3l0.8-0.4l0.7,0.3L178.3,70z M181.1,71.4l-0.7-0.3l0.8-0.4l0.7,0.3L181.1,71.4z"/>
			<path class="st6" d="M180.5,69.3c-0.6-0.3-1-0.6-1.2-0.8c-0.2-0.2-0.3-0.5-0.2-0.7c0.1-0.2,0.3-0.4,0.7-0.6
				c0.3-0.2,0.6-0.3,0.9-0.3c0.3-0.1,0.7-0.1,1-0.1c0.3,0,0.7,0.1,1.1,0.2c0.4,0.1,0.8,0.3,1.3,0.5c0.6,0.3,1,0.5,1.2,0.8
				c0.2,0.2,0.3,0.5,0.2,0.7c-0.1,0.2-0.3,0.4-0.7,0.7c-0.5,0.3-1.1,0.4-1.8,0.4C182.3,70,181.5,69.8,180.5,69.3z M181.3,69
				c0.8,0.4,1.4,0.6,1.9,0.6c0.5,0,0.9,0,1.2-0.2c0.3-0.2,0.4-0.4,0.4-0.6c0-0.2-0.5-0.6-1.3-1c-0.8-0.4-1.4-0.6-1.9-0.6
				c-0.5,0-0.9,0-1.2,0.2c-0.3,0.2-0.5,0.3-0.4,0.6C180,68.2,180.5,68.6,181.3,69z"/>
			<path class="st6" d="M184.9,67.1c-0.6-0.3-1-0.5-1.2-0.8c-0.2-0.2-0.3-0.5-0.2-0.7c0.1-0.2,0.3-0.4,0.7-0.6
				c0.3-0.2,0.6-0.3,0.9-0.3c0.3-0.1,0.7-0.1,1-0.1c0.3,0,0.7,0.1,1.1,0.2c0.4,0.1,0.8,0.3,1.3,0.5c0.6,0.3,1,0.5,1.2,0.8
				c0.2,0.2,0.3,0.5,0.2,0.7c-0.1,0.2-0.3,0.4-0.7,0.7c-0.5,0.3-1.1,0.4-1.8,0.4C186.6,67.8,185.8,67.6,184.9,67.1z M185.6,66.8
				c0.8,0.4,1.4,0.6,1.9,0.6c0.5,0,0.9,0,1.2-0.2c0.3-0.2,0.4-0.4,0.4-0.6c0-0.2-0.5-0.6-1.3-1c-0.8-0.4-1.4-0.6-1.9-0.6
				c-0.5,0-0.9,0-1.2,0.2c-0.3,0.2-0.5,0.3-0.4,0.6C184.4,66.1,184.8,66.4,185.6,66.8z"/>
		</g>
	</g>
</g>
<g>
	<g>
		<path class="st56" d="M91,134.7c0,2.5-2,3.6-4.6,2.3c-2.5-1.3-4.6-4.3-4.6-6.9c0-0.9,0.3-1.7,0.8-2.1c0.8-0.8,2.2-0.9,3.8-0.1
			C88.9,129.1,91,132.2,91,134.7z"/>
		<path class="st56" d="M91.2,134.6c0,2.5-2,3.6-4.6,2.3c-2.5-1.3-4.6-4.3-4.6-6.9c0-0.9,0.3-1.7,0.8-2.1c0.8-0.8,2.2-0.9,3.8-0.1
			C89.1,128.9,91.2,132,91.2,134.6z"/>
		<path class="st56" d="M91.4,134.4c0,2.5-2.1,3.6-4.6,2.3c-2.5-1.3-4.6-4.3-4.6-6.9c0-0.9,0.3-1.7,0.8-2.1c0.8-0.8,2.2-0.9,3.8-0.1
			C89.3,128.7,91.4,131.8,91.4,134.4z"/>
		<path class="st56" d="M91.6,134.2c0,2.5-2.1,3.6-4.6,2.3c-2.5-1.3-4.6-4.3-4.6-6.9c0-0.9,0.3-1.7,0.8-2.1c0.8-0.8,2.2-0.9,3.8-0.1
			C89.5,128.6,91.6,131.6,91.6,134.2z"/>
		<path class="st56" d="M91.8,134c0,2.5-2.1,3.6-4.6,2.3c-2.5-1.3-4.6-4.3-4.6-6.9c0-0.9,0.3-1.7,0.8-2.1c0.8-0.8,2.2-0.9,3.8-0.1
			C89.7,128.4,91.8,131.4,91.8,134z"/>
		<path class="st56" d="M91.9,133.8c0,2.5-2.1,3.6-4.6,2.3c-2.5-1.3-4.6-4.3-4.6-6.9c0-0.9,0.3-1.7,0.8-2.1c0.8-0.8,2.2-0.9,3.8-0.1
			C89.9,128.2,91.9,131.2,91.9,133.8z"/>
		<path class="st56" d="M92.1,133.6c0,2.5-2.1,3.6-4.6,2.3c-2.5-1.3-4.6-4.3-4.6-6.9c0-0.9,0.3-1.7,0.8-2.1c0.8-0.8,2.2-0.9,3.8-0.1
			C90.1,128,92.1,131,92.1,133.6z"/>
		<path class="st56" d="M92.3,133.4c0,2.5-2.1,3.6-4.6,2.3c-2.5-1.3-4.6-4.3-4.6-6.9c0-0.9,0.3-1.7,0.8-2.1c0.8-0.8,2.2-0.9,3.8-0.1
			C90.3,127.8,92.3,130.8,92.3,133.4z"/>
		<path class="st56" d="M92.5,133.2c0,2.5-2.1,3.6-4.6,2.3c-2.5-1.3-4.6-4.3-4.6-6.9c0-0.9,0.3-1.7,0.8-2.1c0.8-0.8,2.2-0.9,3.8-0.1
			C90.5,127.6,92.5,130.6,92.5,133.2z"/>
		<path class="st56" d="M92.7,133c0,2.5-2.1,3.6-4.6,2.3c-2.5-1.3-4.6-4.3-4.6-6.9c0-0.9,0.3-1.7,0.8-2.1c0.8-0.8,2.2-0.9,3.8-0.1
			C90.7,127.4,92.7,130.4,92.7,133z"/>
		<path class="st56" d="M92.9,132.8c0,2.5-2.1,3.6-4.6,2.3c-2.5-1.3-4.6-4.3-4.6-6.9c0-0.9,0.3-1.7,0.8-2.1c0.8-0.8,2.2-0.9,3.8-0.1
			C90.9,127.2,92.9,130.2,92.9,132.8z"/>
		<path class="st56" d="M93.1,132.6c0,2.5-2.1,3.6-4.6,2.3c-2.5-1.3-4.6-4.3-4.6-6.9c0-0.9,0.3-1.7,0.8-2.1c0.8-0.8,2.2-0.9,3.8-0.1
			C91.1,127,93.1,130,93.1,132.6z"/>
		<path class="st56" d="M93.3,132.4c0,2.5-2.1,3.6-4.6,2.3c-2.5-1.3-4.6-4.3-4.6-6.9c0-0.9,0.3-1.7,0.8-2.1c0.8-0.8,2.2-0.9,3.8-0.1
			C91.2,126.8,93.3,129.8,93.3,132.4z"/>
		<path class="st56" d="M93.5,132.2c0,2.5-2.1,3.6-4.6,2.3c-2.5-1.3-4.6-4.3-4.6-6.9c0-0.9,0.3-1.7,0.8-2.1c0.8-0.8,2.2-0.9,3.8-0.1
			C91.4,126.6,93.5,129.6,93.5,132.2z"/>
		<path class="st56" d="M93.7,132c0,2.5-2.1,3.6-4.6,2.3c-2.5-1.3-4.6-4.3-4.6-6.9c0-0.9,0.3-1.7,0.8-2.1c0.8-0.8,2.2-0.9,3.8-0.1
			C91.6,126.4,93.7,129.4,93.7,132z"/>
		<path class="st56" d="M93.9,131.8c0,2.5-2.1,3.6-4.6,2.3c-2.5-1.3-4.6-4.3-4.6-6.9c0-0.9,0.3-1.7,0.8-2.1c0.8-0.8,2.2-0.9,3.8-0.1
			C91.8,126.2,93.9,129.2,93.9,131.8z"/>
		<path class="st56" d="M94.1,131.6c0,2.5-2.1,3.6-4.6,2.3c-2.5-1.3-4.6-4.3-4.6-6.9c0-0.9,0.3-1.7,0.8-2.1c0.8-0.8,2.2-0.9,3.8-0.1
			C92,126,94.1,129,94.1,131.6z"/>
	</g>
	<g>
		<g>
			<path class="st58" d="M94.3,131.3c0,2.5-2,3.6-4.6,2.3c-2.5-1.3-4.6-4.3-4.6-6.9c0-0.9,0.3-1.7,0.8-2.1c0.8-0.8,2.2-0.9,3.8-0.1
				C92.2,125.7,94.3,128.8,94.3,131.3z"/>
			<polygon class="st58" points="84.5,126 86,124.4 91.6,127.3 93.2,130.2 93.6,133.4 91.8,135.1 			"/>
		</g>
		<path class="st6" d="M92.9,132.7c0,2.5-2,3.6-4.6,2.3c-2.5-1.3-4.6-4.3-4.6-6.9c0-2.5,2-3.6,4.6-2.3
			C90.9,127.1,92.9,130.1,92.9,132.7z"/>
	</g>
</g>
<g>
	<g>
		<path class="st56" d="M117.6,147.9c0,2.5-2.1,3.6-4.6,2.3c-2.5-1.3-4.6-4.3-4.6-6.9c0-0.9,0.3-1.7,0.8-2.1
			c0.8-0.8,2.2-0.9,3.8-0.1C115.6,142.3,117.6,145.4,117.6,147.9z"/>
		<path class="st56" d="M117.8,147.7c0,2.5-2.1,3.6-4.6,2.3c-2.5-1.3-4.6-4.3-4.6-6.9c0-0.9,0.3-1.7,0.8-2.1
			c0.8-0.8,2.2-0.9,3.8-0.1C115.8,142.1,117.8,145.2,117.8,147.7z"/>
		<path class="st56" d="M118,147.5c0,2.5-2.1,3.6-4.6,2.3c-2.5-1.3-4.6-4.3-4.6-6.9c0-0.9,0.3-1.7,0.8-2.1c0.8-0.8,2.2-0.9,3.8-0.1
			C116,141.9,118,145,118,147.5z"/>
		<path class="st56" d="M118.2,147.3c0,2.5-2.1,3.6-4.6,2.3c-2.5-1.3-4.6-4.3-4.6-6.9c0-0.9,0.3-1.7,0.8-2.1
			c0.8-0.8,2.2-0.9,3.8-0.1C116.1,141.7,118.2,144.8,118.2,147.3z"/>
		<path class="st56" d="M118.4,147.1c0,2.5-2.1,3.6-4.6,2.3c-2.5-1.3-4.6-4.3-4.6-6.9c0-0.9,0.3-1.7,0.8-2.1
			c0.8-0.8,2.2-0.9,3.8-0.1C116.3,141.5,118.4,144.6,118.4,147.1z"/>
		<path class="st56" d="M118.6,146.9c0,2.5-2.1,3.6-4.6,2.3c-2.5-1.3-4.6-4.3-4.6-6.9c0-0.9,0.3-1.7,0.8-2.1
			c0.8-0.8,2.2-0.9,3.8-0.1C116.5,141.3,118.6,144.4,118.6,146.9z"/>
		<path class="st56" d="M118.8,146.7c0,2.5-2.1,3.6-4.6,2.3c-2.5-1.3-4.6-4.3-4.6-6.9c0-0.9,0.3-1.7,0.8-2.1
			c0.8-0.8,2.2-0.9,3.8-0.1C116.7,141.1,118.8,144.2,118.8,146.7z"/>
		<path class="st56" d="M119,146.5c0,2.5-2.1,3.6-4.6,2.3c-2.5-1.3-4.6-4.3-4.6-6.9c0-0.9,0.3-1.7,0.8-2.1c0.8-0.8,2.2-0.9,3.8-0.1
			C116.9,140.9,119,144,119,146.5z"/>
		<path class="st56" d="M119.2,146.3c0,2.5-2.1,3.6-4.6,2.3c-2.5-1.3-4.6-4.3-4.6-6.9c0-0.9,0.3-1.7,0.8-2.1
			c0.8-0.8,2.2-0.9,3.8-0.1C117.1,140.7,119.2,143.8,119.2,146.3z"/>
		<path class="st56" d="M119.4,146.2c0,2.5-2.1,3.6-4.6,2.3c-2.5-1.3-4.6-4.3-4.6-6.9c0-0.9,0.3-1.7,0.8-2.1
			c0.8-0.8,2.2-0.9,3.8-0.1C117.3,140.5,119.4,143.6,119.4,146.2z"/>
		<path class="st56" d="M119.6,146c0,2.5-2.1,3.6-4.6,2.3c-2.5-1.3-4.6-4.3-4.6-6.9c0-0.9,0.3-1.7,0.8-2.1c0.8-0.8,2.2-0.9,3.8-0.1
			C117.5,140.3,119.6,143.4,119.6,146z"/>
		<path class="st56" d="M119.7,145.8c0,2.5-2.1,3.6-4.6,2.3c-2.5-1.3-4.6-4.3-4.6-6.9c0-0.9,0.3-1.7,0.8-2.1
			c0.8-0.8,2.2-0.9,3.8-0.1C117.7,140.2,119.7,143.2,119.7,145.8z"/>
		<path class="st56" d="M119.9,145.6c0,2.5-2.1,3.6-4.6,2.3c-2.5-1.3-4.6-4.3-4.6-6.9c0-0.9,0.3-1.7,0.8-2.1
			c0.8-0.8,2.2-0.9,3.8-0.1C117.9,140,119.9,143,119.9,145.6z"/>
		<path class="st56" d="M120.1,145.4c0,2.5-2.1,3.6-4.6,2.3c-2.5-1.3-4.6-4.3-4.6-6.9c0-0.9,0.3-1.7,0.8-2.1
			c0.8-0.8,2.2-0.9,3.8-0.1C118.1,139.8,120.1,142.8,120.1,145.4z"/>
		<path class="st56" d="M120.3,145.2c0,2.5-2.1,3.6-4.6,2.3c-2.5-1.3-4.6-4.3-4.6-6.9c0-0.9,0.3-1.7,0.8-2.1
			c0.8-0.8,2.2-0.9,3.8-0.1C118.3,139.6,120.3,142.6,120.3,145.2z"/>
		<path class="st56" d="M120.5,145c0,2.5-2,3.6-4.6,2.3c-2.5-1.3-4.6-4.3-4.6-6.9c0-0.9,0.3-1.7,0.8-2.1c0.8-0.8,2.2-0.9,3.8-0.1
			C118.5,139.4,120.5,142.4,120.5,145z"/>
		<path class="st56" d="M120.7,144.8c0,2.5-2,3.6-4.6,2.3c-2.5-1.3-4.6-4.3-4.6-6.9c0-0.9,0.3-1.7,0.8-2.1c0.8-0.8,2.2-0.9,3.8-0.1
			C118.7,139.2,120.7,142.2,120.7,144.8z"/>
	</g>
	<g>
		<g>
			<path class="st58" d="M120.8,144.7c0,2.5-2.1,3.6-4.6,2.3c-2.5-1.3-4.6-4.3-4.6-6.9c0-0.9,0.3-1.7,0.8-2.1
				c0.8-0.8,2.2-0.9,3.8-0.1C118.8,139.1,120.8,142.2,120.8,144.7z"/>
			<polygon class="st58" points="111,139.4 112.6,137.8 118.1,140.7 119.7,143.7 120.2,146.9 118.3,148.6 			"/>
		</g>
		<path class="st6" d="M119.4,146.1c0,2.5-2.1,3.6-4.6,2.3c-2.5-1.3-4.6-4.3-4.6-6.9s2-3.6,4.6-2.3
			C117.4,140.5,119.4,143.6,119.4,146.1z"/>
	</g>
</g>
<g>
	<g>
		<path class="st56" d="M145.2,161.1c0,2.5-2,3.6-4.6,2.3c-2.5-1.3-4.6-4.3-4.6-6.9c0-0.9,0.3-1.7,0.8-2.1c0.8-0.8,2.2-0.9,3.8-0.1
			C143.2,155.5,145.2,158.5,145.2,161.1z"/>
		<path class="st56" d="M145.4,160.9c0,2.5-2,3.6-4.6,2.3c-2.5-1.3-4.6-4.3-4.6-6.9c0-0.9,0.3-1.7,0.8-2.1c0.8-0.8,2.2-0.9,3.8-0.1
			C143.4,155.3,145.4,158.3,145.4,160.9z"/>
		<path class="st56" d="M145.6,160.7c0,2.5-2,3.6-4.6,2.3c-2.5-1.3-4.6-4.3-4.6-6.9c0-0.9,0.3-1.7,0.8-2.1c0.8-0.8,2.2-0.9,3.8-0.1
			C143.6,155.1,145.6,158.1,145.6,160.7z"/>
		<path class="st56" d="M145.8,160.5c0,2.5-2,3.6-4.6,2.3c-2.5-1.3-4.6-4.3-4.6-6.9c0-0.9,0.3-1.7,0.8-2.1c0.8-0.8,2.2-0.9,3.8-0.1
			C143.8,154.9,145.8,157.9,145.8,160.5z"/>
		<path class="st56" d="M146,160.3c0,2.5-2,3.6-4.6,2.3c-2.5-1.3-4.6-4.3-4.6-6.9c0-0.9,0.3-1.7,0.8-2.1c0.8-0.8,2.2-0.9,3.8-0.1
			C144,154.7,146,157.7,146,160.3z"/>
		<path class="st56" d="M146.2,160.1c0,2.5-2,3.6-4.6,2.3c-2.5-1.3-4.6-4.3-4.6-6.9c0-0.9,0.3-1.7,0.8-2.1c0.8-0.8,2.2-0.9,3.8-0.1
			C144.2,154.5,146.2,157.5,146.2,160.1z"/>
		<path class="st56" d="M146.4,159.9c0,2.5-2,3.6-4.6,2.3c-2.5-1.3-4.6-4.3-4.6-6.9c0-0.9,0.3-1.7,0.8-2.1c0.8-0.8,2.2-0.9,3.8-0.1
			C144.3,154.3,146.4,157.4,146.4,159.9z"/>
		<path class="st56" d="M146.6,159.7c0,2.5-2,3.6-4.6,2.3c-2.5-1.3-4.6-4.3-4.6-6.9c0-0.9,0.3-1.7,0.8-2.1c0.8-0.8,2.2-0.9,3.8-0.1
			C144.5,154.1,146.6,157.2,146.6,159.7z"/>
		<path class="st56" d="M146.8,159.5c0,2.5-2,3.6-4.6,2.3c-2.5-1.3-4.6-4.3-4.6-6.9c0-0.9,0.3-1.7,0.8-2.1c0.8-0.8,2.2-0.9,3.8-0.1
			C144.7,153.9,146.8,157,146.8,159.5z"/>
		<path class="st56" d="M147,159.3c0,2.5-2,3.6-4.6,2.3c-2.5-1.3-4.6-4.3-4.6-6.9c0-0.9,0.3-1.7,0.8-2.1c0.8-0.8,2.2-0.9,3.8-0.1
			C144.9,153.7,147,156.8,147,159.3z"/>
		<path class="st56" d="M147.2,159.1c0,2.5-2,3.6-4.6,2.3c-2.5-1.3-4.6-4.3-4.6-6.9c0-0.9,0.3-1.7,0.8-2.1c0.8-0.8,2.2-0.9,3.8-0.1
			C145.1,153.5,147.2,156.6,147.2,159.1z"/>
		<path class="st56" d="M147.4,158.9c0,2.5-2,3.6-4.6,2.3c-2.5-1.3-4.6-4.3-4.6-6.9c0-0.9,0.3-1.7,0.8-2.1c0.8-0.8,2.2-0.9,3.8-0.1
			C145.3,153.3,147.4,156.4,147.4,158.9z"/>
		<path class="st56" d="M147.6,158.7c0,2.5-2,3.6-4.6,2.3c-2.5-1.3-4.6-4.3-4.6-6.9c0-0.9,0.3-1.7,0.8-2.1c0.8-0.8,2.2-0.9,3.8-0.1
			C145.5,153.1,147.6,156.2,147.6,158.7z"/>
		<path class="st56" d="M147.7,158.5c0,2.5-2,3.6-4.6,2.3c-2.5-1.3-4.6-4.3-4.6-6.9c0-0.9,0.3-1.7,0.8-2.1c0.8-0.8,2.2-0.9,3.8-0.1
			C145.7,152.9,147.7,156,147.7,158.5z"/>
		<path class="st56" d="M147.9,158.3c0,2.5-2,3.6-4.6,2.3c-2.5-1.3-4.6-4.3-4.6-6.9c0-0.9,0.3-1.7,0.8-2.1c0.8-0.8,2.2-0.9,3.8-0.1
			C145.9,152.7,147.9,155.8,147.9,158.3z"/>
		<path class="st56" d="M148.1,158.1c0,2.5-2,3.6-4.6,2.3c-2.5-1.3-4.6-4.3-4.6-6.9c0-0.9,0.3-1.7,0.8-2.1c0.8-0.8,2.2-0.9,3.8-0.1
			C146.1,152.5,148.1,155.6,148.1,158.1z"/>
		<path class="st56" d="M148.3,157.9c0,2.5-2,3.6-4.6,2.3c-2.5-1.3-4.6-4.3-4.6-6.9c0-0.9,0.3-1.7,0.8-2.1c0.8-0.8,2.2-0.9,3.8-0.1
			C146.3,152.3,148.3,155.4,148.3,157.9z"/>
	</g>
	<g>
		<g>
			<path class="st58" d="M148.3,157.9c0,2.5-2,3.6-4.6,2.3c-2.5-1.3-4.6-4.3-4.6-6.9c0-0.9,0.3-1.7,0.8-2.1c0.8-0.8,2.2-0.9,3.8-0.1
				C146.3,152.3,148.3,155.4,148.3,157.9z"/>
			<polygon class="st58" points="138.5,152.6 140.1,151 145.6,153.9 147.2,156.8 147.5,160 145.8,161.8 			"/>
		</g>
		<path class="st6" d="M146.9,159.3c0,2.5-2,3.6-4.6,2.3c-2.5-1.3-4.6-4.3-4.6-6.9c0-2.5,2.1-3.6,4.6-2.3
			C144.9,153.7,146.9,156.7,146.9,159.3z"/>
	</g>
</g>
<g class="st75">
	<polygon class="st61" points="156.8,99.6 284.3,36.5 491.5,140.1 363.9,203.2 	"/>
</g>
<g>
	<g>
		<polygon class="st57" points="187.3,99.8 187.3,93.6 308.1,39.7 513.6,136.2 513.1,142.2 393.4,202.5 		"/>
	</g>
	<g>
		<polygon class="st6" points="187.3,93.6 308.1,33.5 513.6,136.2 393.4,196.3 		"/>
	</g>
	<g class="st80">
		<polygon class="st30" points="205,93.6 310.3,40.9 451.5,111 346.2,163.7 		"/>
	</g>
	<g>
		<polygon class="st6" points="337.1,167.8 456.7,108 512.9,136.1 393.3,195.9 		"/>
	</g>
	<g class="st81">
		<polygon class="st30" points="353.8,168 395.6,146.4 406.3,152 364.5,173.6 		"/>
	</g>
	<g class="st82">
		<polygon class="st30" points="372.7,176.7 475.9,122.6 481.5,124.9 377.5,179.2 		"/>
	</g>
	<g class="st82">
		<polygon class="st30" points="379.5,180.3 482.7,126.3 488.3,128.5 384.3,182.9 		"/>
	</g>
</g>
<line class="st83" x1="204.8" y1="108.7" x2="204.8" y2="121.7"/>
<line class="st83" x1="344.8" y1="179.7" x2="344.8" y2="192.7"/>
</svg>
