<?xml version="1.0" encoding="utf-8"?>
<!-- Generator: Adobe Illustrator 19.1.0, SVG Export Plug-In . SVG Version: 6.00 Build 0)  -->
<svg version="1.1" id="Layer_1" xmlns="http://www.w3.org/2000/svg" xmlns:xlink="http://www.w3.org/1999/xlink" x="0px" y="0px"
	 viewBox="389.4 -107.7 360.3 176.6" style="enable-background:new 389.4 -107.7 360.3 176.6;" xml:space="preserve">
<style type="text/css">
	.st0{opacity:0.15;}
	.st1{fill:#375056;}
	.st2{fill:#E6E6E6;}
	.st3{fill:#FFFFFF;}
	.st4{opacity:0.3;}
	.st5{fill:#4CDAB0;}
	.st6{opacity:0.42;}
	.st7{opacity:0.5;}
</style>
<g class="st0">
	<polygon class="st1" points="391.8,-38.4 519.3,-101.5 726.5,2.1 598.9,65.2 	"/>
</g>
<g>
	<g>
		<polygon class="st2" points="422.3,-38.2 422.3,-44.4 543.1,-98.3 748.6,-1.8 748.1,4.2 628.4,64.5 		"/>
	</g>
	<g>
		<polygon class="st3" points="422.3,-44.4 543.1,-104.5 748.6,-1.8 628.4,58.3 		"/>
	</g>
	<g class="st4">
		<polygon class="st5" points="440,-44.4 545.3,-97.1 686.5,-27 581.2,25.7 		"/>
	</g>
	<g>
		<polygon class="st3" points="572.1,29.8 691.7,-30 747.9,-1.9 628.3,57.9 		"/>
	</g>
	<g class="st6">
		<polygon class="st5" points="588.8,30 630.6,8.4 641.3,14 599.5,35.6 		"/>
	</g>
	<g class="st7">
		<polygon class="st5" points="607.7,38.7 710.9,-15.4 716.5,-13.1 612.5,41.2 		"/>
	</g>
	<g class="st7">
		<polygon class="st5" points="614.5,42.3 717.7,-11.7 723.3,-9.5 619.3,44.9 		"/>
	</g>
</g>
</svg>
