<?xml version="1.0" encoding="utf-8"?>
<!-- Generator: Adobe Illustrator 19.1.0, SVG Export Plug-In . SVG Version: 6.00 Build 0)  -->
<svg version="1.1" id="Layer_1" xmlns="http://www.w3.org/2000/svg" xmlns:xlink="http://www.w3.org/1999/xlink" x="0px" y="0px"
	 viewBox="0 0 426 201.3" style="enable-background:new 0 0 426 201.3;" xml:space="preserve">
<style type="text/css">
	.st0{fill:#6077DF;}
	.st1{fill:#FFCA00;}
	.st2{fill:#035E87;}
	.st3{enable-background:new    ;}
	.st4{fill:#BDBDBD;}
	.st5{fill:#C9C9C9;}
	.st6{fill:#FFFFFF;}
	.st7{fill:#EBEBEB;}
	.st8{fill:#999999;}
	.st9{fill:#FFB300;}
	.st10{fill:#3C3D00;}
	.st11{fill:#F5F5F5;}
	.st12{fill:#212221;}
	.st13{fill:#F2A012;}
	.st14{fill:#D68E10;}
	.st15{fill:#4B4B4B;}
	.st16{fill:#4F4F4F;}
	.st17{fill:#333333;}
	.st18{fill:#484848;}
	.st19{fill:#DE8E11;}
	.st20{fill:#D68910;}
	.st21{fill:#EB9611;}
	.st22{fill:#EDA800;}
	.st23{fill:#BF7B0F;}
	.st24{fill:#F5AE02;}
	.st25{fill:#F29B12;}
	.st26{fill:#E89A11;}
	.st27{fill:#A11D11;}
	.st28{opacity:0.18;}
	.st29{fill:#415464;}
	.st30{fill:#4CDAB0;}
	.st31{fill:#E0E0E0;}
	.st32{opacity:0.75;fill:#3A4F9B;}
	.st33{opacity:0.27;fill:#375056;}
	.st34{fill:#BA8B75;}
	.st35{fill:#242424;}
	.st36{fill:#2B3E4F;}
	.st37{fill:#DCDCDC;}
	.st38{fill:#DEB09D;}
	.st39{fill:#EBF1F5;}
	.st40{fill:#025074;}
	.st41{fill:#E9AE93;}
	.st42{fill:#291222;}
	.st43{fill:#3E1C33;}
	.st44{fill:#E9C2B0;}
	.st45{fill:#F9CFB3;}
	.st46{clip-path:url(#SVGID_2_);enable-background:new    ;}
	.st47{fill:#AA2A41;}
	.st48{fill:#D43451;}
	.st49{fill:#FF3F61;}
	.st50{fill:#9F273C;}
	.st51{fill:none;stroke:#6AEFC3;stroke-miterlimit:10;}
	.st52{fill:none;stroke:#6AEFC3;stroke-miterlimit:10;stroke-dasharray:5.915,5.915;}
	.st53{fill:none;stroke:#6AEFC3;stroke-miterlimit:10;stroke-dasharray:6.0713,6.0713;}
	.st54{fill:none;stroke:#6AEFC3;stroke-miterlimit:10;stroke-dasharray:5.9151,5.9151;}
	.st55{fill:none;stroke:#6AEFC3;stroke-miterlimit:10;stroke-dasharray:6.0712,6.0712;}
	.st56{fill:#CCCCCC;}
	.st57{fill:#E6E6E6;}
	.st58{fill:#F2F2F2;}
	.st59{fill-rule:evenodd;clip-rule:evenodd;fill:#FFFFFF;}
	.st60{opacity:0.27;}
	.st61{fill:#375056;}
	.st62{fill:#6EC6E6;}
	.st63{opacity:0.17;}
	.st64{fill:#28A7C9;}
	.st65{fill:#ADECF7;}
	.st66{clip-path:url(#SVGID_4_);}
	.st67{fill:#FEC363;}
	.st68{fill:#353F49;}
	.st69{fill:#474F59;}
	.st70{clip-path:url(#SVGID_6_);}
	.st71{fill:#A3A3EF;}
	.st72{fill:#BABAF4;}
	.st73{clip-path:url(#SVGID_8_);}
	.st74{fill:#F2B50A;}
	.st75{opacity:0.15;}
	.st76{fill:#97723F;}
	.st77{fill:#856231;}
	.st78{fill:#BD553D;}
	.st79{fill:#3E626A;}
	.st80{opacity:0.3;}
	.st81{opacity:0.42;}
	.st82{opacity:0.5;}
	.st83{fill:none;stroke:#6AEFC3;stroke-miterlimit:10;stroke-dasharray:6,6;}
	.st84{clip-path:url(#SVGID_10_);}
	.st85{fill:#3FBC92;}
	.st86{fill:#FDFFFE;}
	.st87{fill:#2B0D04;}
	.st88{fill:#134663;}
	.st89{fill:#DEF3EE;}
	.st90{clip-path:url(#SVGID_12_);enable-background:new    ;}
	.st91{clip-path:url(#SVGID_14_);}
	.st92{clip-path:url(#SVGID_16_);}
	.st93{clip-path:url(#SVGID_18_);}
	.st94{clip-path:url(#SVGID_20_);enable-background:new    ;}
	.st95{clip-path:url(#SVGID_22_);}
	.st96{clip-path:url(#SVGID_24_);}
	.st97{clip-path:url(#SVGID_26_);}
	.st98{clip-path:url(#SVGID_28_);enable-background:new    ;}
	.st99{clip-path:url(#SVGID_30_);}
	.st100{clip-path:url(#SVGID_32_);}
	.st101{clip-path:url(#SVGID_34_);}
	.st102{fill:#2FB286;}
	.st103{clip-path:url(#SVGID_36_);}
	.st104{clip-path:url(#SVGID_38_);}
	.st105{opacity:0.2;}
	.st106{fill:#585858;}
	.st107{fill:#616161;}
	.st108{fill:#505050;}
	.st109{fill:#414141;}
	.st110{fill:#232423;}
	.st111{fill:#424342;}
	.st112{fill:#C27508;}
	.st113{fill:#F0910A;}
	.st114{fill:#3E3F3E;}
	.st115{fill:#2F302F;}
	.st116{fill:#1F1F1F;}
	.st117{fill:#272727;}
	.st118{fill:#1E1E1E;}
	.st119{clip-path:url(#SVGID_40_);enable-background:new    ;}
	.st120{clip-path:url(#SVGID_42_);}
	.st121{clip-path:url(#SVGID_44_);}
	.st122{clip-path:url(#SVGID_46_);}
	.st123{opacity:0.75;}
	.st124{fill:#3A4F9B;}
	.st125{fill:#2E2F2E;}
	.st126{fill:#303130;}
	.st127{fill:#3D3E3D;}
	.st128{fill:#A26207;}
	.st129{fill:#A86507;}
	.st130{clip-path:url(#SVGID_48_);}
	.st131{clip-path:url(#SVGID_50_);}
	.st132{opacity:0.7656;fill:#3A4F9B;}
	.st133{opacity:0.7812;fill:#3A4F9B;}
	.st134{opacity:0.7969;fill:#3A4F9B;}
	.st135{opacity:0.8125;fill:#3A4F9B;}
	.st136{opacity:0.8281;fill:#3A4F9B;}
	.st137{opacity:0.8438;fill:#3A4F9B;}
	.st138{opacity:0.8594;fill:#3A4F9B;}
	.st139{opacity:0.875;fill:#3A4F9B;}
	.st140{opacity:0.8906;fill:#3A4F9B;}
	.st141{opacity:0.9062;fill:#3A4F9B;}
	.st142{opacity:0.9219;fill:#3A4F9B;}
	.st143{opacity:0.9375;fill:#3A4F9B;}
	.st144{opacity:0.9531;fill:#3A4F9B;}
	.st145{opacity:0.9688;fill:#3A4F9B;}
	.st146{opacity:0.9844;fill:#3A4F9B;}
	.st147{clip-path:url(#SVGID_52_);}
	.st148{clip-path:url(#SVGID_54_);}
	.st149{clip-path:url(#SVGID_56_);}
	.st150{clip-path:url(#SVGID_58_);}
	.st151{clip-path:url(#SVGID_60_);enable-background:new    ;}
	.st152{clip-path:url(#SVGID_62_);}
	.st153{clip-path:url(#SVGID_64_);}
	.st154{clip-path:url(#SVGID_66_);}
	.st155{clip-path:url(#SVGID_68_);}
	.st156{clip-path:url(#SVGID_70_);enable-background:new    ;}
	.st157{clip-path:url(#SVGID_72_);enable-background:new    ;}
	.st158{clip-path:url(#SVGID_74_);}
	.st159{clip-path:url(#SVGID_76_);}
	.st160{clip-path:url(#SVGID_78_);}
	.st161{clip-path:url(#SVGID_80_);}
	.st162{clip-path:url(#SVGID_82_);}
	.st163{clip-path:url(#SVGID_84_);}
</style>
<g class="st123">
	<polygon class="st124" points="8.2,78 139.7,13 170.7,6.8 376.4,128 265,193.7 231.7,190.5 	"/>
</g>
<g>
	<polygon class="st57" points="37.8,80.1 37.8,73.3 170.7,13.7 397.9,120.4 397.3,127 265,193.7 	"/>
</g>
<g>
	<polygon class="st6" points="37.8,73.3 170.7,6.8 397.9,120.4 265,186.9 	"/>
</g>
<g>
	<polygon class="st65" points="56.7,73.3 173.2,15 372.4,114.6 255.9,172.8 	"/>
</g>
<g>
	<polygon class="st6" points="202.8,155.3 335,89.2 397.2,120.3 264.9,186.4 	"/>
</g>
<g>
	<g>
		<g class="st3">
			<defs>
				<polygon id="SVGID_81_" class="st3" points="187.8,128.3 94.3,79.5 164.9,46.6 258.4,95.4 				"/>
			</defs>
			<clipPath id="SVGID_2_">
				<use xlink:href="#SVGID_81_"  style="overflow:visible;"/>
			</clipPath>
			<g style="clip-path:url(#SVGID_2_);">
				<g>
					<g>
						<g>
							<path class="st6" d="M221,109.6c-0.8,0.4-2.3,0.3-3.2-0.1l-35.2-18.4l32.6-15.2l35.2,18.4c0.9,0.5,0.9,1.2,0.1,1.6L221,109.6
								 M193.4,66.1l-29.5,13.8c-2.6,1.2-2.5,3.3,0.2,4.7l50.6,26.4c2.6,1.4,6.9,1.5,9.5,0.3l29.5-13.8c2.6-1.2,2.5-3.3-0.2-4.7
								l-50.6-26.4C200.3,65.1,196,64.9,193.4,66.1"/>
							<path class="st67" d="M215.2,75.9l-32.6,15.2l35.2,18.4c0.9,0.5,2.3,0.5,3.2,0.1l29.5-13.8c0.8-0.4,0.8-1.1-0.1-1.6
								L215.2,75.9"/>
							<path class="st68" d="M180.6,66.1l-15.9,7.4c-0.2,0.1-0.3,0.2-0.3,0.4c0,0.2,0.1,0.3,0.3,0.4l5.2,2.7l17.5-8.2l-5.2-2.7
								c-0.2-0.1-0.5-0.2-0.8-0.2C181.1,66,180.8,66,180.6,66.1"/>
							<path class="st69" d="M170.7,64.8l-8.2,3.8c-0.2,0.1-0.3,0.2-0.3,0.4c0,0.2,0.1,0.3,0.3,0.4l5.2,2.7l9.7-4.5l-5.2-2.7
								c-0.2-0.1-0.5-0.2-0.8-0.2C171.2,64.6,170.9,64.7,170.7,64.8"/>
							<polyline class="st68" points="162.8,63.7 160.8,64.6 165.6,67.1 167.6,66.2 162.8,63.7 							"/>
							<path class="st68" d="M167.9,59.3l-15.5,7.2c-0.2,0.1-0.3,0.2-0.3,0.4c0,0.2,0.1,0.3,0.3,0.4l0.4,0.2
								c0.2,0.1,0.5,0.2,0.8,0.2c0.3,0,0.6,0,0.8-0.1l14.7-6.8l-1.2,0L167.9,59.3"/>
							<path class="st68" d="M167.9,59.3l0,1.4l1.2,0l4.7,0.2c0.3,0,0.6,0,0.8-0.1c0.2-0.1,0.3-0.2,0.3-0.4l0-0.3
								c0-0.1-0.1-0.3-0.3-0.4c-0.2-0.1-0.5-0.2-0.8-0.2L167.9,59.3"/>
							<path class="st6" d="M95,79.2c-0.4,0.2-0.4,0.5,0,0.7c0.4,0.2,1.1,0.2,1.5,0.1c0.4-0.2,0.4-0.5,0-0.7
								C96.1,79,95.4,79,95,79.2"/>
						</g>
					</g>
				</g>
			</g>
		</g>
	</g>
</g>
<g>
	<g>
		<polygon class="st57" points="56.9,75.2 56.9,68.3 189.7,8.8 417,115.5 416.4,122.1 284.1,188.8 		"/>
	</g>
	<g>
		<polygon class="st6" points="56.9,68.3 189.7,1.9 417,115.5 284.1,182 		"/>
	</g>
	<g>
		<polygon class="st65" points="75.8,68.3 192.3,10.1 391.4,109.7 274.9,167.9 		"/>
	</g>
	<g>
		<polygon class="st6" points="221.8,150.4 354.1,84.3 416.2,115.3 284,181.5 		"/>
	</g>
	<g>
		<g>
			<g class="st3">
				<defs>
					<polygon id="SVGID_83_" class="st3" points="208.8,120.2 144.9,77.3 224.7,36.7 288.6,79.5 					"/>
				</defs>
				<clipPath id="SVGID_4_">
					<use xlink:href="#SVGID_83_"  style="overflow:visible;"/>
				</clipPath>
				<g class="st66">
					<g>
						<g>
							<g>
								<path class="st74" d="M200.6,87.7l-20.7,10.6c8,5,18.8,7.7,30.2,8.1C211.1,99.4,207.7,92.9,200.6,87.7 M216.5,79.6
									l-13.6,6.9c7.7,5.5,11.3,12.5,10.1,19.9c11.4-0.1,23-2.4,32.8-7.1L216.5,79.6 M232.4,71.5l-13.6,6.9l29.3,19.7
									c9.3-5,14.9-11.5,16.5-18C252,79.8,240.7,76.7,232.4,71.5 M255.5,59.8l-20.7,10.6c7.8,4.9,18.5,7.7,30.3,8.1
									C266,71.8,262.9,65.1,255.5,59.8 M168.4,78.4c-1,6.7,2.1,13.3,9.5,18.6l20.7-10.6c-3.7-2.3-8.1-4.2-13-5.6
									c0.1,1.5,0.7,3,1.8,4.4l-7.4,2.2c-1.9-2.5-2.8-5.3-2.4-8.2C174.8,78.8,171.6,78.5,168.4,78.4 M223.4,50.5
									c-1,6.9,2.3,13.5,9.5,18.6l20.7-10.6C245.6,53.5,234.8,50.8,223.4,50.5 M187.6,57.5L217,77.2l13.6-6.9
									c-7.7-5.5-11.3-12.5-10.1-19.9C209.1,50.5,197.4,52.8,187.6,57.5 M185.3,58.7c-9.3,5-14.9,11.5-16.5,18
									c3.2,0.1,6.4,0.4,9.4,0.8c0.1-0.3,0.2-0.7,0.4-1c0.8-1.9,2.1-3.7,3.8-5.4c1.7-1.7,3.9-3.2,6.5-4.5l5,3.4
									c-1.9,1-3.5,2.1-4.8,3.3c-1.3,1.2-2.2,2.5-2.8,3.9c-0.2,0.6-0.4,1.2-0.5,1.7c5.7,1.5,10.9,3.6,15.2,6.3l13.6-6.9L185.3,58.7
									"/>
								<path class="st29" d="M184.8,57c-22,11.2-25.6,29.9-8,41.8c17.6,11.8,49.8,12.3,71.9,1.1c22-11.2,25.6-29.9,8-41.8l-1,0.5
									c0.3,0.2,0.6,0.4,0.9,0.6l-1,0.5c7.4,5.3,10.5,12,9.6,18.6c0.4,0,0.8,0,1.1,0l0.2,0c-0.1,0.6-0.2,1.1-0.3,1.7
									c-0.4,0-0.9,0-1.3,0c-1.6,6.6-7.2,13-16.5,18l0.8,0.6c-0.4,0.2-0.7,0.4-1.1,0.6c-0.4,0.2-0.8,0.4-1.2,0.6l-0.8-0.6
									c-9.8,4.7-21.4,7.1-32.8,7.1c0,0.3-0.1,0.5-0.1,0.8c-1,0-2,0-2.9,0c0-0.3,0.1-0.5,0.1-0.8c-11.4-0.4-22.3-3.1-30.2-8.1
									l-1,0.5c-0.3-0.2-0.6-0.4-1-0.6c-0.3-0.2-0.6-0.4-0.9-0.6l1-0.5c-7.4-5.3-10.5-12-9.5-18.6c-0.4,0-0.8,0-1.1,0l-0.2,0
									c0.1-0.6,0.2-1.1,0.3-1.7c0.4,0,0.9,0,1.3,0c1.6-6.6,7.2-13,16.5-18l-0.8-0.5c0.4-0.2,0.7-0.4,1.1-0.6
									c0.4-0.2,0.8-0.4,1.2-0.6l0.8,0.5c9.8-4.7,21.4-7.1,32.8-7.1c0-0.3,0.1-0.5,0.1-0.8c1,0,2,0,2.9,0l0,0.1
									c0,0.2-0.1,0.4-0.1,0.7c11.4,0.4,22.3,3.1,30.3,8.1l1-0.5c0.3,0.2,0.6,0.4,0.9,0.6l1-0.5C239,46.3,206.8,45.8,184.8,57"/>
								<path class="st6" d="M177.8,79.3c-0.4,2.9,0.4,5.7,2.4,8.2l7.4-2.2c-1-1.3-1.7-2.8-1.8-4.4
									C183.2,80.2,180.5,79.7,177.8,79.3 M188.9,66.7c-2.6,1.3-4.8,2.8-6.5,4.5c-1.8,1.7-3,3.5-3.8,5.4c-0.1,0.3-0.3,0.7-0.4,1
									c2.6,0.4,5.2,0.9,7.7,1.5c0.1-0.6,0.3-1.2,0.5-1.7c0.6-1.4,1.5-2.7,2.8-3.9c1.3-1.2,2.9-2.3,4.8-3.3L188.9,66.7"/>
								<path class="st29" d="M185.6,57.6c-0.4,0.2-0.8,0.4-1.1,0.6l0.8,0.5l29.3,19.7L201,85.3c-4.3-2.7-9.5-4.8-15.2-6.3
									c-2.5-0.6-5-1.1-7.7-1.5c-3-0.4-6.2-0.7-9.4-0.8c-0.4,0-0.9,0-1.3,0c-0.1,0.6-0.3,1.1-0.3,1.7l0.2,0c0.4,0,0.8,0,1.1,0
									c3.2,0.1,6.3,0.4,9.3,0.8c2.8,0.4,5.4,1,8,1.7c4.9,1.4,9.3,3.2,13,5.6L178,97.1l-1,0.5c0.3,0.2,0.6,0.4,0.9,0.6
									c0.3,0.2,0.6,0.4,1,0.6l1-0.5l20.7-10.6c7.2,5.1,10.5,11.7,9.5,18.6c0,0.3-0.1,0.5-0.1,0.8c1,0,2,0,2.9,0
									c0-0.3,0.1-0.5,0.1-0.8c1.1-7.4-2.5-14.4-10.1-19.9l13.6-6.9l29.3,19.7l0.8,0.6c0.4-0.2,0.8-0.4,1.2-0.6
									c0.4-0.2,0.8-0.4,1.1-0.6l-0.8-0.6l-29.3-19.7l13.6-6.9c8.2,5.2,19.6,8.2,32.3,8.6c0.4,0,0.9,0,1.3,0
									c0.1-0.6,0.2-1.1,0.3-1.7l-0.2,0c-0.4,0-0.8,0-1.1,0c-11.8-0.3-22.5-3.2-30.3-8.1l20.7-10.6l1-0.5c-0.3-0.2-0.6-0.4-0.9-0.6
									c-0.3-0.2-0.6-0.4-0.9-0.6l-1,0.5l-20.7,10.6c-7.2-5.2-10.6-11.7-9.5-18.6c0-0.2,0.1-0.4,0.1-0.7l0-0.1c-1,0-1.9,0-2.9,0
									c0,0.3-0.1,0.5-0.1,0.8c-1.1,7.4,2.5,14.4,10.1,19.9L217,77.2l-29.3-19.7l-0.8-0.5C186.4,57.2,186,57.4,185.6,57.6"/>
							</g>
						</g>
					</g>
				</g>
			</g>
		</g>
	</g>
</g>
<g class="st63">
	<polygon class="st64" points="249.7,149.9 291.4,128.3 302.2,134 260.4,155.5 	"/>
</g>
<g class="st63">
	<polygon class="st64" points="268.6,158.6 371.8,104.5 377.4,106.8 273.4,161.1 	"/>
</g>
<g class="st63">
	<polygon class="st64" points="275.4,162.3 378.6,108.2 384.2,110.5 280.2,164.8 	"/>
</g>
</svg>
