<?xml version="1.0" encoding="utf-8"?>
<!-- Generator: Adobe Illustrator 19.1.0, SVG Export Plug-In . SVG Version: 6.00 Build 0)  -->
<svg version="1.1" id="Layer_1" xmlns="http://www.w3.org/2000/svg" xmlns:xlink="http://www.w3.org/1999/xlink" x="0px" y="0px"
	 viewBox="0 0 77 125" style="enable-background:new 0 0 77 125;" xml:space="preserve">
<style type="text/css">
	.st0{fill:#6077DF;}
	.st1{fill:#FFCA00;}
	.st2{fill:#035E87;}
	.st3{enable-background:new    ;}
	.st4{fill:#BDBDBD;}
	.st5{fill:#C9C9C9;}
	.st6{fill:#FFFFFF;}
	.st7{fill:#EBEBEB;}
	.st8{fill:#999999;}
	.st9{fill:#FFB300;}
	.st10{fill:#3C3D00;}
	.st11{fill:#F5F5F5;}
	.st12{fill:#212221;}
	.st13{fill:#F2A012;}
	.st14{fill:#D68E10;}
	.st15{fill:#4B4B4B;}
	.st16{fill:#4F4F4F;}
	.st17{fill:#333333;}
	.st18{fill:#484848;}
	.st19{fill:#DE8E11;}
	.st20{fill:#D68910;}
	.st21{fill:#EB9611;}
	.st22{fill:#EDA800;}
	.st23{fill:#BF7B0F;}
	.st24{fill:#F5AE02;}
	.st25{fill:#F29B12;}
	.st26{fill:#E89A11;}
	.st27{fill:#A11D11;}
	.st28{opacity:0.18;}
	.st29{fill:#415464;}
	.st30{fill:#4CDAB0;}
	.st31{fill:#E0E0E0;}
	.st32{opacity:0.75;fill:#3A4F9B;}
	.st33{opacity:0.27;fill:#375056;}
	.st34{fill:#BA8B75;}
	.st35{fill:#242424;}
	.st36{fill:#2B3E4F;}
	.st37{fill:#DCDCDC;}
	.st38{fill:#DEB09D;}
	.st39{fill:#EBF1F5;}
	.st40{fill:#025074;}
	.st41{fill:#E9AE93;}
	.st42{fill:#291222;}
	.st43{fill:#3E1C33;}
	.st44{fill:#E9C2B0;}
	.st45{fill:#F9CFB3;}
	.st46{clip-path:url(#SVGID_2_);enable-background:new    ;}
	.st47{fill:#AA2A41;}
	.st48{fill:#D43451;}
	.st49{fill:#FF3F61;}
	.st50{fill:#9F273C;}
	.st51{fill:none;stroke:#6AEFC3;stroke-miterlimit:10;}
	.st52{fill:none;stroke:#6AEFC3;stroke-miterlimit:10;stroke-dasharray:5.915,5.915;}
	.st53{fill:none;stroke:#6AEFC3;stroke-miterlimit:10;stroke-dasharray:6.0713,6.0713;}
	.st54{fill:none;stroke:#6AEFC3;stroke-miterlimit:10;stroke-dasharray:5.9151,5.9151;}
	.st55{fill:none;stroke:#6AEFC3;stroke-miterlimit:10;stroke-dasharray:6.0712,6.0712;}
	.st56{fill:#CCCCCC;}
	.st57{fill:#E6E6E6;}
	.st58{fill:#F2F2F2;}
	.st59{fill-rule:evenodd;clip-rule:evenodd;fill:#FFFFFF;}
	.st60{opacity:0.27;}
	.st61{fill:#375056;}
	.st62{fill:#6EC6E6;}
	.st63{opacity:0.17;}
	.st64{fill:#28A7C9;}
	.st65{fill:#ADECF7;}
	.st66{clip-path:url(#SVGID_4_);}
	.st67{fill:#FEC363;}
	.st68{fill:#353F49;}
	.st69{fill:#474F59;}
	.st70{clip-path:url(#SVGID_6_);}
	.st71{fill:#A3A3EF;}
	.st72{fill:#BABAF4;}
	.st73{clip-path:url(#SVGID_8_);}
	.st74{fill:#F2B50A;}
	.st75{opacity:0.15;}
	.st76{fill:#97723F;}
	.st77{fill:#856231;}
	.st78{fill:#BD553D;}
	.st79{fill:#3E626A;}
	.st80{opacity:0.3;}
	.st81{opacity:0.42;}
	.st82{opacity:0.5;}
	.st83{fill:none;stroke:#6AEFC3;stroke-miterlimit:10;stroke-dasharray:6,6;}
	.st84{clip-path:url(#SVGID_10_);}
	.st85{fill:#3FBC92;}
	.st86{fill:#FDFFFE;}
	.st87{fill:#2B0D04;}
	.st88{fill:#134663;}
	.st89{fill:#DEF3EE;}
	.st90{clip-path:url(#SVGID_12_);enable-background:new    ;}
	.st91{clip-path:url(#SVGID_14_);}
	.st92{clip-path:url(#SVGID_16_);}
	.st93{clip-path:url(#SVGID_18_);}
	.st94{clip-path:url(#SVGID_20_);enable-background:new    ;}
	.st95{clip-path:url(#SVGID_22_);}
	.st96{clip-path:url(#SVGID_24_);}
	.st97{clip-path:url(#SVGID_26_);}
	.st98{clip-path:url(#SVGID_28_);enable-background:new    ;}
	.st99{clip-path:url(#SVGID_30_);}
	.st100{clip-path:url(#SVGID_32_);}
	.st101{clip-path:url(#SVGID_34_);}
	.st102{fill:#2FB286;}
	.st103{clip-path:url(#SVGID_36_);}
	.st104{clip-path:url(#SVGID_38_);}
	.st105{opacity:0.2;}
	.st106{fill:#585858;}
	.st107{fill:#616161;}
	.st108{fill:#505050;}
	.st109{fill:#414141;}
	.st110{fill:#232423;}
	.st111{fill:#424342;}
	.st112{fill:#C27508;}
	.st113{fill:#F0910A;}
	.st114{fill:#3E3F3E;}
	.st115{fill:#2F302F;}
	.st116{fill:#1F1F1F;}
	.st117{fill:#272727;}
	.st118{fill:#1E1E1E;}
	.st119{clip-path:url(#SVGID_40_);enable-background:new    ;}
	.st120{clip-path:url(#SVGID_42_);}
	.st121{clip-path:url(#SVGID_44_);}
	.st122{clip-path:url(#SVGID_46_);}
	.st123{opacity:0.75;}
	.st124{fill:#3A4F9B;}
	.st125{fill:#2E2F2E;}
	.st126{fill:#303130;}
	.st127{fill:#3D3E3D;}
	.st128{fill:#A26207;}
	.st129{fill:#A86507;}
	.st130{clip-path:url(#SVGID_48_);}
	.st131{clip-path:url(#SVGID_50_);}
	.st132{opacity:0.7656;fill:#3A4F9B;}
	.st133{opacity:0.7812;fill:#3A4F9B;}
	.st134{opacity:0.7969;fill:#3A4F9B;}
	.st135{opacity:0.8125;fill:#3A4F9B;}
	.st136{opacity:0.8281;fill:#3A4F9B;}
	.st137{opacity:0.8438;fill:#3A4F9B;}
	.st138{opacity:0.8594;fill:#3A4F9B;}
	.st139{opacity:0.875;fill:#3A4F9B;}
	.st140{opacity:0.8906;fill:#3A4F9B;}
	.st141{opacity:0.9062;fill:#3A4F9B;}
	.st142{opacity:0.9219;fill:#3A4F9B;}
	.st143{opacity:0.9375;fill:#3A4F9B;}
	.st144{opacity:0.9531;fill:#3A4F9B;}
	.st145{opacity:0.9688;fill:#3A4F9B;}
	.st146{opacity:0.9844;fill:#3A4F9B;}
	.st147{clip-path:url(#SVGID_52_);}
	.st148{clip-path:url(#SVGID_54_);}
	.st149{clip-path:url(#SVGID_56_);}
	.st150{clip-path:url(#SVGID_58_);}
	.st151{clip-path:url(#SVGID_60_);enable-background:new    ;}
	.st152{clip-path:url(#SVGID_62_);}
	.st153{clip-path:url(#SVGID_64_);}
	.st154{clip-path:url(#SVGID_66_);}
	.st155{clip-path:url(#SVGID_68_);}
	.st156{clip-path:url(#SVGID_70_);enable-background:new    ;}
	.st157{clip-path:url(#SVGID_72_);enable-background:new    ;}
	.st158{clip-path:url(#SVGID_74_);}
	.st159{clip-path:url(#SVGID_76_);}
	.st160{clip-path:url(#SVGID_78_);}
	.st161{clip-path:url(#SVGID_80_);}
	.st162{clip-path:url(#SVGID_82_);}
	.st163{clip-path:url(#SVGID_84_);}
</style>
<path class="st32" d="M62,106.3c3.7,7.9-1,12.1-15.3,8.9C33.6,112.3,4,100.4,4,93.7c0-6.7,21.3-4.5,35.3-0.3
	C54,97.7,59.2,100.2,62,106.3z"/>
<g>
	<g>
		<path d="M55.8,106.4c0.1,1.8,0.2,3.6,0.2,4.4l0.8,0.1c0-1.7-0.2-3.2-0.2-4.5L55.8,106.4z"/>
		<g>
			<path class="st34" d="M56.2,75.4c0.1,1.3,0.3,2.7,0.4,4c0.2,2.1,0.7,4.3,0.6,6.4c-0.4,5.4-1,10.8-1.6,16.2l1.1,4.5l-1.8,6.4
				l-4.7,0.1c0.4,0,1.5-9,1.6-9.9c0.3-2.5-0.1-4.6-0.5-7c-0.4-3.1-0.9-6.3-1.3-9.4c-0.2-1.5-0.5-3-0.4-4.5c0-0.7,0.1-1.4,0-2.1
				c0-0.6-0.4-1.8-0.3-2.3c0.3-0.8,1.7-0.9,2.4-1.1C53.2,76.2,54.7,75.8,56.2,75.4z"/>
			<path class="st35" d="M50.1,112.9l0,1.2l3.4-0.1c0.7,0,1.3-0.5,1.4-1.2l1.2-4.9l0.4-1.6l-0.3-1.4c0,0-2.6,6.8-2.9,6.8
				c-0.3,0-2.7,0-2.7,0l-0.1-1L50.1,112.9z"/>
		</g>
	</g>
	<path class="st6" d="M44.9,45.1c-0.9,1.4-2.7,1.9-4.2,1l0,0c-1.4-0.9-1.9-2.7-1-4.2l8-13.3c0.9-1.4,2.7-1.9,4.2-1l0,0
		c1.4,0.9,1.9,2.7,1,4.2L44.9,45.1z"/>
	<path class="st36" d="M61.3,29c-0.4-0.6-3.9,1.2-6.8,1.2c-2.9,0-4.4-2.6-4.4,0.3c0,2.9,0.4,16.3,3.4,16.3
		C56.4,46.9,62.9,31.5,61.3,29z"/>
	<g>
		<path class="st6" d="M45,44.7c0.7-1.6,0-3.4-1.6-4l-11.7-5.1c0.2,1.3,0,2.8-0.3,3.5c-0.4,0.9-1,1.7-1.8,2.3l11.4,5
			C42.5,47,44.3,46.3,45,44.7z"/>
		<path class="st6" d="M32.3,39.1c-0.6,1.6-1.8,2.6-2.7,2.3c-0.8-0.3-1-1.9-0.4-3.5c0.6-1.6,1.8-2.6,2.7-2.3
			C32.8,36,33,37.5,32.3,39.1z"/>
		<path class="st37" d="M32.2,39.1c-0.6,1.4-1.6,2.3-2.4,2.1c-0.8-0.3-0.9-1.7-0.4-3.1c0.6-1.4,1.6-2.3,2.4-2.1
			C32.6,36.3,32.7,37.6,32.2,39.1z"/>
	</g>
	<g>
		<path d="M61.6,109.4c0.1,1.8,0.1,3.6,0.1,4.4l0.8,0.1c0-1.7-0.1-3.2-0.1-4.5H61.6z"/>
		<g>
			<path class="st38" d="M63,78.4c0.1,1.3,0.2,2.7,0.3,4c0.1,2.1,0.6,4.3,0.4,6.4c-0.6,5.4-1.3,10.8-2.1,16.1l0.9,4.5l-2,6.3
				l-4.7-0.1c0.4,0,1.8-9,1.9-9.9c0.4-2.5,0-4.6-0.2-7c-0.4-3.2-0.7-6.3-1-9.5c-0.2-1.5-0.4-3-0.2-4.5c0.1-0.7,0.1-1.4,0.1-2.1
				c0-0.6-0.4-1.8-0.2-2.3c0.3-0.8,1.7-0.8,2.5-1C60,79.1,61.5,78.7,63,78.4z"/>
			<path class="st35" d="M55.8,115.7l0,1.2l3.4,0c0.7,0,1.3-0.4,1.5-1.1L62,111l0.5-1.5l-0.3-1.4c0,0-2.8,6.7-3.1,6.7
				c-0.3,0-2.7-0.1-2.7-0.1l-0.1-1L55.8,115.7z"/>
		</g>
	</g>
	<path class="st39" d="M65.8,32.5c0-1.9-6.7-5.9-6.7-5.9s-3.6,6.8-6.2,12.1c-0.5,1.1-1,2.1-1.3,3c-0.2-1-0.2-2.1-0.3-3
		c-0.3-6.8,1.9-12.2,1.9-12.2l-3.8,0.8c-0.7,0.1-1.2,0.6-1.5,1.1c-0.1,0.3-1.8,6.3-2,7.6c-0.3,2.3,0.9,6.8,1.2,9.1
		c0.3,2.5-2.2,38.8-1.4,48.2c0.3,4.2,19.9,4.6,22.8,1.5C69.8,93.4,65.8,33.8,65.8,32.5z"/>
	<path class="st40" d="M52.7,31.5c-1.8-1-0.5-4.6-0.1-4.7c0.2-0.1,1-0.2,1.3,0.2c0.9,1,1.4,3.1,1.4,3.1S53.3,31.9,52.7,31.5z"/>
	<g>
		<path class="st41" d="M59.2,25.4l0,1.1l0,2c0,0-0.2,0.3-0.6,0.7l0,0c-0.1,0.1-0.2,0.2-0.3,0.2c-0.3,0.2-0.6,0.4-1,0.5
			c-0.6,0.2-1.3,0.3-1.9,0.3c-0.2,0-0.4,0-0.6-0.1c-0.5-0.1-0.7-0.4-0.9-0.7c-0.1-0.2-0.2-0.5-0.3-0.7l0.1-2.6l0.1-1.2L59.2,25.4z"
			/>
		<path class="st42" d="M56.9,12.9c-1.2-2.4-2.2-3.5-4-2.3c0-0.1-1.3,0.5-1.4,0.6c-1,0.9-2.7,3.7-2.9,5c-0.4,2.6-1.3,5-3.1,6.9
			c-0.1,0.1-0.1,0.3,0.1,0.4c4.8,3.4,9.2,0.7,11.2-4.4C57.6,17.2,57.9,14.8,56.9,12.9z"/>
		<path class="st43" d="M62.3,21.9c-3.2,3.1-4,5.7-7.2,3.6c-3.2-2.1-5.7-7.3-4.9-11.7c0.8-4.6,7.5-6.2,11.3-4
			C67,12.9,65.4,18.9,62.3,21.9z"/>
		<path class="st44" d="M61.2,19.8c-0.2,1.3-1.1,5.2-2.1,5.9c-1.4,1-4.5,2.6-6.3,1.4c-2.4-1.6-2.8-5.9-2.8-10.1c0-4.2,3.2-5,5.9-3.2
			C58.8,15.5,61.9,15.6,61.2,19.8z"/>
		<path class="st44" d="M61.2,20c-0.4,1.1-0.9,1.8-1.6,1.7c-0.7-0.1-1.1-0.8-0.9-2c0.2-1.2,1.2-2,1.9-1.9
			C61.2,17.8,61.6,18.7,61.2,20z"/>
		<path class="st43" d="M58,11c-1.4-2-4.2-0.8-5.8,0.1c-2.9,1.7-3.4,4.7-4,7.8c0,0.2,0.1,0.4,0.3,0.3c3.5-1.4,8.3-4.1,10-7.6
			C58.7,11.5,58.2,11.3,58,11z"/>
		<path class="st43" d="M66.7,17.4c-0.8-2.5-2.4-6.2-5-7.5c-2.8-1.5-6.1,1.7-5.3,3.7c1.5,4,2.3,8.4-0.3,11.3c-0.2,0.2,0,0.5,0.2,0.5
			c3.1,0.3,6.4,0.9,9.3-0.6C68.4,23.3,67.5,19.7,66.7,17.4z"/>
	</g>
	<path class="st40" d="M61,29.7c-0.7,1.1-2.8,2.9-4,2.8c-0.7-0.1-1.4-1.4-1.7-2.2c0.6,0,1.3-0.1,1.9-0.3c0.4-0.1,0.8-0.3,1-0.5
		c0.1-0.1,0.2-0.2,0.3-0.2l0,0c0.4-0.4,0.6-0.7,0.6-0.7l0-2C60.1,27,62.1,28,61,29.7z"/>
	<g>
		<path class="st6" d="M68.2,52.1c0,1.8-1.4,3.3-3.2,3.4l0,0c-1.8,0-3.3-1.4-3.4-3.2l-0.5-17.5c0-1.8,1.4-3.3,3.2-3.4l0,0
			c1.8,0,3.3,1.4,3.4,3.2L68.2,52.1z"/>
		<path class="st6" d="M67.8,51.3c-0.6-1.7-2.5-2.5-4.2-1.9l-14.7,5.7c1.1,0.8,2.1,2.1,2.3,2.9c0.3,1,0.5,2,0.3,3L66,55.4
			C67.7,54.8,68.5,52.9,67.8,51.3z"/>
		<path class="st6" d="M52.1,57.3c0.7,1.7,0.6,3.3-0.3,3.7c-0.9,0.4-2.2-0.7-2.9-2.3c-0.7-1.7-0.6-3.3,0.3-3.7
			C50,54.6,51.3,55.6,52.1,57.3z"/>
		<path class="st37" d="M51.9,57.4c0.6,1.5,0.5,3-0.3,3.3c-0.8,0.3-1.9-0.6-2.6-2.1c-0.6-1.5-0.5-3,0.3-3.3
			C50.1,55,51.2,55.9,51.9,57.4z"/>
		<path class="st44" d="M52.2,59.8c0.4-1.3-0.6-3.3-1.2-3.8c-0.5,0-1.6,0.2-2.7,0.4c-1.6,0.4-3.4,1.1-4,2.1
			c-1.4,2.2-0.5,2.9,0.6,3.4C46.4,62.6,50.3,59.2,52.2,59.8z"/>
	</g>
	<g>
		<path class="st45" d="M31.8,38C31.8,38.1,31.8,38.1,31.8,38c0,0.3,0,0.5-0.1,0.7c0,0,0,0,0,0.1c0,0.1,0,0.1-0.1,0.2
			c-0.1,0.3-0.3,0.6-0.5,0.8C31,40,30.9,40,30.8,40.1c-0.5-0.1-0.6,0-1.1,0c-0.2,0-0.4-0.1-0.6-0.1c-0.7-0.1-1.3-0.3-1.6-0.4
			c-0.6-0.2-1.5-0.6-1.9-1.1c-0.4-0.5-0.5-1.2-0.3-1.7c0.1-0.2,0.2-0.4,0.3-0.5c0.3-0.3,0.7-0.5,1.1-0.4c0.3,0,0.5,0.1,0.8,0.3
			c0.6,0.3,1.4,0.7,2.2,1.1c0.2,0.1,0.4,0.2,0.7,0.3C31,37.7,31.3,37.8,31.8,38z"/>
		<g>
			<g class="st3">
				<g class="st3">
					<defs>
						<path id="SVGID_71_" class="st3" d="M20.7,29.4l7.6,10c0,0.1,0,0.1,0,0.2c-0.1,0.2-0.3,0.3-0.5,0.4c-0.1,0-0.2,0-0.2-0.1
							l-7.4-10.1c0,0,0.1,0.1,0.1,0c0.1,0,0.3-0.1,0.3-0.3C20.7,29.5,20.7,29.4,20.7,29.4z"/>
					</defs>
					<clipPath id="SVGID_2_">
						<use xlink:href="#SVGID_71_"  style="overflow:visible;"/>
					</clipPath>
					<g class="st46">
						<polygon class="st47" points="20.7,29.4 28.3,39.3 28.3,39.3 20.7,29.4 20.7,29.4 						"/>
						<path class="st48" d="M20.7,29.4l7.6,10c0,0,0,0.1,0,0.1L20.7,29.4C20.7,29.4,20.7,29.4,20.7,29.4L20.7,29.4z"/>
						<path class="st49" d="M20.7,29.4l7.6,10c0,0,0,0.1,0,0.1c0,0.1-0.1,0.1-0.1,0.2l-7.5-10.1C20.7,29.6,20.7,29.6,20.7,29.4
							C20.7,29.5,20.7,29.5,20.7,29.4L20.7,29.4z"/>
						<path class="st48" d="M20.6,29.7l7.5,10.1c0,0-0.1,0.1-0.1,0.1L20.6,29.7C20.6,29.7,20.6,29.7,20.6,29.7L20.6,29.7z"/>
						<path class="st47" d="M20.5,29.7L28,39.9c-0.1,0-0.1,0.1-0.2,0.1c-0.1,0-0.2,0-0.2-0.1l-7.4-10.1c0,0,0.1,0.1,0.1,0
							C20.4,29.8,20.5,29.8,20.5,29.7L20.5,29.7z"/>
					</g>
				</g>
				<g>
					<path class="st50" d="M20.6,29.3c0.1,0,0.2,0.1,0.2,0.2c-0.1,0.1-0.2,0.2-0.3,0.3c-0.1,0-0.2-0.1-0.2-0.2
						C20.3,29.5,20.4,29.3,20.6,29.3z"/>
				</g>
			</g>
		</g>
		<path class="st45" d="M31.7,37.5c0,0.2,0.1,0.3,0,0.5c0,0,0,0,0,0c0,0.2,0,0.5-0.1,0.7c0,0,0,0,0,0.1c-0.7-0.3-1.1-0.4-1.5-0.5
			c-0.1,0-0.2-0.1-0.3-0.1c-0.2-0.1-0.5-0.1-0.7-0.2c-0.2-0.1-0.4-0.1-0.6-0.2c0,0,0,0,0,0c0,0,0,0,0,0l0,0
			c-0.7-0.3-1.3-0.9-1.7-1.6c-0.4,0.1-0.8,0-1.2-0.1c-0.1,0-0.1,0-0.2-0.1c-0.2-0.1-0.4-0.2-0.6-0.3c-0.1-0.2-0.2-0.4-0.1-0.6
			c0.7-0.1,1.5-0.1,2.2-0.2c0.4,0,0.9-0.1,1.3,0c0.9,0.2,1.5,0.9,2.1,1.5c0,0,0,0.1,0.1,0.1c0.1,0.1,0.3,0.3,0.5,0.4
			C31.2,37.3,31.3,37.3,31.7,37.5z"/>
		<path class="st45" d="M27.2,37c0.1,0.1,0.2,0.2,0.2,0.4c0,0.1-0.1,0.3-0.2,0.3c0.1,0,0.3,0.1,0.4,0.2c0.1,0.1,0,0.4-0.2,0.3
			c0.2,0,0.4,0.1,0.5,0.3s-0.1,0.4-0.3,0.4c0.1,0,0.3,0.2,0.2,0.3c0,0.1-0.2,0.2-0.3,0.3c-0.1,0-0.3,0-0.4,0c-0.6,0-1.2-0.1-1.6-0.4
			c-0.1,0-0.1-0.1-0.2-0.2c0-0.1,0-0.2,0.1-0.2c-0.2-0.1-0.4-0.2-0.5-0.4c-0.1-0.2-0.1-0.5,0.1-0.6c-0.2-0.1-0.3-0.3-0.4-0.5
			c0-0.2,0.1-0.5,0.3-0.4c-0.2-0.2-0.3-0.6-0.2-0.9c0.2-0.4,0.3-0.3,0.6-0.1C25.8,36.5,26.6,36.5,27.2,37z"/>
	</g>
</g>
</svg>
