<?xml version="1.0" encoding="utf-8"?>
<!-- Generator: Adobe Illustrator 19.1.0, SVG Export Plug-In . SVG Version: 6.00 Build 0)  -->
<svg version="1.1" id="Layer_1" xmlns="http://www.w3.org/2000/svg" xmlns:xlink="http://www.w3.org/1999/xlink" x="0px" y="0px"
	 viewBox="0 0 342 181.3" style="enable-background:new 0 0 342 181.3;" xml:space="preserve">
<style type="text/css">
	.st0{fill:#6077DF;}
	.st1{fill:#FFCA00;}
	.st2{fill:#035E87;}
	.st3{enable-background:new    ;}
	.st4{fill:#BDBDBD;}
	.st5{fill:#C9C9C9;}
	.st6{fill:#FFFFFF;}
	.st7{fill:#EBEBEB;}
	.st8{fill:#999999;}
	.st9{fill:#FFB300;}
	.st10{fill:#3C3D00;}
	.st11{fill:#F5F5F5;}
	.st12{fill:#212221;}
	.st13{fill:#F2A012;}
	.st14{fill:#D68E10;}
	.st15{fill:#4B4B4B;}
	.st16{fill:#4F4F4F;}
	.st17{fill:#333333;}
	.st18{fill:#484848;}
	.st19{fill:#DE8E11;}
	.st20{fill:#D68910;}
	.st21{fill:#EB9611;}
	.st22{fill:#EDA800;}
	.st23{fill:#BF7B0F;}
	.st24{fill:#F5AE02;}
	.st25{fill:#F29B12;}
	.st26{fill:#E89A11;}
	.st27{fill:#A11D11;}
	.st28{opacity:0.18;}
	.st29{fill:#415464;}
	.st30{fill:#4CDAB0;}
	.st31{fill:#E0E0E0;}
	.st32{opacity:0.75;fill:#3A4F9B;}
	.st33{opacity:0.27;fill:#375056;}
	.st34{fill:#BA8B75;}
	.st35{fill:#242424;}
	.st36{fill:#2B3E4F;}
	.st37{fill:#DCDCDC;}
	.st38{fill:#DEB09D;}
	.st39{fill:#EBF1F5;}
	.st40{fill:#025074;}
	.st41{fill:#E9AE93;}
	.st42{fill:#291222;}
	.st43{fill:#3E1C33;}
	.st44{fill:#E9C2B0;}
	.st45{fill:#F9CFB3;}
	.st46{clip-path:url(#SVGID_2_);enable-background:new    ;}
	.st47{fill:#AA2A41;}
	.st48{fill:#D43451;}
	.st49{fill:#FF3F61;}
	.st50{fill:#9F273C;}
	.st51{fill:none;stroke:#6AEFC3;stroke-miterlimit:10;}
	.st52{fill:none;stroke:#6AEFC3;stroke-miterlimit:10;stroke-dasharray:5.915,5.915;}
	.st53{fill:none;stroke:#6AEFC3;stroke-miterlimit:10;stroke-dasharray:6.0713,6.0713;}
	.st54{fill:none;stroke:#6AEFC3;stroke-miterlimit:10;stroke-dasharray:5.9151,5.9151;}
	.st55{fill:none;stroke:#6AEFC3;stroke-miterlimit:10;stroke-dasharray:6.0712,6.0712;}
	.st56{fill:#CCCCCC;}
	.st57{fill:#E6E6E6;}
	.st58{fill:#F2F2F2;}
	.st59{fill-rule:evenodd;clip-rule:evenodd;fill:#FFFFFF;}
	.st60{opacity:0.27;}
	.st61{fill:#375056;}
	.st62{fill:#6EC6E6;}
	.st63{opacity:0.17;}
	.st64{fill:#28A7C9;}
	.st65{fill:#ADECF7;}
	.st66{clip-path:url(#SVGID_4_);}
	.st67{fill:#FEC363;}
	.st68{fill:#353F49;}
	.st69{fill:#474F59;}
	.st70{clip-path:url(#SVGID_6_);}
	.st71{fill:#A3A3EF;}
	.st72{fill:#BABAF4;}
	.st73{clip-path:url(#SVGID_8_);}
	.st74{fill:#F2B50A;}
	.st75{opacity:0.15;}
	.st76{fill:#97723F;}
	.st77{fill:#856231;}
	.st78{fill:#BD553D;}
	.st79{fill:#3E626A;}
	.st80{opacity:0.3;}
	.st81{opacity:0.42;}
	.st82{opacity:0.5;}
	.st83{fill:none;stroke:#6AEFC3;stroke-miterlimit:10;stroke-dasharray:6,6;}
	.st84{clip-path:url(#SVGID_10_);}
	.st85{fill:#3FBC92;}
	.st86{fill:#FDFFFE;}
	.st87{fill:#2B0D04;}
	.st88{fill:#134663;}
	.st89{fill:#DEF3EE;}
	.st90{clip-path:url(#SVGID_12_);enable-background:new    ;}
	.st91{clip-path:url(#SVGID_14_);}
	.st92{clip-path:url(#SVGID_16_);}
	.st93{clip-path:url(#SVGID_18_);}
	.st94{clip-path:url(#SVGID_20_);enable-background:new    ;}
	.st95{clip-path:url(#SVGID_22_);}
	.st96{clip-path:url(#SVGID_24_);}
	.st97{clip-path:url(#SVGID_26_);}
	.st98{clip-path:url(#SVGID_28_);enable-background:new    ;}
	.st99{clip-path:url(#SVGID_30_);}
	.st100{clip-path:url(#SVGID_32_);}
	.st101{clip-path:url(#SVGID_34_);}
	.st102{fill:#2FB286;}
	.st103{clip-path:url(#SVGID_36_);}
	.st104{clip-path:url(#SVGID_38_);}
	.st105{opacity:0.2;}
	.st106{fill:#585858;}
	.st107{fill:#616161;}
	.st108{fill:#505050;}
	.st109{fill:#414141;}
	.st110{fill:#232423;}
	.st111{fill:#424342;}
	.st112{fill:#C27508;}
	.st113{fill:#F0910A;}
	.st114{fill:#3E3F3E;}
	.st115{fill:#2F302F;}
	.st116{fill:#1F1F1F;}
	.st117{fill:#272727;}
	.st118{fill:#1E1E1E;}
	.st119{clip-path:url(#SVGID_40_);enable-background:new    ;}
	.st120{clip-path:url(#SVGID_42_);}
	.st121{clip-path:url(#SVGID_44_);}
	.st122{clip-path:url(#SVGID_46_);}
	.st123{opacity:0.75;}
	.st124{fill:#3A4F9B;}
	.st125{fill:#2E2F2E;}
	.st126{fill:#303130;}
	.st127{fill:#3D3E3D;}
	.st128{fill:#A26207;}
	.st129{fill:#A86507;}
	.st130{clip-path:url(#SVGID_48_);}
	.st131{clip-path:url(#SVGID_50_);}
	.st132{opacity:0.7656;fill:#3A4F9B;}
	.st133{opacity:0.7812;fill:#3A4F9B;}
	.st134{opacity:0.7969;fill:#3A4F9B;}
	.st135{opacity:0.8125;fill:#3A4F9B;}
	.st136{opacity:0.8281;fill:#3A4F9B;}
	.st137{opacity:0.8438;fill:#3A4F9B;}
	.st138{opacity:0.8594;fill:#3A4F9B;}
	.st139{opacity:0.875;fill:#3A4F9B;}
	.st140{opacity:0.8906;fill:#3A4F9B;}
	.st141{opacity:0.9062;fill:#3A4F9B;}
	.st142{opacity:0.9219;fill:#3A4F9B;}
	.st143{opacity:0.9375;fill:#3A4F9B;}
	.st144{opacity:0.9531;fill:#3A4F9B;}
	.st145{opacity:0.9688;fill:#3A4F9B;}
	.st146{opacity:0.9844;fill:#3A4F9B;}
	.st147{clip-path:url(#SVGID_52_);}
	.st148{clip-path:url(#SVGID_54_);}
	.st149{clip-path:url(#SVGID_56_);}
	.st150{clip-path:url(#SVGID_58_);}
	.st151{clip-path:url(#SVGID_60_);enable-background:new    ;}
	.st152{clip-path:url(#SVGID_62_);}
	.st153{clip-path:url(#SVGID_64_);}
	.st154{clip-path:url(#SVGID_66_);}
	.st155{clip-path:url(#SVGID_68_);}
	.st156{clip-path:url(#SVGID_70_);enable-background:new    ;}
	.st157{clip-path:url(#SVGID_72_);enable-background:new    ;}
	.st158{clip-path:url(#SVGID_74_);}
	.st159{clip-path:url(#SVGID_76_);}
	.st160{clip-path:url(#SVGID_78_);}
	.st161{clip-path:url(#SVGID_80_);}
	.st162{clip-path:url(#SVGID_82_);}
	.st163{clip-path:url(#SVGID_84_);}
</style>
<g class="st123">
	<polygon class="st124" points="7,77.5 7,68 315.2,112.7 195,172.8 	"/>
</g>
<g>
	<polygon class="st57" points="7,68 7,61.8 127.8,7.9 333.3,104.5 332.8,110.4 213.1,170.8 	"/>
</g>
<g>
	<polygon class="st6" points="7,61.8 127.8,1.7 333.3,104.5 213.1,164.6 	"/>
</g>
<g>
	<polygon class="st62" points="24.7,61.8 130,9.2 310.2,99.2 204.8,151.9 	"/>
</g>
<g>
	<polygon class="st6" points="156.8,136 276.4,76.2 332.6,104.3 213,164.2 	"/>
</g>
<g class="st63">
	<polygon class="st64" points="173.5,136.2 215.3,114.7 226,120.3 184.2,141.8 	"/>
</g>
<g class="st63">
	<polygon class="st64" points="192.4,144.9 295.7,90.8 301.2,93.1 197.2,147.5 	"/>
</g>
<g class="st63">
	<polygon class="st64" points="199.2,148.6 302.5,94.5 308,96.8 204,151.1 	"/>
</g>
<g>
	<g>
		<g class="st3">
			<defs>
				<polygon id="SVGID_75_" class="st3" points="149.8,106.6 77.8,69.8 148.1,33.9 220.1,70.8 				"/>
			</defs>
			<clipPath id="SVGID_2_">
				<use xlink:href="#SVGID_75_"  style="overflow:visible;"/>
			</clipPath>
			<g style="clip-path:url(#SVGID_2_);">
				<g>
					<g>
						<g>
							<path class="st29" d="M164.4,78.2c-1.8,0.9-2.8,2.1-2.9,3.4c0.9,0.3,1.8,0.7,2.6,1.1c-0.5-1.3,0.2-2.6,2.1-3.6
								c1.9-1,4.5-1.3,7-1c-0.4-0.2-0.8-0.5-1.2-0.7l-0.1-0.1l-0.3-0.2l-0.1-0.1l-0.1-0.1c-0.1-0.1-0.2-0.1-0.3-0.2
								C168.6,76.7,166.2,77.2,164.4,78.2"/>
							<path class="st29" d="M132.9,41.7l1.8,0.9c3.5-1.8,8.2-2.7,12.9-2.6c4.7,0.1,9.5,1,13.1,2.9l32.3,16.6c1.9,0.2,3.7,0.6,5.4,1
								l-36-18.4C154.1,37.8,140.9,37.6,132.9,41.7"/>
							<path class="st29" d="M93,62c-8,4.1-7.7,10.8,0.6,15.1l36.1,18.5c-0.8-0.7-1.4-1.5-1.8-2.3l0-0.1c-0.1-0.1-0.1-0.2-0.2-0.4
								L95.3,76.2c-3.7-1.9-5.6-4.3-5.7-6.7c-0.1-2.4,1.6-4.8,5.1-6.6L93,62"/>
							<path class="st6" d="M162.4,83.5C162.4,83.5,162.4,83.5,162.4,83.5C162.4,83.5,162.4,83.5,162.4,83.5 M141.3,81.3
								c0.1,0,0.2,0,0.3-0.1C141.5,81.2,141.4,81.3,141.3,81.3L141.3,81.3 M133.7,84.1c0,0-0.1,0-0.1,0.1l0,0l0,0c0,0,0,0,0,0l0,0
								C133.6,84.1,133.7,84.1,133.7,84.1"/>
							<path class="st71" d="M130.7,93.6c0.3,0.4,0.6,0.8,0.9,1.1c-0.3-0.3-0.6-0.6-0.8-1C130.7,93.8,130.7,93.7,130.7,93.6
								 M130.2,93L130.2,93c0,0.1,0,0.1,0.1,0.1C130.3,93,130.3,93,130.2,93 M129.8,91.9c0,0.1,0.1,0.2,0.1,0.3c0-0.1,0-0.1-0.1-0.2
								C129.8,92,129.8,92,129.8,91.9 M129.6,89.4c-0.1,0.7-0.1,1.3,0.1,2c0-0.1,0-0.2-0.1-0.3c0-0.2-0.1-0.3-0.1-0.5l0-0.5
								c0-0.2,0-0.3,0-0.5C129.5,89.6,129.5,89.5,129.6,89.4 M145.7,80.7c1.8,0.5,3.4,1.2,5,2c0.7,0.4,1.4,0.8,2.1,1.2
								c0.2,0.1,0.3,0.2,0.5,0.4c0.5,0.3,0.9,0.7,1.4,1l0.3,0.3c0.5,0.4,0.9,0.9,1.3,1.4l0.2,0.3c0.3,0.4,0.5,0.8,0.8,1.2l0.1,0.2
								l0,0c2,4,0.2,8.3-5.7,11.4c-0.5,0.2-1,0.5-1.5,0.7c4.8,0,9.6-0.9,13.2-2.8l0.1-0.1c7.4-3.8,7.1-10.1-0.6-14.1
								c-0.1,0-0.1-0.1-0.2-0.1c-0.1,0-0.1-0.1-0.2-0.1c0,0,0,0,0,0C157.7,81.2,151.5,80.3,145.7,80.7L145.7,80.7 M130.2,87.5
								c-0.1,0.1-0.1,0.3-0.2,0.4C130.1,87.8,130.2,87.6,130.2,87.5 M141.2,81.3c0.4-0.1,0.7-0.1,1.1-0.2c-0.2,0-0.5,0.1-0.7,0.1
								C141.4,81.2,141.4,81.3,141.2,81.3L141.2,81.3 M131.4,86c-0.2,0.2-0.3,0.4-0.5,0.6l0,0l0,0c-0.2,0.2-0.4,0.5-0.5,0.7
								c0.1-0.1,0.2-0.2,0.2-0.4c0.1-0.1,0.2-0.3,0.3-0.4c0.1-0.2,0.3-0.3,0.4-0.5C131.3,86.1,131.3,86,131.4,86 M132.3,85.1
								c-0.1,0.1-0.3,0.2-0.4,0.4c0.1-0.1,0.2-0.1,0.2-0.2C132.2,85.2,132.2,85.2,132.3,85.1 M133.2,84.4
								C133.2,84.5,133.2,84.5,133.2,84.4C133.2,84.5,133.2,84.5,133.2,84.4 M133.6,84.2C133.6,84.2,133.6,84.2,133.6,84.2l-0.2,0.1
								L133.6,84.2 M135.1,83.3C135.1,83.3,135.1,83.3,135.1,83.3C135.1,83.3,135.1,83.3,135.1,83.3"/>
							<path class="st72" d="M139.3,93.7l-3.6,1c-1.7-1.5-2.5-3.3-2.1-5c0.2-0.9,0.7-1.7,1.4-2.5c0.7-0.8,1.7-1.5,2.9-2.1l3,1.5
								c-0.9,0.5-1.6,1-2.1,1.5c-0.5,0.6-0.9,1.2-1,1.8C137.4,91.3,138,92.6,139.3,93.7 M135,83.4L135,83.4
								c-0.5,0.3-0.9,0.5-1.3,0.7c0,0-0.1,0-0.1,0.1l0,0l-0.2,0.1l-0.1,0.1l-0.1,0.1c0,0-0.1,0-0.1,0.1c-0.1,0.1-0.2,0.2-0.4,0.2
								c-0.2,0.1-0.3,0.3-0.5,0.4c0,0-0.1,0.1-0.2,0.1c-0.1,0.1-0.2,0.1-0.2,0.2c-0.2,0.2-0.4,0.3-0.5,0.5c0,0-0.1,0.1-0.1,0.1
								c-0.2,0.2-0.3,0.3-0.4,0.5c-0.1,0.1-0.2,0.3-0.3,0.4c-0.1,0.1-0.2,0.2-0.2,0.4c0,0.1-0.1,0.1-0.1,0.2
								c-0.1,0.1-0.1,0.3-0.2,0.4l0,0c-0.2,0.4-0.3,0.8-0.4,1.1l-0.1,0.2l0,0c0,0,0,0.1,0,0.1c0,0.1,0,0.2,0,0.3c0,0.2,0,0.3,0,0.5
								l0,0.5c0,0.2,0,0.3,0.1,0.5c0,0.1,0,0.2,0.1,0.3c0,0.2,0.1,0.3,0.1,0.5c0,0,0,0.1,0,0.1c0,0.1,0,0.1,0.1,0.2
								c0.1,0.2,0.2,0.5,0.3,0.7l0,0.1c0,0,0,0.1,0.1,0.1c0.1,0.2,0.2,0.4,0.3,0.5c0,0.1,0.1,0.1,0.1,0.2c0.2,0.3,0.5,0.6,0.8,1
								c0.6,0.6,1.2,1.1,2,1.7l0.1,0l0.4,0.2l0,0l0,0c0.5,0.3,1,0.6,1.6,0.9c0.5,0.3,1,0.5,1.6,0.7c0.2,0.1,0.4,0.1,0.6,0.2
								c0.4,0.1,0.7,0.3,1.1,0.4c0.2,0.1,0.5,0.1,0.7,0.2c0.3,0.1,0.7,0.2,1,0.3c0.2,0.1,0.5,0.1,0.7,0.2c0.4,0.1,0.7,0.2,1.1,0.3
								c0.2,0.1,0.5,0.1,0.7,0.1c0.4,0.1,0.8,0.1,1.1,0.2l0.7,0.1c0.4,0,0.8,0.1,1.2,0.1l0.7,0.1c0.4,0,0.8,0.1,1.3,0.1l0.6,0
								c0.4,0,0.9,0,1.3,0l0.1,0l0,0c0,0,0,0,0,0c0.5-0.2,1-0.5,1.5-0.7c5.9-3.1,7.8-7.4,5.7-11.4l0,0l-0.1-0.2
								c-0.2-0.4-0.5-0.8-0.8-1.2l-0.2-0.3c-0.4-0.5-0.8-0.9-1.3-1.4l-0.3-0.3c-0.4-0.3-0.9-0.7-1.4-1c-0.2-0.1-0.3-0.2-0.5-0.4
								c-0.6-0.4-1.3-0.8-2.1-1.2c-1.5-0.8-3.2-1.4-5-2l-0.4,0c-0.3,0-0.5,0-0.8,0.1c-0.3,0-0.7,0.1-1,0.1l-0.7,0.1
								c-0.2,0-0.4,0.1-0.6,0.1c-0.4,0.1-0.7,0.1-1.1,0.2l-0.3,0.1c-0.4,0.1-0.8,0.2-1.2,0.3l-0.5,0.2c-0.3,0.1-0.7,0.2-1,0.3
								l-0.5,0.2c-0.3,0.1-0.7,0.2-1,0.4l-0.4,0.2c-0.4,0.2-0.7,0.3-1.1,0.5c0,0,0,0,0,0C135.1,83.3,135,83.4,135,83.4"/>
							<path class="st6" d="M137.8,85.2c-1.2,0.6-2.2,1.3-2.9,2.1c-0.7,0.8-1.2,1.6-1.4,2.5c-0.4,1.8,0.4,3.5,2.1,5l3.6-1
								c-1.3-1.1-1.8-2.4-1.6-3.7c0.1-0.6,0.5-1.3,1-1.8c0.5-0.6,1.2-1.1,2.1-1.5L137.8,85.2"/>
							<path class="st6" d="M180.1,79.2c0,0,0.1,0,0.1,0c0,0,0,0,0.1,0C180.3,79.2,180.2,79.2,180.1,79.2 M178.4,78.7
								c0,0,0.1,0,0.1,0c0,0,0.1,0,0.1,0C178.6,78.7,178.5,78.7,178.4,78.7 M175.3,77.4c0.5,0.3,1,0.5,1.6,0.7c0,0,0.1,0,0.1,0.1
								C176.5,77.9,175.9,77.7,175.3,77.4 M175.1,77.3C175.1,77.3,175.1,77.3,175.1,77.3C175.2,77.3,175.1,77.3,175.1,77.3
								C175.1,77.3,175.1,77.3,175.1,77.3C175.1,77.3,175.1,77.3,175.1,77.3 M202,63.2c0,0,0.1,0,0.1,0.1
								C202.1,63.3,202.1,63.3,202,63.2 M201.8,63.1c0,0,0.1,0,0.1,0.1C201.9,63.2,201.9,63.2,201.8,63.1 M200.7,62.6
								c0.4,0.2,0.8,0.3,1.1,0.5C201.4,63,201,62.8,200.7,62.6 M200.5,62.6c0.1,0,0.1,0,0.2,0.1C200.6,62.6,200.5,62.6,200.5,62.6
								 M200.2,62.5c0.1,0,0.1,0,0.2,0.1C200.4,62.5,200.3,62.5,200.2,62.5 M200,62.4c0,0,0.1,0,0.1,0
								C200.1,62.4,200.1,62.4,200,62.4 M199.8,62.3C199.8,62.3,199.8,62.3,199.8,62.3C199.8,62.3,199.8,62.3,199.8,62.3 M181,61
								c0.1,0,0.2,0,0.3-0.1C181.2,61,181.1,61,181,61L181,61 M173.4,63.9c0,0-0.1,0-0.1,0.1l0,0l0,0c0,0,0,0,0,0l0,0
								C173.3,63.9,173.4,63.9,173.4,63.9"/>
							<path class="st71" d="M175.1,77.3C175.1,77.3,175.2,77.3,175.1,77.3c0.1,0,0.1,0.1,0.2,0.1C175.3,77.4,175.2,77.3,175.1,77.3
								 M173.9,76.6c0.4,0.2,0.8,0.5,1.2,0.7c0,0,0,0,0,0C174.7,77.1,174.3,76.8,173.9,76.6 M171.5,74.7
								C171.5,74.7,171.5,74.7,171.5,74.7C171.5,74.7,171.5,74.7,171.5,74.7 M171.3,74.6C171.4,74.6,171.4,74.6,171.3,74.6
								C171.4,74.6,171.4,74.6,171.3,74.6 M170.3,73.3c0.3,0.4,0.6,0.8,1,1.2c-0.3-0.3-0.6-0.6-0.8-1
								C170.4,73.5,170.4,73.4,170.3,73.3 M169.9,72.6C169.9,72.6,169.9,72.6,169.9,72.6l0.1,0.1l0,0c0,0.1,0.1,0.1,0.1,0.2
								c0-0.1-0.1-0.1-0.1-0.2C169.9,72.7,169.9,72.6,169.9,72.6 M169.5,71.7c0,0.1,0.1,0.2,0.1,0.2
								C169.6,71.9,169.6,71.9,169.5,71.7C169.5,71.8,169.5,71.8,169.5,71.7 M169.2,70.6c0,0.2,0.1,0.4,0.1,0.5c0-0.1,0-0.1,0-0.2
								C169.3,70.8,169.3,70.7,169.2,70.6 M169.2,69.7c0,0.2,0,0.5,0,0.7l0-0.4C169.2,69.9,169.2,69.8,169.2,69.7 M169.2,69.5
								C169.2,69.5,169.2,69.5,169.2,69.5C169.2,69.5,169.2,69.5,169.2,69.5 M169.3,69.1L169.3,69.1c0,0.1,0,0.2,0,0.3
								C169.3,69.3,169.3,69.2,169.3,69.1 M185.4,60.5c1.7,0.5,3.4,1.2,4.9,1.9c0.7,0.4,1.4,0.8,2.1,1.2c0.2,0.1,0.4,0.2,0.5,0.4
								c0.5,0.3,0.9,0.7,1.4,1l0.3,0.3c0.5,0.4,0.9,0.9,1.3,1.4l0.2,0.3c0.3,0.4,0.5,0.8,0.8,1.2l0.1,0.2l0,0c2,4,0.2,8.3-5.7,11.4
								c-0.5,0.2-1,0.5-1.5,0.7c4.8,0,9.6-0.9,13.2-2.8l0.1-0.1c7.4-3.8,7.1-10.1-0.6-14.1c-0.1,0-0.1-0.1-0.2-0.1
								c-0.1,0-0.1-0.1-0.2-0.1c0,0-0.1,0-0.1-0.1c0,0,0,0-0.1,0c0,0-0.1,0-0.1-0.1c0,0,0,0,0,0c-0.4-0.2-0.7-0.3-1.1-0.5
								c0,0,0,0,0,0c-0.1,0-0.1,0-0.2-0.1c0,0,0,0-0.1,0c-0.1,0-0.1,0-0.2-0.1c0,0-0.1,0-0.1,0c0,0-0.1,0-0.1,0
								c-0.1,0-0.1-0.1-0.2-0.1c0,0,0,0,0,0C195.5,60.7,190.3,60.1,185.4,60.5 M169.6,68.1C169.6,68.1,169.6,68.1,169.6,68.1
								C169.5,68.1,169.5,68.1,169.6,68.1C169.6,68.1,169.6,68.1,169.6,68.1 M169.9,67.3c-0.1,0.1-0.1,0.3-0.2,0.4
								C169.8,67.5,169.9,67.4,169.9,67.3 M180.9,61.1c0.3-0.1,0.6-0.1,0.9-0.2c-0.2,0-0.3,0.1-0.5,0.1
								C181.2,61,181.1,61,180.9,61.1L180.9,61.1 M171.1,65.8c-0.2,0.2-0.3,0.4-0.5,0.6l0,0l0,0c-0.2,0.2-0.4,0.5-0.5,0.7
								c0.1-0.1,0.2-0.2,0.2-0.4c0.1-0.1,0.2-0.3,0.3-0.4c0.1-0.2,0.3-0.3,0.4-0.5C171,65.8,171,65.8,171.1,65.8 M172,64.9
								c-0.1,0.1-0.3,0.3-0.4,0.4c0.1-0.1,0.2-0.2,0.3-0.2C171.9,65,171.9,64.9,172,64.9 M172.9,64.2c0,0-0.1,0.1-0.1,0.1
								C172.8,64.3,172.9,64.2,172.9,64.2 M173.3,63.9C173.3,64,173.3,64,173.3,63.9l-0.1,0.1L173.3,63.9 M174.8,63.1
								C174.8,63.1,174.8,63.1,174.8,63.1C174.8,63.1,174.8,63.1,174.8,63.1"/>
							<path class="st72" d="M179,73.5l-3.6,1c-1.7-1.5-2.5-3.3-2.1-5c0.2-0.9,0.7-1.7,1.4-2.5c0.7-0.8,1.7-1.5,2.9-2.1l3,1.5
								c-0.9,0.5-1.6,1-2.1,1.5c-0.5,0.6-0.9,1.2-1,1.8C177.1,71.1,177.7,72.4,179,73.5 M174.7,63.2l-0.1,0.1
								c-0.4,0.2-0.8,0.4-1.2,0.7c0,0-0.1,0-0.1,0.1l0,0l-0.1,0.1l-0.1,0.1l-0.1,0.1c0,0-0.1,0.1-0.1,0.1c-0.1,0.1-0.2,0.2-0.3,0.2
								c-0.2,0.1-0.3,0.3-0.5,0.4c-0.1,0-0.1,0.1-0.2,0.1c-0.1,0.1-0.2,0.2-0.3,0.2c-0.2,0.2-0.3,0.3-0.5,0.5c0,0-0.1,0.1-0.1,0.1
								c-0.1,0.2-0.3,0.3-0.4,0.5c-0.1,0.1-0.2,0.3-0.3,0.4c-0.1,0.1-0.2,0.2-0.2,0.4c0,0-0.1,0.1-0.1,0.1c-0.1,0.1-0.1,0.3-0.2,0.4
								l0,0c-0.1,0.1-0.1,0.3-0.2,0.4c0,0,0,0,0,0.1c0,0,0,0,0,0c-0.1,0.2-0.1,0.4-0.2,0.7l-0.1,0.2c0,0.1,0,0.2,0,0.3
								c0,0.1,0,0.1,0,0.2c0,0,0,0,0,0c0,0,0,0.1,0,0.1c0,0.1,0,0.2,0,0.3l0,0.4c0,0.1,0,0.1,0,0.2c0,0.1,0,0.2,0.1,0.3
								c0,0.1,0,0.1,0,0.2c0,0.2,0.1,0.4,0.2,0.6c0,0,0,0.1,0,0.1c0,0,0,0.1,0,0.1c0.1,0.2,0.2,0.4,0.3,0.7c0,0,0,0.1,0.1,0.1
								c0,0.1,0.1,0.1,0.1,0.2c0.1,0.1,0.2,0.3,0.3,0.4c0.1,0.1,0.1,0.2,0.2,0.2c0.2,0.3,0.5,0.6,0.8,1c0,0,0,0,0,0
								c0,0,0,0.1,0.1,0.1c0,0,0,0,0.1,0.1c0,0,0,0,0,0c0.5,0.5,1.1,1,1.8,1.4l0.1,0l0.4,0.2l0,0l0,0c0.1,0,0.1,0.1,0.2,0.1
								c0.4,0.2,0.8,0.5,1.2,0.7c0,0,0,0,0,0c0.1,0,0.1,0.1,0.2,0.1c0.5,0.3,1.1,0.5,1.7,0.8c0.1,0.1,0.3,0.1,0.4,0.2
								c0.3,0.1,0.6,0.2,0.9,0.4c0.1,0,0.2,0.1,0.3,0.1c0.2,0.1,0.4,0.1,0.6,0.2c0.3,0.1,0.6,0.2,0.9,0.3c0.1,0,0.1,0,0.2,0.1
								c0.2,0.1,0.4,0.1,0.7,0.2c0.4,0.1,0.7,0.2,1.1,0.3c0.2,0.1,0.5,0.1,0.7,0.1c0.4,0.1,0.8,0.1,1.1,0.2l0.7,0.1
								c0.4,0,0.8,0.1,1.2,0.1l0.7,0.1c0.4,0,0.8,0.1,1.3,0.1l0.6,0c0.4,0,0.9,0,1.3,0l0.2,0l0,0c0,0,0,0,0,0c0.5-0.2,1-0.5,1.5-0.7
								c5.9-3.1,7.8-7.4,5.7-11.4l0,0l-0.1-0.2c-0.2-0.4-0.5-0.8-0.8-1.2l-0.2-0.3c-0.4-0.5-0.8-0.9-1.3-1.4l-0.3-0.3
								c-0.4-0.3-0.9-0.7-1.4-1c-0.2-0.1-0.3-0.2-0.5-0.4c-0.6-0.4-1.3-0.8-2.1-1.2c-1.5-0.8-3.2-1.4-4.9-1.9c0,0,0,0,0,0l0,0
								l-0.4,0c-0.3,0-0.5,0-0.8,0.1c-0.3,0-0.6,0.1-1,0.1l-0.7,0.1c-0.3,0-0.5,0.1-0.8,0.1c-0.3,0.1-0.6,0.1-0.9,0.2l-0.3,0.1
								c-0.4,0.1-0.8,0.2-1.2,0.3l-0.6,0.2c-0.3,0.1-0.7,0.2-1,0.3l-0.5,0.2c-0.3,0.1-0.7,0.2-1,0.4l-0.4,0.2
								c-0.4,0.2-0.7,0.3-1.1,0.5c0,0,0,0,0,0C174.8,63.1,174.7,63.1,174.7,63.2"/>
							<path class="st6" d="M177.5,65c-1.2,0.6-2.2,1.3-2.9,2.1c-0.7,0.8-1.2,1.6-1.4,2.5c-0.4,1.8,0.4,3.5,2.1,5l3.6-1
								c-1.3-1.1-1.8-2.4-1.6-3.7c0.1-0.6,0.5-1.2,1-1.8c0.5-0.6,1.2-1.1,2.1-1.5L177.5,65"/>
							<path class="st29" d="M134.9,83.4L134.9,83.4c0.1-0.1,0.2-0.1,0.2-0.1c0,0,0,0,0,0c0.4-0.2,0.7-0.3,1.1-0.5l0.4-0.2
								c0.3-0.1,0.7-0.3,1-0.4l0.5-0.2c0.3-0.1,0.7-0.2,1-0.3l0.5-0.2c0.4-0.1,0.8-0.2,1.2-0.3l0.3-0.1l0.1,0l0,0c0.1,0,0.2,0,0.2,0
								c0.2,0,0.5-0.1,0.7-0.1c0.2,0,0.4-0.1,0.6-0.1l0.7-0.1c0.3,0,0.6-0.1,1-0.1c0.3,0,0.5,0,0.8-0.1l0.4,0l0,0
								c5.8-0.4,12,0.5,16.7,2.8c0,0,0,0,0,0c0.1,0,0.1,0.1,0.2,0.1c0.1,0,0.1,0.1,0.2,0.1c7.7,4,8,10.3,0.6,14.1l-0.1,0.1
								c-3.6,1.8-8.4,2.8-13.2,2.8c0,0,0,0,0,0l0,0l-0.1,0c-0.4,0-0.9,0-1.3,0l-0.6,0c-0.4,0-0.8-0.1-1.3-0.1l-0.7-0.1
								c-0.4,0-0.8-0.1-1.2-0.1l-0.7-0.1c-0.4-0.1-0.8-0.1-1.1-0.2c-0.2,0-0.5-0.1-0.7-0.1c-0.4-0.1-0.7-0.2-1.1-0.3
								c-0.2-0.1-0.5-0.1-0.7-0.2c-0.3-0.1-0.7-0.2-1-0.3c-0.2-0.1-0.5-0.1-0.7-0.2c-0.4-0.1-0.7-0.3-1.1-0.4
								c-0.2-0.1-0.4-0.1-0.6-0.2c-0.5-0.2-1.1-0.5-1.6-0.7c-0.6-0.3-1.1-0.6-1.6-0.9l0,0l0,0l-0.4-0.2l-0.1,0
								c-0.8-0.5-1.4-1.1-2-1.7c-0.4-0.4-0.7-0.7-0.9-1.1c-0.1-0.2-0.2-0.4-0.3-0.5c0,0,0-0.1-0.1-0.1l0,0l0-0.1
								c-0.1-0.2-0.2-0.5-0.3-0.7c0-0.1-0.1-0.2-0.1-0.3c-0.1-0.2-0.1-0.3-0.1-0.5c-0.2-0.7-0.2-1.3-0.1-2c0,0,0-0.1,0-0.1l0,0
								l0.1-0.2c0.1-0.4,0.2-0.8,0.4-1.1l0,0c0.1-0.1,0.1-0.3,0.2-0.4c0-0.1,0.1-0.1,0.1-0.2c0.1-0.3,0.3-0.5,0.5-0.7l0,0l0,0
								c0.2-0.2,0.3-0.4,0.5-0.6c0.2-0.2,0.3-0.3,0.5-0.5c0.1-0.1,0.3-0.2,0.4-0.4c0.2-0.1,0.3-0.3,0.5-0.4c0.1-0.1,0.2-0.2,0.4-0.2
								c0,0,0.1,0,0.1-0.1l0.1-0.1l0.1-0.1l0.2-0.1l0,0l0,0c0,0,0.1,0,0.1-0.1C134.1,83.9,134.4,83.7,134.9,83.4 M133.2,82.5
								l-0.1,0.1c-0.5,0.3-1,0.5-1.4,0.8l0,0l-0.2,0.1l-0.1,0l-0.1,0.1l-0.4,0.3l-0.1,0.1c-0.9,0.7-1.6,1.3-2.2,2.1l0,0l0,0.1
								c-0.4,0.5-0.6,0.9-0.9,1.5l0,0c-0.2,0.4-0.3,0.8-0.4,1.3l0,0.1l0,0.1l0,0.1c-0.2,1.2,0,2.4,0.5,3.6c0.1,0.1,0.1,0.2,0.2,0.4
								l0,0.1c0.4,0.8,1,1.6,1.8,2.3c0.6,0.5,1.2,1.1,1.9,1.6l0.1,0.1l0.1,0.1l0.3,0.2l0.1,0.1c0.6,0.4,1.1,0.7,1.7,1
								c0.6,0.3,1.2,0.6,1.7,0.8l0.5,0.2l0.2,0.1l0.3,0.1c0.3,0.1,0.6,0.2,1,0.4l0.5,0.2l0.2,0.1l0.3,0.1c0.3,0.1,0.6,0.2,0.9,0.3
								l0.6,0.1l0.2,0.1l0.2,0.1c0.3,0.1,0.7,0.2,1,0.2l0.6,0.1l0.2,0c0.5,0.1,0.9,0.2,1.3,0.2l0.5,0.1l0.2,0l0.1,0
								c0.4,0.1,0.8,0.1,1.3,0.2l0.5,0l0.2,0c0.5,0,0.9,0.1,1.4,0.1l0.5,0l0.2,0c0.5,0,0.9,0,1.4,0l0.2,0l0.2,0
								c5.6-0.1,10.7-1.2,14.6-3.1l0.1-0.1c4.1-2.1,6.2-4.9,6-7.9c-0.2-3-2.6-5.9-6.9-8c-0.1,0-0.2-0.1-0.3-0.1
								c-0.8-0.4-1.7-0.8-2.6-1.1c-4.6-1.7-10.3-2.5-15.9-2.1l-0.3,0l-0.4,0c-0.4,0-0.7,0.1-1,0.1c-0.4,0-0.7,0.1-1.1,0.1l-0.2,0
								l-0.6,0.1c-0.6,0.1-1.2,0.2-1.8,0.3l-0.3,0.1c-0.6,0.1-1,0.2-1.5,0.3l-0.5,0.1l-0.1,0c-0.4,0.1-0.7,0.2-1.1,0.3
								c-0.2,0.1-0.4,0.1-0.6,0.2c-0.4,0.1-0.7,0.3-1.1,0.4l-0.1,0l-0.4,0.1C134.1,82.1,133.6,82.3,133.2,82.5"/>
							<path class="st29" d="M174.6,63.2l0.1-0.1c0,0,0.1,0,0.1-0.1c0,0,0,0,0,0c0.3-0.2,0.7-0.3,1.1-0.5l0.4-0.2
								c0.3-0.1,0.6-0.3,1-0.4l0.5-0.2c0.3-0.1,0.7-0.2,1-0.3l0.6-0.2c0.4-0.1,0.8-0.2,1.2-0.3l0.3-0.1l0.1,0l0,0c0.1,0,0.2,0,0.2,0
								c0.2,0,0.3-0.1,0.5-0.1c0.3,0,0.5-0.1,0.8-0.1l0.7-0.1c0.3,0,0.6-0.1,1-0.1c0.3,0,0.5-0.1,0.8-0.1l0.4,0l0,0c0,0,0,0,0,0
								c4.9-0.3,10.1,0.3,14.3,1.8c0,0,0,0,0,0c0.1,0,0.1,0.1,0.2,0.1c0,0,0.1,0,0.1,0c0,0,0.1,0,0.1,0c0.1,0,0.1,0,0.2,0.1
								c0,0,0,0,0.1,0c0.1,0,0.1,0,0.2,0.1c0,0,0,0,0,0c0.4,0.2,0.8,0.3,1.1,0.5c0,0,0,0,0,0c0,0,0.1,0,0.1,0.1c0,0,0,0,0.1,0
								c0,0,0.1,0,0.1,0.1c0.1,0,0.1,0.1,0.2,0.1c0.1,0,0.1,0.1,0.2,0.1c7.7,4,8,10.3,0.6,14.1l-0.1,0.1c-3.6,1.8-8.4,2.8-13.2,2.8
								c0,0,0,0,0,0l0,0l-0.2,0c-0.4,0-0.9,0-1.3,0l-0.6,0c-0.4,0-0.8-0.1-1.3-0.1l-0.7-0.1c-0.4,0-0.8-0.1-1.2-0.1l-0.7-0.1
								c-0.4-0.1-0.8-0.1-1.1-0.2c-0.2,0-0.5-0.1-0.7-0.1c-0.4-0.1-0.7-0.2-1.1-0.3c-0.2-0.1-0.4-0.1-0.7-0.2c0,0,0,0-0.1,0
								c0,0-0.1,0-0.1,0c-0.3-0.1-0.6-0.2-0.9-0.3c-0.2-0.1-0.4-0.1-0.6-0.2c0,0-0.1,0-0.1,0c0,0-0.1,0-0.1,0
								c-0.3-0.1-0.6-0.2-0.9-0.4c-0.1-0.1-0.3-0.1-0.4-0.2c0,0-0.1,0-0.1-0.1c-0.5-0.2-1.1-0.5-1.6-0.7c-0.1,0-0.1-0.1-0.2-0.1
								c0,0-0.1,0-0.1,0c-0.4-0.2-0.8-0.4-1.2-0.7c-0.1,0-0.1-0.1-0.2-0.1l0,0l0,0l-0.4-0.2l-0.1,0c-0.7-0.5-1.3-0.9-1.8-1.4
								c0,0,0,0,0,0c0,0,0,0-0.1-0.1c0,0,0-0.1-0.1-0.1c0,0,0,0,0,0c-0.4-0.4-0.7-0.8-1-1.2c-0.1-0.1-0.2-0.3-0.3-0.4
								c0-0.1-0.1-0.1-0.1-0.2l0,0l0-0.1c0,0,0,0,0-0.1c-0.1-0.2-0.2-0.4-0.3-0.7c0-0.1-0.1-0.1-0.1-0.2c-0.1-0.2-0.1-0.4-0.2-0.6
								c0-0.2-0.1-0.4-0.1-0.5c0-0.1,0-0.1,0-0.2c0-0.2,0-0.5,0-0.7c0,0,0-0.1,0-0.1c0,0,0,0,0,0c0-0.1,0-0.1,0-0.2
								c0-0.1,0-0.2,0-0.3l0,0l0.1-0.2c0-0.2,0.1-0.5,0.2-0.7c0,0,0,0,0-0.1c0.1-0.1,0.1-0.3,0.2-0.4l0,0c0.1-0.1,0.1-0.3,0.2-0.4
								c0,0,0.1-0.1,0.1-0.1c0.1-0.3,0.3-0.5,0.5-0.7l0,0l0,0c0.2-0.2,0.3-0.4,0.5-0.6c0.2-0.2,0.3-0.3,0.5-0.5
								c0.1-0.1,0.3-0.3,0.4-0.4c0.2-0.1,0.3-0.3,0.5-0.4c0.1-0.1,0.2-0.2,0.3-0.2c0,0,0.1-0.1,0.1-0.1l0.1-0.1l0.1-0.1l0.1-0.1l0,0
								l0,0c0,0,0.1,0,0.1-0.1C173.8,63.6,174.2,63.4,174.6,63.2 M172.9,62.3l-0.1,0.1c-0.5,0.3-1,0.5-1.4,0.8l-0.1,0l-0.2,0.1
								l-0.1,0.1l-0.1,0.1l-0.3,0.2l-0.2,0.1c-0.9,0.7-1.6,1.3-2.2,2.1l0,0l0,0.1c-0.4,0.5-0.6,0.9-0.9,1.4l0,0
								c-0.2,0.4-0.3,0.8-0.4,1.3l0,0.1l0,0.2l0,0l0,0c-0.2,1.3,0,2.7,0.7,4l0,0.1c0.7,1.3,1.9,2.6,3.5,3.7c0.1,0.1,0.2,0.1,0.3,0.2
								l0.1,0.1l0.1,0.1l0.3,0.2l0.1,0.1c0.4,0.3,0.8,0.5,1.2,0.7c0.2,0.1,0.3,0.2,0.5,0.3c0.5,0.3,1.1,0.5,1.7,0.8l0.4,0.2l0.2,0.1
								l0.3,0.1c0.3,0.1,0.7,0.3,1,0.4l0.5,0.2L178,80l0.3,0.1c0.3,0.1,0.6,0.2,0.9,0.3l0.6,0.1l0.2,0.1l0.2,0.1
								c0.3,0.1,0.7,0.2,1,0.2l0.5,0.1l0.2,0l0.2,0c0.4,0.1,0.7,0.1,1.1,0.2l0.6,0.1l0.2,0c0.4,0.1,0.9,0.1,1.4,0.2l0.5,0l0.2,0
								c0.5,0,1,0.1,1.4,0.1l0.6,0l0.2,0c0.4,0,0.9,0,1.4,0l0.2,0l0.1,0c5.6-0.1,10.8-1.2,14.6-3.1l0.1-0.1c8.4-4.3,8-11.5-0.9-16
								c-1.7-0.8-3.5-1.5-5.5-2.1c-1.7-0.5-3.5-0.8-5.4-1c-2.5-0.3-5.2-0.4-7.8-0.2l-0.3,0l-0.4,0c-0.4,0-0.7,0.1-1,0.1
								c-0.4,0-0.7,0.1-1.1,0.1l-0.2,0l-0.6,0.1c-0.6,0.1-1.2,0.2-1.7,0.3l-0.3,0.1l-0.1,0c-0.4,0.1-0.9,0.2-1.3,0.3l-0.5,0.1
								l-0.1,0c-0.4,0.1-0.7,0.2-1.1,0.3c-0.2,0.1-0.4,0.1-0.6,0.2c-0.4,0.1-0.7,0.3-1.1,0.4l-0.1,0l-0.4,0.2
								C173.8,61.8,173.3,62,172.9,62.3"/>
						</g>
					</g>
				</g>
			</g>
		</g>
	</g>
</g>
</svg>
