<?xml version="1.0" encoding="utf-8"?>
<!-- Generator: Adobe Illustrator 19.1.0, SVG Export Plug-In . SVG Version: 6.00 Build 0)  -->
<svg version="1.1" id="Layer_1" xmlns="http://www.w3.org/2000/svg" xmlns:xlink="http://www.w3.org/1999/xlink" x="0px" y="0px"
	 viewBox="235 -138 569.3 292" style="enable-background:new 235 -138 569.3 292;" xml:space="preserve">
<style type="text/css">
	.st0{opacity:0.75;}
	.st1{fill:#3A4F9B;}
	.st2{fill:#E6E6E6;}
	.st3{fill:#F2F2F2;}
	.st4{fill:#FFFFFF;}
	.st5{fill:#4CDAB0;}
	.st6{fill:#CCCCCC;}
	.st7{fill:none;stroke:#6AEFC3;stroke-miterlimit:10;stroke-dasharray:6,6;}
</style>
<g class="st0">
	<path class="st1" d="M247.4-16.4c-13.6-6.8-13.6-17.8,0-24.6l128.5-64.2c13.6-6.8,35.7-6.8,49.3,0L748.6,56.5
		c13.6,6.8,13.6,17.8,0,24.6l-128.4,64.2c-13.6,6.8-35.7,6.8-49.3,0"/>
	<path class="st1" d="M249.9-16.4c-13.6-6.8-13.6-17.8,0-24.6l128.5-64.2c13.6-6.8,35.7-6.8,49.3,0L751,56.4
		c13.6,6.8,13.6,17.8,0,24.6l-128.4,64.2c-13.6,6.8-35.7,6.8-49.3,0l-20.2-10.1"/>
	<path class="st1" d="M252.5-16.4c-13.6-6.8-13.6-17.8,0-24.6L381-105.2c13.6-6.8,35.7-6.8,49.3,0L753.7,56.5
		c13.6,6.8,13.6,17.8,0,24.6l-128.4,64.2c-13.6,6.8-35.7,6.8-49.3,0l-40.4-20.2"/>
	<path class="st1" d="M255-16.4c-13.6-6.8-13.6-17.8,0-24.6l128.5-64.2c13.6-6.8,35.7-6.8,49.3,0L756.2,56.5
		c13.6,6.8,13.6,17.8,0,24.6l-128.4,64.2c-13.6,6.8-35.7,6.8-49.3,0L517.7,115"/>
	<path class="st1" d="M257.5-16.4c-13.6-6.8-13.6-17.8,0-24.6L386-105.2c13.6-6.8,35.7-6.8,49.3,0L758.7,56.5
		c13.6,6.8,13.6,17.8,0,24.6l-128.4,64.2c-13.6,6.8-35.7,6.8-49.3,0l-81-40.4"/>
	<path class="st1" d="M260-16.4c-13.6-6.8-13.6-17.8,0-24.6l128.5-64.2c13.6-6.8,35.7-6.8,49.3,0L761.2,56.5
		c13.6,6.8,13.6,17.8,0,24.6l-128.4,64.2c-13.6,6.8-35.7,6.8-49.3,0l-101-50.5"/>
	<path class="st1" d="M262.5-16.4c-13.6-6.8-13.6-17.8,0-24.6L391-105.3c13.6-6.8,35.7-6.8,49.3,0L763.7,56.4
		c13.6,6.8,13.6,17.8,0,24.6l-128.4,64.2c-13.6,6.8-35.7,6.8-49.3,0L464.7,84.6"/>
	<path class="st1" d="M265.1-16.4c-13.6-6.8-13.6-17.8,0-24.6l128.5-64.2c13.6-6.8,35.7-6.8,49.3,0L766.3,56.5
		c13.6,6.8,13.6,17.8,0,24.6l-128.4,64.2c-13.6,6.8-35.7,6.8-49.3,0L447.1,74.6"/>
	<path class="st1" d="M267.6-16.4c-13.6-6.8-13.6-17.8,0-24.6L396-105.3c13.6-6.8,35.7-6.8,49.3,0L768.7,56.4
		c13.6,6.8,13.6,17.8,0,24.6l-128.4,64.2c-13.6,6.8-35.7,6.8-49.3,0L429.3,64.4"/>
	<path class="st1" d="M270.1-16.4c-13.6-6.8-13.6-17.8,0-24.6l128.5-64.2c13.6-6.8,35.7-6.8,49.3,0L771.3,56.5
		c13.6,6.8,13.6,17.8,0,24.6l-128.4,64.2c-13.6,6.8-35.7,6.8-49.3,0L411.7,54.4"/>
	<path class="st1" d="M272.6-16.4c-13.6-6.8-13.6-17.8,0-24.6l128.5-64.2c13.6-6.8,35.7-6.8,49.3,0L773.8,56.5
		c13.6,6.8,13.6,17.8,0,24.6l-128.4,64.2c-13.6,6.8-35.7,6.8-49.3,0L394,44.3"/>
	<path class="st1" d="M275.1-16.4c-13.6-6.8-13.6-17.8,0-24.6l128.5-64.2c13.6-6.8,35.7-6.8,49.3,0L776.3,56.5
		c13.6,6.8,13.6,17.8,0,24.6l-128.4,64.2c-13.6,6.8-35.7,6.8-49.3,0L376.2,34.1"/>
	<path class="st1" d="M277.7-16.4c-13.6-6.8-13.6-17.8,0-24.6l128.5-64.2c13.6-6.8,35.7-6.8,49.3,0L778.9,56.5
		c13.6,6.8,13.6,17.8,0,24.6l-128.4,64.2c-13.6,6.8-35.7,6.8-49.3,0L358.5,24"/>
	<path class="st1" d="M280.2-16.4c-13.6-6.8-13.6-17.8,0-24.6l128.5-64.2c13.6-6.8,35.7-6.8,49.3,0L781.4,56.5
		c13.6,6.8,13.6,17.8,0,24.6L653,145.3c-13.6,6.8-35.7,6.8-49.3,0L340.8,13.9"/>
	<path class="st1" d="M282.7-16.4c-13.6-6.8-13.6-17.8,0-24.6l128.5-64.2c13.6-6.8,35.7-6.8,49.3,0L783.9,56.5
		c13.6,6.8,13.6,17.8,0,24.6l-128.4,64.2c-13.6,6.8-35.7,6.8-49.3,0L323.1,3.8"/>
	<path class="st1" d="M285.2-16.4c-13.6-6.8-13.6-17.8,0-24.6l128.5-64.2c13.6-6.8,35.7-6.8,49.3,0L786.4,56.5
		c13.6,6.8,13.6,17.8,0,24.6L658,145.3c-13.6,6.8-35.7,6.8-49.3,0L305.4-6.3"/>
	<path class="st1" d="M660.4,145.3c-13.6,6.8-35.7,6.8-49.3,0L287.7-16.4c-13.6-6.8-13.6-17.8,0-24.6l128.5-64.2
		c13.6-6.8,35.7-6.8,49.3,0L788.9,56.5c13.6,6.8,13.6,17.8,0,24.6L660.4,145.3z"/>
</g>
<path class="st2" d="M799,68.9c0-0.1,0-0.3,0-0.4V45.4l-9.4,11.4c-0.3-0.1-0.5-0.3-0.8-0.4L465.5-105.3c-13.6-6.8-35.7-6.8-49.3,0
	l-128,64l-0.8-0.5l-9.9-10.4v23.7l0,0c0.1,4.4,3.5,8.8,10.2,12.1l323.4,161.7c13.6,6.8,35.7,6.8,49.3,0l128.4-64.2
	c6.4-3.2,9.7-7.3,10.1-11.5l0.1-0.1L799,68.9L799,68.9z"/>
<path class="st3" d="M605.4,118.8v23.6l5.7,2.8c13.6,6.8,35.7,6.8,49.3,0l7.6-3.8v-0.1l0.1-24.5l-54.6-2.6L605.4,118.8z"/>
<g>
	<g>
		<g>
			<path class="st3" d="M660.4,121.6c-13.6,6.8-35.7,6.8-49.3,0L287.7-40.1c-13.6-6.8-13.6-17.8,0-24.6L416.2-129
				c13.6-6.8,35.7-6.8,49.3,0L788.9,32.7c13.6,6.8,13.6,17.8,0,24.6L660.4,121.6z"/>
			<path class="st4" d="M658.1,120.4c-12.4,6.2-32.5,6.2-44.8,0L290-41.2c-12.4-6.2-12.4-16.2,0-22.4l128.5-64.2
				c12.4-6.2,32.5-6.2,44.8,0L786.7,33.9c12.4,6.2,12.4,16.2,0,22.4L658.1,120.4z"/>
			<g>
				<polygon class="st5" points="325.4,-30.9 484.6,-110.5 756.7,25.6 597.6,105.2 				"/>
			</g>
			<g>
				<path class="st6" d="M718.1,69.8c9.1,4.5,9.1,11.9,0,16.4c-9.1,4.5-23.8,4.5-32.9,0s-9.1-11.9,0-16.4
					C694.3,65.2,709,65.2,718.1,69.8z"/>
				<path class="st4" d="M717.4,70.1c8.7,4.4,8.7,11.4,0,15.8c-8.7,4.4-22.9,4.4-31.6,0s-8.7-11.4,0-15.8
					C694.6,65.7,708.7,65.7,717.4,70.1z"/>
			</g>
		</g>
		<polygon class="st2" points="500.1,-103.4 340.3,-23.4 324.1,-30.9 484.6,-111.1 		"/>
	</g>
	<path class="st2" d="M484.6-111.1L324.1-30.9l0,0l1.3,0.7l159.1-79.6L756,25.9l1.3-0.7L484.6-111.1z"/>
	<g>
		<g>
			<path class="st4" d="M340.9-30.6c0.7,0.4,0.7,0.9,0,1.3c-0.7,0.4-1.9,0.4-2.6,0c-0.7-0.4-0.7-0.9,0-1.3
				C339.1-30.9,340.2-30.9,340.9-30.6z"/>
			<path class="st4" d="M345.4-32.8c0.7,0.4,0.7,0.9,0,1.3c-0.7,0.4-1.9,0.4-2.6,0c-0.7-0.4-0.7-0.9,0-1.3
				C343.5-33.2,344.6-33.2,345.4-32.8z"/>
			<path class="st4" d="M349.6-34.9c0.7,0.4,0.7,0.9,0,1.3c-0.7,0.4-1.9,0.4-2.6,0s-0.7-0.9,0-1.3S348.9-35.3,349.6-34.9z"/>
			<path class="st4" d="M353.9-37.1c0.7,0.4,0.7,0.9,0,1.3c-0.7,0.4-1.9,0.4-2.6,0c-0.7-0.4-0.7-0.9,0-1.3
				C352-37.4,353.2-37.4,353.9-37.1z"/>
			<path class="st4" d="M358.1-39.2c0.7,0.4,0.7,0.9,0,1.3c-0.7,0.4-1.9,0.4-2.6,0s-0.7-0.9,0-1.3C356.2-39.5,357.4-39.5,358.1-39.2
				z"/>
		</g>
		<g>
			<g>
				<path class="st4" d="M488.7-102.6L478-97.2l-5.3-2.6l10.7-5.3L488.7-102.6z M478-97.9l9.3-4.6l-3.9-1.9l-9.3,4.6L478-97.9z"/>
			</g>
			<polygon class="st4" points="488.1,-103.8 486.9,-103.1 484.4,-104.4 485.7,-105 			"/>
			<polygon class="st4" points="483.9,-101.4 477.8,-98.3 474.8,-99.9 480.8,-102.9 			"/>
		</g>
		<g>
			<path class="st4" d="M372.8-43.8c0,0.3-0.4,0.5-1,0.5c-0.5,0-1-0.2-0.9-0.5c0-0.3,0.5-0.5,1-0.5
				C372.4-44.3,372.8-44.1,372.8-43.8z"/>
			<path class="st4" d="M371.9-45.2v-0.5c-2,0-3.6,0.8-3.7,1.8c0,0.1,0,0.1,0,0.2h1c0-0.1,0-0.1,0-0.2
				C369.2-44.6,370.4-45.2,371.9-45.2z"/>
			<path class="st4" d="M371.9-46.3v-0.5c-3.2,0-5.9,1.2-5.9,2.8c0,0.1,0,0.1,0,0.2h1c0-0.1,0-0.1,0-0.2
				C367-45.2,369.3-46.3,371.9-46.3z"/>
			<path class="st4" d="M372-47.5V-48c-4.6,0-8.4,1.8-8.5,4.1c0,0.1,0,0.1,0,0.2h1c0-0.1,0-0.1,0-0.2
				C364.5-45.9,367.9-47.6,372-47.5z"/>
		</g>
		<g>
			<path class="st4" d="M409.6-63.3L409-63l-3.8-1.9c0,0.1-0.1,0.3-0.2,0.5c-0.1,0.2-0.3,0.4-0.4,0.5l-0.6-0.3
				c0.2-0.3,0.4-0.5,0.4-0.8c0.1-0.3,0.1-0.5,0-0.6l0.4-0.2L409.6-63.3z"/>
			<path class="st4" d="M414.4-66.3L415-66l-3.7,1.9c-0.1-0.1-0.3-0.2-0.3-0.2c-0.1-0.2-0.2-0.3-0.2-0.5s0.1-0.5,0.2-0.8
				c0.2-0.5,0.3-0.9,0.2-1.1c0-0.2-0.2-0.4-0.4-0.5c-0.2-0.1-0.5-0.2-0.9-0.2c-0.4,0-0.7,0.1-1,0.3c-0.3,0.2-0.5,0.3-0.5,0.5
				s0.1,0.4,0.4,0.5L408-66c-0.4-0.3-0.6-0.5-0.5-0.8s0.4-0.5,0.9-0.8s1.1-0.4,1.7-0.4c0.6,0,1,0.1,1.4,0.2c0.2,0.1,0.3,0.2,0.4,0.4
				c0.1,0.1,0.1,0.3,0.1,0.5s-0.1,0.5-0.2,1c-0.1,0.4-0.2,0.6-0.2,0.7s0,0.2,0,0.3L414.4-66.3z"/>
			<path class="st4" d="M413.3-68l-0.7-0.3l0.8-0.4l0.7,0.3L413.3-68z M416.1-66.6l-0.7-0.3l0.8-0.4l0.7,0.3L416.1-66.6z"/>
			<path class="st4" d="M415.5-68.7c-0.6-0.3-1-0.6-1.2-0.8c-0.2-0.2-0.3-0.5-0.2-0.7s0.3-0.4,0.7-0.6c0.3-0.2,0.6-0.3,0.9-0.3
				c0.3-0.1,0.7-0.1,1-0.1c0.3,0,0.7,0.1,1.1,0.2c0.4,0.1,0.8,0.3,1.3,0.5c0.6,0.3,1,0.5,1.2,0.8c0.2,0.2,0.3,0.5,0.2,0.7
				s-0.3,0.4-0.7,0.7c-0.5,0.3-1.1,0.4-1.8,0.4C417.3-68,416.5-68.2,415.5-68.7z M416.3-69c0.8,0.4,1.4,0.6,1.9,0.6s0.9,0,1.2-0.2
				s0.4-0.4,0.4-0.6s-0.5-0.6-1.3-1c-0.8-0.4-1.4-0.6-1.9-0.6s-0.9,0-1.2,0.2s-0.5,0.3-0.4,0.6C415-69.8,415.5-69.4,416.3-69z"/>
			<path class="st4" d="M419.9-70.9c-0.6-0.3-1-0.5-1.2-0.8c-0.2-0.2-0.3-0.5-0.2-0.7s0.3-0.4,0.7-0.6c0.3-0.2,0.6-0.3,0.9-0.3
				c0.3-0.1,0.7-0.1,1-0.1c0.3,0,0.7,0.1,1.1,0.2c0.4,0.1,0.8,0.3,1.3,0.5c0.6,0.3,1,0.5,1.2,0.8c0.2,0.2,0.3,0.5,0.2,0.7
				s-0.3,0.4-0.7,0.7c-0.5,0.3-1.1,0.4-1.8,0.4C421.6-70.2,420.8-70.4,419.9-70.9z M420.6-71.2c0.8,0.4,1.4,0.6,1.9,0.6
				s0.9,0,1.2-0.2c0.3-0.2,0.4-0.4,0.4-0.6s-0.5-0.6-1.3-1s-1.4-0.6-1.9-0.6s-0.9,0-1.2,0.2c-0.3,0.2-0.5,0.3-0.4,0.6
				C419.4-71.9,419.8-71.6,420.6-71.2z"/>
		</g>
	</g>
</g>
<g>
	<g>
		<path class="st6" d="M326-3.3c0,2.5-2,3.6-4.6,2.3c-2.5-1.3-4.6-4.3-4.6-6.9c0-0.9,0.3-1.7,0.8-2.1c0.8-0.8,2.2-0.9,3.8-0.1
			C323.9-8.9,326-5.8,326-3.3z"/>
		<path class="st6" d="M326.2-3.4c0,2.5-2,3.6-4.6,2.3C319.1-2.4,317-5.4,317-8c0-0.9,0.3-1.7,0.8-2.1c0.8-0.8,2.2-0.9,3.8-0.1
			C324.1-9.1,326.2-6,326.2-3.4z"/>
		<path class="st6" d="M326.4-3.6c0,2.5-2.1,3.6-4.6,2.3s-4.6-4.3-4.6-6.9c0-0.9,0.3-1.7,0.8-2.1c0.8-0.8,2.2-0.9,3.8-0.1
			C324.3-9.3,326.4-6.2,326.4-3.6z"/>
		<path class="st6" d="M326.6-3.8c0,2.5-2.1,3.6-4.6,2.3s-4.6-4.3-4.6-6.9c0-0.9,0.3-1.7,0.8-2.1c0.8-0.8,2.2-0.9,3.8-0.1
			C324.5-9.4,326.6-6.4,326.6-3.8z"/>
		<path class="st6" d="M326.8-4c0,2.5-2.1,3.6-4.6,2.3s-4.6-4.3-4.6-6.9c0-0.9,0.3-1.7,0.8-2.1c0.8-0.8,2.2-0.9,3.8-0.1
			C324.7-9.6,326.8-6.6,326.8-4z"/>
		<path class="st6" d="M326.9-4.2c0,2.5-2.1,3.6-4.6,2.3s-4.6-4.3-4.6-6.9c0-0.9,0.3-1.7,0.8-2.1c0.8-0.8,2.2-0.9,3.8-0.1
			C324.9-9.8,326.9-6.8,326.9-4.2z"/>
		<path class="st6" d="M327.1-4.4c0,2.5-2.1,3.6-4.6,2.3s-4.6-4.3-4.6-6.9c0-0.9,0.3-1.7,0.8-2.1c0.8-0.8,2.2-0.9,3.8-0.1
			C325.1-10,327.1-7,327.1-4.4z"/>
		<path class="st6" d="M327.3-4.6c0,2.5-2.1,3.6-4.6,2.3s-4.6-4.3-4.6-6.9c0-0.9,0.3-1.7,0.8-2.1c0.8-0.8,2.2-0.9,3.8-0.1
			C325.3-10.2,327.3-7.2,327.3-4.6z"/>
		<path class="st6" d="M327.5-4.8c0,2.5-2.1,3.6-4.6,2.3s-4.6-4.3-4.6-6.9c0-0.9,0.3-1.7,0.8-2.1c0.8-0.8,2.2-0.9,3.8-0.1
			C325.5-10.4,327.5-7.4,327.5-4.8z"/>
		<path class="st6" d="M327.7-5c0,2.5-2.1,3.6-4.6,2.3s-4.6-4.3-4.6-6.9c0-0.9,0.3-1.7,0.8-2.1c0.8-0.8,2.2-0.9,3.8-0.1
			C325.7-10.6,327.7-7.6,327.7-5z"/>
		<path class="st6" d="M327.9-5.2c0,2.5-2.1,3.6-4.6,2.3s-4.6-4.3-4.6-6.9c0-0.9,0.3-1.7,0.8-2.1c0.8-0.8,2.2-0.9,3.8-0.1
			C325.9-10.8,327.9-7.8,327.9-5.2z"/>
		<path class="st6" d="M328.1-5.4c0,2.5-2.1,3.6-4.6,2.3s-4.6-4.3-4.6-6.9c0-0.9,0.3-1.7,0.8-2.1c0.8-0.8,2.2-0.9,3.8-0.1
			C326.1-11,328.1-8,328.1-5.4z"/>
		<path class="st6" d="M328.3-5.6c0,2.5-2.1,3.6-4.6,2.3s-4.6-4.3-4.6-6.9c0-0.9,0.3-1.7,0.8-2.1c0.8-0.8,2.2-0.9,3.8-0.1
			C326.2-11.2,328.3-8.2,328.3-5.6z"/>
		<path class="st6" d="M328.5-5.8c0,2.5-2.1,3.6-4.6,2.3s-4.6-4.3-4.6-6.9c0-0.9,0.3-1.7,0.8-2.1c0.8-0.8,2.2-0.9,3.8-0.1
			C326.4-11.4,328.5-8.4,328.5-5.8z"/>
		<path class="st6" d="M328.7-6c0,2.5-2.1,3.6-4.6,2.3s-4.6-4.3-4.6-6.9c0-0.9,0.3-1.7,0.8-2.1c0.8-0.8,2.2-0.9,3.8-0.1
			C326.6-11.6,328.7-8.6,328.7-6z"/>
		<path class="st6" d="M328.9-6.2c0,2.5-2.1,3.6-4.6,2.3s-4.6-4.3-4.6-6.9c0-0.9,0.3-1.7,0.8-2.1c0.8-0.8,2.2-0.9,3.8-0.1
			C326.8-11.8,328.9-8.8,328.9-6.2z"/>
		<path class="st6" d="M329.1-6.4c0,2.5-2.1,3.6-4.6,2.3s-4.6-4.3-4.6-6.9c0-0.9,0.3-1.7,0.8-2.1c0.8-0.8,2.2-0.9,3.8-0.1
			C327-12,329.1-9,329.1-6.4z"/>
	</g>
	<g>
		<g>
			<path class="st3" d="M329.3-6.7c0,2.5-2,3.6-4.6,2.3c-2.5-1.3-4.6-4.3-4.6-6.9c0-0.9,0.3-1.7,0.8-2.1c0.8-0.8,2.2-0.9,3.8-0.1
				C327.2-12.3,329.3-9.2,329.3-6.7z"/>
			<polygon class="st3" points="319.5,-12 321,-13.6 326.6,-10.7 328.2,-7.8 328.6,-4.6 326.8,-2.9 			"/>
		</g>
		<path class="st4" d="M327.9-5.3c0,2.5-2,3.6-4.6,2.3c-2.5-1.3-4.6-4.3-4.6-6.9c0-2.5,2-3.6,4.6-2.3
			C325.9-10.9,327.9-7.9,327.9-5.3z"/>
	</g>
</g>
<g>
	<g>
		<path class="st6" d="M352.6,9.9c0,2.5-2.1,3.6-4.6,2.3s-4.6-4.3-4.6-6.9c0-0.9,0.3-1.7,0.8-2.1c0.8-0.8,2.2-0.9,3.8-0.1
			C350.6,4.3,352.6,7.4,352.6,9.9z"/>
		<path class="st6" d="M352.8,9.7c0,2.5-2.1,3.6-4.6,2.3s-4.6-4.3-4.6-6.9c0-0.9,0.3-1.7,0.8-2.1c0.8-0.8,2.2-0.9,3.8-0.1
			C350.8,4.1,352.8,7.2,352.8,9.7z"/>
		<path class="st6" d="M353,9.5c0,2.5-2.1,3.6-4.6,2.3s-4.6-4.3-4.6-6.9c0-0.9,0.3-1.7,0.8-2.1c0.8-0.8,2.2-0.9,3.8-0.1
			C351,3.9,353,7,353,9.5z"/>
		<path class="st6" d="M353.2,9.3c0,2.5-2.1,3.6-4.6,2.3S344,7.3,344,4.7c0-0.9,0.3-1.7,0.8-2.1c0.8-0.8,2.2-0.9,3.8-0.1
			C351.1,3.7,353.2,6.8,353.2,9.3z"/>
		<path class="st6" d="M353.4,9.1c0,2.5-2.1,3.6-4.6,2.3s-4.6-4.3-4.6-6.9c0-0.9,0.3-1.7,0.8-2.1c0.8-0.8,2.2-0.9,3.8-0.1
			C351.3,3.5,353.4,6.6,353.4,9.1z"/>
		<path class="st6" d="M353.6,8.9c0,2.5-2.1,3.6-4.6,2.3s-4.6-4.3-4.6-6.9c0-0.9,0.3-1.7,0.8-2.1c0.8-0.8,2.2-0.9,3.8-0.1
			C351.5,3.3,353.6,6.4,353.6,8.9z"/>
		<path class="st6" d="M353.8,8.7c0,2.5-2.1,3.6-4.6,2.3s-4.6-4.3-4.6-6.9c0-0.9,0.3-1.7,0.8-2.1c0.8-0.8,2.2-0.9,3.8-0.1
			C351.7,3.1,353.8,6.2,353.8,8.7z"/>
		<path class="st6" d="M354,8.5c0,2.5-2.1,3.6-4.6,2.3s-4.6-4.3-4.6-6.9c0-0.9,0.3-1.7,0.8-2.1c0.8-0.8,2.2-0.9,3.8-0.1
			C351.9,2.9,354,6,354,8.5z"/>
		<path class="st6" d="M354.2,8.3c0,2.5-2.1,3.6-4.6,2.3S345,6.3,345,3.7c0-0.9,0.3-1.7,0.8-2.1c0.8-0.8,2.2-0.9,3.8-0.1
			C352.1,2.7,354.2,5.8,354.2,8.3z"/>
		<path class="st6" d="M354.4,8.2c0,2.5-2.1,3.6-4.6,2.3s-4.6-4.3-4.6-6.9c0-0.9,0.3-1.7,0.8-2.1c0.8-0.8,2.2-0.9,3.8-0.1
			C352.3,2.5,354.4,5.6,354.4,8.2z"/>
		<path class="st6" d="M354.6,8c0,2.5-2.1,3.6-4.6,2.3s-4.6-4.3-4.6-6.9c0-0.9,0.3-1.7,0.8-2.1c0.8-0.8,2.2-0.9,3.8-0.1
			C352.5,2.3,354.6,5.4,354.6,8z"/>
		<path class="st6" d="M354.7,7.8c0,2.5-2.1,3.6-4.6,2.3s-4.6-4.3-4.6-6.9c0-0.9,0.3-1.7,0.8-2.1c0.8-0.8,2.2-0.9,3.8-0.1
			C352.7,2.2,354.7,5.2,354.7,7.8z"/>
		<path class="st6" d="M354.9,7.6c0,2.5-2.1,3.6-4.6,2.3s-4.6-4.3-4.6-6.9c0-0.9,0.3-1.7,0.8-2.1c0.8-0.8,2.2-0.9,3.8-0.1
			C352.9,2,354.9,5,354.9,7.6z"/>
		<path class="st6" d="M355.1,7.4c0,2.5-2.1,3.6-4.6,2.3s-4.6-4.3-4.6-6.9c0-0.9,0.3-1.7,0.8-2.1c0.8-0.8,2.2-0.9,3.8-0.1
			C353.1,1.8,355.1,4.8,355.1,7.4z"/>
		<path class="st6" d="M355.3,7.2c0,2.5-2.1,3.6-4.6,2.3s-4.6-4.3-4.6-6.9c0-0.9,0.3-1.7,0.8-2.1c0.8-0.8,2.2-0.9,3.8-0.1
			C353.3,1.6,355.3,4.6,355.3,7.2z"/>
		<path class="st6" d="M355.5,7c0,2.5-2,3.6-4.6,2.3c-2.5-1.3-4.6-4.3-4.6-6.9c0-0.9,0.3-1.7,0.8-2.1c0.8-0.8,2.2-0.9,3.8-0.1
			C353.5,1.4,355.5,4.4,355.5,7z"/>
		<path class="st6" d="M355.7,6.8c0,2.5-2,3.6-4.6,2.3c-2.5-1.3-4.6-4.3-4.6-6.9c0-0.9,0.3-1.7,0.8-2.1c0.8-0.8,2.2-0.9,3.8-0.1
			C353.7,1.2,355.7,4.2,355.7,6.8z"/>
	</g>
	<g>
		<g>
			<path class="st3" d="M355.8,6.7c0,2.5-2.1,3.6-4.6,2.3s-4.6-4.3-4.6-6.9c0-0.9,0.3-1.7,0.8-2.1c0.8-0.8,2.2-0.9,3.8-0.1
				C353.8,1.1,355.8,4.2,355.8,6.7z"/>
			<polygon class="st3" points="346,1.4 347.6,-0.2 353.1,2.7 354.7,5.7 355.2,8.9 353.3,10.6 			"/>
		</g>
		<path class="st4" d="M354.4,8.1c0,2.5-2.1,3.6-4.6,2.3s-4.6-4.3-4.6-6.9s2-3.6,4.6-2.3C352.4,2.5,354.4,5.6,354.4,8.1z"/>
	</g>
</g>
<g>
	<g>
		<path class="st6" d="M380.2,23.1c0,2.5-2,3.6-4.6,2.3c-2.5-1.3-4.6-4.3-4.6-6.9c0-0.9,0.3-1.7,0.8-2.1c0.8-0.8,2.2-0.9,3.8-0.1
			C378.2,17.5,380.2,20.5,380.2,23.1z"/>
		<path class="st6" d="M380.4,22.9c0,2.5-2,3.6-4.6,2.3c-2.5-1.3-4.6-4.3-4.6-6.9c0-0.9,0.3-1.7,0.8-2.1c0.8-0.8,2.2-0.9,3.8-0.1
			C378.4,17.3,380.4,20.3,380.4,22.9z"/>
		<path class="st6" d="M380.6,22.7c0,2.5-2,3.6-4.6,2.3c-2.5-1.3-4.6-4.3-4.6-6.9c0-0.9,0.3-1.7,0.8-2.1c0.8-0.8,2.2-0.9,3.8-0.1
			C378.6,17.1,380.6,20.1,380.6,22.7z"/>
		<path class="st6" d="M380.8,22.5c0,2.5-2,3.6-4.6,2.3c-2.5-1.3-4.6-4.3-4.6-6.9c0-0.9,0.3-1.7,0.8-2.1c0.8-0.8,2.2-0.9,3.8-0.1
			C378.8,16.9,380.8,19.9,380.8,22.5z"/>
		<path class="st6" d="M381,22.3c0,2.5-2,3.6-4.6,2.3c-2.5-1.3-4.6-4.3-4.6-6.9c0-0.9,0.3-1.7,0.8-2.1c0.8-0.8,2.2-0.9,3.8-0.1
			C379,16.7,381,19.7,381,22.3z"/>
		<path class="st6" d="M381.2,22.1c0,2.5-2,3.6-4.6,2.3c-2.5-1.3-4.6-4.3-4.6-6.9c0-0.9,0.3-1.7,0.8-2.1c0.8-0.8,2.2-0.9,3.8-0.1
			C379.2,16.5,381.2,19.5,381.2,22.1z"/>
		<path class="st6" d="M381.4,21.9c0,2.5-2,3.6-4.6,2.3c-2.5-1.3-4.6-4.3-4.6-6.9c0-0.9,0.3-1.7,0.8-2.1c0.8-0.8,2.2-0.9,3.8-0.1
			C379.3,16.3,381.4,19.4,381.4,21.9z"/>
		<path class="st6" d="M381.6,21.7c0,2.5-2,3.6-4.6,2.3c-2.5-1.3-4.6-4.3-4.6-6.9c0-0.9,0.3-1.7,0.8-2.1c0.8-0.8,2.2-0.9,3.8-0.1
			C379.5,16.1,381.6,19.2,381.6,21.7z"/>
		<path class="st6" d="M381.8,21.5c0,2.5-2,3.6-4.6,2.3c-2.5-1.3-4.6-4.3-4.6-6.9c0-0.9,0.3-1.7,0.8-2.1c0.8-0.8,2.2-0.9,3.8-0.1
			C379.7,15.9,381.8,19,381.8,21.5z"/>
		<path class="st6" d="M382,21.3c0,2.5-2,3.6-4.6,2.3c-2.5-1.3-4.6-4.3-4.6-6.9c0-0.9,0.3-1.7,0.8-2.1c0.8-0.8,2.2-0.9,3.8-0.1
			C379.9,15.7,382,18.8,382,21.3z"/>
		<path class="st6" d="M382.2,21.1c0,2.5-2,3.6-4.6,2.3c-2.5-1.3-4.6-4.3-4.6-6.9c0-0.9,0.3-1.7,0.8-2.1c0.8-0.8,2.2-0.9,3.8-0.1
			C380.1,15.5,382.2,18.6,382.2,21.1z"/>
		<path class="st6" d="M382.4,20.9c0,2.5-2,3.6-4.6,2.3c-2.5-1.3-4.6-4.3-4.6-6.9c0-0.9,0.3-1.7,0.8-2.1c0.8-0.8,2.2-0.9,3.8-0.1
			C380.3,15.3,382.4,18.4,382.4,20.9z"/>
		<path class="st6" d="M382.6,20.7c0,2.5-2,3.6-4.6,2.3c-2.5-1.3-4.6-4.3-4.6-6.9c0-0.9,0.3-1.7,0.8-2.1c0.8-0.8,2.2-0.9,3.8-0.1
			C380.5,15.1,382.6,18.2,382.6,20.7z"/>
		<path class="st6" d="M382.7,20.5c0,2.5-2,3.6-4.6,2.3c-2.5-1.3-4.6-4.3-4.6-6.9c0-0.9,0.3-1.7,0.8-2.1c0.8-0.8,2.2-0.9,3.8-0.1
			C380.7,14.9,382.7,18,382.7,20.5z"/>
		<path class="st6" d="M382.9,20.3c0,2.5-2,3.6-4.6,2.3c-2.5-1.3-4.6-4.3-4.6-6.9c0-0.9,0.3-1.7,0.8-2.1c0.8-0.8,2.2-0.9,3.8-0.1
			C380.9,14.7,382.9,17.8,382.9,20.3z"/>
		<path class="st6" d="M383.1,20.1c0,2.5-2,3.6-4.6,2.3c-2.5-1.3-4.6-4.3-4.6-6.9c0-0.9,0.3-1.7,0.8-2.1c0.8-0.8,2.2-0.9,3.8-0.1
			C381.1,14.5,383.1,17.6,383.1,20.1z"/>
		<path class="st6" d="M383.3,19.9c0,2.5-2,3.6-4.6,2.3c-2.5-1.3-4.6-4.3-4.6-6.9c0-0.9,0.3-1.7,0.8-2.1c0.8-0.8,2.2-0.9,3.8-0.1
			C381.3,14.3,383.3,17.4,383.3,19.9z"/>
	</g>
	<g>
		<g>
			<path class="st3" d="M383.3,19.9c0,2.5-2,3.6-4.6,2.3c-2.5-1.3-4.6-4.3-4.6-6.9c0-0.9,0.3-1.7,0.8-2.1c0.8-0.8,2.2-0.9,3.8-0.1
				C381.3,14.3,383.3,17.4,383.3,19.9z"/>
			<polygon class="st3" points="373.5,14.6 375.1,13 380.6,15.9 382.2,18.8 382.5,22 380.8,23.8 			"/>
		</g>
		<path class="st4" d="M381.9,21.3c0,2.5-2,3.6-4.6,2.3c-2.5-1.3-4.6-4.3-4.6-6.9c0-2.5,2.1-3.6,4.6-2.3
			C379.9,15.7,381.9,18.7,381.9,21.3z"/>
	</g>
</g>
<line class="st7" x1="439.8" y1="-29.3" x2="439.8" y2="-16.3"/>
<line class="st7" x1="579.8" y1="41.7" x2="579.8" y2="54.7"/>
</svg>
