<?xml version="1.0" encoding="utf-8"?>
<!-- Generator: Adobe Illustrator 19.1.0, SVG Export Plug-In . SVG Version: 6.00 Build 0)  -->
<svg version="1.1" id="Layer_1" xmlns="http://www.w3.org/2000/svg" xmlns:xlink="http://www.w3.org/1999/xlink" x="0px" y="0px"
	 viewBox="0 0 287 309" style="enable-background:new 0 0 287 309;" xml:space="preserve">
<style type="text/css">
	.st0{fill:#6077DF;}
	.st1{fill:#FFCA00;}
	.st2{fill:#035E87;}
	.st3{enable-background:new    ;}
	.st4{fill:#BDBDBD;}
	.st5{fill:#C9C9C9;}
	.st6{fill:#FFFFFF;}
	.st7{fill:#EBEBEB;}
	.st8{fill:#999999;}
	.st9{fill:#FFB300;}
	.st10{fill:#3C3D00;}
	.st11{fill:#F5F5F5;}
	.st12{fill:#212221;}
	.st13{fill:#F2A012;}
	.st14{fill:#D68E10;}
	.st15{fill:#4B4B4B;}
	.st16{fill:#4F4F4F;}
	.st17{fill:#333333;}
	.st18{fill:#484848;}
	.st19{fill:#DE8E11;}
	.st20{fill:#D68910;}
	.st21{fill:#EB9611;}
	.st22{fill:#EDA800;}
	.st23{fill:#BF7B0F;}
	.st24{fill:#F5AE02;}
	.st25{fill:#F29B12;}
	.st26{fill:#E89A11;}
	.st27{fill:#A11D11;}
	.st28{opacity:0.18;}
	.st29{fill:#415464;}
	.st30{fill:#4CDAB0;}
	.st31{fill:#E0E0E0;}
	.st32{opacity:0.75;fill:#3A4F9B;}
	.st33{opacity:0.27;fill:#375056;}
	.st34{fill:#BA8B75;}
	.st35{fill:#242424;}
	.st36{fill:#2B3E4F;}
	.st37{fill:#DCDCDC;}
	.st38{fill:#DEB09D;}
	.st39{fill:#EBF1F5;}
	.st40{fill:#025074;}
	.st41{fill:#E9AE93;}
	.st42{fill:#291222;}
	.st43{fill:#3E1C33;}
	.st44{fill:#E9C2B0;}
	.st45{fill:#F9CFB3;}
	.st46{clip-path:url(#SVGID_2_);enable-background:new    ;}
	.st47{fill:#AA2A41;}
	.st48{fill:#D43451;}
	.st49{fill:#FF3F61;}
	.st50{fill:#9F273C;}
	.st51{fill:none;stroke:#6AEFC3;stroke-miterlimit:10;}
	.st52{fill:none;stroke:#6AEFC3;stroke-miterlimit:10;stroke-dasharray:5.915,5.915;}
	.st53{fill:none;stroke:#6AEFC3;stroke-miterlimit:10;stroke-dasharray:6.0713,6.0713;}
	.st54{fill:none;stroke:#6AEFC3;stroke-miterlimit:10;stroke-dasharray:5.9151,5.9151;}
	.st55{fill:none;stroke:#6AEFC3;stroke-miterlimit:10;stroke-dasharray:6.0712,6.0712;}
	.st56{fill:#CCCCCC;}
	.st57{fill:#E6E6E6;}
	.st58{fill:#F2F2F2;}
	.st59{fill-rule:evenodd;clip-rule:evenodd;fill:#FFFFFF;}
	.st60{opacity:0.27;}
	.st61{fill:#375056;}
	.st62{fill:#6EC6E6;}
	.st63{opacity:0.17;}
	.st64{fill:#28A7C9;}
	.st65{fill:#ADECF7;}
	.st66{clip-path:url(#SVGID_4_);}
	.st67{fill:#FEC363;}
	.st68{fill:#353F49;}
	.st69{fill:#474F59;}
	.st70{clip-path:url(#SVGID_6_);}
	.st71{fill:#A3A3EF;}
	.st72{fill:#BABAF4;}
	.st73{clip-path:url(#SVGID_8_);}
	.st74{fill:#F2B50A;}
	.st75{opacity:0.15;}
	.st76{fill:#97723F;}
	.st77{fill:#856231;}
	.st78{fill:#BD553D;}
	.st79{fill:#3E626A;}
	.st80{opacity:0.3;}
	.st81{opacity:0.42;}
	.st82{opacity:0.5;}
	.st83{fill:none;stroke:#6AEFC3;stroke-miterlimit:10;stroke-dasharray:6,6;}
	.st84{clip-path:url(#SVGID_10_);}
	.st85{fill:#3FBC92;}
	.st86{fill:#FDFFFE;}
	.st87{fill:#2B0D04;}
	.st88{fill:#134663;}
	.st89{fill:#DEF3EE;}
	.st90{clip-path:url(#SVGID_12_);enable-background:new    ;}
	.st91{clip-path:url(#SVGID_14_);}
	.st92{clip-path:url(#SVGID_16_);}
	.st93{clip-path:url(#SVGID_18_);}
	.st94{clip-path:url(#SVGID_20_);enable-background:new    ;}
	.st95{clip-path:url(#SVGID_22_);}
	.st96{clip-path:url(#SVGID_24_);}
	.st97{clip-path:url(#SVGID_26_);}
	.st98{clip-path:url(#SVGID_28_);enable-background:new    ;}
	.st99{clip-path:url(#SVGID_30_);}
	.st100{clip-path:url(#SVGID_32_);}
	.st101{clip-path:url(#SVGID_34_);}
	.st102{fill:#2FB286;}
	.st103{clip-path:url(#SVGID_36_);}
	.st104{clip-path:url(#SVGID_38_);}
	.st105{opacity:0.2;}
	.st106{fill:#585858;}
	.st107{fill:#616161;}
	.st108{fill:#505050;}
	.st109{fill:#414141;}
	.st110{fill:#232423;}
	.st111{fill:#424342;}
	.st112{fill:#C27508;}
	.st113{fill:#F0910A;}
	.st114{fill:#3E3F3E;}
	.st115{fill:#2F302F;}
	.st116{fill:#1F1F1F;}
	.st117{fill:#272727;}
	.st118{fill:#1E1E1E;}
	.st119{clip-path:url(#SVGID_40_);enable-background:new    ;}
	.st120{clip-path:url(#SVGID_42_);}
	.st121{clip-path:url(#SVGID_44_);}
	.st122{clip-path:url(#SVGID_46_);}
	.st123{opacity:0.75;}
	.st124{fill:#3A4F9B;}
	.st125{fill:#2E2F2E;}
	.st126{fill:#303130;}
	.st127{fill:#3D3E3D;}
	.st128{fill:#A26207;}
	.st129{fill:#A86507;}
	.st130{clip-path:url(#SVGID_48_);}
	.st131{clip-path:url(#SVGID_50_);}
	.st132{opacity:0.7656;fill:#3A4F9B;}
	.st133{opacity:0.7812;fill:#3A4F9B;}
	.st134{opacity:0.7969;fill:#3A4F9B;}
	.st135{opacity:0.8125;fill:#3A4F9B;}
	.st136{opacity:0.8281;fill:#3A4F9B;}
	.st137{opacity:0.8438;fill:#3A4F9B;}
	.st138{opacity:0.8594;fill:#3A4F9B;}
	.st139{opacity:0.875;fill:#3A4F9B;}
	.st140{opacity:0.8906;fill:#3A4F9B;}
	.st141{opacity:0.9062;fill:#3A4F9B;}
	.st142{opacity:0.9219;fill:#3A4F9B;}
	.st143{opacity:0.9375;fill:#3A4F9B;}
	.st144{opacity:0.9531;fill:#3A4F9B;}
	.st145{opacity:0.9688;fill:#3A4F9B;}
	.st146{opacity:0.9844;fill:#3A4F9B;}
	.st147{clip-path:url(#SVGID_52_);}
	.st148{clip-path:url(#SVGID_54_);}
	.st149{clip-path:url(#SVGID_56_);}
	.st150{clip-path:url(#SVGID_58_);}
	.st151{clip-path:url(#SVGID_60_);enable-background:new    ;}
	.st152{clip-path:url(#SVGID_62_);}
	.st153{clip-path:url(#SVGID_64_);}
	.st154{clip-path:url(#SVGID_66_);}
	.st155{clip-path:url(#SVGID_68_);}
	.st156{clip-path:url(#SVGID_70_);enable-background:new    ;}
	.st157{clip-path:url(#SVGID_72_);enable-background:new    ;}
	.st158{clip-path:url(#SVGID_74_);}
	.st159{clip-path:url(#SVGID_76_);}
	.st160{clip-path:url(#SVGID_78_);}
	.st161{clip-path:url(#SVGID_80_);}
	.st162{clip-path:url(#SVGID_82_);}
	.st163{clip-path:url(#SVGID_84_);}
</style>
<g>
	<path class="st1" d="M79.1,99.3c-6.7-6.7-9-15.8-6.2-24.2c2.6-7.7,8.9-13.2,16.6-14.3c3.3-0.5,7.4-0.5,12.2-0.5
		c17.4,0.1,41.2,0.1,46.8-25.8c4.8-22.2,22.8-25.3,30.3-25.6c10.3-0.4,20.2,3.4,21.7,8.4c3,10-9.8,19.2-10.3,19.6l-0.9-1.3
		c0.1-0.1,12.4-8.9,9.7-17.8c-1.1-3.8-9.7-7.7-20.1-7.2c-7.1,0.3-24.2,3.2-28.8,24.4C144.2,62.1,119.7,62,101.8,62
		c-4.7,0-8.8,0-12,0.4c-7.1,1-12.9,6.1-15.3,13.2c-2.6,7.8-0.5,16.2,5.8,22.5L79.1,99.3z"/>
	<path class="st2" d="M89,110.7c-14.5-8.6-22.1-19-20.7-28.6c0.9-6.3,5.6-11.4,12.1-13.1c3.4-0.9,7.2-1.3,11.1-1.8
		c11.4-1.3,24.2-2.8,34.2-15.8c3-4,5.9-8.5,9-13.3c10.4-16.4,22.2-35,44.3-34.8c6.7,0,11.2,2.1,13.2,6c5.4,10.2-7.2,29.4-7.8,30.2
		l-1.3-0.9c0.1-0.2,12.7-19.2,7.7-28.6C189,6.7,185,5,178.9,4.9C157.7,4.8,146.1,23,136,39c-3.1,4.8-6,9.4-9,13.4
		c-10.4,13.5-23.6,15.1-35.3,16.4c-3.9,0.5-7.6,0.9-10.9,1.8c-5.9,1.5-10.2,6.1-10.9,11.8c-1.2,8.9,6,18.7,20,27L89,110.7z"/>
	<g>
		<g>
			<g class="st3">
				<g>
					<g class="st3">
						<path class="st4" d="M180,82.1l26.1-14.9c0,1.4-0.5,2.4-1.3,2.8l-26.1,14.9C179.5,84.5,180,83.5,180,82.1L180,82.1z"/>
					</g>
				</g>
				<g>
					<g class="st3">
						<path class="st5" d="M152.6,39.2l26.1-14.9c0.8-0.5,1.9-0.4,3.2,0.3l-26.1,14.9C154.5,38.8,153.4,38.7,152.6,39.2L152.6,39.2z
							"/>
					</g>
				</g>
				<g>
					<polygon class="st4" points="180.2,59 206.3,44 206.1,67.1 180,82.1 					"/>
				</g>
				<g>
					<polygon class="st6" points="155.8,39.5 181.9,24.6 201.9,36.3 175.8,51.3 					"/>
				</g>
				<g>
					<g class="st3">
						<path class="st7" d="M175.8,51.3l26.1-14.9c2.4,1.4,4.4,4.9,4.4,7.7L180.2,59C180.2,56.1,178.3,52.7,175.8,51.3L175.8,51.3z"
							/>
					</g>
				</g>
				<g>
					<path class="st8" d="M175.8,51.3c2.4,1.4,4.4,4.9,4.4,7.7L180,82.1c0,2.8-2,3.9-4.5,2.5l-20.1-11.7c-2.4-1.4-4.4-4.9-4.4-7.7
						l0.2-23.1c0-2.8,2-3.9,4.5-2.5L175.8,51.3z"/>
					<path class="st4" d="M177.5,84.4c-0.5,0-1-0.2-1.6-0.5l-20.1-11.7c-2.2-1.3-4-4.5-4-7l0.2-23.1c0-0.5,0.1-2.3,1.7-2.3
						c0.5,0,1,0.2,1.6,0.5L175.4,52c2.2,1.3,4,4.5,4,7l-0.2,23.1C179.2,82.6,179,84.4,177.5,84.4z"/>
				</g>
			</g>
			<g>
				<path class="st8" d="M165.2,49c6.4,3.7,11.5,12.8,11.5,20.1c-0.1,7.4-5.3,10.3-11.7,6.6c-6.4-3.7-11.5-12.7-11.4-20.1
					C153.6,48.2,158.8,45.3,165.2,49z"/>
			</g>
		</g>
		<g>
			<g class="st3">
				<path class="st9" d="M80.6,93.2l77-43.3c1.6-0.9,3.6-0.9,5.9,0l-77,43.3C84.2,92.3,82.2,92.3,80.6,93.2L80.6,93.2z"/>
				<g class="st3">
					<g class="st3">
						<path class="st1" d="M165.1,50.7c-0.5-0.3-1-0.6-1.5-0.8l-77,43.3c0.5,0.2,1,0.5,1.5,0.8c5,2.9,9.2,9.5,10.1,15.5l77-43.3
							C174.2,60.2,170.1,53.6,165.1,50.7z"/>
						<path class="st9" d="M98.1,109.5l77-43.3c0.1,0.9,0.2,1.8,0.2,2.6c0,3.3-1.2,5.6-3.1,6.7l-77,43.3c1.9-1.1,3.1-3.4,3.1-6.7
							C98.3,111.2,98.3,110.3,98.1,109.5L98.1,109.5z"/>
					</g>
				</g>
				<g>
					<path class="st10" d="M88,94c5.8,3.4,10.4,11.5,10.3,18.1c-0.1,6.6-4.8,9.3-10.5,5.9c-5.7-3.4-10.4-11.5-10.3-18.1
						C77.6,93.3,82.3,90.6,88,94z"/>
				</g>
			</g>
		</g>
		<g>
			<g class="st3">
				<g>
					<polygon class="st11" points="246.3,224.8 246.2,239.1 125.7,304.5 125.9,290.2 					"/>
				</g>
				<g>
					<polygon class="st4" points="125.9,290.2 125.7,304.5 5.4,234 5.5,219.7 					"/>
				</g>
				<g>
					<polygon class="st6" points="246.3,224.8 125.9,290.2 5.5,219.7 115.3,162.7 					"/>
				</g>
			</g>
		</g>
		<g>
			<g>
				<g class="st3">
					<g class="st3">
						<g class="st3">
							<path class="st12" d="M79.5,234.4l0,2c0,2.1,1.3,4.1,4,5.7l0-2C80.8,238.5,79.5,236.5,79.5,234.4L79.5,234.4z"/>
						</g>
					</g>
					<g class="st3">
						<g class="st3">
							<path class="st9" d="M142,255.5l0,2c0.2-0.1,0.4-0.2,0.5-0.3l0-2C142.4,255.3,142.2,255.4,142,255.5L142,255.5z"/>
							<path class="st9" d="M142.6,255.2l0,2c0.9-0.6,1.7-1.2,2.2-1.9l0-2C144.2,254,143.5,254.6,142.6,255.2L142.6,255.2z"/>
							<path class="st13" d="M144.8,253.3l0,2c0.5-0.6,0.8-1.1,1.1-1.7l0-2C145.6,252.1,145.3,252.7,144.8,253.3L144.8,253.3z"/>
							<path class="st13" d="M145.9,251.5l0,2c0.2-0.6,0.3-1.2,0.3-1.8l0-2C146.2,250.4,146.1,251,145.9,251.5L145.9,251.5z"/>
						</g>
					</g>
					<g>
						<polygon class="st13" points="83.5,240.1 83.5,242.1 115.7,261.1 115.7,259.1 						"/>
					</g>
					<g>
						<polygon class="st9" points="135.5,259.2 135.5,261.2 142,257.5 142,255.5 						"/>
					</g>
					<g class="st3">
						<g class="st3">
							<path class="st13" d="M115.7,259.1l0,2c0.8,0.5,1.6,0.9,2.5,1.2l0-2C117.4,260,116.5,259.6,115.7,259.1L115.7,259.1z"/>
							<path class="st13" d="M118.3,260.3l0,2c1,0.4,2,0.6,3,0.8l0-2C120.2,260.9,119.2,260.6,118.3,260.3L118.3,260.3z"/>
							<path class="st13" d="M121.3,261.1l0,2c1,0.2,2.1,0.3,3.1,0.4l0-2C123.4,261.5,122.3,261.3,121.3,261.1L121.3,261.1z"/>
							<path class="st9" d="M124.4,261.5l0,2c1.3,0.1,2.7,0,4-0.1l0-2C127.1,261.5,125.8,261.6,124.4,261.5L124.4,261.5z"/>
							<path class="st9" d="M128.5,261.4l0,2c2.6-0.3,5.1-1,7.1-2.2l0-2C133.5,260.4,131,261.1,128.5,261.4L128.5,261.4z"/>
						</g>
					</g>
					<g>
						<path class="st1" d="M83.7,228.7c-5.5,3.1-5.6,8.3-0.1,11.5l32.2,19c5.4,3.2,14.3,3.3,19.8,0.1l6.5-3.7
							c5.5-3.1,5.6-8.3,0.1-11.5l-32.2-19c-5.4-3.2-14.3-3.3-19.8-0.1L83.7,228.7z"/>
					</g>
				</g>
			</g>
			<g>
				<g class="st3">
					<g class="st3">
						<g>
							<path class="st14" d="M46.2,215.4l0,2c0,2.1,1.3,4.1,4,5.7l0-2C47.6,219.6,46.2,217.5,46.2,215.4L46.2,215.4z"/>
						</g>
					</g>
					<g class="st3">
						<g class="st3">
							<path class="st9" d="M108.8,236.6l0,2c0.2-0.1,0.4-0.2,0.5-0.3l0-2C109.1,236.3,108.9,236.5,108.8,236.6L108.8,236.6z"/>
							<path class="st9" d="M109.3,236.2l0,2c0.9-0.6,1.7-1.2,2.2-1.9l0-2C111,235,110.2,235.6,109.3,236.2L109.3,236.2z"/>
							<path class="st13" d="M111.5,234.3l0,2c0.5-0.6,0.8-1.1,1.1-1.7l0-2C112.4,233.2,112,233.8,111.5,234.3L111.5,234.3z"/>
							<path class="st13" d="M112.6,232.6l0,2c0.2-0.6,0.3-1.2,0.3-1.8l0-2C112.9,231.4,112.8,232,112.6,232.6L112.6,232.6z"/>
						</g>
					</g>
					<g>
						<polygon class="st13" points="50.3,221.2 50.2,223.2 82.4,242.2 82.4,240.1 						"/>
					</g>
					<g>
						<polygon class="st9" points="102.3,240.3 102.2,242.3 108.7,238.6 108.8,236.6 						"/>
					</g>
					<g class="st3">
						<g class="st3">
							<path class="st13" d="M82.4,240.1l0,2c0.8,0.5,1.6,0.9,2.5,1.2l0-2C84.1,241,83.2,240.6,82.4,240.1L82.4,240.1z"/>
							<path class="st13" d="M85,241.3l0,2c1,0.4,2,0.6,3,0.8l0-2C87,241.9,85.9,241.7,85,241.3L85,241.3z"/>
							<path class="st13" d="M88,242.2l0,2c1,0.2,2.1,0.3,3.1,0.4l0-2C90.1,242.5,89,242.4,88,242.2L88,242.2z"/>
							<path class="st9" d="M91.2,242.5l0,2c1.3,0.1,2.7,0,4-0.1l0-2C93.8,242.6,92.5,242.6,91.2,242.5L91.2,242.5z"/>
							<path class="st9" d="M95.2,242.4l0,2c2.6-0.3,5.1-1,7.1-2.2l0-2C100.2,241.4,97.8,242.1,95.2,242.4L95.2,242.4z"/>
						</g>
					</g>
					<g>
						<path class="st1" d="M50.4,209.7c-5.5,3.1-5.6,8.3-0.1,11.5l32.2,19c5.4,3.2,14.3,3.3,19.8,0.1l6.5-3.7
							c5.5-3.1,5.6-8.3,0.1-11.5l-32.2-19c-5.4-3.2-14.3-3.3-19.8-0.1L50.4,209.7z"/>
					</g>
				</g>
			</g>
			<g>
				<g class="st3">
					<g>
						<polygon class="st15" points="128,252.9 128,254.9 126.7,257.8 126.7,255.8 						"/>
					</g>
					<g>
						<polygon class="st16" points="126.7,255.8 126.7,257.8 121.6,258.6 121.7,256.6 						"/>
					</g>
					<g>
						<polygon class="st17" points="121.7,256.6 121.6,258.6 118,256.4 118,254.4 						"/>
					</g>
					<g>
						<polygon class="st18" points="128,252.9 126.7,255.8 121.7,256.6 118,254.4 119.3,251.5 124.4,250.8 						"/>
					</g>
				</g>
			</g>
			<g>
				<g class="st3">
					<g>
						<polygon class="st15" points="141.8,244.8 141.8,246.9 140.4,249.8 140.4,247.7 						"/>
					</g>
					<g>
						<polygon class="st16" points="140.4,247.7 140.4,249.8 135.4,250.5 135.4,248.5 						"/>
					</g>
					<g>
						<polygon class="st17" points="135.4,248.5 135.4,250.5 131.7,248.4 131.8,246.3 						"/>
					</g>
					<g>
						<polygon class="st18" points="141.8,244.8 140.4,247.7 135.4,248.5 131.8,246.3 133.1,243.4 138.1,242.7 						"/>
					</g>
				</g>
			</g>
			<g>
				<g class="st3">
					<g>
						<polygon class="st15" points="60.3,213.7 60.3,215.7 58.9,218.6 59,216.6 						"/>
					</g>
					<g>
						<polygon class="st16" points="59,216.6 58.9,218.6 53.9,219.3 54,217.3 						"/>
					</g>
					<g>
						<polygon class="st17" points="54,217.3 53.9,219.3 50.3,217.2 50.3,215.2 						"/>
					</g>
					<g>
						<polygon class="st18" points="60.3,213.7 59,216.6 54,217.3 50.3,215.2 51.6,212.3 56.6,211.5 						"/>
					</g>
				</g>
			</g>
			<g>
				<g class="st3">
					<g>
						<polygon class="st15" points="73.4,206 73.4,208 72,210.9 72.1,208.9 						"/>
					</g>
					<g>
						<polygon class="st16" points="72.1,208.9 72,210.9 67,211.6 67,209.6 						"/>
					</g>
					<g>
						<polygon class="st17" points="67,209.6 67,211.6 63.4,209.5 63.4,207.5 						"/>
					</g>
					<g>
						<polygon class="st18" points="73.4,206 72.1,208.9 67,209.6 63.4,207.5 64.7,204.6 69.7,203.8 						"/>
					</g>
				</g>
			</g>
		</g>
		<g>
			<g>
				<g class="st3">
					<g class="st3">
						<g class="st3">
							<path class="st12" d="M118.9,211.5l0,2c0,2.1,1.3,4.1,4,5.7l0-2C120.3,215.6,118.9,213.5,118.9,211.5L118.9,211.5z"/>
						</g>
					</g>
					<g class="st3">
						<g class="st3">
							<path class="st9" d="M181.5,232.6l0,2c0.2-0.1,0.4-0.2,0.5-0.3l0-2C181.8,232.4,181.7,232.5,181.5,232.6L181.5,232.6z"/>
							<path class="st9" d="M182,232.3l0,2c0.9-0.6,1.7-1.2,2.2-1.9l0-2C183.7,231,182.9,231.7,182,232.3L182,232.3z"/>
							<path class="st13" d="M184.3,230.3l0,2c0.5-0.6,0.8-1.1,1.1-1.7l0-2C185.1,229.2,184.7,229.8,184.3,230.3L184.3,230.3z"/>
							<path class="st13" d="M185.3,228.6l0,2c0.2-0.6,0.3-1.2,0.3-1.8l0-2C185.6,227.4,185.5,228,185.3,228.6L185.3,228.6z"/>
						</g>
					</g>
					<g>
						<polygon class="st13" points="123,219.6 123,221.6 155.2,238.2 155.2,236.2 						"/>
					</g>
					<g>
						<polygon class="st9" points="175,236.3 175,238.3 181.5,234.6 181.5,232.6 						"/>
					</g>
					<g class="st3">
						<g class="st3">
							<path class="st13" d="M155.2,236.2l0,2c0.8,0.5,1.6,0.9,2.5,1.2l0-2C156.8,237,155.9,236.6,155.2,236.2L155.2,236.2z"/>
							<path class="st13" d="M157.7,237.3l0,2c1,0.4,2,0.6,3,0.8l0-2C159.7,238,158.7,237.7,157.7,237.3L157.7,237.3z"/>
							<path class="st13" d="M160.7,238.2l0,2c1,0.2,2.1,0.3,3.1,0.4l0-2C162.8,238.5,161.7,238.4,160.7,238.2L160.7,238.2z"/>
							<path class="st9" d="M163.9,238.6l0,2c1.3,0.1,2.7,0,4-0.1l0-2C166.6,238.6,165.2,238.6,163.9,238.6L163.9,238.6z"/>
							<path class="st9" d="M167.9,238.5l0,2c2.6-0.3,5.1-1,7.1-2.2l0-2C173,237.4,170.5,238.2,167.9,238.5L167.9,238.5z"/>
						</g>
					</g>
					<g>
						<path class="st1" d="M123.1,205.7c-5.5,3.1-6.7,10.3-1.2,13.5l33.3,17c5.4,3.2,14.3,3.3,19.8,0.1l6.5-3.7
							c5.5-3.1,5.6-8.3,0.1-11.5l-32.2-19c-5.4-3.2-14.3-3.3-19.8-0.1L123.1,205.7z"/>
					</g>
				</g>
			</g>
			<g>
				<g class="st3">
					<g class="st3">
						<g>
							<path class="st14" d="M86.1,194.9l0,2c0,2.1,1.3,4.1,4,5.7l0-2C87.4,199,86.1,196.9,86.1,194.9L86.1,194.9z"/>
						</g>
					</g>
					<g class="st3">
						<g class="st3">
							<path class="st9" d="M148.2,213.6l0,2c0.2-0.1,0.4-0.2,0.5-0.3l0-2C148.6,213.4,148.4,213.5,148.2,213.6L148.2,213.6z"/>
							<path class="st9" d="M148.7,213.3l0,2c0.9-0.6,1.7-1.2,2.2-1.9l0-2C150.4,212.1,149.7,212.7,148.7,213.3L148.7,213.3z"/>
							<path class="st13" d="M151,211.4l0,2c0.5-0.6,0.8-1.1,1.1-1.7l0-2C151.8,210.2,151.4,210.8,151,211.4L151,211.4z"/>
							<path class="st13" d="M152,209.6l0,2c0.2-0.6,0.3-1.2,0.3-1.8l0-2C152.4,208.5,152.2,209,152,209.6L152,209.6z"/>
						</g>
					</g>
					<g>
						<polygon class="st13" points="89.7,198.2 89.7,200.2 121.9,219.2 121.9,217.2 						"/>
					</g>
					<g>
						<polygon class="st9" points="141.7,217.3 141.7,219.3 148.2,215.6 148.2,213.6 						"/>
					</g>
					<g class="st3">
						<g class="st3">
							<path class="st13" d="M121.9,217.2l0,2c0.8,0.5,1.6,0.9,2.5,1.2l0-2C123.5,218,122.7,217.7,121.9,217.2L121.9,217.2z"/>
							<path class="st13" d="M124.4,218.4l0,2c1,0.4,2,0.6,3,0.8l0-2C126.4,219,125.4,218.7,124.4,218.4L124.4,218.4z"/>
							<path class="st13" d="M127.4,219.2l0,2c1,0.2,2.1,0.3,3.1,0.4l0-2C129.5,219.5,128.5,219.4,127.4,219.2L127.4,219.2z"/>
							<path class="st9" d="M130.6,219.6l0,2c1.3,0.1,2.7,0,4-0.1l0-2C133.3,219.6,131.9,219.7,130.6,219.6L130.6,219.6z"/>
							<path class="st9" d="M134.6,219.5l0,2c2.6-0.3,5.1-1,7.1-2.2l0-2C139.7,218.5,137.2,219.2,134.6,219.5L134.6,219.5z"/>
						</g>
					</g>
					<g>
						<path class="st1" d="M90.9,187c7.2,5.8-6.6,8.1-1.2,11.3l32.2,19c5.4,3.2,14.3,3.3,19.8,0.1l6.5-3.7c5.5-3.1,5.6-8.3,0.1-11.5
							l-32.2-19c-5.4-3.2-14.3-3.3-19.8-0.1L90.9,187z"/>
					</g>
				</g>
			</g>
			<g>
				<g class="st3">
					<g>
						<polygon class="st15" points="167.5,230 167.4,232 166.1,234.9 166.1,232.9 						"/>
					</g>
					<g>
						<polygon class="st16" points="166.1,232.9 166.1,234.9 161.1,235.6 161.1,233.6 						"/>
					</g>
					<g>
						<polygon class="st17" points="161.1,233.6 161.1,235.6 157.4,233.5 157.4,231.5 						"/>
					</g>
					<g>
						<polygon class="st18" points="167.5,230 166.1,232.9 161.1,233.6 157.4,231.5 158.8,228.6 163.8,227.8 						"/>
					</g>
				</g>
			</g>
			<g>
				<g class="st3">
					<g>
						<polygon class="st15" points="181.2,221.9 181.2,223.9 179.8,226.8 179.9,224.8 						"/>
					</g>
					<g>
						<polygon class="st16" points="179.9,224.8 179.8,226.8 174.8,227.6 174.9,225.5 						"/>
					</g>
					<g>
						<polygon class="st17" points="174.9,225.5 174.8,227.6 171.2,225.4 171.2,223.4 						"/>
					</g>
					<g>
						<polygon class="st18" points="181.2,221.9 179.9,224.8 174.9,225.5 171.2,223.4 172.5,220.5 177.5,219.8 						"/>
					</g>
				</g>
			</g>
			<g>
				<g class="st3">
					<g>
						<polygon class="st15" points="99.7,190.7 99.7,192.8 98.4,195.7 98.4,193.6 						"/>
					</g>
					<g>
						<polygon class="st16" points="98.4,193.6 98.4,195.7 93.4,196.4 93.4,194.4 						"/>
					</g>
					<g>
						<polygon class="st17" points="93.4,194.4 93.4,196.4 89.7,194.3 89.7,192.2 						"/>
					</g>
					<g>
						<polygon class="st18" points="99.7,190.7 98.4,193.6 93.4,194.4 89.7,192.2 91.1,189.3 96.1,188.6 						"/>
					</g>
				</g>
			</g>
			<g>
				<g class="st3">
					<g>
						<polygon class="st15" points="112.8,183 112.8,185.1 111.5,188 111.5,185.9 						"/>
					</g>
					<g>
						<polygon class="st16" points="111.5,185.9 111.5,188 106.5,188.7 106.5,186.7 						"/>
					</g>
					<g>
						<polygon class="st17" points="106.5,186.7 106.5,188.7 102.8,186.6 102.8,184.5 						"/>
					</g>
					<g>
						<polygon class="st18" points="112.8,183 111.5,185.9 106.5,186.7 102.8,184.5 104.2,181.6 109.2,180.9 						"/>
					</g>
				</g>
			</g>
		</g>
		<g>
			<g class="st3">
				<g class="st3">
					<g class="st3">
						<path class="st19" d="M140.3,130.7c-1.9-0.2-3.8-0.1-5.8,0.3c-1.9,0.4-3.8,1.2-5.7,2.2l30.8,17.7c1.9-1,3.8-1.7,5.7-2.2
							c2-0.5,4-0.6,5.8-0.3L140.3,130.7z"/>
						<path class="st20" d="M171.1,148.4l-30.8-17.7c0.7,0.1,1.3,0.2,1.9,0.4c0.7,0.2,1.4,0.5,2.1,0.9l30.8,17.7
							c-0.6-0.4-1.3-0.7-2.1-0.9C172.4,148.6,171.8,148.5,171.1,148.4L171.1,148.4z"/>
					</g>
				</g>
				<g>
					<g class="st3">
						<path class="st13" d="M113,148.5c-0.4,0.7-0.9,1.4-1.3,2.1l-47.3,80.8l30.8,17.7l47.3-80.8c0.4-0.7,0.8-1.4,1.3-2.1L113,148.5
							z"/>
						<path class="st13" d="M143.8,166.2L113,148.5c2.4-3.8,5.1-7,7.9-9.6l30.8,17.7C148.9,159.2,146.2,162.5,143.8,166.2
							L143.8,166.2z"/>
						<path class="st21" d="M128.7,133.2c-0.3,0.2-0.6,0.3-1,0.5c-2.3,1.3-4.7,3.1-6.9,5.2l30.8,17.7c2.2-2.1,4.6-3.8,6.9-5.2
							c0.3-0.2,0.6-0.4,1-0.5L128.7,133.2z"/>
					</g>
				</g>
				<g>
					<path class="st9" d="M158.6,151.4c5-2.8,10-3.8,14.4-2.6c9.7,2.6,11.4,22.1,2.9,36.6l-12.3,24.8l-68.4,39l47.3-80.8
						C147.1,160.5,152.8,154.7,158.6,151.4z"/>
				</g>
			</g>
		</g>
		<g>
			<g class="st3">
				<g>
					<g class="st3">
						<path class="st19" d="M158.5,187.6l-6.2-3.6c-3.3-2-5.2-6.1-5.2-11.6l6.2,3.6C153.2,181.5,155.1,185.7,158.5,187.6
							L158.5,187.6z"/>
						<path class="st22" d="M153.2,176l-6.2-3.6c0-1.7,0.2-3.6,0.6-5.5l6.2,3.6C153.4,172.5,153.2,174.3,153.2,176L153.2,176z"/>
					</g>
				</g>
				<g>
					<g class="st3">
						<path class="st19" d="M197.3,40.9c-1.5,0.3-3,0.9-4.4,1.7c-0.3,0.1-0.5,0.3-0.8,0.4l6.2,3.6c0.3-0.1,0.5-0.3,0.8-0.4
							c1.5-0.8,3-1.3,4.4-1.7L197.3,40.9z"/>
						<path class="st23" d="M203.5,44.5l-6.2-3.6c0.3-0.1,0.6-0.1,0.9-0.2c1.2-0.2,2.3-0.2,3.3-0.1l6.2,3.6c-1-0.1-2.1-0.1-3.3,0.1
							C204.1,44.4,203.8,44.5,203.5,44.5L203.5,44.5z"/>
						<path class="st23" d="M207.7,44.3l-6.2-3.6c1.3,0.2,2.4,0.6,3.5,1.2l6.2,3.6C210.2,44.8,209,44.4,207.7,44.3L207.7,44.3z"/>
					</g>
				</g>
				<g>
					<g class="st3">
						<path class="st9" d="M176.1,62.9c-0.5,1.2-0.8,2.4-1.2,3.6l-26.8,98.1c-0.2,0.7-0.4,1.5-0.5,2.2l6.2,3.6
							c0.1-0.7,0.3-1.4,0.5-2.2l26.8-98.1c0.3-1.2,0.7-2.4,1.2-3.6L176.1,62.9z"/>
						<path class="st24" d="M182.3,66.6l-6.2-3.6c1.1-2.8,2.4-5.5,4.1-8l6.2,3.6C184.7,61,183.4,63.7,182.3,66.6L182.3,66.6z"/>
						<path class="st22" d="M186.4,58.5l-6.2-3.6c1.8-2.9,4-5.5,6.3-7.6l6.2,3.6C190.3,53,188.2,55.6,186.4,58.5L186.4,58.5z"/>
						<path class="st25" d="M192.7,50.9l-6.2-3.6c1.8-1.7,3.7-3.1,5.6-4.2l6.2,3.6C196.4,47.7,194.5,49.2,192.7,50.9L192.7,50.9z"/>
					</g>
				</g>
				<g>
					<path class="st1" d="M198.3,46.6c2-1.2,4.1-1.9,6.1-2.3c9.4-1.5,14.3,7.6,10.9,20.4l-26.8,98.1c-2.7,10-9.7,19.3-17.2,23.6
						c-2,1.2-4.1,1.9-6.1,2.3c-9.4,1.5-14.3-7.6-10.9-20.4l26.8-98.1C183.8,60.2,190.8,50.9,198.3,46.6z"/>
				</g>
			</g>
		</g>
		<g>
			<g class="st3">
				<g class="st3">
					<g class="st3">
						<path class="st20" d="M189.8,158.4l-12.7-7.1c-0.3-0.2-0.6-0.3-0.9-0.4l12.7,7.1C189.2,158,189.5,158.2,189.8,158.4
							L189.8,158.4z"/>
						<path class="st20" d="M188.9,157.9l-12.7-7.1c-0.8-0.3-1.7-0.4-2.6-0.4l12.7,7.1C187.2,157.5,188.1,157.6,188.9,157.9
							L188.9,157.9z"/>
						<path class="st21" d="M186.3,157.6l-12.7-7.1c-1.5,0.1-3.1,0.6-4.8,1.6l12.7,7.1C183.1,158.1,184.8,157.6,186.3,157.6
							L186.3,157.6z"/>
					</g>
				</g>
				<g>
					<g class="st3">
						<path class="st13" d="M181.4,159.1l-12.7-7.1c-2.5,1.4-4.8,3.6-6.7,6.2l12.7,7.1C176.6,162.7,178.9,160.5,181.4,159.1
							L181.4,159.1z"/>
						<path class="st13" d="M174.7,165.3l-12.7-7.1c-0.9,1.2-1.7,2.4-2.3,3.7l12.7,7.1C173.1,167.8,173.8,166.5,174.7,165.3
							L174.7,165.3z"/>
						<path class="st13" d="M172.4,169.1l-12.7-7.1c-0.7,1.3-1.2,2.6-1.7,4l12.7,7.1C171.1,171.7,171.7,170.4,172.4,169.1
							L172.4,169.1z"/>
						<path class="st26" d="M170.7,173l-12.7-7.1c-0.7,2.1-1.1,4.3-1.1,6.3c0,3.7,1.3,6.3,3.4,7.6l12.7,7.1
							c-2.1-1.2-3.4-3.9-3.4-7.6C169.6,177.3,170,175.2,170.7,173L170.7,173z"/>
					</g>
				</g>
				<g>
					<path class="st9" d="M181.4,159.1c-6.5,3.7-11.8,12.8-11.8,20.2c0,7.5,5.2,10.5,11.7,6.8c6.5-3.7,11.8-12.7,11.8-20.2
						C193.2,158.5,187.9,155.4,181.4,159.1z"/>
					<path class="st20" d="M178.6,180.5c-1.7,0-2.7-1.4-2.7-3.7c0-3.8,2.8-8.5,6.1-10.4c0.9-0.5,1.7-0.8,2.5-0.8
						c1.7,0,2.7,1.4,2.7,3.7c0,3.8-2.8,8.5-6.1,10.4C180.2,180.3,179.4,180.5,178.6,180.5L178.6,180.5z"/>
				</g>
			</g>
		</g>
		<g>
			<g class="st3">
				<g>
					<g class="st3">
						<path class="st7" d="M84.2,125.3l15.7-9c0,0.8-0.3,1.4-0.8,1.7l-15.7,9C83.8,126.8,84.1,126.2,84.2,125.3L84.2,125.3z"/>
					</g>
				</g>
				<g>
					<g class="st3">
						<path class="st5" d="M67.7,99.5l15.7-9c0.5-0.3,1.2-0.2,1.9,0.2l-15.7,9C68.8,99.3,68.2,99.2,67.7,99.5L67.7,99.5z"/>
					</g>
				</g>
				<g>
					<polygon class="st11" points="84.3,111.4 100,102.4 99.8,116.3 84.2,125.3 					"/>
				</g>
				<g>
					<polygon class="st6" points="69.6,99.7 85.3,90.7 97.3,97.8 81.6,106.8 					"/>
				</g>
				<g>
					<g class="st3">
						<path class="st7" d="M81.6,106.8l15.7-9c1.5,0.9,2.7,2.9,2.6,4.6l-15.7,9C84.3,109.7,83.1,107.6,81.6,106.8L81.6,106.8z"/>
					</g>
				</g>
				<g>
					<path class="st8" d="M81.6,106.8c1.5,0.9,2.7,2.9,2.6,4.6l-0.1,13.9c0,1.7-1.2,2.4-2.7,1.5l-12.1-7.1c-1.5-0.9-2.7-2.9-2.6-4.6
						l0.1-13.9c0-1.7,1.2-2.4,2.7-1.5L81.6,106.8z"/>
					<path class="st4" d="M82.7,126.4c-0.2,0-0.4,0-0.8-0.3l-12.1-7.1c-1.2-0.7-2.2-2.5-2.2-3.9l0.1-13.9c0-0.4,0.1-1.1,0.7-1.1
						c0.2,0,0.4,0,0.8,0.3l12.1,7.1c1.2,0.7,2.2,2.5,2.2,3.9l-0.1,13.9C83.3,125.7,83.2,126.4,82.7,126.4z"/>
				</g>
			</g>
		</g>
		<g>
			<g>
				<g class="st3">
					<g class="st3">
						<g class="st3">
							<path class="st27" d="M213.9,53.2l-6.5-3.8c-0.2-0.1-0.5-0.3-0.8-0.4l6.5,3.8C213.4,52.9,213.7,53,213.9,53.2L213.9,53.2z"/>
							<path class="st20" d="M213.2,52.8l-6.5-3.8c-0.7-0.3-1.5-0.4-2.3-0.3l6.5,3.8C211.7,52.4,212.5,52.5,213.2,52.8L213.2,52.8z"
								/>
							<path class="st21" d="M210.9,52.5l-6.5-3.8c-1.3,0.1-2.7,0.5-4.2,1.4l6.5,3.8C208.2,53,209.6,52.5,210.9,52.5L210.9,52.5z"/>
						</g>
					</g>
					<g class="st3">
						<g class="st3">
							<path class="st13" d="M206.7,53.8l-6.5-3.8c-2.2,1.2-4.2,3.1-5.8,5.4l6.5,3.8C202.5,57,204.5,55.1,206.7,53.8L206.7,53.8z"/>
							<path class="st13" d="M200.8,59.2l-6.5-3.8c-0.8,1-1.4,2.1-2,3.2l6.5,3.8C199.4,61.3,200.1,60.3,200.8,59.2L200.8,59.2z"/>
							<path class="st13" d="M198.8,62.5l-6.5-3.8c-0.6,1.1-1.1,2.3-1.5,3.4l6.5,3.8C197.7,64.7,198.2,63.6,198.8,62.5L198.8,62.5z"
								/>
							<path class="st26" d="M197.4,65.9l-6.5-3.8c-0.6,1.8-1,3.7-1,5.5c0,3.2,1.1,5.5,2.9,6.6l6.5,3.8c-1.8-1.1-2.9-3.3-2.9-6.6
								C196.4,69.6,196.7,67.7,197.4,65.9L197.4,65.9z"/>
						</g>
					</g>
					<g>
						<path class="st9" d="M206.7,53.8c-5.6,3.2-10.2,11.1-10.3,17.5c0,6.5,4.5,9.1,10.2,5.9c5.6-3.2,10.2-11.1,10.3-17.5
							C216.9,53.3,212.3,50.6,206.7,53.8z"/>
					</g>
				</g>
			</g>
			<path class="st20" d="M204.2,71.9c-1.4,0-2.3-1.2-2.3-3.2c0-3.3,2.3-7.3,5.2-8.9c0.7-0.4,1.5-0.6,2.1-0.6c1.4,0,2.3,1.2,2.3,3.2
				c0,3.3-2.3,7.3-5.2,8.9C205.6,71.7,204.8,71.9,204.2,71.9L204.2,71.9z"/>
		</g>
	</g>
</g>
<g>
	<g>
		<g>
			<g class="st3">
				<g>
					<polygon class="st6" points="246.1,263.9 277.7,245.5 277.8,208.9 246.2,227.3 					"/>
				</g>
				<g>
					<polygon class="st29" points="246.2,227.3 277.8,208.9 269.4,173.2 237.8,191.6 					"/>
				</g>
				<g>
					<polygon class="st6" points="237.8,191.6 269.4,173.2 255.9,165.4 224.3,183.8 					"/>
				</g>
				<g>
					<polygon class="st5" points="224.3,183.8 224.2,214.5 224.1,251.2 246.1,263.9 246.2,227.3 237.8,191.6 					"/>
				</g>
			</g>
		</g>
		<polygon class="st30" points="270.8,186.8 268.3,175.8 239.7,192.4 242.3,203.2 		"/>
		<polygon class="st31" points="272.8,187.6 277.8,208.9 246.2,227.3 241.2,205.8 		"/>
	</g>
</g>
<g>
	<g>
		<g>
			<g>
				<path class="st8" d="M75.1,109.8c1.9,1.1,3.5,3.8,3.5,6c0,2.2-1.6,3.1-3.5,2c-1.9-1.1-3.5-3.8-3.5-6
					C71.6,109.6,73.2,108.7,75.1,109.8z"/>
			</g>
		</g>
		<g>
			<g class="st3">
				<path class="st106" d="M74.4,111.6c-0.5-0.2-0.9-0.2-1.2,0l-9.6,5.6c0.3-0.2,0.8-0.2,1.2,0c0.1,0,0.2,0.1,0.3,0.2l9.6-5.6
					C74.6,111.7,74.5,111.6,74.4,111.6z"/>
				<g class="st3">
					<g class="st3">
						<path class="st107" d="M65.1,117.3l9.6-5.6c1.1,0.6,1.9,2,2.1,3.2l-9.6,5.6C67.1,119.3,66.2,117.9,65.1,117.3L65.1,117.3z"/>
						<path class="st108" d="M67.3,120.5l9.6-5.6c0,0.2,0,0.4,0,0.5c0,0.7-0.2,1.2-0.6,1.4l-9.6,5.6c0.4-0.2,0.6-0.7,0.6-1.4
							C67.3,120.9,67.3,120.7,67.3,120.5L67.3,120.5z"/>
					</g>
				</g>
				<g>
					<path class="st10" d="M65.1,117.3c1.2,0.7,2.2,2.4,2.2,3.8c0,1.4-1,1.9-2.2,1.2c-1.2-0.7-2.2-2.4-2.2-3.8
						C62.9,117.2,63.9,116.6,65.1,117.3z"/>
				</g>
			</g>
		</g>
		<g>
			<g class="st3">
				<g>
					<polygon class="st109" points="55.1,114.9 55.1,118.4 58.1,118.3 58.1,114.9 					"/>
				</g>
				<g>
					<polygon class="st110" points="58.1,114.9 58.1,118.3 58.8,122 58.8,118.5 					"/>
				</g>
				<g>
					<polygon class="st111" points="57.5,118.9 57.6,122.4 58.8,122 58.8,118.5 					"/>
				</g>
				<g>
					<polygon class="st112" points="57.5,118.9 57.6,122.4 60.9,124.3 60.9,120.8 					"/>
				</g>
				<g>
					<polygon class="st112" points="60.9,120.8 60.9,124.3 63,125.5 63,122.1 					"/>
				</g>
				<g>
					<polygon class="st112" points="42.8,123.7 42.8,127.1 57.6,122.4 57.5,118.9 					"/>
				</g>
				<g>
					<polygon class="st113" points="70.3,124.2 70.3,127.6 74.2,125.3 74.2,121.9 					"/>
				</g>
				<g>
					<polygon class="st114" points="68.4,125.2 68.4,128.7 70.3,127.6 70.3,124.2 					"/>
				</g>
				<g>
					<polygon class="st115" points="63,122.1 63,125.5 68.4,128.7 68.4,125.2 					"/>
				</g>
				<g>
					<polygon class="st9" points="55.1,114.9 58.1,114.9 58.8,118.5 57.5,118.9 60.9,120.8 63,122.1 68.4,125.2 70.3,124.2 
						74.2,121.9 58.7,112.9 					"/>
				</g>
				<g>
					<polygon class="st112" points="36.1,127.6 36.1,131 42.8,127.1 42.8,123.7 					"/>
				</g>
				<g>
					<polygon class="st113" points="70,128.9 70,132.4 70.3,127.6 70.3,124.2 					"/>
				</g>
				<g>
					<polygon class="st114" points="30.9,130.5 30.9,134 36.1,131 36.1,127.6 					"/>
				</g>
				<g>
					<polygon class="st1" points="29.3,129.6 29.3,133 30.9,134 30.9,130.5 					"/>
				</g>
				<g>
					<polygon class="st9" points="44.9,115.1 39.8,122 29.3,129.6 30.9,130.5 36.1,127.6 42.8,123.7 57.5,118.9 58.8,118.5 
						58.1,114.9 55.1,114.9 					"/>
				</g>
				<g>
					<polygon class="st116" points="30.9,130.5 32.1,131.2 37.2,128.2 36.1,127.6 					"/>
				</g>
				<g>
					<polygon class="st117" points="32.1,131.2 32.1,134.6 37.2,131.7 37.2,128.2 					"/>
				</g>
				<g>
					<polygon class="st118" points="30.9,130.5 30.9,134 32.1,134.6 32.1,131.2 					"/>
				</g>
				<g>
					<polygon class="st113" points="58.1,131.8 58.1,135.3 70,132.4 70,128.9 					"/>
				</g>
				<g>
					<polygon class="st116" points="42.2,136.3 43.3,136.9 48.4,134 47.3,133.3 					"/>
				</g>
				<g>
					<polygon class="st118" points="42.2,136.3 42.2,139.7 43.3,140.4 43.3,136.9 					"/>
				</g>
				<g>
					<polygon class="st117" points="43.3,136.9 43.3,140.4 48.4,137.4 48.4,134 					"/>
				</g>
				<g>
					<polygon class="st1" points="43.3,136.9 43.3,140.4 45,141.4 44.9,137.9 					"/>
				</g>
				<g>
					<polygon class="st113" points="44.9,137.9 45,141.4 58.1,135.3 58.1,131.8 					"/>
				</g>
				<g>
					<polygon class="st9" points="63,122.1 55.1,130.1 43.3,136.9 44.9,137.9 58.1,131.8 70,128.9 70.3,124.2 68.4,125.2 					"/>
				</g>
			</g>
		</g>
	</g>
</g>
<g class="st105">
	<polygon class="st61" points="176.4,210.8 198,201.8 224.2,214.3 224.2,236.7 	"/>
</g>
</svg>
