<?xml version="1.0" encoding="utf-8"?>
<!-- Generator: Adobe Illustrator 19.1.0, SVG Export Plug-In . SVG Version: 6.00 Build 0)  -->
<svg version="1.1" id="Layer_1" xmlns="http://www.w3.org/2000/svg" xmlns:xlink="http://www.w3.org/1999/xlink" x="0px" y="0px"
	 viewBox="0 0 767.6 507" style="enable-background:new 0 0 767.6 507;" xml:space="preserve">
<style type="text/css">
	.st0{fill:#6077DF;}
	.st1{fill:#FFCA00;}
	.st2{fill:#035E87;}
	.st3{enable-background:new    ;}
	.st4{fill:#BDBDBD;}
	.st5{fill:#C9C9C9;}
	.st6{fill:#FFFFFF;}
	.st7{fill:#EBEBEB;}
	.st8{fill:#999999;}
	.st9{fill:#FFB300;}
	.st10{fill:#3C3D00;}
	.st11{fill:#F5F5F5;}
	.st12{fill:#212221;}
	.st13{fill:#F2A012;}
	.st14{fill:#D68E10;}
	.st15{fill:#4B4B4B;}
	.st16{fill:#4F4F4F;}
	.st17{fill:#333333;}
	.st18{fill:#484848;}
	.st19{fill:#DE8E11;}
	.st20{fill:#D68910;}
	.st21{fill:#EB9611;}
	.st22{fill:#EDA800;}
	.st23{fill:#BF7B0F;}
	.st24{fill:#F5AE02;}
	.st25{fill:#F29B12;}
	.st26{fill:#E89A11;}
	.st27{fill:#A11D11;}
	.st28{opacity:0.18;}
	.st29{fill:#415464;}
	.st30{fill:#4CDAB0;}
	.st31{fill:#E0E0E0;}
	.st32{opacity:0.75;fill:#3A4F9B;}
	.st33{opacity:0.27;fill:#375056;}
	.st34{fill:#BA8B75;}
	.st35{fill:#242424;}
	.st36{fill:#2B3E4F;}
	.st37{fill:#DCDCDC;}
	.st38{fill:#DEB09D;}
	.st39{fill:#EBF1F5;}
	.st40{fill:#025074;}
	.st41{fill:#E9AE93;}
	.st42{fill:#291222;}
	.st43{fill:#3E1C33;}
	.st44{fill:#E9C2B0;}
	.st45{fill:#F9CFB3;}
	.st46{clip-path:url(#SVGID_2_);enable-background:new    ;}
	.st47{fill:#AA2A41;}
	.st48{fill:#D43451;}
	.st49{fill:#FF3F61;}
	.st50{fill:#9F273C;}
	.st51{fill:none;stroke:#6AEFC3;stroke-miterlimit:10;}
	.st52{fill:none;stroke:#6AEFC3;stroke-miterlimit:10;stroke-dasharray:5.915,5.915;}
	.st53{fill:none;stroke:#6AEFC3;stroke-miterlimit:10;stroke-dasharray:6.0713,6.0713;}
	.st54{fill:none;stroke:#6AEFC3;stroke-miterlimit:10;stroke-dasharray:5.9151,5.9151;}
	.st55{fill:none;stroke:#6AEFC3;stroke-miterlimit:10;stroke-dasharray:6.0712,6.0712;}
	.st56{fill:#CCCCCC;}
	.st57{fill:#E6E6E6;}
	.st58{fill:#F2F2F2;}
	.st59{fill-rule:evenodd;clip-rule:evenodd;fill:#FFFFFF;}
	.st60{opacity:0.27;}
	.st61{fill:#375056;}
	.st62{fill:#6EC6E6;}
	.st63{opacity:0.17;}
	.st64{fill:#28A7C9;}
	.st65{fill:#ADECF7;}
	.st66{clip-path:url(#SVGID_4_);}
	.st67{fill:#FEC363;}
	.st68{fill:#353F49;}
	.st69{fill:#474F59;}
	.st70{clip-path:url(#SVGID_6_);}
	.st71{fill:#A3A3EF;}
	.st72{fill:#BABAF4;}
	.st73{clip-path:url(#SVGID_8_);}
	.st74{fill:#F2B50A;}
	.st75{opacity:0.15;}
	.st76{fill:#97723F;}
	.st77{fill:#856231;}
	.st78{fill:#BD553D;}
	.st79{fill:#3E626A;}
	.st80{opacity:0.3;}
	.st81{opacity:0.42;}
	.st82{opacity:0.5;}
	.st83{fill:none;stroke:#6AEFC3;stroke-miterlimit:10;stroke-dasharray:6,6;}
	.st84{clip-path:url(#SVGID_10_);}
	.st85{fill:#3FBC92;}
	.st86{fill:#FDFFFE;}
	.st87{fill:#2B0D04;}
	.st88{fill:#134663;}
	.st89{fill:#DEF3EE;}
	.st90{clip-path:url(#SVGID_12_);enable-background:new    ;}
	.st91{clip-path:url(#SVGID_14_);}
	.st92{clip-path:url(#SVGID_16_);}
	.st93{clip-path:url(#SVGID_18_);}
	.st94{clip-path:url(#SVGID_20_);enable-background:new    ;}
	.st95{clip-path:url(#SVGID_22_);}
	.st96{clip-path:url(#SVGID_24_);}
	.st97{clip-path:url(#SVGID_26_);}
	.st98{clip-path:url(#SVGID_28_);enable-background:new    ;}
	.st99{clip-path:url(#SVGID_30_);}
	.st100{clip-path:url(#SVGID_32_);}
	.st101{clip-path:url(#SVGID_34_);}
	.st102{fill:#2FB286;}
	.st103{clip-path:url(#SVGID_36_);}
	.st104{clip-path:url(#SVGID_38_);}
	.st105{opacity:0.2;}
	.st106{fill:#585858;}
	.st107{fill:#616161;}
	.st108{fill:#505050;}
	.st109{fill:#414141;}
	.st110{fill:#232423;}
	.st111{fill:#424342;}
	.st112{fill:#C27508;}
	.st113{fill:#F0910A;}
	.st114{fill:#3E3F3E;}
	.st115{fill:#2F302F;}
	.st116{fill:#1F1F1F;}
	.st117{fill:#272727;}
	.st118{fill:#1E1E1E;}
	.st119{clip-path:url(#SVGID_40_);enable-background:new    ;}
	.st120{clip-path:url(#SVGID_42_);}
	.st121{clip-path:url(#SVGID_44_);}
	.st122{clip-path:url(#SVGID_46_);}
	.st123{opacity:0.75;}
	.st124{fill:#3A4F9B;}
	.st125{fill:#2E2F2E;}
	.st126{fill:#303130;}
	.st127{fill:#3D3E3D;}
	.st128{fill:#A26207;}
	.st129{fill:#A86507;}
	.st130{clip-path:url(#SVGID_48_);}
	.st131{clip-path:url(#SVGID_50_);}
	.st132{opacity:0.7656;fill:#3A4F9B;}
	.st133{opacity:0.7812;fill:#3A4F9B;}
	.st134{opacity:0.7969;fill:#3A4F9B;}
	.st135{opacity:0.8125;fill:#3A4F9B;}
	.st136{opacity:0.8281;fill:#3A4F9B;}
	.st137{opacity:0.8438;fill:#3A4F9B;}
	.st138{opacity:0.8594;fill:#3A4F9B;}
	.st139{opacity:0.875;fill:#3A4F9B;}
	.st140{opacity:0.8906;fill:#3A4F9B;}
	.st141{opacity:0.9062;fill:#3A4F9B;}
	.st142{opacity:0.9219;fill:#3A4F9B;}
	.st143{opacity:0.9375;fill:#3A4F9B;}
	.st144{opacity:0.9531;fill:#3A4F9B;}
	.st145{opacity:0.9688;fill:#3A4F9B;}
	.st146{opacity:0.9844;fill:#3A4F9B;}
	.st147{clip-path:url(#SVGID_52_);}
	.st148{clip-path:url(#SVGID_54_);}
	.st149{clip-path:url(#SVGID_56_);}
	.st150{clip-path:url(#SVGID_58_);}
	.st151{clip-path:url(#SVGID_60_);enable-background:new    ;}
	.st152{clip-path:url(#SVGID_62_);}
	.st153{clip-path:url(#SVGID_64_);}
	.st154{clip-path:url(#SVGID_66_);}
	.st155{clip-path:url(#SVGID_68_);}
	.st156{clip-path:url(#SVGID_70_);enable-background:new    ;}
	.st157{clip-path:url(#SVGID_72_);enable-background:new    ;}
	.st158{clip-path:url(#SVGID_74_);}
	.st159{clip-path:url(#SVGID_76_);}
	.st160{clip-path:url(#SVGID_78_);}
	.st161{clip-path:url(#SVGID_80_);}
	.st162{clip-path:url(#SVGID_82_);}
	.st163{clip-path:url(#SVGID_84_);}
</style>
<g>
	<path class="st1" d="M385.1,98.9c-6.7-6.7-9-15.8-6.2-24.2c2.6-7.7,8.9-13.2,16.6-14.3c3.3-0.5,7.4-0.5,12.2-0.5
		c17.4,0.1,41.2,0.1,46.8-25.8c4.8-22.2,22.8-25.3,30.3-25.6C495,8.2,504.9,12,506.4,17c3,10-9.8,19.2-10.3,19.6l-0.9-1.3
		c0.1-0.1,12.4-8.9,9.7-17.8c-1.1-3.8-9.7-7.7-20.1-7.2c-7.1,0.3-24.2,3.2-28.8,24.4c-5.8,27.2-30.4,27.2-48.3,27.1
		c-4.7,0-8.8,0-12,0.4c-7.1,1-12.9,6.1-15.3,13.2c-2.6,7.8-0.5,16.2,5.8,22.5L385.1,98.9z"/>
	<path class="st2" d="M395,110.4c-14.5-8.6-22.1-19-20.7-28.6c0.9-6.3,5.6-11.4,12.1-13.1c3.4-0.9,7.2-1.3,11.1-1.8
		c11.4-1.3,24.2-2.8,34.2-15.8c3-4,5.9-8.5,9-13.3C451,21.4,462.8,2.9,484.9,3c6.7,0,11.2,2.1,13.2,6c5.4,10.2-7.2,29.4-7.8,30.2
		l-1.3-0.9c0.1-0.2,12.7-19.2,7.7-28.6c-1.8-3.4-5.8-5.1-11.9-5.1c-21.2-0.1-32.8,18-42.9,34.1c-3.1,4.8-6,9.4-9,13.4
		c-10.4,13.5-23.6,15.1-35.3,16.4c-3.9,0.5-7.6,0.9-10.9,1.8c-5.9,1.5-10.2,6.1-10.9,11.8c-1.2,8.9,6,18.7,20,27L395,110.4z"/>
	<g>
		<g>
			<g class="st3">
				<g>
					<g class="st3">
						<path class="st4" d="M486,81.8l26.1-14.9c0,1.4-0.5,2.4-1.3,2.8l-26.1,14.9C485.5,84.1,486,83.2,486,81.8L486,81.8z"/>
					</g>
				</g>
				<g>
					<g class="st3">
						<path class="st5" d="M458.6,38.8l26.1-14.9c0.8-0.5,1.9-0.4,3.2,0.3l-26.1,14.9C460.5,38.5,459.4,38.4,458.6,38.8L458.6,38.8z
							"/>
					</g>
				</g>
				<g>
					<polygon class="st4" points="486.2,58.6 512.3,43.7 512.1,66.8 486,81.8 					"/>
				</g>
				<g>
					<polygon class="st6" points="461.8,39.2 487.9,24.2 507.9,36 481.8,50.9 					"/>
				</g>
				<g>
					<g class="st3">
						<path class="st7" d="M481.8,50.9L507.9,36c2.4,1.4,4.4,4.9,4.4,7.7l-26.1,14.9C486.2,55.8,484.3,52.4,481.8,50.9L481.8,50.9z"
							/>
					</g>
				</g>
				<g>
					<path class="st8" d="M481.8,50.9c2.4,1.4,4.4,4.9,4.4,7.7L486,81.8c0,2.8-2,3.9-4.5,2.5l-20.1-11.7c-2.4-1.4-4.4-4.9-4.4-7.7
						l0.2-23.1c0-2.8,2-3.9,4.5-2.5L481.8,50.9z"/>
					<path class="st4" d="M483.5,84.1c-0.5,0-1-0.2-1.6-0.5l-20.1-11.7c-2.2-1.3-4-4.5-4-7l0.2-23.1c0-0.5,0.1-2.3,1.7-2.3
						c0.5,0,1,0.2,1.6,0.5l20.1,11.7c2.2,1.3,4,4.5,4,7l-0.2,23.1C485.2,82.3,485,84.1,483.5,84.1z"/>
				</g>
			</g>
			<g>
				<path class="st8" d="M471.2,48.7c6.4,3.7,11.5,12.8,11.5,20.1c-0.1,7.4-5.3,10.3-11.7,6.6c-6.4-3.7-11.5-12.7-11.4-20.1
					C459.6,47.9,464.8,45,471.2,48.7z"/>
			</g>
		</g>
		<g>
			<g class="st3">
				<path class="st9" d="M386.6,92.9l77-43.3c1.6-0.9,3.6-0.9,5.9,0l-77,43.3C390.2,91.9,388.2,92,386.6,92.9L386.6,92.9z"/>
				<g class="st3">
					<g class="st3">
						<path class="st1" d="M471.1,50.4c-0.5-0.3-1-0.6-1.5-0.8l-77,43.3c0.5,0.2,1,0.5,1.5,0.8c5,2.9,9.2,9.5,10.1,15.5l77-43.3
							C480.2,59.8,476.1,53.3,471.1,50.4z"/>
						<path class="st9" d="M404.1,109.1l77-43.3c0.1,0.9,0.2,1.8,0.2,2.6c0,3.3-1.2,5.6-3.1,6.7l-77,43.3c1.9-1.1,3.1-3.4,3.1-6.7
							C404.3,110.9,404.3,110,404.1,109.1L404.1,109.1z"/>
					</g>
				</g>
				<g>
					<path class="st10" d="M394,93.6c5.8,3.4,10.4,11.5,10.3,18.1c-0.1,6.6-4.8,9.3-10.5,5.9c-5.7-3.4-10.4-11.5-10.3-18.1
						C383.6,92.9,388.3,90.3,394,93.6z"/>
				</g>
			</g>
		</g>
		<g>
			<g class="st3">
				<g>
					<polygon class="st11" points="552.3,224.4 552.2,238.7 431.7,304.2 431.9,289.9 					"/>
				</g>
				<g>
					<polygon class="st4" points="431.9,289.9 431.7,304.2 311.4,233.7 311.5,219.4 					"/>
				</g>
				<g>
					<polygon class="st6" points="552.3,224.4 431.9,289.9 311.5,219.4 421.3,162.3 					"/>
				</g>
			</g>
		</g>
		<g>
			<g>
				<g class="st3">
					<g class="st3">
						<g class="st3">
							<path class="st12" d="M385.5,234.1l0,2c0,2.1,1.3,4.1,4,5.7l0-2C386.8,238.2,385.5,236.1,385.5,234.1L385.5,234.1z"/>
						</g>
					</g>
					<g class="st3">
						<g class="st3">
							<path class="st9" d="M448,255.2l0,2c0.2-0.1,0.4-0.2,0.5-0.3l0-2C448.4,255,448.2,255.1,448,255.2L448,255.2z"/>
							<path class="st9" d="M448.6,254.9l0,2c0.9-0.6,1.7-1.2,2.2-1.9l0-2C450.2,253.6,449.5,254.3,448.6,254.9L448.6,254.9z"/>
							<path class="st13" d="M450.8,253l0,2c0.5-0.6,0.8-1.1,1.1-1.7l0-2C451.6,251.8,451.3,252.4,450.8,253L450.8,253z"/>
							<path class="st13" d="M451.9,251.2l0,2c0.2-0.6,0.3-1.2,0.3-1.8l0-2C452.2,250,452.1,250.6,451.9,251.2L451.9,251.2z"/>
						</g>
					</g>
					<g>
						<polygon class="st13" points="389.5,239.8 389.5,241.8 421.7,260.8 421.7,258.8 						"/>
					</g>
					<g>
						<polygon class="st9" points="441.5,258.9 441.5,260.9 448,257.2 448,255.2 						"/>
					</g>
					<g class="st3">
						<g class="st3">
							<path class="st13" d="M421.7,258.8l0,2c0.8,0.5,1.6,0.9,2.5,1.2l0-2C423.4,259.6,422.5,259.2,421.7,258.8L421.7,258.8z"/>
							<path class="st13" d="M424.3,260l0,2c1,0.4,2,0.6,3,0.8l0-2C426.2,260.6,425.2,260.3,424.3,260L424.3,260z"/>
							<path class="st13" d="M427.3,260.8l0,2c1,0.2,2.1,0.3,3.1,0.4l0-2C429.4,261.1,428.3,261,427.3,260.8L427.3,260.8z"/>
							<path class="st9" d="M430.4,261.2l0,2c1.3,0.1,2.7,0,4-0.1l0-2C433.1,261.2,431.8,261.3,430.4,261.2L430.4,261.2z"/>
							<path class="st9" d="M434.5,261.1l0,2c2.6-0.3,5.1-1,7.1-2.2l0-2C439.5,260,437,260.8,434.5,261.1L434.5,261.1z"/>
						</g>
					</g>
					<g>
						<path class="st1" d="M389.7,228.3c-5.5,3.1-5.6,8.3-0.1,11.5l32.2,19c5.4,3.2,14.3,3.3,19.8,0.1l6.5-3.7
							c5.5-3.1,5.6-8.3,0.1-11.5l-32.2-19c-5.4-3.2-14.3-3.3-19.8-0.1L389.7,228.3z"/>
					</g>
				</g>
			</g>
			<g>
				<g class="st3">
					<g class="st3">
						<g>
							<path class="st14" d="M352.2,215.1l0,2c0,2.1,1.3,4.1,4,5.7l0-2C353.6,219.2,352.2,217.2,352.2,215.1L352.2,215.1z"/>
						</g>
					</g>
					<g class="st3">
						<g class="st3">
							<path class="st9" d="M414.8,236.2l0,2c0.2-0.1,0.4-0.2,0.5-0.3l0-2C415.1,236,414.9,236.1,414.8,236.2L414.8,236.2z"/>
							<path class="st9" d="M415.3,235.9l0,2c0.9-0.6,1.7-1.2,2.2-1.9l0-2C417,234.7,416.2,235.3,415.3,235.9L415.3,235.9z"/>
							<path class="st13" d="M417.5,234l0,2c0.5-0.6,0.8-1.1,1.1-1.7l0-2C418.4,232.8,418,233.4,417.5,234L417.5,234z"/>
							<path class="st13" d="M418.6,232.2l0,2c0.2-0.6,0.3-1.2,0.3-1.8l0-2C418.9,231.1,418.8,231.7,418.6,232.2L418.6,232.2z"/>
						</g>
					</g>
					<g>
						<polygon class="st13" points="356.3,220.8 356.2,222.8 388.4,241.8 388.4,239.8 						"/>
					</g>
					<g>
						<polygon class="st9" points="408.3,239.9 408.2,241.9 414.7,238.2 414.8,236.2 						"/>
					</g>
					<g class="st3">
						<g class="st3">
							<path class="st13" d="M388.4,239.8l0,2c0.8,0.5,1.6,0.9,2.5,1.2l0-2C390.1,240.7,389.2,240.3,388.4,239.8L388.4,239.8z"/>
							<path class="st13" d="M391,241l0,2c1,0.4,2,0.6,3,0.8l0-2C393,241.6,391.9,241.3,391,241L391,241z"/>
							<path class="st13" d="M394,241.8l0,2c1,0.2,2.1,0.3,3.1,0.4l0-2C396.1,242.1,395,242,394,241.8L394,241.8z"/>
							<path class="st9" d="M397.2,242.2l0,2c1.3,0.1,2.7,0,4-0.1l0-2C399.8,242.2,398.5,242.3,397.2,242.2L397.2,242.2z"/>
							<path class="st9" d="M401.2,242.1l0,2c2.6-0.3,5.1-1,7.1-2.2l0-2C406.2,241.1,403.8,241.8,401.2,242.1L401.2,242.1z"/>
						</g>
					</g>
					<g>
						<path class="st1" d="M356.4,209.4c-5.5,3.1-5.6,8.3-0.1,11.5l32.2,19c5.4,3.2,14.3,3.3,19.8,0.1l6.5-3.7
							c5.5-3.1,5.6-8.3,0.1-11.5l-32.2-19c-5.4-3.2-14.3-3.3-19.8-0.1L356.4,209.4z"/>
					</g>
				</g>
			</g>
			<g>
				<g class="st3">
					<g>
						<polygon class="st15" points="434,252.6 434,254.6 432.7,257.5 432.7,255.5 						"/>
					</g>
					<g>
						<polygon class="st16" points="432.7,255.5 432.7,257.5 427.6,258.2 427.7,256.2 						"/>
					</g>
					<g>
						<polygon class="st17" points="427.7,256.2 427.6,258.2 424,256.1 424,254.1 						"/>
					</g>
					<g>
						<polygon class="st18" points="434,252.6 432.7,255.5 427.7,256.2 424,254.1 425.3,251.2 430.4,250.4 						"/>
					</g>
				</g>
			</g>
			<g>
				<g class="st3">
					<g>
						<polygon class="st15" points="447.8,244.5 447.8,246.5 446.4,249.4 446.4,247.4 						"/>
					</g>
					<g>
						<polygon class="st16" points="446.4,247.4 446.4,249.4 441.4,250.2 441.4,248.2 						"/>
					</g>
					<g>
						<polygon class="st17" points="441.4,248.2 441.4,250.2 437.7,248 437.8,246 						"/>
					</g>
					<g>
						<polygon class="st18" points="447.8,244.5 446.4,247.4 441.4,248.2 437.8,246 439.1,243.1 444.1,242.4 						"/>
					</g>
				</g>
			</g>
			<g>
				<g class="st3">
					<g>
						<polygon class="st15" points="366.3,213.4 366.3,215.4 364.9,218.3 365,216.2 						"/>
					</g>
					<g>
						<polygon class="st16" points="365,216.2 364.9,218.3 359.9,219 360,217 						"/>
					</g>
					<g>
						<polygon class="st17" points="360,217 359.9,219 356.3,216.9 356.3,214.8 						"/>
					</g>
					<g>
						<polygon class="st18" points="366.3,213.4 365,216.2 360,217 356.3,214.8 357.6,212 362.6,211.2 						"/>
					</g>
				</g>
			</g>
			<g>
				<g class="st3">
					<g>
						<polygon class="st15" points="379.4,205.7 379.4,207.7 378,210.6 378.1,208.5 						"/>
					</g>
					<g>
						<polygon class="st16" points="378.1,208.5 378,210.6 373,211.3 373,209.3 						"/>
					</g>
					<g>
						<polygon class="st17" points="373,209.3 373,211.3 369.4,209.2 369.4,207.2 						"/>
					</g>
					<g>
						<polygon class="st18" points="379.4,205.7 378.1,208.5 373,209.3 369.4,207.2 370.7,204.3 375.7,203.5 						"/>
					</g>
				</g>
			</g>
		</g>
		<g>
			<g>
				<g class="st3">
					<g class="st3">
						<g class="st3">
							<path class="st12" d="M424.9,211.1l0,2c0,2.1,1.3,4.1,4,5.7l0-2C426.3,215.3,424.9,213.2,424.9,211.1L424.9,211.1z"/>
						</g>
					</g>
					<g class="st3">
						<g class="st3">
							<path class="st9" d="M487.5,232.3l0,2c0.2-0.1,0.4-0.2,0.5-0.3l0-2C487.8,232,487.7,232.1,487.5,232.3L487.5,232.3z"/>
							<path class="st9" d="M488,231.9l0,2c0.9-0.6,1.7-1.2,2.2-1.9l0-2C489.7,230.7,488.9,231.3,488,231.9L488,231.9z"/>
							<path class="st13" d="M490.3,230l0,2c0.5-0.6,0.8-1.1,1.1-1.7l0-2C491.1,228.9,490.7,229.5,490.3,230L490.3,230z"/>
							<path class="st13" d="M491.3,228.3l0,2c0.2-0.6,0.3-1.2,0.3-1.8l0-2C491.6,227.1,491.5,227.7,491.3,228.3L491.3,228.3z"/>
						</g>
					</g>
					<g>
						<polygon class="st13" points="429,219.2 429,221.2 461.2,237.8 461.2,235.8 						"/>
					</g>
					<g>
						<polygon class="st9" points="481,236 481,238 487.5,234.3 487.5,232.3 						"/>
					</g>
					<g class="st3">
						<g class="st3">
							<path class="st13" d="M461.2,235.8l0,2c0.8,0.5,1.6,0.9,2.5,1.2l0-2C462.8,236.7,461.9,236.3,461.2,235.8L461.2,235.8z"/>
							<path class="st13" d="M463.7,237l0,2c1,0.4,2,0.6,3,0.8l0-2C465.7,237.6,464.7,237.4,463.7,237L463.7,237z"/>
							<path class="st13" d="M466.7,237.8l0,2c1,0.2,2.1,0.3,3.1,0.4l0-2C468.8,238.2,467.7,238,466.7,237.8L466.7,237.8z"/>
							<path class="st9" d="M469.9,238.2l0,2c1.3,0.1,2.7,0,4-0.1l0-2C472.6,238.3,471.2,238.3,469.9,238.2L469.9,238.2z"/>
							<path class="st9" d="M473.9,238.1l0,2c2.6-0.3,5.1-1,7.1-2.2l0-2C479,237.1,476.5,237.8,473.9,238.1L473.9,238.1z"/>
						</g>
					</g>
					<g>
						<path class="st1" d="M429.1,205.4c-5.5,3.1-6.7,10.3-1.2,13.5l33.3,17c5.4,3.2,14.3,3.3,19.8,0.1l6.5-3.7
							c5.5-3.1,5.6-8.3,0.1-11.5l-32.2-19c-5.4-3.2-14.3-3.3-19.8-0.1L429.1,205.4z"/>
					</g>
				</g>
			</g>
			<g>
				<g class="st3">
					<g class="st3">
						<g>
							<path class="st14" d="M392.1,194.5l0,2c0,2.1,1.3,4.1,4,5.7l0-2C393.4,198.7,392.1,196.6,392.1,194.5L392.1,194.5z"/>
						</g>
					</g>
					<g class="st3">
						<g class="st3">
							<path class="st9" d="M454.2,213.3l0,2c0.2-0.1,0.4-0.2,0.5-0.3l0-2C454.6,213.1,454.4,213.2,454.2,213.3L454.2,213.3z"/>
							<path class="st9" d="M454.7,213l0,2c0.9-0.6,1.7-1.2,2.2-1.9l0-2C456.4,211.7,455.7,212.4,454.7,213L454.7,213z"/>
							<path class="st13" d="M457,211l0,2c0.5-0.6,0.8-1.1,1.1-1.7l0-2C457.8,209.9,457.4,210.5,457,211L457,211z"/>
							<path class="st13" d="M458,209.3l0,2c0.2-0.6,0.3-1.2,0.3-1.8l0-2C458.4,208.1,458.2,208.7,458,209.3L458,209.3z"/>
						</g>
					</g>
					<g>
						<polygon class="st13" points="395.7,197.9 395.7,199.9 427.9,218.9 427.9,216.9 						"/>
					</g>
					<g>
						<polygon class="st9" points="447.7,217 447.7,219 454.2,215.3 454.2,213.3 						"/>
					</g>
					<g class="st3">
						<g class="st3">
							<path class="st13" d="M427.9,216.9l0,2c0.8,0.5,1.6,0.9,2.5,1.2l0-2C429.5,217.7,428.7,217.3,427.9,216.9L427.9,216.9z"/>
							<path class="st13" d="M430.4,218l0,2c1,0.4,2,0.6,3,0.8l0-2C432.4,218.7,431.4,218.4,430.4,218L430.4,218z"/>
							<path class="st13" d="M433.4,218.9l0,2c1,0.2,2.1,0.3,3.1,0.4l0-2C435.5,219.2,434.5,219.1,433.4,218.9L433.4,218.9z"/>
							<path class="st9" d="M436.6,219.3l0,2c1.3,0.1,2.7,0,4-0.1l0-2C439.3,219.3,437.9,219.3,436.6,219.3L436.6,219.3z"/>
							<path class="st9" d="M440.6,219.1l0,2c2.6-0.3,5.1-1,7.1-2.2l0-2C445.7,218.1,443.2,218.9,440.6,219.1L440.6,219.1z"/>
						</g>
					</g>
					<g>
						<path class="st1" d="M396.9,186.6c7.2,5.8-6.6,8.1-1.2,11.3l32.2,19c5.4,3.2,14.3,3.3,19.8,0.1l6.5-3.7
							c5.5-3.1,5.6-8.3,0.1-11.5l-32.2-19c-5.4-3.2-14.3-3.3-19.8-0.1L396.9,186.6z"/>
					</g>
				</g>
			</g>
			<g>
				<g class="st3">
					<g>
						<polygon class="st15" points="473.5,229.6 473.4,231.7 472.1,234.6 472.1,232.5 						"/>
					</g>
					<g>
						<polygon class="st16" points="472.1,232.5 472.1,234.6 467.1,235.3 467.1,233.3 						"/>
					</g>
					<g>
						<polygon class="st17" points="467.1,233.3 467.1,235.3 463.4,233.2 463.4,231.1 						"/>
					</g>
					<g>
						<polygon class="st18" points="473.5,229.6 472.1,232.5 467.1,233.3 463.4,231.1 464.8,228.2 469.8,227.5 						"/>
					</g>
				</g>
			</g>
			<g>
				<g class="st3">
					<g>
						<polygon class="st15" points="487.2,221.6 487.2,223.6 485.8,226.5 485.9,224.5 						"/>
					</g>
					<g>
						<polygon class="st16" points="485.9,224.5 485.8,226.5 480.8,227.2 480.9,225.2 						"/>
					</g>
					<g>
						<polygon class="st17" points="480.9,225.2 480.8,227.2 477.2,225.1 477.2,223.1 						"/>
					</g>
					<g>
						<polygon class="st18" points="487.2,221.6 485.9,224.5 480.9,225.2 477.2,223.1 478.5,220.2 483.5,219.4 						"/>
					</g>
				</g>
			</g>
			<g>
				<g class="st3">
					<g>
						<polygon class="st15" points="405.7,190.4 405.7,192.4 404.4,195.3 404.4,193.3 						"/>
					</g>
					<g>
						<polygon class="st16" points="404.4,193.3 404.4,195.3 399.4,196.1 399.4,194.1 						"/>
					</g>
					<g>
						<polygon class="st17" points="399.4,194.1 399.4,196.1 395.7,193.9 395.7,191.9 						"/>
					</g>
					<g>
						<polygon class="st18" points="405.7,190.4 404.4,193.3 399.4,194.1 395.7,191.9 397.1,189 402.1,188.3 						"/>
					</g>
				</g>
			</g>
			<g>
				<g class="st3">
					<g>
						<polygon class="st15" points="418.8,182.7 418.8,184.7 417.5,187.6 417.5,185.6 						"/>
					</g>
					<g>
						<polygon class="st16" points="417.5,185.6 417.5,187.6 412.5,188.4 412.5,186.4 						"/>
					</g>
					<g>
						<polygon class="st17" points="412.5,186.4 412.5,188.4 408.8,186.2 408.8,184.2 						"/>
					</g>
					<g>
						<polygon class="st18" points="418.8,182.7 417.5,185.6 412.5,186.4 408.8,184.2 410.2,181.3 415.2,180.6 						"/>
					</g>
				</g>
			</g>
		</g>
		<g>
			<g class="st3">
				<g class="st3">
					<g class="st3">
						<path class="st19" d="M446.3,130.4c-1.9-0.2-3.8-0.1-5.8,0.3c-1.9,0.4-3.8,1.2-5.7,2.2l30.8,17.7c1.9-1,3.8-1.7,5.7-2.2
							c2-0.5,4-0.6,5.8-0.3L446.3,130.4z"/>
						<path class="st20" d="M477.1,148l-30.8-17.7c0.7,0.1,1.3,0.2,1.9,0.4c0.7,0.2,1.4,0.5,2.1,0.9l30.8,17.7
							c-0.6-0.4-1.3-0.7-2.1-0.9C478.4,148.2,477.8,148.1,477.1,148L477.1,148z"/>
					</g>
				</g>
				<g>
					<g class="st3">
						<path class="st13" d="M419,148.2c-0.4,0.7-0.9,1.4-1.3,2.1l-47.3,80.8l30.8,17.7l47.3-80.8c0.4-0.7,0.8-1.4,1.3-2.1L419,148.2
							z"/>
						<path class="st13" d="M449.8,165.9L419,148.2c2.4-3.8,5.1-7,7.9-9.6l30.8,17.7C454.9,158.9,452.2,162.1,449.8,165.9
							L449.8,165.9z"/>
						<path class="st21" d="M434.7,132.9c-0.3,0.2-0.6,0.3-1,0.5c-2.3,1.3-4.7,3.1-6.9,5.2l30.8,17.7c2.2-2.1,4.6-3.8,6.9-5.2
							c0.3-0.2,0.6-0.4,1-0.5L434.7,132.9z"/>
					</g>
				</g>
				<g>
					<path class="st9" d="M464.6,151.1c5-2.8,10-3.8,14.4-2.6c9.7,2.6,11.4,22.1,2.9,36.6l-12.3,24.8l-68.4,39l47.3-80.8
						C453.1,160.2,458.8,154.4,464.6,151.1z"/>
				</g>
			</g>
		</g>
		<g>
			<g class="st3">
				<g>
					<g class="st3">
						<path class="st19" d="M464.5,187.3l-6.2-3.6c-3.3-2-5.2-6.1-5.2-11.6l6.2,3.6C459.2,181.2,461.1,185.3,464.5,187.3
							L464.5,187.3z"/>
						<path class="st22" d="M459.2,175.7l-6.2-3.6c0-1.7,0.2-3.6,0.6-5.5l6.2,3.6C459.4,172.1,459.2,174,459.2,175.7L459.2,175.7z"
							/>
					</g>
				</g>
				<g>
					<g class="st3">
						<path class="st19" d="M503.3,40.6c-1.5,0.3-3,0.9-4.4,1.7c-0.3,0.1-0.5,0.3-0.8,0.4l6.2,3.6c0.3-0.1,0.5-0.3,0.8-0.4
							c1.5-0.8,3-1.3,4.4-1.7L503.3,40.6z"/>
						<path class="st23" d="M509.5,44.2l-6.2-3.6c0.3-0.1,0.6-0.1,0.9-0.2c1.2-0.2,2.3-0.2,3.3-0.1l6.2,3.6c-1-0.1-2.1-0.1-3.3,0.1
							C510.1,44.1,509.8,44.1,509.5,44.2L509.5,44.2z"/>
						<path class="st23" d="M513.7,43.9l-6.2-3.6c1.3,0.2,2.4,0.6,3.5,1.2l6.2,3.6C516.2,44.5,515,44.1,513.7,43.9L513.7,43.9z"/>
					</g>
				</g>
				<g>
					<g class="st3">
						<path class="st9" d="M482.1,62.6c-0.5,1.2-0.8,2.4-1.2,3.6l-26.8,98.1c-0.2,0.7-0.4,1.5-0.5,2.2l6.2,3.6
							c0.1-0.7,0.3-1.4,0.5-2.2l26.8-98.1c0.3-1.2,0.7-2.4,1.2-3.6L482.1,62.6z"/>
						<path class="st24" d="M488.3,66.2l-6.2-3.6c1.1-2.8,2.4-5.5,4.1-8l6.2,3.6C490.7,60.7,489.4,63.4,488.3,66.2L488.3,66.2z"/>
						<path class="st22" d="M492.4,58.2l-6.2-3.6c1.8-2.9,4-5.5,6.3-7.6l6.2,3.6C496.3,52.7,494.2,55.3,492.4,58.2L492.4,58.2z"/>
						<path class="st25" d="M498.7,50.5l-6.2-3.6c1.8-1.7,3.7-3.1,5.6-4.2l6.2,3.6C502.4,47.4,500.5,48.8,498.7,50.5L498.7,50.5z"/>
					</g>
				</g>
				<g>
					<path class="st1" d="M504.3,46.3c2-1.2,4.1-1.9,6.1-2.3c9.4-1.5,14.3,7.6,10.9,20.4l-26.8,98.1c-2.7,10-9.7,19.3-17.2,23.6
						c-2,1.2-4.1,1.9-6.1,2.3c-9.4,1.5-14.3-7.6-10.9-20.4l26.8-98.1C489.8,59.8,496.8,50.5,504.3,46.3z"/>
				</g>
			</g>
		</g>
		<g>
			<g class="st3">
				<g class="st3">
					<g class="st3">
						<path class="st20" d="M495.8,158l-12.7-7.1c-0.3-0.2-0.6-0.3-0.9-0.4l12.7,7.1C495.2,157.7,495.5,157.9,495.8,158L495.8,158z"
							/>
						<path class="st20" d="M494.9,157.6l-12.7-7.1c-0.8-0.3-1.7-0.4-2.6-0.4l12.7,7.1C493.2,157.2,494.1,157.3,494.9,157.6
							L494.9,157.6z"/>
						<path class="st21" d="M492.3,157.2l-12.7-7.1c-1.5,0.1-3.1,0.6-4.8,1.6l12.7,7.1C489.1,157.8,490.8,157.3,492.3,157.2
							L492.3,157.2z"/>
					</g>
				</g>
				<g>
					<g class="st3">
						<path class="st13" d="M487.4,158.8l-12.7-7.1c-2.5,1.4-4.8,3.6-6.7,6.2l12.7,7.1C482.6,162.4,484.9,160.2,487.4,158.8
							L487.4,158.8z"/>
						<path class="st13" d="M480.7,165l-12.7-7.1c-0.9,1.2-1.7,2.4-2.3,3.7l12.7,7.1C479.1,167.4,479.8,166.2,480.7,165L480.7,165z"
							/>
						<path class="st13" d="M478.4,168.7l-12.7-7.1c-0.7,1.3-1.2,2.6-1.7,4l12.7,7.1C477.1,171.4,477.7,170,478.4,168.7L478.4,168.7
							z"/>
						<path class="st26" d="M476.7,172.7l-12.7-7.1c-0.7,2.1-1.1,4.3-1.1,6.3c0,3.7,1.3,6.3,3.4,7.6l12.7,7.1
							c-2.1-1.2-3.4-3.9-3.4-7.6C475.6,177,476,174.8,476.7,172.7L476.7,172.7z"/>
					</g>
				</g>
				<g>
					<path class="st9" d="M487.4,158.8c-6.5,3.7-11.8,12.8-11.8,20.2c0,7.5,5.2,10.5,11.7,6.8c6.5-3.7,11.8-12.7,11.8-20.2
						C499.2,158.1,493.9,155.1,487.4,158.8z"/>
					<path class="st20" d="M484.6,180.2c-1.7,0-2.7-1.4-2.7-3.7c0-3.8,2.8-8.5,6.1-10.4c0.9-0.5,1.7-0.8,2.5-0.8
						c1.7,0,2.7,1.4,2.7,3.7c0,3.8-2.8,8.5-6.1,10.4C486.2,179.9,485.4,180.2,484.6,180.2L484.6,180.2z"/>
				</g>
			</g>
		</g>
		<g>
			<g class="st3">
				<g>
					<g class="st3">
						<path class="st7" d="M390.2,125l15.7-9c0,0.8-0.3,1.4-0.8,1.7l-15.7,9C389.8,126.4,390.1,125.8,390.2,125L390.2,125z"/>
					</g>
				</g>
				<g>
					<g class="st3">
						<path class="st5" d="M373.7,99.2l15.7-9c0.5-0.3,1.2-0.2,1.9,0.2l-15.7,9C374.8,98.9,374.2,98.9,373.7,99.2L373.7,99.2z"/>
					</g>
				</g>
				<g>
					<polygon class="st11" points="390.3,111.1 406,102.1 405.8,116 390.2,125 					"/>
				</g>
				<g>
					<polygon class="st6" points="375.6,99.4 391.3,90.4 403.3,97.4 387.6,106.4 					"/>
				</g>
				<g>
					<g class="st3">
						<path class="st7" d="M387.6,106.4l15.7-9c1.5,0.9,2.7,2.9,2.6,4.6l-15.7,9C390.3,109.4,389.1,107.3,387.6,106.4L387.6,106.4z"
							/>
					</g>
				</g>
				<g>
					<path class="st8" d="M387.6,106.4c1.5,0.9,2.7,2.9,2.6,4.6l-0.1,13.9c0,1.7-1.2,2.4-2.7,1.5l-12.1-7.1
						c-1.5-0.9-2.7-2.9-2.6-4.6l0.1-13.9c0-1.7,1.2-2.4,2.7-1.5L387.6,106.4z"/>
					<path class="st4" d="M388.7,126c-0.2,0-0.4,0-0.8-0.3l-12.1-7.1c-1.2-0.7-2.2-2.5-2.2-3.9l0.1-13.9c0-0.4,0.1-1.1,0.7-1.1
						c0.2,0,0.4,0,0.8,0.3l12.1,7.1c1.2,0.7,2.2,2.5,2.2,3.9l-0.1,13.9C389.3,125.4,389.2,126.1,388.7,126z"/>
				</g>
			</g>
		</g>
		<g>
			<g>
				<g class="st3">
					<g class="st3">
						<g class="st3">
							<path class="st27" d="M519.9,52.8l-6.5-3.8c-0.2-0.1-0.5-0.3-0.8-0.4l6.5,3.8C519.4,52.6,519.7,52.7,519.9,52.8L519.9,52.8z"
								/>
							<path class="st20" d="M519.2,52.5l-6.5-3.8c-0.7-0.3-1.5-0.4-2.3-0.3l6.5,3.8C517.7,52.1,518.5,52.2,519.2,52.5L519.2,52.5z"
								/>
							<path class="st21" d="M516.9,52.1l-6.5-3.8c-1.3,0.1-2.7,0.5-4.2,1.4l6.5,3.8C514.2,52.7,515.6,52.2,516.9,52.1L516.9,52.1z"
								/>
						</g>
					</g>
					<g class="st3">
						<g class="st3">
							<path class="st13" d="M512.7,53.5l-6.5-3.8c-2.2,1.2-4.2,3.1-5.8,5.4l6.5,3.8C508.5,56.6,510.5,54.7,512.7,53.5L512.7,53.5z"
								/>
							<path class="st13" d="M506.8,58.9l-6.5-3.8c-0.8,1-1.4,2.1-2,3.2l6.5,3.8C505.4,61,506.1,59.9,506.8,58.9L506.8,58.9z"/>
							<path class="st13" d="M504.8,62.1l-6.5-3.8c-0.6,1.1-1.1,2.3-1.5,3.4l6.5,3.8C503.7,64.4,504.2,63.3,504.8,62.1L504.8,62.1z"
								/>
							<path class="st26" d="M503.4,65.6l-6.5-3.8c-0.6,1.8-1,3.7-1,5.5c0,3.2,1.1,5.5,2.9,6.6l6.5,3.8c-1.8-1.1-2.9-3.3-2.9-6.6
								C502.4,69.3,502.7,67.4,503.4,65.6L503.4,65.6z"/>
						</g>
					</g>
					<g>
						<path class="st9" d="M512.7,53.5c-5.6,3.2-10.2,11.1-10.3,17.5c0,6.5,4.5,9.1,10.2,5.9c5.6-3.2,10.2-11.1,10.3-17.5
							C522.9,52.9,518.3,50.3,512.7,53.5z"/>
					</g>
				</g>
			</g>
			<path class="st20" d="M510.2,71.6c-1.4,0-2.3-1.2-2.3-3.2c0-3.3,2.3-7.3,5.2-8.9c0.7-0.4,1.5-0.6,2.1-0.6c1.4,0,2.3,1.2,2.3,3.2
				c0,3.3-2.3,7.3-5.2,8.9C511.6,71.3,510.8,71.6,510.2,71.6L510.2,71.6z"/>
		</g>
	</g>
</g>
<g class="st28">
	<polygon class="st8" points="369.7,189.7 406.9,170.3 407,170.1 389.8,199.8 	"/>
</g>
<g>
	<g>
		<g>
			<g class="st3">
				<g>
					<polygon class="st6" points="552.1,263.5 583.7,245.2 583.8,208.6 552.2,226.9 					"/>
				</g>
				<g>
					<polygon class="st29" points="552.2,226.9 583.8,208.6 575.4,172.9 543.8,191.2 					"/>
				</g>
				<g>
					<polygon class="st6" points="543.8,191.2 575.4,172.9 561.9,165.1 530.3,183.4 					"/>
				</g>
				<g>
					<polygon class="st5" points="530.3,183.4 530.2,214.2 530.1,250.8 552.1,263.5 552.2,226.9 543.8,191.2 					"/>
				</g>
			</g>
		</g>
		<polygon class="st30" points="576.8,186.4 574.3,175.5 545.7,192.1 548.3,202.9 		"/>
		<polygon class="st31" points="578.8,187.3 583.8,208.6 552.2,226.9 547.2,205.5 		"/>
	</g>
</g>
<g>
	<g>
		<g>
			<g>
				<path class="st8" d="M381.1,109.4c1.9,1.1,3.5,3.8,3.5,6c0,2.2-1.6,3.1-3.5,2c-1.9-1.1-3.5-3.8-3.5-6
					C377.6,109.2,379.2,108.3,381.1,109.4z"/>
			</g>
		</g>
	</g>
</g>
<g class="st123">
	<path class="st32" d="M386.4,409.6c-13.6,6.8-35.7,6.8-49.3,0L13.8,247.9c-13.6-6.8-13.6-17.8,0-24.6l128.5-64.2
		c13.6-6.8,35.7-6.8,49.3,0l323.4,161.7c13.6,6.8,13.6,17.8,0,24.6L386.4,409.6z"/>
	<path class="st132" d="M388.9,409.6c-13.6,6.8-35.7,6.8-49.3,0L16.3,247.9c-13.6-6.8-13.6-17.8,0-24.6l128.5-64.2
		c13.6-6.8,35.7-6.8,49.3,0l323.4,161.7c13.6,6.8,13.6,17.8,0,24.6L388.9,409.6z"/>
	<path class="st133" d="M391.4,409.6c-13.6,6.8-35.7,6.8-49.3,0L18.8,247.9c-13.6-6.8-13.6-17.8,0-24.6l128.5-64.2
		c13.6-6.8,35.7-6.8,49.3,0l323.4,161.7c13.6,6.8,13.6,17.8,0,24.6L391.4,409.6z"/>
	<path class="st134" d="M394,409.6c-13.6,6.8-35.7,6.8-49.3,0L21.3,247.9c-13.6-6.8-13.6-17.8,0-24.6l128.5-64.2
		c13.6-6.8,35.7-6.8,49.3,0l323.4,161.7c13.6,6.8,13.6,17.8,0,24.6L394,409.6z"/>
	<path class="st135" d="M396.5,409.6c-13.6,6.8-35.7,6.8-49.3,0L23.8,247.9c-13.6-6.8-13.6-17.8,0-24.6l128.5-64.2
		c13.6-6.8,35.7-6.8,49.3,0l323.4,161.7c13.6,6.8,13.6,17.8,0,24.6L396.5,409.6z"/>
	<path class="st136" d="M399,409.6c-13.6,6.8-35.7,6.8-49.3,0L26.4,247.9c-13.6-6.8-13.6-17.8,0-24.6l128.5-64.2
		c13.6-6.8,35.7-6.8,49.3,0l323.4,161.7c13.6,6.8,13.6,17.8,0,24.6L399,409.6z"/>
	<path class="st137" d="M401.5,409.6c-13.6,6.8-35.7,6.8-49.3,0L28.9,247.9c-13.6-6.8-13.6-17.8,0-24.6l128.5-64.2
		c13.6-6.8,35.7-6.8,49.3,0L530,320.8c13.6,6.8,13.6,17.8,0,24.6L401.5,409.6z"/>
	<path class="st138" d="M404,409.6c-13.6,6.8-35.7,6.8-49.3,0L31.4,247.9c-13.6-6.8-13.6-17.8,0-24.6l128.5-64.2
		c13.6-6.8,35.7-6.8,49.3,0l323.4,161.7c13.6,6.8,13.6,17.8,0,24.6L404,409.6z"/>
	<path class="st139" d="M406.6,409.6c-13.6,6.8-35.7,6.8-49.3,0L33.9,247.9c-13.6-6.8-13.6-17.8,0-24.6l128.5-64.2
		c13.6-6.8,35.7-6.8,49.3,0L535,320.8c13.6,6.8,13.6,17.8,0,24.6L406.6,409.6z"/>
	<path class="st140" d="M409.1,409.6c-13.6,6.8-35.7,6.8-49.3,0L36.4,247.9c-13.6-6.8-13.6-17.8,0-24.6l128.5-64.2
		c13.6-6.8,35.7-6.8,49.3,0l323.4,161.7c13.6,6.8,13.6,17.8,0,24.6L409.1,409.6z"/>
	<path class="st141" d="M411.6,409.6c-13.6,6.8-35.7,6.8-49.3,0L39,247.9c-13.6-6.8-13.6-17.8,0-24.6l128.5-64.2
		c13.6-6.8,35.7-6.8,49.3,0L540,320.8c13.6,6.8,13.6,17.8,0,24.6L411.6,409.6z"/>
	<path class="st142" d="M414.1,409.6c-13.6,6.8-35.7,6.8-49.3,0L41.5,247.9c-13.6-6.8-13.6-17.8,0-24.6l128.5-64.2
		c13.6-6.8,35.7-6.8,49.3,0l323.4,161.7c13.6,6.8,13.6,17.8,0,24.6L414.1,409.6z"/>
	<path class="st143" d="M416.6,409.6c-13.6,6.8-35.7,6.8-49.3,0L44,247.9c-13.6-6.8-13.6-17.8,0-24.6l128.5-64.2
		c13.6-6.8,35.7-6.8,49.3,0l323.4,161.7c13.6,6.8,13.6,17.8,0,24.6L416.6,409.6z"/>
	<path class="st144" d="M419.2,409.6c-13.6,6.8-35.7,6.8-49.3,0L46.5,247.9c-13.6-6.8-13.6-17.8,0-24.6L175,159.1
		c13.6-6.8,35.7-6.8,49.3,0l323.4,161.7c13.6,6.8,13.6,17.8,0,24.6L419.2,409.6z"/>
	<path class="st145" d="M421.7,409.6c-13.6,6.8-35.7,6.8-49.3,0L49,247.9c-13.6-6.8-13.6-17.8,0-24.6l128.5-64.2
		c13.6-6.8,35.7-6.8,49.3,0l323.4,161.7c13.6,6.8,13.6,17.8,0,24.6L421.7,409.6z"/>
	<path class="st146" d="M424.2,409.6c-13.6,6.8-35.7,6.8-49.3,0L51.6,247.9c-13.6-6.8-13.6-17.8,0-24.6L180,159.1
		c13.6-6.8,35.7-6.8,49.3,0l323.4,161.7c13.6,6.8,13.6,17.8,0,24.6L424.2,409.6z"/>
	<path class="st124" d="M426.7,409.6c-13.6,6.8-35.7,6.8-49.3,0L54.1,247.9c-13.6-6.8-13.6-17.8,0-24.6l128.5-64.2
		c13.6-6.8,35.7-6.8,49.3,0l323.4,161.7c13.6,6.8,13.6,17.8,0,24.6L426.7,409.6z"/>
</g>
<path class="st57" d="M565.3,333.3c0-0.1,0-0.3,0-0.4v-23.1l-9.4,11.4c-0.3-0.1-0.5-0.3-0.8-0.4L231.8,159.1
	c-13.6-6.8-35.7-6.8-49.3,0l-128,64l-0.8-0.5l-9.9-10.4v23.7c0,0,0,0,0,0c0.1,4.4,3.5,8.8,10.2,12.1l323.4,161.7
	c13.6,6.8,35.7,6.8,49.3,0l128.4-64.2c6.4-3.2,9.7-7.3,10.1-11.5l0.1-0.1V333.3z"/>
<path class="st58" d="M371.8,383.2v23.6l5.7,2.8c13.6,6.8,35.7,6.8,49.3,0l7.6-3.8l0-0.1l0.1-24.5l-54.6-2.6L371.8,383.2z"/>
<g>
	<g>
		<g>
			<path class="st58" d="M426.7,385.9c-13.6,6.8-35.7,6.8-49.3,0L54.1,224.2c-13.6-6.8-13.6-17.8,0-24.6l128.5-64.2
				c13.6-6.8,35.7-6.8,49.3,0L555.2,297c13.6,6.8,13.6,17.8,0,24.6L426.7,385.9z"/>
			<path class="st6" d="M424.5,384.8c-12.4,6.2-32.5,6.2-44.8,0L56.3,223.1c-12.4-6.2-12.4-16.2,0-22.4l128.5-64.2
				c12.4-6.2,32.5-6.2,44.8,0l323.4,161.7c12.4,6.2,12.4,16.2,0,22.4L424.5,384.8z"/>
			<g>
				<polygon class="st30" points="91.8,233.4 250.9,153.9 523.1,289.9 363.9,369.5 				"/>
			</g>
			<g>
				<path class="st56" d="M484.4,334.1c9.1,4.5,9.1,11.9,0,16.4c-9.1,4.5-23.8,4.5-32.9,0c-9.1-4.5-9.1-11.9,0-16.4
					C460.6,329.6,475.3,329.6,484.4,334.1z"/>
				<path class="st6" d="M483.8,334.4c8.7,4.4,8.7,11.4,0,15.8c-8.7,4.4-22.9,4.4-31.6,0c-8.7-4.4-8.7-11.4,0-15.8
					C460.9,330,475.1,330,483.8,334.4z"/>
			</g>
		</g>
		<polygon class="st57" points="266.5,161 106.7,240.9 90.4,233.4 250.9,153.2 		"/>
	</g>
	<path class="st57" d="M250.9,153.2L90.4,233.4l0,0c0,0,1.3,0.7,1.3,0.7l159.1-79.6l271.5,135.7l1.3-0.7L250.9,153.2z"/>
	<g>
		<g>
			<path class="st6" d="M107.3,233.7c0.7,0.4,0.7,0.9,0,1.3c-0.7,0.4-1.9,0.4-2.6,0c-0.7-0.4-0.7-0.9,0-1.3
				C105.4,233.4,106.5,233.4,107.3,233.7z"/>
			<path class="st6" d="M111.7,231.5c0.7,0.4,0.7,0.9,0,1.3c-0.7,0.4-1.9,0.4-2.6,0c-0.7-0.4-0.7-0.9,0-1.3
				C109.8,231.2,111,231.2,111.7,231.5z"/>
			<path class="st6" d="M115.9,229.4c0.7,0.4,0.7,0.9,0,1.3c-0.7,0.4-1.9,0.4-2.6,0c-0.7-0.4-0.7-0.9,0-1.3
				C114.1,229.1,115.2,229.1,115.9,229.4z"/>
			<path class="st6" d="M120.2,227.3c0.7,0.4,0.7,0.9,0,1.3c-0.7,0.4-1.9,0.4-2.6,0c-0.7-0.4-0.7-0.9,0-1.3
				C118.3,226.9,119.5,226.9,120.2,227.3z"/>
			<path class="st6" d="M124.4,225.2c0.7,0.4,0.7,0.9,0,1.3c-0.7,0.4-1.9,0.4-2.6,0c-0.7-0.4-0.7-0.9,0-1.3
				C122.6,224.8,123.7,224.8,124.4,225.2z"/>
		</g>
		<g>
			<g>
				<path class="st6" d="M255,161.7l-10.7,5.3l-5.3-2.6l10.7-5.3L255,161.7z M244.3,166.4l9.3-4.6l-3.9-1.9l-9.3,4.6L244.3,166.4z"
					/>
			</g>
			<polygon class="st59" points="254.5,160.6 253.2,161.2 250.7,160 252,159.3 			"/>
			<polygon class="st59" points="250.2,163 244.2,166 241.1,164.5 247.1,161.5 			"/>
		</g>
		<g>
			<path class="st6" d="M139.1,220.5c0,0.3-0.4,0.5-1,0.5c-0.5,0-1-0.2-0.9-0.5c0-0.3,0.5-0.5,1-0.5
				C138.7,220,139.2,220.2,139.1,220.5z"/>
			<path class="st6" d="M138.2,219.2l0-0.5c-2,0-3.6,0.8-3.7,1.8c0,0.1,0,0.1,0,0.2l1,0c0-0.1,0-0.1,0-0.2
				C135.5,219.7,136.8,219.2,138.2,219.2z"/>
			<path class="st6" d="M138.3,218.1l0-0.5c-3.2,0-5.9,1.2-5.9,2.8c0,0.1,0,0.1,0,0.2l1,0c0-0.1,0-0.1,0-0.2
				C133.4,219.1,135.6,218.1,138.3,218.1z"/>
			<path class="st6" d="M138.3,216.8l0-0.5c-4.6,0-8.4,1.8-8.5,4.1c0,0.1,0,0.1,0,0.2l1,0c0-0.1,0-0.1,0-0.2
				C130.9,218.4,134.2,216.8,138.3,216.8z"/>
		</g>
		<g>
			<path class="st6" d="M176,201l-0.7,0.3l-3.8-1.9c0,0.1-0.1,0.3-0.2,0.5c-0.1,0.2-0.3,0.4-0.4,0.5l-0.6-0.3
				c0.2-0.3,0.4-0.5,0.4-0.8c0.1-0.3,0.1-0.5,0-0.6l0.4-0.2L176,201z"/>
			<path class="st6" d="M180.8,198l0.6,0.3l-3.7,1.9c-0.1-0.1-0.3-0.2-0.3-0.2c-0.1-0.2-0.2-0.3-0.2-0.5c0-0.2,0.1-0.5,0.2-0.8
				c0.2-0.5,0.3-0.9,0.2-1.1c0-0.2-0.2-0.4-0.4-0.5c-0.2-0.1-0.5-0.2-0.9-0.2c-0.4,0-0.7,0.1-1,0.3c-0.3,0.2-0.5,0.3-0.5,0.5
				c0,0.2,0.1,0.4,0.4,0.5l-0.8,0.3c-0.4-0.3-0.6-0.5-0.5-0.8c0.1-0.3,0.4-0.5,0.9-0.8c0.5-0.3,1.1-0.4,1.7-0.4c0.6,0,1,0.1,1.4,0.2
				c0.2,0.1,0.3,0.2,0.4,0.4c0.1,0.1,0.1,0.3,0.1,0.5c0,0.2-0.1,0.5-0.2,1c-0.1,0.4-0.2,0.6-0.2,0.7c0,0.1,0,0.2,0,0.3L180.8,198z"
				/>
			<path class="st6" d="M179.6,196.3L179,196l0.8-0.4l0.7,0.3L179.6,196.3z M182.5,197.7l-0.7-0.3l0.8-0.4l0.7,0.3L182.5,197.7z"/>
			<path class="st6" d="M181.9,195.7c-0.6-0.3-1-0.6-1.2-0.8c-0.2-0.2-0.3-0.5-0.2-0.7c0.1-0.2,0.3-0.4,0.7-0.6
				c0.3-0.2,0.6-0.3,0.9-0.3c0.3-0.1,0.7-0.1,1-0.1c0.3,0,0.7,0.1,1.1,0.2c0.4,0.1,0.8,0.3,1.3,0.5c0.6,0.3,1,0.5,1.2,0.8
				c0.2,0.2,0.3,0.5,0.2,0.7c-0.1,0.2-0.3,0.4-0.7,0.7c-0.5,0.3-1.1,0.4-1.8,0.4C183.6,196.3,182.8,196.1,181.9,195.7z M182.6,195.3
				c0.8,0.4,1.4,0.6,1.9,0.6c0.5,0,0.9,0,1.2-0.2c0.3-0.2,0.4-0.4,0.4-0.6c0-0.2-0.5-0.6-1.3-1c-0.8-0.4-1.4-0.6-1.9-0.6
				c-0.5,0-0.9,0-1.2,0.2c-0.3,0.2-0.5,0.3-0.4,0.6C181.4,194.6,181.8,194.9,182.6,195.3z"/>
			<path class="st6" d="M186.2,193.5c-0.6-0.3-1-0.5-1.2-0.8c-0.2-0.2-0.3-0.5-0.2-0.7c0.1-0.2,0.3-0.4,0.7-0.6
				c0.3-0.2,0.6-0.3,0.9-0.3c0.3-0.1,0.7-0.1,1-0.1c0.3,0,0.7,0.1,1.1,0.2c0.4,0.1,0.8,0.3,1.3,0.5c0.6,0.3,1,0.5,1.2,0.8
				c0.2,0.2,0.3,0.5,0.2,0.7c-0.1,0.2-0.3,0.4-0.7,0.7c-0.5,0.3-1.1,0.4-1.8,0.4C188,194.2,187.1,193.9,186.2,193.5z M186.9,193.1
				c0.8,0.4,1.4,0.6,1.9,0.6c0.5,0,0.9,0,1.2-0.2c0.3-0.2,0.4-0.4,0.4-0.6c0-0.2-0.5-0.6-1.3-1c-0.8-0.4-1.4-0.6-1.9-0.6
				c-0.5,0-0.9,0-1.2,0.2c-0.3,0.2-0.5,0.3-0.4,0.6C185.7,192.4,186.1,192.7,186.9,193.1z"/>
		</g>
	</g>
</g>
<g>
	<g>
		<path class="st56" d="M92.3,261.1c0,2.5-2,3.6-4.6,2.3c-2.5-1.3-4.6-4.3-4.6-6.9c0-0.9,0.3-1.7,0.8-2.1c0.8-0.8,2.2-0.9,3.8-0.1
			C90.3,255.5,92.3,258.6,92.3,261.1z"/>
		<path class="st56" d="M92.5,260.9c0,2.5-2,3.6-4.6,2.3c-2.5-1.3-4.6-4.3-4.6-6.9c0-0.9,0.3-1.7,0.8-2.1c0.8-0.8,2.2-0.9,3.8-0.1
			C90.5,255.3,92.5,258.4,92.5,260.9z"/>
		<path class="st56" d="M92.7,260.7c0,2.5-2.1,3.6-4.6,2.3c-2.5-1.3-4.6-4.3-4.6-6.9c0-0.9,0.3-1.7,0.8-2.1c0.8-0.8,2.2-0.9,3.8-0.1
			C90.7,255.1,92.7,258.2,92.7,260.7z"/>
		<path class="st56" d="M92.9,260.5c0,2.5-2.1,3.6-4.6,2.3c-2.5-1.3-4.6-4.3-4.6-6.9c0-0.9,0.3-1.7,0.8-2.1c0.8-0.8,2.2-0.9,3.8-0.1
			C90.8,254.9,92.9,258,92.9,260.5z"/>
		<path class="st56" d="M93.1,260.3c0,2.5-2.1,3.6-4.6,2.3c-2.5-1.3-4.6-4.3-4.6-6.9c0-0.9,0.3-1.7,0.8-2.1c0.8-0.8,2.2-0.9,3.8-0.1
			C91,254.7,93.1,257.8,93.1,260.3z"/>
		<path class="st56" d="M93.3,260.1c0,2.5-2.1,3.6-4.6,2.3c-2.5-1.3-4.6-4.3-4.6-6.9c0-0.9,0.3-1.7,0.8-2.1c0.8-0.8,2.2-0.9,3.8-0.1
			C91.2,254.5,93.3,257.6,93.3,260.1z"/>
		<path class="st56" d="M93.5,259.9c0,2.5-2.1,3.6-4.6,2.3c-2.5-1.3-4.6-4.3-4.6-6.9c0-0.9,0.3-1.7,0.8-2.1c0.8-0.8,2.2-0.9,3.8-0.1
			C91.4,254.3,93.5,257.4,93.5,259.9z"/>
		<path class="st56" d="M93.7,259.7c0,2.5-2.1,3.6-4.6,2.3c-2.5-1.3-4.6-4.3-4.6-6.9c0-0.9,0.3-1.7,0.8-2.1c0.8-0.8,2.2-0.9,3.8-0.1
			C91.6,254.1,93.7,257.2,93.7,259.7z"/>
		<path class="st56" d="M93.9,259.5c0,2.5-2.1,3.6-4.6,2.3c-2.5-1.3-4.6-4.3-4.6-6.9c0-0.9,0.3-1.7,0.8-2.1c0.8-0.8,2.2-0.9,3.8-0.1
			C91.8,253.9,93.9,257,93.9,259.5z"/>
		<path class="st56" d="M94.1,259.3c0,2.5-2.1,3.6-4.6,2.3c-2.5-1.3-4.6-4.3-4.6-6.9c0-0.9,0.3-1.7,0.8-2.1c0.8-0.8,2.2-0.9,3.8-0.1
			C92,253.7,94.1,256.8,94.1,259.3z"/>
		<path class="st56" d="M94.2,259.1c0,2.5-2.1,3.6-4.6,2.3c-2.5-1.3-4.6-4.3-4.6-6.9c0-0.9,0.3-1.7,0.8-2.1c0.8-0.8,2.2-0.9,3.8-0.1
			C92.2,253.5,94.2,256.6,94.2,259.1z"/>
		<path class="st56" d="M94.4,258.9c0,2.5-2.1,3.6-4.6,2.3c-2.5-1.3-4.6-4.3-4.6-6.9c0-0.9,0.3-1.7,0.8-2.1c0.8-0.8,2.2-0.9,3.8-0.1
			C92.4,253.3,94.4,256.4,94.4,258.9z"/>
		<path class="st56" d="M94.6,258.7c0,2.5-2.1,3.6-4.6,2.3c-2.5-1.3-4.6-4.3-4.6-6.9c0-0.9,0.3-1.7,0.8-2.1c0.8-0.8,2.2-0.9,3.8-0.1
			C92.6,253.1,94.6,256.2,94.6,258.7z"/>
		<path class="st56" d="M94.8,258.5c0,2.5-2.1,3.6-4.6,2.3c-2.5-1.3-4.6-4.3-4.6-6.9c0-0.9,0.3-1.7,0.8-2.1c0.8-0.8,2.2-0.9,3.8-0.1
			C92.8,252.9,94.8,256,94.8,258.5z"/>
		<path class="st56" d="M95,258.3c0,2.5-2.1,3.6-4.6,2.3c-2.5-1.3-4.6-4.3-4.6-6.9c0-0.9,0.3-1.7,0.8-2.1c0.8-0.8,2.2-0.9,3.8-0.1
			C93,252.7,95,255.8,95,258.3z"/>
		<path class="st56" d="M95.2,258.1c0,2.5-2.1,3.6-4.6,2.3c-2.5-1.3-4.6-4.3-4.6-6.9c0-0.9,0.3-1.7,0.8-2.1c0.8-0.8,2.2-0.9,3.8-0.1
			C93.2,252.5,95.2,255.6,95.2,258.1z"/>
		<path class="st56" d="M95.4,257.9c0,2.5-2.1,3.6-4.6,2.3c-2.5-1.3-4.6-4.3-4.6-6.9c0-0.9,0.3-1.7,0.8-2.1c0.8-0.8,2.2-0.9,3.8-0.1
			C93.4,252.3,95.4,255.4,95.4,257.9z"/>
	</g>
	<g>
		<g>
			<path class="st58" d="M95.6,257.6c0,2.5-2,3.6-4.6,2.3c-2.5-1.3-4.6-4.3-4.6-6.9c0-0.9,0.3-1.7,0.8-2.1c0.8-0.8,2.2-0.9,3.8-0.1
				C93.6,252,95.6,255.1,95.6,257.6z"/>
			<polygon class="st58" points="85.8,252.3 87.4,250.8 92.9,253.6 94.5,256.6 95,259.8 93.1,261.5 			"/>
		</g>
		<path class="st6" d="M94.2,259c0,2.5-2,3.6-4.6,2.3c-2.5-1.3-4.6-4.3-4.6-6.9c0-2.5,2-3.6,4.6-2.3C92.2,253.4,94.2,256.5,94.2,259
			z"/>
	</g>
</g>
<g>
	<g>
		<path class="st56" d="M119,274.3c0,2.5-2.1,3.6-4.6,2.3c-2.5-1.3-4.6-4.3-4.6-6.9c0-0.9,0.3-1.7,0.8-2.1c0.8-0.8,2.2-0.9,3.8-0.1
			C116.9,268.7,119,271.7,119,274.3z"/>
		<path class="st56" d="M119.1,274.1c0,2.5-2.1,3.6-4.6,2.3c-2.5-1.3-4.6-4.3-4.6-6.9c0-0.9,0.3-1.7,0.8-2.1
			c0.8-0.8,2.2-0.9,3.8-0.1C117.1,268.5,119.1,271.5,119.1,274.1z"/>
		<path class="st56" d="M119.3,273.9c0,2.5-2.1,3.6-4.6,2.3c-2.5-1.3-4.6-4.3-4.6-6.9c0-0.9,0.3-1.7,0.8-2.1
			c0.8-0.8,2.2-0.9,3.8-0.1C117.3,268.3,119.3,271.3,119.3,273.9z"/>
		<path class="st56" d="M119.5,273.7c0,2.5-2.1,3.6-4.6,2.3c-2.5-1.3-4.6-4.3-4.6-6.9c0-0.9,0.3-1.7,0.8-2.1
			c0.8-0.8,2.2-0.9,3.8-0.1C117.5,268.1,119.5,271.1,119.5,273.7z"/>
		<path class="st56" d="M119.7,273.5c0,2.5-2.1,3.6-4.6,2.3c-2.5-1.3-4.6-4.3-4.6-6.9c0-0.9,0.3-1.7,0.8-2.1
			c0.8-0.8,2.2-0.9,3.8-0.1C117.7,267.9,119.7,271,119.7,273.5z"/>
		<path class="st56" d="M119.9,273.3c0,2.5-2.1,3.6-4.6,2.3c-2.5-1.3-4.6-4.3-4.6-6.9c0-0.9,0.3-1.7,0.8-2.1
			c0.8-0.8,2.2-0.9,3.8-0.1C117.9,267.7,119.9,270.8,119.9,273.3z"/>
		<path class="st56" d="M120.1,273.1c0,2.5-2.1,3.6-4.6,2.3c-2.5-1.3-4.6-4.3-4.6-6.9c0-0.9,0.3-1.7,0.8-2.1
			c0.8-0.8,2.2-0.9,3.8-0.1C118.1,267.5,120.1,270.6,120.1,273.1z"/>
		<path class="st56" d="M120.3,272.9c0,2.5-2.1,3.6-4.6,2.3c-2.5-1.3-4.6-4.3-4.6-6.9c0-0.9,0.3-1.7,0.8-2.1
			c0.8-0.8,2.2-0.9,3.8-0.1C118.3,267.3,120.3,270.4,120.3,272.9z"/>
		<path class="st56" d="M120.5,272.7c0,2.5-2.1,3.6-4.6,2.3c-2.5-1.3-4.6-4.3-4.6-6.9c0-0.9,0.3-1.7,0.8-2.1
			c0.8-0.8,2.2-0.9,3.8-0.1C118.4,267.1,120.5,270.2,120.5,272.7z"/>
		<path class="st56" d="M120.7,272.5c0,2.5-2.1,3.6-4.6,2.3c-2.5-1.3-4.6-4.3-4.6-6.9c0-0.9,0.3-1.7,0.8-2.1
			c0.8-0.8,2.2-0.9,3.8-0.1C118.6,266.9,120.7,270,120.7,272.5z"/>
		<path class="st56" d="M120.9,272.3c0,2.5-2.1,3.6-4.6,2.3c-2.5-1.3-4.6-4.3-4.6-6.9c0-0.9,0.3-1.7,0.8-2.1
			c0.8-0.8,2.2-0.9,3.8-0.1C118.8,266.7,120.9,269.8,120.9,272.3z"/>
		<path class="st56" d="M121.1,272.1c0,2.5-2.1,3.6-4.6,2.3c-2.5-1.3-4.6-4.3-4.6-6.9c0-0.9,0.3-1.7,0.8-2.1
			c0.8-0.8,2.2-0.9,3.8-0.1C119,266.5,121.1,269.6,121.1,272.1z"/>
		<path class="st56" d="M121.3,271.9c0,2.5-2.1,3.6-4.6,2.3c-2.5-1.3-4.6-4.3-4.6-6.9c0-0.9,0.3-1.7,0.8-2.1
			c0.8-0.8,2.2-0.9,3.8-0.1C119.2,266.3,121.3,269.4,121.3,271.9z"/>
		<path class="st56" d="M121.5,271.7c0,2.5-2.1,3.6-4.6,2.3c-2.5-1.3-4.6-4.3-4.6-6.9c0-0.9,0.3-1.7,0.8-2.1
			c0.8-0.8,2.2-0.9,3.8-0.1C119.4,266.1,121.5,269.2,121.5,271.7z"/>
		<path class="st56" d="M121.7,271.5c0,2.5-2.1,3.6-4.6,2.3c-2.5-1.3-4.6-4.3-4.6-6.9c0-0.9,0.3-1.7,0.8-2.1
			c0.8-0.8,2.2-0.9,3.8-0.1C119.6,265.9,121.7,269,121.7,271.5z"/>
		<path class="st56" d="M121.8,271.3c0,2.5-2,3.6-4.6,2.3c-2.5-1.3-4.6-4.3-4.6-6.9c0-0.9,0.3-1.7,0.8-2.1c0.8-0.8,2.2-0.9,3.8-0.1
			C119.8,265.7,121.8,268.8,121.8,271.3z"/>
		<path class="st56" d="M122,271.1c0,2.5-2,3.6-4.6,2.3c-2.5-1.3-4.6-4.3-4.6-6.9c0-0.9,0.3-1.7,0.8-2.1c0.8-0.8,2.2-0.9,3.8-0.1
			C120,265.5,122,268.6,122,271.1z"/>
	</g>
	<g>
		<g>
			<path class="st58" d="M122.2,271c0,2.5-2.1,3.6-4.6,2.3c-2.5-1.3-4.6-4.3-4.6-6.9c0-0.9,0.3-1.7,0.8-2.1c0.8-0.8,2.2-0.9,3.8-0.1
				C120.1,265.4,122.2,268.5,122.2,271z"/>
			<polygon class="st58" points="112.3,265.7 113.9,264.2 119.4,267 121.1,270 121.5,273.2 119.6,274.9 			"/>
		</g>
		<path class="st6" d="M120.8,272.4c0,2.5-2.1,3.6-4.6,2.3c-2.5-1.3-4.6-4.3-4.6-6.9s2-3.6,4.6-2.3
			C118.7,266.8,120.8,269.9,120.8,272.4z"/>
	</g>
</g>
<g>
	<g>
		<path class="st56" d="M146.6,287.4c0,2.5-2,3.6-4.6,2.3c-2.5-1.3-4.6-4.3-4.6-6.9c0-0.9,0.3-1.7,0.8-2.1c0.8-0.8,2.2-0.9,3.8-0.1
			C144.5,281.8,146.6,284.9,146.6,287.4z"/>
		<path class="st56" d="M146.8,287.2c0,2.5-2,3.6-4.6,2.3c-2.5-1.3-4.6-4.3-4.6-6.9c0-0.9,0.3-1.7,0.8-2.1c0.8-0.8,2.2-0.9,3.8-0.1
			C144.7,281.6,146.8,284.7,146.8,287.2z"/>
		<path class="st56" d="M147,287c0,2.5-2,3.6-4.6,2.3c-2.5-1.3-4.6-4.3-4.6-6.9c0-0.9,0.3-1.7,0.8-2.1c0.8-0.8,2.2-0.9,3.8-0.1
			C144.9,281.4,147,284.5,147,287z"/>
		<path class="st56" d="M147.1,286.8c0,2.5-2,3.6-4.6,2.3c-2.5-1.3-4.6-4.3-4.6-6.9c0-0.9,0.3-1.7,0.8-2.1c0.8-0.8,2.2-0.9,3.8-0.1
			C145.1,281.2,147.1,284.3,147.1,286.8z"/>
		<path class="st56" d="M147.3,286.6c0,2.5-2,3.6-4.6,2.3c-2.5-1.3-4.6-4.3-4.6-6.9c0-0.9,0.3-1.7,0.8-2.1c0.8-0.8,2.2-0.9,3.8-0.1
			C145.3,281,147.3,284.1,147.3,286.6z"/>
		<path class="st56" d="M147.5,286.4c0,2.5-2,3.6-4.6,2.3c-2.5-1.3-4.6-4.3-4.6-6.9c0-0.9,0.3-1.7,0.8-2.1c0.8-0.8,2.2-0.9,3.8-0.1
			C145.5,280.8,147.5,283.9,147.5,286.4z"/>
		<path class="st56" d="M147.7,286.2c0,2.5-2,3.6-4.6,2.3c-2.5-1.3-4.6-4.3-4.6-6.9c0-0.9,0.3-1.7,0.8-2.1c0.8-0.8,2.2-0.9,3.8-0.1
			C145.7,280.6,147.7,283.7,147.7,286.2z"/>
		<path class="st56" d="M147.9,286c0,2.5-2,3.6-4.6,2.3c-2.5-1.3-4.6-4.3-4.6-6.9c0-0.9,0.3-1.7,0.8-2.1c0.8-0.8,2.2-0.9,3.8-0.1
			C145.9,280.4,147.9,283.5,147.9,286z"/>
		<path class="st56" d="M148.1,285.8c0,2.5-2,3.6-4.6,2.3c-2.5-1.3-4.6-4.3-4.6-6.9c0-0.9,0.3-1.7,0.8-2.1c0.8-0.8,2.2-0.9,3.8-0.1
			C146.1,280.2,148.1,283.3,148.1,285.8z"/>
		<path class="st56" d="M148.3,285.6c0,2.5-2,3.6-4.6,2.3c-2.5-1.3-4.6-4.3-4.6-6.9c0-0.9,0.3-1.7,0.8-2.1c0.8-0.8,2.2-0.9,3.8-0.1
			C146.3,280,148.3,283.1,148.3,285.6z"/>
		<path class="st56" d="M148.5,285.4c0,2.5-2,3.6-4.6,2.3c-2.5-1.3-4.6-4.3-4.6-6.9c0-0.9,0.3-1.7,0.8-2.1c0.8-0.8,2.2-0.9,3.8-0.1
			C146.4,279.8,148.5,282.9,148.5,285.4z"/>
		<path class="st56" d="M148.7,285.2c0,2.5-2,3.6-4.6,2.3c-2.5-1.3-4.6-4.3-4.6-6.9c0-0.9,0.3-1.7,0.8-2.1c0.8-0.8,2.2-0.9,3.8-0.1
			C146.6,279.6,148.7,282.7,148.7,285.2z"/>
		<path class="st56" d="M148.9,285c0,2.5-2,3.6-4.6,2.3c-2.5-1.3-4.6-4.3-4.6-6.9c0-0.9,0.3-1.7,0.8-2.1c0.8-0.8,2.2-0.9,3.8-0.1
			C146.8,279.4,148.9,282.5,148.9,285z"/>
		<path class="st56" d="M149.1,284.8c0,2.5-2,3.6-4.6,2.3c-2.5-1.3-4.6-4.3-4.6-6.9c0-0.9,0.3-1.7,0.8-2.1c0.8-0.8,2.2-0.9,3.8-0.1
			C147,279.2,149.1,282.3,149.1,284.8z"/>
		<path class="st56" d="M149.3,284.6c0,2.5-2,3.6-4.6,2.3c-2.5-1.3-4.6-4.3-4.6-6.9c0-0.9,0.3-1.7,0.8-2.1c0.8-0.8,2.2-0.9,3.8-0.1
			C147.2,279,149.3,282.1,149.3,284.6z"/>
		<path class="st56" d="M149.5,284.4c0,2.5-2,3.6-4.6,2.3c-2.5-1.3-4.6-4.3-4.6-6.9c0-0.9,0.3-1.7,0.8-2.1c0.8-0.8,2.2-0.9,3.8-0.1
			C147.4,278.8,149.5,281.9,149.5,284.4z"/>
		<path class="st56" d="M149.7,284.2c0,2.5-2,3.6-4.6,2.3c-2.5-1.3-4.6-4.3-4.6-6.9c0-0.9,0.3-1.7,0.8-2.1c0.8-0.8,2.2-0.9,3.8-0.1
			C147.6,278.6,149.7,281.7,149.7,284.2z"/>
	</g>
	<g>
		<g>
			<path class="st58" d="M149.7,284.2c0,2.5-2,3.6-4.6,2.3c-2.5-1.3-4.6-4.3-4.6-6.9c0-0.9,0.3-1.7,0.8-2.1c0.8-0.8,2.2-0.9,3.8-0.1
				C147.6,278.6,149.7,281.7,149.7,284.2z"/>
			<polygon class="st58" points="139.8,278.9 141.4,277.4 146.9,280.2 148.6,283.2 148.8,286.4 147.1,288.1 			"/>
		</g>
		<path class="st6" d="M148.3,285.6c0,2.5-2,3.6-4.6,2.3c-2.5-1.3-4.6-4.3-4.6-6.9s2.1-3.6,4.6-2.3
			C146.2,280,148.3,283.1,148.3,285.6z"/>
	</g>
</g>
<g class="st60">
	<polygon class="st61" points="434.3,405.5 434.4,396 742.5,440.7 622.3,500.8 	"/>
</g>
<g>
	<polygon class="st57" points="434.4,396 434.4,389.8 555.1,335.9 760.6,432.5 760.1,438.4 640.4,498.8 	"/>
</g>
<g>
	<polygon class="st6" points="434.4,389.8 555.1,329.7 760.6,432.5 640.4,492.6 	"/>
</g>
<g>
	<polygon class="st62" points="452,389.8 557.4,337.2 737.5,427.2 632.2,479.9 	"/>
</g>
<g>
	<polygon class="st6" points="584.1,464 703.7,404.2 760,432.3 640.3,492.2 	"/>
</g>
<g class="st63">
	<polygon class="st64" points="600.9,464.2 642.6,442.7 653.3,448.3 611.6,469.8 	"/>
</g>
<g class="st63">
	<polygon class="st64" points="619.7,472.9 723,418.8 728.6,421.1 624.6,475.5 	"/>
</g>
<g class="st63">
	<polygon class="st64" points="626.5,476.6 729.8,422.5 735.4,424.8 631.4,479.1 	"/>
</g>
<g>
	<g>
		<g class="st3">
			<defs>
				<polygon id="SVGID_51_" class="st3" points="577.1,434.6 505.1,397.8 575.5,361.9 647.4,398.8 				"/>
			</defs>
			<clipPath id="SVGID_2_">
				<use xlink:href="#SVGID_51_"  style="overflow:visible;"/>
			</clipPath>
			<g style="clip-path:url(#SVGID_2_);">
				<g>
					<g>
						<g>
							<path class="st29" d="M591.7,406.2c-1.8,0.9-2.8,2.1-2.9,3.4c0.9,0.3,1.8,0.7,2.6,1.1c-0.5-1.3,0.2-2.6,2.1-3.6
								c1.9-1,4.5-1.3,7-1c-0.4-0.2-0.8-0.5-1.2-0.7l-0.1-0.1l-0.3-0.2l-0.1-0.1l-0.1-0.1c-0.1-0.1-0.2-0.1-0.3-0.2
								C596,404.7,593.6,405.2,591.7,406.2"/>
							<path class="st29" d="M560.3,369.7l1.8,0.9c3.5-1.8,8.2-2.7,12.9-2.6c4.7,0.1,9.5,1,13.1,2.9l32.3,16.6
								c1.9,0.2,3.7,0.6,5.4,1l-36-18.4C581.5,365.8,568.2,365.6,560.3,369.7"/>
							<path class="st29" d="M520.3,390c-8,4.1-7.7,10.8,0.6,15.1l36.1,18.5c-0.8-0.7-1.4-1.5-1.8-2.3l0-0.1
								c-0.1-0.1-0.1-0.2-0.2-0.4l-32.4-16.6c-3.7-1.9-5.6-4.3-5.7-6.7c-0.1-2.4,1.6-4.8,5.1-6.6L520.3,390"/>
							<path class="st6" d="M589.8,411.5C589.8,411.5,589.8,411.5,589.8,411.5C589.8,411.5,589.8,411.5,589.8,411.5 M568.6,409.3
								c0.1,0,0.2,0,0.3-0.1C568.8,409.2,568.7,409.3,568.6,409.3L568.6,409.3 M561,412.1c0,0-0.1,0-0.1,0.1l0,0l0,0c0,0,0,0,0,0
								l0,0C561,412.1,561,412.1,561,412.1"/>
							<path class="st71" d="M558,421.6c0.3,0.4,0.6,0.8,0.9,1.1c-0.3-0.3-0.6-0.6-0.8-1C558.1,421.8,558,421.7,558,421.6
								 M557.6,421L557.6,421c0,0.1,0,0.1,0.1,0.1C557.6,421,557.6,421,557.6,421 M557.1,419.9c0,0.1,0.1,0.2,0.1,0.3
								c0-0.1,0-0.1-0.1-0.2C557.2,420,557.1,420,557.1,419.9 M556.9,417.4c-0.1,0.7-0.1,1.3,0.1,2c0-0.1,0-0.2-0.1-0.3
								c0-0.2-0.1-0.3-0.1-0.5l0-0.5c0-0.2,0-0.3,0-0.5C556.9,417.6,556.9,417.5,556.9,417.4 M573,408.7c1.8,0.5,3.4,1.2,5,2
								c0.7,0.4,1.4,0.8,2.1,1.2c0.2,0.1,0.3,0.2,0.5,0.4c0.5,0.3,0.9,0.7,1.4,1l0.3,0.3c0.5,0.4,0.9,0.9,1.3,1.4l0.2,0.3
								c0.3,0.4,0.5,0.8,0.8,1.2l0.1,0.2l0,0c2,4,0.2,8.3-5.7,11.4c-0.5,0.2-1,0.5-1.5,0.7c4.8,0,9.6-0.9,13.2-2.8l0.1-0.1
								c7.4-3.8,7.1-10.1-0.6-14.1c-0.1,0-0.1-0.1-0.2-0.1c-0.1,0-0.1-0.1-0.2-0.1c0,0,0,0,0,0C585.1,409.2,578.9,408.3,573,408.7
								L573,408.7 M557.6,415.5c-0.1,0.1-0.1,0.3-0.2,0.4C557.4,415.8,557.5,415.6,557.6,415.5 M568.5,409.3
								c0.4-0.1,0.7-0.1,1.1-0.2c-0.2,0-0.5,0.1-0.7,0.1C568.8,409.2,568.7,409.3,568.5,409.3L568.5,409.3 M558.7,414
								c-0.2,0.2-0.3,0.4-0.5,0.6l0,0l0,0c-0.2,0.2-0.4,0.5-0.5,0.7c0.1-0.1,0.2-0.2,0.2-0.4c0.1-0.1,0.2-0.3,0.3-0.4
								c0.1-0.2,0.3-0.3,0.4-0.5C558.6,414.1,558.7,414,558.7,414 M559.6,413.1c-0.1,0.1-0.3,0.2-0.4,0.4c0.1-0.1,0.2-0.1,0.2-0.2
								C559.5,413.2,559.6,413.2,559.6,413.1 M560.5,412.4C560.5,412.5,560.5,412.5,560.5,412.4
								C560.5,412.5,560.5,412.5,560.5,412.4 M560.9,412.2C560.9,412.2,560.9,412.2,560.9,412.2l-0.2,0.1L560.9,412.2 M562.4,411.3
								C562.4,411.3,562.4,411.3,562.4,411.3C562.4,411.3,562.4,411.3,562.4,411.3"/>
							<path class="st72" d="M566.6,421.7l-3.6,1c-1.7-1.5-2.5-3.3-2.1-5c0.2-0.9,0.7-1.7,1.4-2.5c0.7-0.8,1.7-1.5,2.9-2.1l3,1.5
								c-0.9,0.5-1.6,1-2.1,1.5c-0.5,0.6-0.9,1.2-1,1.8C564.7,419.3,565.3,420.6,566.6,421.7 M562.3,411.4L562.3,411.4
								c-0.5,0.3-0.9,0.5-1.3,0.7c0,0-0.1,0-0.1,0.1l0,0l-0.2,0.1l-0.1,0.1l-0.1,0.1c0,0-0.1,0-0.1,0.1c-0.1,0.1-0.2,0.2-0.4,0.2
								c-0.2,0.1-0.3,0.3-0.5,0.4c0,0-0.1,0.1-0.2,0.1c-0.1,0.1-0.2,0.1-0.2,0.2c-0.2,0.2-0.4,0.3-0.5,0.5c0,0-0.1,0.1-0.1,0.1
								c-0.2,0.2-0.3,0.3-0.4,0.5c-0.1,0.1-0.2,0.3-0.3,0.4c-0.1,0.1-0.2,0.2-0.2,0.4c0,0.1-0.1,0.1-0.1,0.2
								c-0.1,0.1-0.1,0.3-0.2,0.4l0,0c-0.2,0.4-0.3,0.8-0.4,1.1l-0.1,0.2l0,0c0,0,0,0.1,0,0.1c0,0.1,0,0.2,0,0.3c0,0.2,0,0.3,0,0.5
								l0,0.5c0,0.2,0,0.3,0.1,0.5c0,0.1,0,0.2,0.1,0.3c0,0.2,0.1,0.3,0.1,0.5c0,0,0,0.1,0,0.1c0,0.1,0,0.1,0.1,0.2
								c0.1,0.2,0.2,0.5,0.3,0.7l0,0.1c0,0,0,0.1,0.1,0.1c0.1,0.2,0.2,0.4,0.3,0.5c0,0.1,0.1,0.1,0.1,0.2c0.2,0.3,0.5,0.6,0.8,1
								c0.6,0.6,1.2,1.1,2,1.7l0.1,0l0.4,0.2l0,0l0,0c0.5,0.3,1,0.6,1.6,0.9c0.5,0.3,1,0.5,1.6,0.7c0.2,0.1,0.4,0.1,0.6,0.2
								c0.4,0.1,0.7,0.3,1.1,0.4c0.2,0.1,0.5,0.1,0.7,0.2c0.3,0.1,0.7,0.2,1,0.3c0.2,0.1,0.5,0.1,0.7,0.2c0.4,0.1,0.7,0.2,1.1,0.3
								c0.2,0.1,0.5,0.1,0.7,0.1c0.4,0.1,0.8,0.1,1.1,0.2l0.7,0.1c0.4,0,0.8,0.1,1.2,0.1l0.7,0.1c0.4,0,0.8,0.1,1.3,0.1l0.6,0
								c0.4,0,0.9,0,1.3,0l0.1,0l0,0c0,0,0,0,0,0c0.5-0.2,1-0.5,1.5-0.7c5.9-3.1,7.8-7.4,5.7-11.4l0,0l-0.1-0.2
								c-0.2-0.4-0.5-0.8-0.8-1.2l-0.2-0.3c-0.4-0.5-0.8-0.9-1.3-1.4l-0.3-0.3c-0.4-0.3-0.9-0.7-1.4-1c-0.2-0.1-0.3-0.2-0.5-0.4
								c-0.6-0.4-1.3-0.8-2.1-1.2c-1.5-0.8-3.2-1.4-5-2l-0.4,0c-0.3,0-0.5,0-0.8,0.1c-0.3,0-0.7,0.1-1,0.1l-0.7,0.1
								c-0.2,0-0.4,0.1-0.6,0.1c-0.4,0.1-0.7,0.1-1.1,0.2l-0.3,0.1c-0.4,0.1-0.8,0.2-1.2,0.3l-0.5,0.2c-0.3,0.1-0.7,0.2-1,0.3
								l-0.5,0.2c-0.3,0.1-0.7,0.2-1,0.4l-0.4,0.2c-0.4,0.2-0.7,0.3-1.1,0.5c0,0,0,0,0,0C562.4,411.3,562.3,411.4,562.3,411.4"/>
							<path class="st6" d="M565.1,413.2c-1.2,0.6-2.2,1.3-2.9,2.1c-0.7,0.8-1.2,1.6-1.4,2.5c-0.4,1.8,0.4,3.5,2.1,5l3.6-1
								c-1.3-1.1-1.8-2.4-1.6-3.7c0.1-0.6,0.5-1.3,1-1.8c0.5-0.6,1.2-1.1,2.1-1.5L565.1,413.2"/>
							<path class="st6" d="M607.5,407.2c0,0,0.1,0,0.1,0c0,0,0,0,0.1,0C607.6,407.2,607.5,407.2,607.5,407.2 M605.7,406.7
								c0,0,0.1,0,0.1,0c0,0,0.1,0,0.1,0C605.9,406.7,605.8,406.7,605.7,406.7 M602.7,405.4c0.5,0.3,1,0.5,1.6,0.7
								c0,0,0.1,0,0.1,0.1C603.8,405.9,603.2,405.7,602.7,405.4 M602.4,405.3C602.4,405.3,602.5,405.3,602.4,405.3
								C602.5,405.3,602.5,405.3,602.4,405.3C602.5,405.3,602.5,405.3,602.4,405.3C602.4,405.3,602.4,405.3,602.4,405.3
								 M629.4,391.2c0,0,0.1,0,0.1,0.1C629.5,391.3,629.4,391.3,629.4,391.2 M629.2,391.1c0,0,0.1,0,0.1,0.1
								C629.3,391.2,629.2,391.2,629.2,391.1 M628,390.6c0.4,0.2,0.8,0.3,1.1,0.5C628.7,391,628.4,390.8,628,390.6 M627.8,390.6
								c0.1,0,0.1,0,0.2,0.1C627.9,390.6,627.8,390.6,627.8,390.6 M627.6,390.5c0.1,0,0.1,0,0.2,0.1
								C627.7,390.5,627.6,390.5,627.6,390.5 M627.4,390.4c0,0,0.1,0,0.1,0C627.4,390.4,627.4,390.4,627.4,390.4 M627.1,390.3
								C627.1,390.3,627.1,390.3,627.1,390.3C627.1,390.3,627.1,390.3,627.1,390.3 M608.3,389c0.1,0,0.2,0,0.3-0.1
								C608.5,389,608.4,389,608.3,389L608.3,389 M600.7,391.9c0,0-0.1,0-0.1,0.1l0,0l0,0c0,0,0,0,0,0l0,0
								C600.7,391.9,600.7,391.9,600.7,391.9"/>
							<path class="st71" d="M602.5,405.3C602.5,405.3,602.5,405.3,602.5,405.3c0.1,0,0.1,0.1,0.2,0.1
								C602.6,405.4,602.5,405.3,602.5,405.3 M601.3,404.6c0.4,0.2,0.8,0.5,1.2,0.7c0,0,0,0,0,0C602,405.1,601.6,404.8,601.3,404.6
								 M598.8,402.7C598.8,402.7,598.8,402.7,598.8,402.7C598.8,402.7,598.8,402.7,598.8,402.7 M598.7,402.6
								C598.7,402.6,598.7,402.6,598.7,402.6C598.7,402.6,598.7,402.6,598.7,402.6 M597.7,401.3c0.3,0.4,0.6,0.8,1,1.2
								c-0.3-0.3-0.6-0.6-0.8-1C597.8,401.5,597.7,401.4,597.7,401.3 M597.2,400.6C597.2,400.6,597.2,400.6,597.2,400.6l0.1,0.1l0,0
								c0,0.1,0.1,0.1,0.1,0.2c0-0.1-0.1-0.1-0.1-0.2C597.3,400.7,597.2,400.6,597.2,400.6 M596.8,399.7c0,0.1,0.1,0.2,0.1,0.2
								C596.9,399.9,596.9,399.9,596.8,399.7C596.9,399.8,596.9,399.8,596.8,399.7 M596.6,398.6c0,0.2,0.1,0.4,0.1,0.5
								c0-0.1,0-0.1,0-0.2C596.6,398.8,596.6,398.7,596.6,398.6 M596.6,397.7c0,0.2,0,0.5,0,0.7l0-0.4
								C596.5,397.9,596.5,397.8,596.6,397.7 M596.6,397.5C596.6,397.5,596.6,397.5,596.6,397.5
								C596.6,397.5,596.6,397.5,596.6,397.5 M596.6,397.1L596.6,397.1c0,0.1,0,0.2,0,0.3C596.6,397.3,596.6,397.2,596.6,397.1
								 M612.8,388.5c1.7,0.5,3.4,1.2,4.9,1.9c0.7,0.4,1.4,0.8,2.1,1.2c0.2,0.1,0.4,0.2,0.5,0.4c0.5,0.3,0.9,0.7,1.4,1l0.3,0.3
								c0.5,0.4,0.9,0.9,1.3,1.4l0.2,0.3c0.3,0.4,0.5,0.8,0.8,1.2l0.1,0.2l0,0c2,4,0.2,8.3-5.7,11.4c-0.5,0.2-1,0.5-1.5,0.7
								c4.8,0,9.6-0.9,13.2-2.8l0.1-0.1c7.4-3.8,7.1-10.1-0.6-14.1c-0.1,0-0.1-0.1-0.2-0.1c-0.1,0-0.1-0.1-0.2-0.1
								c0,0-0.1,0-0.1-0.1c0,0,0,0-0.1,0c0,0-0.1,0-0.1-0.1c0,0,0,0,0,0c-0.4-0.2-0.7-0.3-1.1-0.5c0,0,0,0,0,0c-0.1,0-0.1,0-0.2-0.1
								c0,0,0,0-0.1,0c-0.1,0-0.1,0-0.2-0.1c0,0-0.1,0-0.1,0c0,0-0.1,0-0.1,0c-0.1,0-0.1-0.1-0.2-0.1c0,0,0,0,0,0
								C622.8,388.7,617.7,388.1,612.8,388.5 M596.9,396.1C596.9,396.1,596.9,396.1,596.9,396.1
								C596.9,396.1,596.9,396.1,596.9,396.1C596.9,396.1,596.9,396.1,596.9,396.1 M597.3,395.3c-0.1,0.1-0.1,0.3-0.2,0.4
								C597.1,395.5,597.2,395.4,597.3,395.3 M608.2,389.1c0.3-0.1,0.6-0.1,0.9-0.2c-0.2,0-0.3,0.1-0.5,0.1
								C608.5,389,608.4,389,608.2,389.1L608.2,389.1 M598.4,393.8c-0.2,0.2-0.3,0.4-0.5,0.6l0,0l0,0c-0.2,0.2-0.4,0.5-0.5,0.7
								c0.1-0.1,0.2-0.2,0.2-0.4c0.1-0.1,0.2-0.3,0.3-0.4c0.1-0.2,0.3-0.3,0.4-0.5C598.3,393.8,598.4,393.8,598.4,393.8
								 M599.3,392.9c-0.1,0.1-0.3,0.3-0.4,0.4c0.1-0.1,0.2-0.2,0.3-0.2C599.2,393,599.3,392.9,599.3,392.9 M600.3,392.2
								c0,0-0.1,0.1-0.1,0.1C600.2,392.3,600.2,392.2,600.3,392.2 M600.6,391.9C600.6,392,600.6,392,600.6,391.9l-0.1,0.1
								L600.6,391.9 M602.1,391.1C602.1,391.1,602.2,391.1,602.1,391.1C602.2,391.1,602.1,391.1,602.1,391.1"/>
							<path class="st72" d="M606.3,401.5l-3.6,1c-1.7-1.5-2.5-3.3-2.1-5c0.2-0.9,0.7-1.7,1.4-2.5c0.7-0.8,1.7-1.5,2.9-2.1l3,1.5
								c-0.9,0.5-1.6,1-2.1,1.5c-0.5,0.6-0.9,1.2-1,1.8C604.5,399.1,605,400.4,606.3,401.5 M602,391.2l-0.1,0.1
								c-0.4,0.2-0.8,0.4-1.2,0.7c0,0-0.1,0-0.1,0.1l0,0l-0.1,0.1l-0.1,0.1l-0.1,0.1c0,0-0.1,0.1-0.1,0.1c-0.1,0.1-0.2,0.2-0.3,0.2
								c-0.2,0.1-0.3,0.3-0.5,0.4c-0.1,0-0.1,0.1-0.2,0.1c-0.1,0.1-0.2,0.2-0.3,0.2c-0.2,0.2-0.3,0.3-0.5,0.5c0,0-0.1,0.1-0.1,0.1
								c-0.1,0.2-0.3,0.3-0.4,0.5c-0.1,0.1-0.2,0.3-0.3,0.4c-0.1,0.1-0.2,0.2-0.2,0.4c0,0-0.1,0.1-0.1,0.1c-0.1,0.1-0.1,0.3-0.2,0.4
								l0,0c-0.1,0.1-0.1,0.3-0.2,0.4c0,0,0,0,0,0.1c0,0,0,0,0,0c-0.1,0.2-0.1,0.4-0.2,0.7l-0.1,0.2c0,0.1,0,0.2,0,0.3
								c0,0.1,0,0.1,0,0.2c0,0,0,0,0,0c0,0,0,0.1,0,0.1c0,0.1,0,0.2,0,0.3l0,0.4c0,0.1,0,0.1,0,0.2c0,0.1,0,0.2,0.1,0.3
								c0,0.1,0,0.1,0,0.2c0,0.2,0.1,0.4,0.2,0.6c0,0,0,0.1,0,0.1c0,0,0,0.1,0,0.1c0.1,0.2,0.2,0.4,0.3,0.7c0,0,0,0.1,0.1,0.1
								c0,0.1,0.1,0.1,0.1,0.2c0.1,0.1,0.2,0.3,0.3,0.4c0.1,0.1,0.1,0.2,0.2,0.2c0.2,0.3,0.5,0.6,0.8,1c0,0,0,0,0,0
								c0,0,0,0.1,0.1,0.1c0,0,0,0,0.1,0.1c0,0,0,0,0,0c0.5,0.5,1.1,1,1.8,1.4l0.1,0l0.4,0.2l0,0l0,0c0.1,0,0.1,0.1,0.2,0.1
								c0.4,0.2,0.8,0.5,1.2,0.7c0,0,0,0,0,0c0.1,0,0.1,0.1,0.2,0.1c0.5,0.3,1.1,0.5,1.7,0.8c0.1,0.1,0.3,0.1,0.4,0.2
								c0.3,0.1,0.6,0.2,0.9,0.4c0.1,0,0.2,0.1,0.3,0.1c0.2,0.1,0.4,0.1,0.6,0.2c0.3,0.1,0.6,0.2,0.9,0.3c0.1,0,0.1,0,0.2,0.1
								c0.2,0.1,0.4,0.1,0.7,0.2c0.4,0.1,0.7,0.2,1.1,0.3c0.2,0.1,0.5,0.1,0.7,0.1c0.4,0.1,0.8,0.1,1.1,0.2l0.7,0.1
								c0.4,0,0.8,0.1,1.2,0.1l0.7,0.1c0.4,0,0.8,0.1,1.3,0.1l0.6,0c0.4,0,0.9,0,1.3,0l0.2,0l0,0c0,0,0,0,0,0c0.5-0.2,1-0.5,1.5-0.7
								c5.9-3.1,7.8-7.4,5.7-11.4l0,0l-0.1-0.2c-0.2-0.4-0.5-0.8-0.8-1.2l-0.2-0.3c-0.4-0.5-0.8-0.9-1.3-1.4l-0.3-0.3
								c-0.4-0.3-0.9-0.7-1.4-1c-0.2-0.1-0.3-0.2-0.5-0.4c-0.6-0.4-1.3-0.8-2.1-1.2c-1.5-0.8-3.2-1.4-4.9-1.9c0,0,0,0,0,0l0,0
								l-0.4,0c-0.3,0-0.5,0-0.8,0.1c-0.3,0-0.6,0.1-1,0.1l-0.7,0.1c-0.3,0-0.5,0.1-0.8,0.1c-0.3,0.1-0.6,0.1-0.9,0.2l-0.3,0.1
								c-0.4,0.1-0.8,0.2-1.2,0.3l-0.6,0.2c-0.3,0.1-0.7,0.2-1,0.3l-0.5,0.2c-0.3,0.1-0.7,0.2-1,0.4l-0.4,0.2
								c-0.4,0.2-0.7,0.3-1.1,0.5c0,0,0,0,0,0C602.1,391.1,602.1,391.1,602,391.2"/>
							<path class="st6" d="M604.8,393c-1.2,0.6-2.2,1.3-2.9,2.1c-0.7,0.8-1.2,1.6-1.4,2.5c-0.4,1.8,0.4,3.5,2.1,5l3.6-1
								c-1.3-1.1-1.8-2.4-1.6-3.7c0.1-0.6,0.5-1.2,1-1.8c0.5-0.6,1.2-1.1,2.1-1.5L604.8,393"/>
							<path class="st29" d="M562.2,411.4L562.2,411.4c0.1-0.1,0.2-0.1,0.2-0.1c0,0,0,0,0,0c0.4-0.2,0.7-0.3,1.1-0.5l0.4-0.2
								c0.3-0.1,0.7-0.3,1-0.4l0.5-0.2c0.3-0.1,0.7-0.2,1-0.3l0.5-0.2c0.4-0.1,0.8-0.2,1.2-0.3l0.3-0.1l0.1,0l0,0c0.1,0,0.2,0,0.2,0
								c0.2,0,0.5-0.1,0.7-0.1c0.2,0,0.4-0.1,0.6-0.1l0.7-0.1c0.3,0,0.6-0.1,1-0.1c0.3,0,0.5,0,0.8-0.1l0.4,0l0,0
								c5.8-0.4,12,0.5,16.7,2.8c0,0,0,0,0,0c0.1,0,0.1,0.1,0.2,0.1c0.1,0,0.1,0.1,0.2,0.1c7.7,4,8,10.3,0.6,14.1l-0.1,0.1
								c-3.6,1.8-8.4,2.8-13.2,2.8c0,0,0,0,0,0l0,0l-0.1,0c-0.4,0-0.9,0-1.3,0l-0.6,0c-0.4,0-0.8-0.1-1.3-0.1l-0.7-0.1
								c-0.4,0-0.8-0.1-1.2-0.1l-0.7-0.1c-0.4-0.1-0.8-0.1-1.1-0.2c-0.2,0-0.5-0.1-0.7-0.1c-0.4-0.1-0.7-0.2-1.1-0.3
								c-0.2-0.1-0.5-0.1-0.7-0.2c-0.3-0.1-0.7-0.2-1-0.3c-0.2-0.1-0.5-0.1-0.7-0.2c-0.4-0.1-0.7-0.3-1.1-0.4
								c-0.2-0.1-0.4-0.1-0.6-0.2c-0.5-0.2-1.1-0.5-1.6-0.7c-0.6-0.3-1.1-0.6-1.6-0.9l0,0l0,0l-0.4-0.2l-0.1,0
								c-0.8-0.5-1.4-1.1-2-1.7c-0.4-0.4-0.7-0.7-0.9-1.1c-0.1-0.2-0.2-0.4-0.3-0.5c0,0,0-0.1-0.1-0.1l0,0l0-0.1
								c-0.1-0.2-0.2-0.5-0.3-0.7c0-0.1-0.1-0.2-0.1-0.3c-0.1-0.2-0.1-0.3-0.1-0.5c-0.2-0.7-0.2-1.3-0.1-2c0,0,0-0.1,0-0.1l0,0
								l0.1-0.2c0.1-0.4,0.2-0.8,0.4-1.1l0,0c0.1-0.1,0.1-0.3,0.2-0.4c0-0.1,0.1-0.1,0.1-0.2c0.1-0.3,0.3-0.5,0.5-0.7l0,0l0,0
								c0.2-0.2,0.3-0.4,0.5-0.6c0.2-0.2,0.3-0.3,0.5-0.5c0.1-0.1,0.3-0.2,0.4-0.4c0.2-0.1,0.3-0.3,0.5-0.4c0.1-0.1,0.2-0.2,0.4-0.2
								c0,0,0.1,0,0.1-0.1l0.1-0.1l0.1-0.1l0.2-0.1l0,0l0,0c0,0,0.1,0,0.1-0.1C561.4,411.9,561.8,411.7,562.2,411.4 M560.5,410.5
								l-0.1,0.1c-0.5,0.3-1,0.5-1.4,0.8l0,0l-0.2,0.1l-0.1,0l-0.1,0.1l-0.4,0.3l-0.1,0.1c-0.9,0.7-1.6,1.3-2.2,2.1l0,0l0,0.1
								c-0.4,0.5-0.6,0.9-0.9,1.5l0,0c-0.2,0.4-0.3,0.8-0.4,1.3l0,0.1l0,0.1l0,0.1c-0.2,1.2,0,2.4,0.5,3.6c0.1,0.1,0.1,0.2,0.2,0.4
								l0,0.1c0.4,0.8,1,1.6,1.8,2.3c0.6,0.5,1.2,1.1,1.9,1.6l0.1,0.1l0.1,0.1l0.3,0.2l0.1,0.1c0.6,0.4,1.1,0.7,1.7,1
								c0.6,0.3,1.2,0.6,1.7,0.8l0.5,0.2l0.2,0.1l0.3,0.1c0.3,0.1,0.6,0.2,1,0.4l0.5,0.2l0.2,0.1l0.3,0.1c0.3,0.1,0.6,0.2,0.9,0.3
								l0.6,0.1l0.2,0.1l0.2,0.1c0.3,0.1,0.7,0.2,1,0.2l0.6,0.1l0.2,0c0.5,0.1,0.9,0.2,1.3,0.2l0.5,0.1l0.2,0l0.1,0
								c0.4,0.1,0.8,0.1,1.3,0.2l0.5,0l0.2,0c0.5,0,0.9,0.1,1.4,0.1l0.5,0l0.2,0c0.5,0,0.9,0,1.4,0l0.2,0l0.2,0
								c5.6-0.1,10.7-1.2,14.6-3.1l0.1-0.1c4.1-2.1,6.2-4.9,6-7.9c-0.2-3-2.6-5.9-6.9-8c-0.1,0-0.2-0.1-0.3-0.1
								c-0.8-0.4-1.7-0.8-2.6-1.1c-4.6-1.7-10.3-2.5-15.9-2.1l-0.3,0l-0.4,0c-0.4,0-0.7,0.1-1,0.1c-0.4,0-0.7,0.1-1.1,0.1l-0.2,0
								l-0.6,0.1c-0.6,0.1-1.2,0.2-1.8,0.3l-0.3,0.1c-0.6,0.1-1,0.2-1.5,0.3l-0.5,0.1l-0.1,0c-0.4,0.1-0.7,0.2-1.1,0.3
								c-0.2,0.1-0.4,0.1-0.6,0.2c-0.4,0.1-0.7,0.3-1.1,0.4l-0.1,0l-0.4,0.1C561.4,410.1,561,410.3,560.5,410.5"/>
							<path class="st29" d="M601.9,391.2l0.1-0.1c0,0,0.1,0,0.1-0.1c0,0,0,0,0,0c0.3-0.2,0.7-0.3,1.1-0.5l0.4-0.2
								c0.3-0.1,0.6-0.3,1-0.4l0.5-0.2c0.3-0.1,0.7-0.2,1-0.3l0.6-0.2c0.4-0.1,0.8-0.2,1.2-0.3l0.3-0.1l0.1,0l0,0c0.1,0,0.2,0,0.2,0
								c0.2,0,0.3-0.1,0.5-0.1c0.3,0,0.5-0.1,0.8-0.1l0.7-0.1c0.3,0,0.6-0.1,1-0.1c0.3,0,0.5-0.1,0.8-0.1l0.4,0l0,0c0,0,0,0,0,0
								c4.9-0.3,10.1,0.3,14.3,1.8c0,0,0,0,0,0c0.1,0,0.1,0.1,0.2,0.1c0,0,0.1,0,0.1,0c0,0,0.1,0,0.1,0c0.1,0,0.1,0,0.2,0.1
								c0,0,0,0,0.1,0c0.1,0,0.1,0,0.2,0.1c0,0,0,0,0,0c0.4,0.2,0.8,0.3,1.1,0.5c0,0,0,0,0,0c0,0,0.1,0,0.1,0.1c0,0,0,0,0.1,0
								c0,0,0.1,0,0.1,0.1c0.1,0,0.1,0.1,0.2,0.1c0.1,0,0.1,0.1,0.2,0.1c7.7,4,8,10.3,0.6,14.1l-0.1,0.1c-3.6,1.8-8.4,2.8-13.2,2.8
								c0,0,0,0,0,0l0,0l-0.2,0c-0.4,0-0.9,0-1.3,0l-0.6,0c-0.4,0-0.8-0.1-1.3-0.1l-0.7-0.1c-0.4,0-0.8-0.1-1.2-0.1l-0.7-0.1
								c-0.4-0.1-0.8-0.1-1.1-0.2c-0.2,0-0.5-0.1-0.7-0.1c-0.4-0.1-0.7-0.2-1.1-0.3c-0.2-0.1-0.4-0.1-0.7-0.2c0,0,0,0-0.1,0
								c0,0-0.1,0-0.1,0c-0.3-0.1-0.6-0.2-0.9-0.3c-0.2-0.1-0.4-0.1-0.6-0.2c0,0-0.1,0-0.1,0c0,0-0.1,0-0.1,0
								c-0.3-0.1-0.6-0.2-0.9-0.4c-0.1-0.1-0.3-0.1-0.4-0.2c0,0-0.1,0-0.1-0.1c-0.5-0.2-1.1-0.5-1.6-0.7c-0.1,0-0.1-0.1-0.2-0.1
								c0,0-0.1,0-0.1,0c-0.4-0.2-0.8-0.4-1.2-0.7c-0.1,0-0.1-0.1-0.2-0.1l0,0l0,0l-0.4-0.2l-0.1,0c-0.7-0.5-1.3-0.9-1.8-1.4
								c0,0,0,0,0,0c0,0,0,0-0.1-0.1c0,0,0-0.1-0.1-0.1c0,0,0,0,0,0c-0.4-0.4-0.7-0.8-1-1.2c-0.1-0.1-0.2-0.3-0.3-0.4
								c0-0.1-0.1-0.1-0.1-0.2l0,0l0-0.1c0,0,0,0,0-0.1c-0.1-0.2-0.2-0.4-0.3-0.7c0-0.1-0.1-0.1-0.1-0.2c-0.1-0.2-0.1-0.4-0.2-0.6
								c0-0.2-0.1-0.4-0.1-0.5c0-0.1,0-0.1,0-0.2c0-0.2,0-0.5,0-0.7c0,0,0-0.1,0-0.1c0,0,0,0,0,0c0-0.1,0-0.1,0-0.2
								c0-0.1,0-0.2,0-0.3l0,0l0.1-0.2c0-0.2,0.1-0.5,0.2-0.7c0,0,0,0,0-0.1c0.1-0.1,0.1-0.3,0.2-0.4l0,0c0.1-0.1,0.1-0.3,0.2-0.4
								c0,0,0.1-0.1,0.1-0.1c0.1-0.3,0.3-0.5,0.5-0.7l0,0l0,0c0.2-0.2,0.3-0.4,0.5-0.6c0.2-0.2,0.3-0.3,0.5-0.5
								c0.1-0.1,0.3-0.3,0.4-0.4c0.2-0.1,0.3-0.3,0.5-0.4c0.1-0.1,0.2-0.2,0.3-0.2c0,0,0.1-0.1,0.1-0.1l0.1-0.1l0.1-0.1l0.1-0.1l0,0
								l0,0c0,0,0.1,0,0.1-0.1C601.1,391.6,601.5,391.4,601.9,391.2 M600.2,390.3l-0.1,0.1c-0.5,0.3-1,0.5-1.4,0.8l-0.1,0l-0.2,0.1
								l-0.1,0.1l-0.1,0.1l-0.3,0.2l-0.2,0.1c-0.9,0.7-1.6,1.3-2.2,2.1l0,0l0,0.1c-0.4,0.5-0.6,0.9-0.9,1.4l0,0
								c-0.2,0.4-0.3,0.8-0.4,1.3l0,0.1l0,0.2l0,0l0,0c-0.2,1.3,0,2.7,0.7,4l0,0.1c0.7,1.3,1.9,2.6,3.5,3.7c0.1,0.1,0.2,0.1,0.3,0.2
								l0.1,0.1l0.1,0.1l0.3,0.2l0.1,0.1c0.4,0.3,0.8,0.5,1.2,0.7c0.2,0.1,0.3,0.2,0.5,0.3c0.5,0.3,1.1,0.5,1.7,0.8l0.4,0.2l0.2,0.1
								l0.3,0.1c0.3,0.1,0.7,0.3,1,0.4l0.5,0.2l0.2,0.1l0.3,0.1c0.3,0.1,0.6,0.2,0.9,0.3l0.6,0.1l0.2,0.1l0.2,0.1
								c0.3,0.1,0.7,0.2,1,0.2l0.5,0.1l0.2,0l0.2,0c0.4,0.1,0.7,0.1,1.1,0.2l0.6,0.1l0.2,0c0.4,0.1,0.9,0.1,1.4,0.2l0.5,0l0.2,0
								c0.5,0,1,0.1,1.4,0.1l0.6,0l0.2,0c0.4,0,0.9,0,1.4,0l0.2,0l0.1,0c5.6-0.1,10.8-1.2,14.6-3.1l0.1-0.1c8.4-4.3,8-11.5-0.9-16
								c-1.7-0.8-3.5-1.5-5.5-2.1c-1.7-0.5-3.5-0.8-5.4-1c-2.5-0.3-5.2-0.4-7.8-0.2l-0.3,0l-0.4,0c-0.4,0-0.7,0.1-1,0.1
								c-0.4,0-0.7,0.1-1.1,0.1l-0.2,0l-0.6,0.1c-0.6,0.1-1.2,0.2-1.7,0.3L607,388l-0.1,0c-0.4,0.1-0.9,0.2-1.3,0.3l-0.5,0.1l-0.1,0
								c-0.4,0.1-0.7,0.2-1.1,0.3c-0.2,0.1-0.4,0.1-0.6,0.2c-0.4,0.1-0.7,0.3-1.1,0.4l-0.1,0l-0.4,0.2
								C601.1,389.8,600.7,390,600.2,390.3"/>
						</g>
					</g>
				</g>
			</g>
		</g>
	</g>
</g>
<g class="st75">
	<polygon class="st61" points="158.1,225.9 285.7,162.8 492.8,266.4 365.3,329.5 	"/>
</g>
<g>
	<g>
		<polygon class="st57" points="188.7,226.1 188.7,219.9 309.4,166 514.9,262.6 514.4,268.5 394.7,328.9 		"/>
	</g>
	<g>
		<polygon class="st6" points="188.7,219.9 309.4,159.8 514.9,262.6 394.7,322.7 		"/>
	</g>
	<g class="st80">
		<polygon class="st30" points="206.3,219.9 311.7,167.2 452.9,237.3 347.5,290 		"/>
	</g>
	<g>
		<polygon class="st6" points="338.4,294.1 458,234.3 514.2,262.4 394.6,322.2 		"/>
	</g>
	<g class="st81">
		<polygon class="st30" points="355.1,294.3 396.9,272.7 407.6,278.4 365.9,299.9 		"/>
	</g>
	<g class="st82">
		<polygon class="st30" points="374,303 477.3,248.9 482.9,251.2 378.9,305.5 		"/>
	</g>
	<g class="st82">
		<polygon class="st30" points="380.8,306.7 484.1,252.6 489.7,254.9 385.7,309.2 		"/>
	</g>
</g>
<line class="st83" x1="206.5" y1="234.7" x2="206.5" y2="247.7"/>
<line class="st83" x1="346.5" y1="305.7" x2="346.5" y2="318.7"/>
<g>
	<g>
		<g>
			<polygon class="st102" points="192.9,148.7 192.9,141.2 298.2,96 439.5,158.6 439.5,166.1 334.1,218.8 			"/>
		</g>
		<g>
			<polygon class="st30" points="192.9,141.2 298.2,88.5 439.5,158.6 334.1,211.3 			"/>
		</g>
	</g>
	<g>
		<g>
			<g>
				<g class="st3">
					<defs>
						<polygon id="SVGID_53_" class="st3" points="325.2,178.5 251.6,140.9 302.4,115 375.9,152.6 						"/>
					</defs>
					<clipPath id="SVGID_4_">
						<use xlink:href="#SVGID_53_"  style="overflow:visible;"/>
					</clipPath>
					<g class="st66">
						<g>
							<g>
								<g>
									<path class="st85" d="M295.8,119.9c-3.2,1.6-6.5,3.8-8.2,6.6c-1.7,2.6-1.9,5.8,0.8,9.4c0.3,0,0.7-0.1,1.1-0.2l12.8-18.5
										c-0.3,0.1-0.6,0.2-1,0.4C299.9,118.1,297.9,118.9,295.8,119.9"/>
									<path class="st30" d="M302.4,117.2l-12.8,18.5c0.4-0.1,0.7-0.1,1.2-0.2c1.9-0.4,4.5-1.2,7-2.4c2.7-1.4,5.3-3.4,6.8-6.3
										c2.7-5.3-0.3-8.6-1.6-9.8C302.7,117.1,302.6,117.1,302.4,117.2"/>
									<path class="st29" d="M267.6,137.1c-0.4,0.2-0.4,0.5,0,0.8c0.4,0.3,1.1,0.3,1.6,0.1c3.3-1.3,7-1.7,10.7-1.6
										c5.6,0.2,11.3,1.8,15.8,3.4c2.2,0.8,4.1,1.6,5.6,2.2c0.7,0,1.4,0.1,2.1,0.1c-0.1-0.3-0.2-0.6-0.2-0.8
										c-2.5-1.1-6.5-2.8-11.3-4.1c-0.5-0.1-1.1-0.3-1.6-0.4c-1.3,0.2-2.2,0.3-2.2,0.3l-0.9,0.1l-0.4-0.4
										c-0.2-0.3-0.4-0.6-0.6-0.9c-2-0.3-4.1-0.6-6.2-0.7C275.8,135.1,271.5,135.5,267.6,137.1
										C267.7,137.1,267.7,137.1,267.6,137.1"/>
									<path class="st72" d="M297.8,156.2l-4,1.1c-1.9-1.7-2.8-3.7-2.4-5.6c0.2-1,0.7-1.9,1.5-2.8c0.8-0.9,1.9-1.6,3.2-2.3
										l3.4,1.7c-1,0.5-1.8,1.1-2.4,1.7c-0.6,0.6-1,1.3-1.1,2C295.7,153.5,296.4,155,297.8,156.2 M288.8,145.8
										C288.8,145.8,288.8,145.8,288.8,145.8c-2.4,1.2-4.1,2.7-4.9,4.3c-0.7,1.6-0.5,3.4,1.2,5.2c1.5,1.5,3.4,2.9,5.7,4.1
										c9,4.6,23.4,6.7,32.3,8.4c3,0.6,5.4,1.1,6.9,1.8c1.5,0.7,3.1,0.9,4.7,0.8c1.6-0.1,3.1-0.5,4.2-1.1c0,0,0,0,0,0
										c1.2-0.6,1.9-1.4,1.8-2.1l0-0.5l0.9-0.1c3.1-0.3,4.9-0.8,6.1-1.4l0.3-0.2l0,0l0.1,0l0.4-0.2c1.1-0.6,2.2-1.5,2.7-3.1
										l0.2-0.5l0.9,0c1.3,0,2.9-0.3,4.1-0.9c0,0,0,0,0,0c1.1-0.6,1.9-1.4,2.1-2.2c0.2-0.8-0.2-1.6-1.5-2.4
										c-1.3-0.8-2.3-2-3.5-3.5c-1.1-1.5-2.3-3.3-3.7-5.3c-2.8-3.9-6.6-8.2-12.7-11.2c-2.3-1.2-4.9-2.2-8-2.9l0.4-0.5l-0.4,0.5
										c-3.5-0.9-7-1-10.2-0.6c-3.2,0.4-6.1,1.3-8.5,2.5c-4.4,2.2-6.5,5.5-4.7,8l0.7,1.1l-2.1-0.4
										C299.5,142.5,293.2,143.6,288.8,145.8"/>
									<path class="st29" d="M309,133.9c-3.9,2-6.3,4.7-5.9,7.4c0,0.3,0.1,0.6,0.2,0.8c-0.7-0.1-1.4-0.1-2.1-0.1
										c-5.1-0.1-10.3,1.1-14.1,3c-2.6,1.3-4.5,3-5.4,4.8c-0.8,1.9-0.5,3.9,1.4,6c1.6,1.7,3.7,3.1,6.2,4.4
										c6.4,3.3,15.1,5.3,22.8,6.8c3.8,0.7,7.4,1.3,10.3,1.9c2.9,0.6,5.2,1.1,6.2,1.6c2,0.9,4.3,1.2,6.5,1.1
										c2.1-0.1,4-0.7,5.5-1.4c1.3-0.7,2.2-1.5,2.4-2.4c2.9-0.3,5-0.9,6.4-1.6c0.1-0.1,0.3-0.1,0.4-0.2c0.1-0.1,0.3-0.1,0.4-0.2
										c1.4-0.7,2.5-1.8,3.1-3.2c1.8-0.1,3.4-0.6,4.7-1.2c1.4-0.7,2.5-1.7,2.7-2.8c0.3-1.1-0.3-2.3-2.1-3.3c-0.9-0.5-2-1.7-3-3.2
										c-3.3-4.5-7.3-12-16.9-16.9c-2.5-1.3-5.3-2.4-8.6-3.2l-0.4,0.5l-0.4,0.5c3,0.8,5.7,1.8,8,2.9c6,3.1,9.9,7.4,12.7,11.2
										c1.4,1.9,2.6,3.8,3.7,5.3c1.1,1.5,2.1,2.7,3.5,3.5c1.3,0.8,1.7,1.6,1.5,2.4c-0.2,0.8-1,1.6-2.1,2.2c0,0,0,0,0,0
										c-1.2,0.6-2.7,1-4.1,0.9l-0.9,0l-0.2,0.5c-0.5,1.6-1.6,2.5-2.7,3.1l-0.4,0.2l-0.1,0l0,0l-0.3,0.2c-1.2,0.6-3,1.1-6.1,1.4
										l-0.9,0.1l0,0.5c0.1,0.7-0.6,1.5-1.8,2.1c0,0,0,0,0,0c-1.1,0.6-2.7,1-4.2,1.1c-1.6,0.1-3.2-0.1-4.7-0.8
										c-1.5-0.7-3.9-1.2-6.9-1.8c-8.9-1.7-23.3-3.8-32.3-8.4c-2.3-1.2-4.3-2.5-5.7-4.1c-1.7-1.8-2-3.6-1.2-5.2
										c0.7-1.6,2.5-3.1,4.8-4.3c0,0,0,0,0,0c4.4-2.2,10.7-3.3,15.7-2.3l2.1,0.4l-0.7-1.1c-1.8-2.6,0.3-5.8,4.7-8
										c2.3-1.2,5.3-2.1,8.5-2.5c3.2-0.4,6.7-0.2,10.2,0.6l0.4-0.5l0.4-0.5c-4-1-8-1.2-11.7-0.7
										C314.8,131.6,311.6,132.6,309,133.9"/>
									<path class="st29" d="M288.4,135.9c-2.7-3.6-2.5-6.8-0.8-9.4c1.7-2.7,5-5,8.2-6.6c2.1-1,4.1-1.8,5.5-2.4
										c0.4-0.1,0.7-0.3,1-0.4c0.2-0.1,0.4-0.1,0.5-0.2c1.3,1.1,4.3,4.5,1.6,9.8c-1.5,2.9-4.1,4.9-6.8,6.3c-2.4,1.2-5,2-7,2.4
										c-0.4,0.1-0.8,0.2-1.2,0.2C289.1,135.8,288.7,135.9,288.4,135.9 M294.2,119.1c-3.3,1.7-6.9,4.1-8.7,7
										c-1.7,2.8-2,6.1,0.6,9.8c0.2,0.3,0.4,0.6,0.6,0.9l0.4,0.4l0.9-0.1c0,0,0.9-0.1,2.2-0.3c2.2-0.4,5.7-1.3,9-3
										c2.9-1.5,5.7-3.7,7.3-6.7c1.8-3.5,1.2-6.3,0.2-8.2c-1.1-1.9-2.6-2.9-2.7-3l-0.6-0.4l-0.8,0.2
										C302.6,115.8,298.6,116.9,294.2,119.1"/>
									<path class="st6" d="M296.2,146.6c-1.3,0.7-2.4,1.5-3.2,2.3c-0.8,0.9-1.3,1.8-1.5,2.8c-0.4,2,0.5,4,2.4,5.6l4-1.1
										c-1.4-1.2-2.1-2.7-1.7-4.1c0.2-0.7,0.5-1.4,1.1-2c0.6-0.6,1.4-1.2,2.4-1.7L296.2,146.6"/>
								</g>
							</g>
						</g>
					</g>
				</g>
			</g>
		</g>
	</g>
</g>
<g class="st105">
	<polygon class="st61" points="482.4,210.5 504,201.5 530.2,214 530.2,236.3 	"/>
</g>
<g>
	<g>
		<g>
			<g>
				<path class="st8" d="M380.8,110.4c1.6,0.9,2.8,3.1,2.8,4.9c0,1.8-1.3,2.5-2.8,1.6c-1.6-0.9-2.8-3.1-2.8-4.9
					C378,110.2,379.2,109.5,380.8,110.4z"/>
			</g>
		</g>
		<g>
			<g class="st3">
				<path class="st106" d="M380.3,111.4c-0.4-0.2-0.8-0.2-1.1,0l-8.8,5.1c0.3-0.2,0.7-0.2,1.1,0c0.1,0,0.2,0.1,0.3,0.1l8.8-5.1
					C380.5,111.5,380.4,111.4,380.3,111.4z"/>
				<g class="st3">
					<g class="st3">
						<path class="st107" d="M371.8,116.6l8.8-5.1c1,0.6,1.8,1.8,1.9,2.9l-8.8,5.1C373.6,118.4,372.8,117.2,371.8,116.6L371.8,116.6
							z"/>
						<path class="st108" d="M373.8,119.6l8.8-5.1c0,0.2,0,0.3,0,0.5c0,0.6-0.2,1.1-0.6,1.3l-8.8,5.1c0.4-0.2,0.6-0.7,0.6-1.3
							C373.8,119.9,373.8,119.7,373.8,119.6L373.8,119.6z"/>
					</g>
				</g>
				<g>
					<path class="st10" d="M371.8,116.6c1.1,0.6,2,2.2,2,3.4c0,1.3-0.9,1.8-2,1.1c-1.1-0.6-2-2.2-2-3.4
						C369.8,116.5,370.7,116,371.8,116.6z"/>
				</g>
			</g>
		</g>
		<g>
			<g class="st3">
				<g>
					<polygon class="st125" points="347.5,125.8 343.4,123.5 343.4,124.6 347.5,127 					"/>
				</g>
				<g>
					<polygon class="st126" points="356.7,120.5 352.6,118.1 343.4,123.5 347.5,125.8 					"/>
				</g>
				<g>
					<polygon class="st127" points="347.5,125.8 347.5,127 356.7,121.6 356.7,120.5 					"/>
				</g>
			</g>
			<g class="st3">
				<g>
					<polygon class="st128" points="372.2,135.8 368.1,133.4 368.1,134.6 372.2,137 					"/>
				</g>
				<g>
					<polygon class="st129" points="372.2,137 368.1,134.6 363,137.6 367.1,139.9 					"/>
				</g>
				<g>
					<polygon class="st129" points="372.2,135.8 368.1,133.4 363,136.4 367.1,138.8 					"/>
				</g>
				<g>
					<polygon class="st129" points="367.1,138.8 363,136.4 358.5,139 362.5,141.4 					"/>
				</g>
				<g>
					<polygon class="st1" points="362.5,141.4 358.5,139 358.5,140.2 362.5,142.6 					"/>
				</g>
				<g>
					<polygon class="st113" points="362.5,141.4 362.5,142.6 367.1,139.9 372.2,137 372.2,135.8 367.1,138.8 					"/>
				</g>
				<g>
					<polygon class="st129" points="369.1,134.6 365,132.3 363,133.4 367,135.8 					"/>
				</g>
				<g>
					<polygon class="st128" points="367,135.8 363,133.4 363,136.4 367.1,138.8 					"/>
				</g>
				<g>
					<polygon class="st129" points="369.1,131.1 365,128.7 363,129.9 367,132.3 					"/>
				</g>
				<g>
					<polygon class="st129" points="367,132.3 363,129.9 352.7,135.8 356.8,138.2 					"/>
				</g>
				<g>
					<polygon class="st128" points="367,114.6 362.9,112.2 363,129.9 367,132.3 					"/>
				</g>
				<g>
					<polygon class="st129" points="369,113.4 365,111 362.9,112.2 367,114.6 					"/>
				</g>
				<g>
					<polygon class="st128" points="372.1,103.9 368,101.5 368,102.7 372.1,105.1 					"/>
				</g>
				<g>
					<polygon class="st113" points="372.1,103.9 372.1,105.1 367,108.1 367,111 369,109.8 369,113.4 367,114.6 367,132.3 
						369.1,131.1 369.1,134.6 367,135.8 367.1,138.8 372.2,135.8 372.2,137 367.1,139.9 372.2,137 376.1,126.9 376,109.5 					"/>
				</g>
				<g>
					<polygon class="st129" points="372.1,105.1 368,102.7 362.9,105.7 367,108.1 					"/>
				</g>
				<g>
					<polygon class="st128" points="367,108.1 362.9,105.7 362.9,108.6 367,111 					"/>
				</g>
				<g>
					<polygon class="st1" points="347.5,122.3 343.4,119.9 343.4,123.5 347.5,125.8 					"/>
				</g>
				<g>
					<polygon class="st9" points="367,111 362.9,108.6 343.4,119.9 347.5,122.3 					"/>
				</g>
				<g>
					<polygon class="st113" points="347.5,122.3 347.5,125.8 356.7,120.5 367,114.6 369,113.4 369,109.8 367,111 					"/>
				</g>
				<g>
					<polygon class="st1" points="362.5,109.5 358.4,107.1 358.4,108.3 362.5,110.7 					"/>
				</g>
				<g>
					<polygon class="st113" points="362.5,109.5 362.5,110.7 367,108.1 372.1,105.1 372.1,103.9 					"/>
				</g>
				<g>
					<polygon class="st9" points="372.1,103.9 368,101.5 358.4,107.1 362.5,109.5 					"/>
				</g>
			</g>
		</g>
	</g>
</g>
<polygon class="st30" points="362.5,120.4 377.4,127.8 374.7,140.8 357.5,145.8 348.6,140.5 344.7,131.9 "/>
</svg>
