<?xml version="1.0" encoding="utf-8"?>
<!-- Generator: Adobe Illustrator 19.1.0, SVG Export Plug-In . SVG Version: 6.00 Build 0)  -->
<svg version="1.1" id="Layer_1" xmlns="http://www.w3.org/2000/svg" xmlns:xlink="http://www.w3.org/1999/xlink" x="0px" y="0px"
	 viewBox="0 0 102 121.3" style="enable-background:new 0 0 102 121.3;" xml:space="preserve">
<style type="text/css">
	.st0{fill:#6077DF;}
	.st1{fill:#FFCA00;}
	.st2{fill:#035E87;}
	.st3{enable-background:new    ;}
	.st4{fill:#BDBDBD;}
	.st5{fill:#C9C9C9;}
	.st6{fill:#FFFFFF;}
	.st7{fill:#EBEBEB;}
	.st8{fill:#999999;}
	.st9{fill:#FFB300;}
	.st10{fill:#3C3D00;}
	.st11{fill:#F5F5F5;}
	.st12{fill:#212221;}
	.st13{fill:#F2A012;}
	.st14{fill:#D68E10;}
	.st15{fill:#4B4B4B;}
	.st16{fill:#4F4F4F;}
	.st17{fill:#333333;}
	.st18{fill:#484848;}
	.st19{fill:#DE8E11;}
	.st20{fill:#D68910;}
	.st21{fill:#EB9611;}
	.st22{fill:#EDA800;}
	.st23{fill:#BF7B0F;}
	.st24{fill:#F5AE02;}
	.st25{fill:#F29B12;}
	.st26{fill:#E89A11;}
	.st27{fill:#A11D11;}
	.st28{opacity:0.18;}
	.st29{fill:#415464;}
	.st30{fill:#4CDAB0;}
	.st31{fill:#E0E0E0;}
	.st32{opacity:0.75;fill:#3A4F9B;}
	.st33{opacity:0.27;fill:#375056;}
	.st34{fill:#BA8B75;}
	.st35{fill:#242424;}
	.st36{fill:#2B3E4F;}
	.st37{fill:#DCDCDC;}
	.st38{fill:#DEB09D;}
	.st39{fill:#EBF1F5;}
	.st40{fill:#025074;}
	.st41{fill:#E9AE93;}
	.st42{fill:#291222;}
	.st43{fill:#3E1C33;}
	.st44{fill:#E9C2B0;}
	.st45{fill:#F9CFB3;}
	.st46{clip-path:url(#SVGID_2_);enable-background:new    ;}
	.st47{fill:#AA2A41;}
	.st48{fill:#D43451;}
	.st49{fill:#FF3F61;}
	.st50{fill:#9F273C;}
	.st51{fill:none;stroke:#6AEFC3;stroke-miterlimit:10;}
	.st52{fill:none;stroke:#6AEFC3;stroke-miterlimit:10;stroke-dasharray:5.915,5.915;}
	.st53{fill:none;stroke:#6AEFC3;stroke-miterlimit:10;stroke-dasharray:6.0713,6.0713;}
	.st54{fill:none;stroke:#6AEFC3;stroke-miterlimit:10;stroke-dasharray:5.9151,5.9151;}
	.st55{fill:none;stroke:#6AEFC3;stroke-miterlimit:10;stroke-dasharray:6.0712,6.0712;}
	.st56{fill:#CCCCCC;}
	.st57{fill:#E6E6E6;}
	.st58{fill:#F2F2F2;}
	.st59{fill-rule:evenodd;clip-rule:evenodd;fill:#FFFFFF;}
	.st60{opacity:0.27;}
	.st61{fill:#375056;}
	.st62{fill:#6EC6E6;}
	.st63{opacity:0.17;}
	.st64{fill:#28A7C9;}
	.st65{fill:#ADECF7;}
	.st66{clip-path:url(#SVGID_4_);}
	.st67{fill:#FEC363;}
	.st68{fill:#353F49;}
	.st69{fill:#474F59;}
	.st70{clip-path:url(#SVGID_6_);}
	.st71{fill:#A3A3EF;}
	.st72{fill:#BABAF4;}
	.st73{clip-path:url(#SVGID_8_);}
	.st74{fill:#F2B50A;}
	.st75{opacity:0.15;}
	.st76{fill:#97723F;}
	.st77{fill:#856231;}
	.st78{fill:#BD553D;}
	.st79{fill:#3E626A;}
	.st80{opacity:0.3;}
	.st81{opacity:0.42;}
	.st82{opacity:0.5;}
	.st83{fill:none;stroke:#6AEFC3;stroke-miterlimit:10;stroke-dasharray:6,6;}
	.st84{clip-path:url(#SVGID_10_);}
	.st85{fill:#3FBC92;}
	.st86{fill:#FDFFFE;}
	.st87{fill:#2B0D04;}
	.st88{fill:#134663;}
	.st89{fill:#DEF3EE;}
	.st90{clip-path:url(#SVGID_12_);enable-background:new    ;}
	.st91{clip-path:url(#SVGID_14_);}
	.st92{clip-path:url(#SVGID_16_);}
	.st93{clip-path:url(#SVGID_18_);}
	.st94{clip-path:url(#SVGID_20_);enable-background:new    ;}
	.st95{clip-path:url(#SVGID_22_);}
	.st96{clip-path:url(#SVGID_24_);}
	.st97{clip-path:url(#SVGID_26_);}
	.st98{clip-path:url(#SVGID_28_);enable-background:new    ;}
	.st99{clip-path:url(#SVGID_30_);}
	.st100{clip-path:url(#SVGID_32_);}
	.st101{clip-path:url(#SVGID_34_);}
	.st102{fill:#2FB286;}
	.st103{clip-path:url(#SVGID_36_);}
	.st104{clip-path:url(#SVGID_38_);}
	.st105{opacity:0.2;}
	.st106{fill:#585858;}
	.st107{fill:#616161;}
	.st108{fill:#505050;}
	.st109{fill:#414141;}
	.st110{fill:#232423;}
	.st111{fill:#424342;}
	.st112{fill:#C27508;}
	.st113{fill:#F0910A;}
	.st114{fill:#3E3F3E;}
	.st115{fill:#2F302F;}
	.st116{fill:#1F1F1F;}
	.st117{fill:#272727;}
	.st118{fill:#1E1E1E;}
	.st119{clip-path:url(#SVGID_40_);enable-background:new    ;}
	.st120{clip-path:url(#SVGID_42_);}
	.st121{clip-path:url(#SVGID_44_);}
	.st122{clip-path:url(#SVGID_46_);}
	.st123{opacity:0.75;}
	.st124{fill:#3A4F9B;}
	.st125{fill:#2E2F2E;}
	.st126{fill:#303130;}
	.st127{fill:#3D3E3D;}
	.st128{fill:#A26207;}
	.st129{fill:#A86507;}
	.st130{clip-path:url(#SVGID_48_);}
	.st131{clip-path:url(#SVGID_50_);}
	.st132{opacity:0.7656;fill:#3A4F9B;}
	.st133{opacity:0.7812;fill:#3A4F9B;}
	.st134{opacity:0.7969;fill:#3A4F9B;}
	.st135{opacity:0.8125;fill:#3A4F9B;}
	.st136{opacity:0.8281;fill:#3A4F9B;}
	.st137{opacity:0.8438;fill:#3A4F9B;}
	.st138{opacity:0.8594;fill:#3A4F9B;}
	.st139{opacity:0.875;fill:#3A4F9B;}
	.st140{opacity:0.8906;fill:#3A4F9B;}
	.st141{opacity:0.9062;fill:#3A4F9B;}
	.st142{opacity:0.9219;fill:#3A4F9B;}
	.st143{opacity:0.9375;fill:#3A4F9B;}
	.st144{opacity:0.9531;fill:#3A4F9B;}
	.st145{opacity:0.9688;fill:#3A4F9B;}
	.st146{opacity:0.9844;fill:#3A4F9B;}
	.st147{clip-path:url(#SVGID_52_);}
	.st148{clip-path:url(#SVGID_54_);}
	.st149{clip-path:url(#SVGID_56_);}
	.st150{clip-path:url(#SVGID_58_);}
	.st151{clip-path:url(#SVGID_60_);enable-background:new    ;}
	.st152{clip-path:url(#SVGID_62_);}
	.st153{clip-path:url(#SVGID_64_);}
	.st154{clip-path:url(#SVGID_66_);}
	.st155{clip-path:url(#SVGID_68_);}
	.st156{clip-path:url(#SVGID_70_);enable-background:new    ;}
	.st157{clip-path:url(#SVGID_72_);enable-background:new    ;}
	.st158{clip-path:url(#SVGID_74_);}
	.st159{clip-path:url(#SVGID_76_);}
	.st160{clip-path:url(#SVGID_78_);}
	.st161{clip-path:url(#SVGID_80_);}
	.st162{clip-path:url(#SVGID_82_);}
	.st163{clip-path:url(#SVGID_84_);}
</style>
<path class="st32" d="M61.7,104.7c3.7,7.9-1,12.1-15.3,8.9C33.2,110.7,3.7,98.7,3.7,92s21.3-4.5,35.3-0.3
	C53.7,96,58.8,98.6,61.7,104.7z"/>
<g>
	<g>
		<g>
			<path class="st44" d="M67.4,24.5c-0.2,0.4-0.7,0.6-1.2,0.4l0,0c-0.4-0.2-0.6-0.7-0.4-1.2l2.2-4.2c0.2-0.4,0.7-0.6,1.2-0.4l0,0
				c0.4,0.2,0.6,0.7,0.4,1.2L67.4,24.5z"/>
			<path class="st44" d="M65.2,23.6l3.2-2.4l3-1.2c0.3-0.1,1.7-0.6,2.4-0.1c0.4,0.4,2.7,2.7,1.7,3.3c-0.6,0.4-6.2,3-6.2,3
				c-0.4,0.2-1.1,1.2-1.4,1.2l-2.1,0.1L65.2,23.6z"/>
		</g>
		<path class="st86" d="M63.3,22.4c2-0.7,4.2,0.3,4.9,2.3l0,0c0.7,2-0.3,4.2-2.3,4.9l-7.3,1.7c-2,0.7-4.2-0.3-4.9-2.3l0,0
			c-0.7-2,0.3-4.2,2.3-4.9L63.3,22.4z"/>
	</g>
	<g>
		<path class="st44" d="M51.6,23.6c0,1.9,3.3,2.4,5.9,2.7c0,0,0,0,0,0c0.5-0.5,0.8-0.9,0.8-0.9l0.1-3.8L51.6,21L51.6,23.6
			C51.5,23.6,51.6,23.6,51.6,23.6z"/>
		<path class="st87" d="M50.7,18.3c3.1,3.3,4.4,3.2,7.5,1c3.1-2.2,4.4-5.3,3.7-10c-0.8-4.9-6.7-6.2-10.4-3.9
			C44.3,9.7,46.8,14.2,50.7,18.3z"/>
		<path class="st45" d="M63.1,15.3c-0.1-0.4-0.4-0.7-0.6-1c-0.2-0.2-0.5-0.4-0.5-0.9c0-0.3,0.2-0.6,0.2-0.9c0.1-0.6-0.2-1.1-0.3-1.6
			c-0.1-0.4-0.1-0.9-0.1-1.3c0-0.4-0.1-0.8-0.4-1c0,0,0,0-0.1,0c-1.1,1.5-2.6,2.8-3.1,4.7c-0.2,0.7-0.2,1.3-0.3,1.9
			c-0.1,0.6-0.3,1.3-0.3,1.9c0,0.4,0.2,0.7-0.2,1.2c-0.2,0.2-0.8,0.3-0.8,0.2c0-0.5,0-1-0.1-1.5c-0.1-0.4-0.4-0.8-0.8-0.8
			c-0.4,0-0.9,0.3-1.2,0.8c-0.4,0.6-0.4,1.3-0.3,1.9c0.1,0.8,0.5,1.6,1.4,1.3c-0.3,0.3-0.5,0.8-0.6,1.2c0,0.1,0,0.2-0.1,0.3
			c-0.1,0.1-0.1,0.1-0.2,0.1c-0.1,0-0.1,0.1-0.2,0.1c0.2,0.2,0.4,0.3,0.6,0.3c0.3,0,0.3,0.2,1.3,0.5c0.3,0.1,0.7,0,1.1-0.1
			c0.8-0.2,1.5-0.4,2.3-0.5c0.2,0,0.4-0.1,0.6-0.2c0.4-0.3,0.8-0.9,1-1.5c0-0.1,0.1-0.2,0.1-0.3c0.1-0.4-0.3-0.5-0.2-0.9
			c0.1-0.2,0.2-0.4,0.3-0.6c0.1-0.3,0-0.5,0-0.7c0.2-0.1,0.3-0.4,0.4-0.6c0-0.2,0-0.4,0.1-0.7c0.1-0.4,0.5-0.6,0.8-0.9
			C63.1,15.6,63.2,15.4,63.1,15.3z"/>
		<path class="st87" d="M46.9,10.5c0.3-1.9,4.9-2.1,4.9-2.1c0.3-0.3,2.4-7.7,10.2-1.7c1.6,1.3,1,4,1,4s-0.4,0.3-2.8-0.3
			c-1.2-0.3-0.6,2.3-1,2.7c-0.4,0.3-1.9,2.8-3.2,5c-0.2,0.3-0.3,0.6-0.5,0.9c-0.7,1.2,0.9,3.2,0.7,3.5c-0.3,0.7-4.4-0.1-5.3-1.9
			C50.7,20.4,45.5,15,46.9,10.5z"/>
		<path class="st45" d="M62.5,14.3c-0.2-0.2-0.5-0.4-0.5-0.9c0-0.3,0.2-0.6,0.2-0.9c0.1-0.6-0.2-1.1-0.3-1.6c0-0.1,0-0.1,0-0.2
			c-1.1,0.2-1.8-0.9-2.6,0c-0.1,0.1-0.9,2-1,2.6c-0.2,0.7-0.2,1.3-0.3,1.9c-0.1,0.6-0.3,1.3-0.3,1.9c0,0.4,0.2,0.7-0.2,1.2
			c-0.2,0.2-0.8,0.3-0.8,0.2c0-0.5,0-1-0.1-1.5c-0.1-0.4-0.4-0.8-0.8-0.8c-0.4,0-0.9,0.3-1.2,0.8c-0.4,0.6-0.4,1.3-0.3,1.9
			c0.1,0.8,0.5,1.6,1.4,1.3c-0.1,0.1-0.2,0.2-0.3,0.3h6c0,0,0-0.1,0.1-0.1c0-0.1,0.1-0.2,0.1-0.3c0.1-0.4-0.3-0.5-0.2-0.9
			c0.1-0.2,0.2-0.4,0.3-0.6c0.1-0.3,0-0.5,0-0.7c0.2-0.1,0.3-0.4,0.4-0.6c0-0.2,0-0.4,0.1-0.7c0.1-0.4,0.5-0.6,0.8-0.9
			c0.1-0.1,0.2-0.3,0.1-0.4C63,14.9,62.8,14.6,62.5,14.3z"/>
	</g>
	<g>
		<path class="st88" d="M45.6,108.8c0,0-1,3.4,0.1,4.6c0.3,0.3,1.6,0.4,3.2,0.1c1-0.2,2.1-0.8,3.1-1c2.9-0.4,3.7-1.7,4.9-3.3
			c2.6-3.4-2.1-2.4-5.2-1.3C48.5,109.1,45.6,108.8,45.6,108.8z"/>
	</g>
	<path class="st37" d="M50,111.5c-1.9-0.3-3.4-1-4.8-2l0.2-53.4l10.5,1.9l-0.2,52.3C53.9,111.2,52,111.8,50,111.5z"/>
	<g>
		<path class="st40" d="M55,110c0,0-1,3.4,0.1,4.6c0.3,0.3,1.6,0.4,3.2,0.1c1-0.2,2.1-0.8,3.1-1c2.9-0.4,3.7-1.7,4.9-3.3
			c2.6-3.4-2.1-2.4-5.2-1.3C57.8,110.3,55,110,55,110z"/>
	</g>
	<path class="st86" d="M60.4,112.9c1.9-0.3,3.4-1,4.8-2L66,70.6l0.9-3L55,63.8l-0.4,47.6C56.4,112.5,58.3,113.3,60.4,112.9z"/>
	<path class="st37" d="M60.2,28.8c-0.4-0.7-4.2-2-7.4-2c-3.2,0-4.7-2.8-4.7,0.3s0.5,17.6,3.6,17.6C54.9,44.7,61.9,31.5,60.2,28.8z"
		/>
	<path class="st86" d="M50.5,44.8c0.9,2.2,3.5,3.3,5.7,2.4l0,0c2.2-0.9,3.3-3.5,2.4-5.7l-6.4-15.8c-0.9-2.2-3.5-3.3-5.7-2.4l0,0
		c-2.2,0.9-3.3,3.5-2.4,5.7L50.5,44.8z"/>
	<path class="st37" d="M60.2,28.8c-0.4-0.7-4.2-2-7.4-2c-3.2,0-4.7-2.8-4.7,0.3s0.5,17.6,3.6,17.6C54.9,44.7,61.9,31.5,60.2,28.8z"
		/>
	<path class="st89" d="M60.3,26.2c0-0.4-1.4-3-1.7-2.7c-1.3,1-5.2,0.8-6.1,0.3c-0.8-0.4-1-1.5-1-1.5s-5,4.4,2.3,5.8
		c1.5,0.3,3.1,0.2,4.4-0.5C59.4,27.2,61.4,27.3,60.3,26.2z"/>
	<path class="st89" d="M67.1,89.4l0.7-49.3C67,29.4,62,26.3,60,25.5c0,0-2.1,2.3-6.5,1.4c-4.5-1-2.5-3.9-2.5-3.9
		c-5.9,0.1-6.2,8-6.4,10.7c-0.3,5.1-0.9,43.5-0.8,52.1L67.1,89.4z"/>
	<g>
		<g>
			<path class="st44" d="M83.1,39.2c-0.3,0.4-0.8,0.5-1.2,0.3l0,0c-0.4-0.3-0.5-0.8-0.3-1.2l2.5-4c0.3-0.4,0.8-0.5,1.2-0.3l0,0
				c0.4,0.3,0.5,0.8,0.3,1.2L83.1,39.2z"/>
			<path class="st44" d="M80.9,38.2l3.4-2.1l3-0.9c0.3-0.1,1.7-0.5,2.4,0.1c0.4,0.4,2.4,2.9,1.5,3.4c-0.7,0.4-6.4,2.5-6.4,2.5
				c-0.4,0.2-1.2,1.1-1.5,1.1l-2.1,0L80.9,38.2z"/>
		</g>
		<path class="st86" d="M75.8,38.7c1.6,1.5,1.6,4.1,0.1,5.6l0,0c-1.5,1.6-4,1.6-5.6,0.1L59,33.6c-1.6-1.5-1.6-4.1-0.1-5.6l0,0
			c1.5-1.6,4-1.6,5.6-0.1L75.8,38.7z"/>
		<path class="st86" d="M79.2,36.8c2.1-0.6,4.2,0.6,4.7,2.7l0,0c0.6,2-0.7,4.2-2.7,4.7l-7.4,1.1c-2.1,0.6-4.2-0.6-4.7-2.7l0,0
			c-0.6-2,0.7-4.2,2.7-4.7L79.2,36.8z"/>
	</g>
</g>
</svg>
