<?xml version="1.0" encoding="utf-8"?>
<!-- Generator: Adobe Illustrator 19.1.0, SVG Export Plug-In . SVG Version: 6.00 Build 0)  -->
<svg version="1.1" id="ëÎÓÈ_2" xmlns="http://www.w3.org/2000/svg" xmlns:xlink="http://www.w3.org/1999/xlink" x="0px" y="0px"
	 viewBox="0 0 126.8 126.8" style="enable-background:new 0 0 126.8 126.8;" xml:space="preserve">
<style type="text/css">
	.st0{fill:#F4F4F4;}
	.st1{fill:#F5F5F5;}
	.st2{fill:#FFFFFF;}
	.st3{fill:#A3A3EF;}
	.st4{fill:#415464;}
	.st5{fill:#F2B50A;}
	.st6{fill:#BABAF4;}
	.st7{fill:#FFD255;}
	.st8{fill:#FBBF4C;}
	.st9{fill:#FF8D11;}
	.st10{fill:#FFFFFD;}
	.st11{fill:#F69D16;}
	.st12{fill:#A3A3EF;stroke:#415464;stroke-miterlimit:10;}
</style>
<circle class="st0" cx="63.4" cy="63.4" r="63.4"/>
<g>
	<polygon class="st4" points="64.1,30.2 62.7,30.2 62.7,65.9 28.5,82.3 29.1,83.5 62.7,67.4 62.7,69.8 64.1,69.8 64.1,67.4 
		97.7,83.5 98.3,82.3 64.1,65.9 	"/>
	<polygon class="st2" points="63.4,82.9 49,73.3 63.4,63.7 77.8,73.3 	"/>
	<polygon class="st6" points="49,56.7 63.4,66.3 63.4,82.9 49,73.3 	"/>
	<path class="st4" d="M49,56.7l-0.4,0.6l14.1,9.4v14.9l-13-8.7V56.7H49l-0.4,0.6L49,56.7h-0.7v16.6c0,0.2,0.1,0.5,0.3,0.6L63,83.5
		c0.2,0.1,0.5,0.2,0.7,0c0.2-0.1,0.4-0.4,0.4-0.6V66.3c0-0.2-0.1-0.5-0.3-0.6l-14.4-9.6c-0.2-0.1-0.5-0.2-0.7,0
		c-0.2,0.1-0.4,0.4-0.4,0.6H49z"/>
	<polygon class="st2" points="63.4,66.3 49,56.7 63.4,47.2 77.8,56.7 	"/>
	<path class="st4" d="M63.4,66.3l0.4-0.6l-13.5-9L63.4,48l13.1,8.7l-13.5,9L63.4,66.3l0.4-0.6L63.4,66.3l0.4,0.6l14.4-9.6
		c0.2-0.1,0.3-0.3,0.3-0.6s-0.1-0.5-0.3-0.6l-14.4-9.6c-0.2-0.2-0.5-0.2-0.8,0l-14.4,9.6c-0.2,0.1-0.3,0.3-0.3,0.6s0.1,0.5,0.3,0.6
		L63,66.9c0.2,0.2,0.5,0.2,0.8,0L63.4,66.3z"/>
	<polygon class="st3" points="77.8,56.7 77.8,73.3 63.4,82.9 63.4,66.3 	"/>
	<path class="st4" d="M77.8,56.7h-0.7v16.2l-13,8.7V66.7l14.1-9.4L77.8,56.7h-0.7H77.8l-0.4-0.6L63,65.7c-0.2,0.1-0.3,0.3-0.3,0.6
		v16.6c0,0.3,0.1,0.5,0.4,0.6c0.2,0.1,0.5,0.1,0.7,0l14.4-9.6c0.2-0.1,0.3-0.3,0.3-0.6V56.7c0-0.3-0.1-0.5-0.4-0.6
		c-0.2-0.1-0.5-0.1-0.7,0L77.8,56.7z"/>
	<circle class="st11" cx="63.4" cy="31.1" r="2.7"/>
	<path class="st4" d="M66.1,31.1h-0.7c0,1.1-0.9,2-2,2c-1.1,0-2-0.9-2-2c0-1.1,0.9-2,2-2c1.1,0,2,0.9,2,2H66.1h0.7
		c0-1.9-1.5-3.4-3.4-3.4c-1.9,0-3.4,1.5-3.4,3.4c0,1.9,1.5,3.4,3.4,3.4c1.9,0,3.4-1.5,3.4-3.4H66.1z"/>
	<circle class="st11" cx="98" cy="82.9" r="2.7"/>
	<path class="st4" d="M100.7,82.9H100c0,1.1-0.9,2-2,2c-1.1,0-2-0.9-2-2c0-1.1,0.9-2,2-2c1.1,0,2,0.9,2,2H100.7h0.7
		c0-1.9-1.5-3.4-3.4-3.4c-1.9,0-3.4,1.5-3.4,3.4c0,1.9,1.5,3.4,3.4,3.4c1.9,0,3.4-1.5,3.4-3.4H100.7z"/>
	<circle class="st11" cx="28.8" cy="82.9" r="2.7"/>
	<path class="st4" d="M31.5,82.9h-0.7c0,1.1-0.9,2-2,2c-1.1,0-2-0.9-2-2c0-1.1,0.9-2,2-2c1.1,0,2,0.9,2,2H31.5h0.7
		c0-1.9-1.5-3.4-3.4-3.4c-1.9,0-3.4,1.5-3.4,3.4c0,1.9,1.5,3.4,3.4,3.4c1.9,0,3.4-1.5,3.4-3.4H31.5z"/>
</g>
</svg>
