<?xml version="1.0" encoding="utf-8"?>
<!-- Generator: Adobe Illustrator 19.1.0, SVG Export Plug-In . SVG Version: 6.00 Build 0)  -->
<svg version="1.1" id="ëÎÓÈ_2" xmlns="http://www.w3.org/2000/svg" xmlns:xlink="http://www.w3.org/1999/xlink" x="0px" y="0px"
	 viewBox="13 -55.8 126.8 126.8" style="enable-background:new 13 -55.8 126.8 126.8;" xml:space="preserve">
<style type="text/css">
	.st0{fill:#F4F4F4;}
	.st1{fill:#FFD255;}
	.st2{fill:#415464;}
	.st3{fill:#F2B50A;}
	.st4{fill:#A3A3EF;stroke:#415464;stroke-width:1.2;stroke-miterlimit:10;}
	.st5{fill:#BABAF4;}
	.st6{fill:none;stroke:#FFFFFF;stroke-width:2;stroke-miterlimit:10;}
	.st7{fill:#FFFFFF;stroke:#415464;stroke-width:1.2;stroke-miterlimit:10;}
</style>
<g>
	<circle class="st0" cx="76.4" cy="7.6" r="63.4"/>
	<g>
		<g>
			<path class="st1" d="M90,26.4c-0.7,0-1.3,0-2,0c-0.4,0-0.8,0-1.2,0c-0.4,0-0.8,0-1.2,0c-0.9,0-1.7,0-2.5,0c-0.7,0-1.4,0-2.1,0
				c-2.7,0-4.9-0.2-7.8-1.2L73,25.1c-2.2-0.8-4.2-1.5-6.2-1.5h-0.9L65,4.2l1.8,0c1.7,0,3.5-3,5.7-7.3c0.6-1.1,1.1-2.1,1.5-2.6
				c0.7-1,2-2.2,3.3-3.5c2.4-2.2,4.9-4.5,4.9-6.7v-3c0-1,1.5-1.2,2.2-1.2c0.1,0,0.2,0,0.3,0c3,0.2,4.1,3.1,4.1,5.5c0,2.4-1,4.1-2,6
				c-1,1.8-2.2,3.9-2.2,6.9v0.4L85-1.1c1.3,0.4,2.6,0.5,4.2,0.5h5c2.7,0,6.8,1.3,7.1,4.9c0.1,1.1-0.3,2.2-1.2,2.8l-0.6,0.4l0.5,0.5
				c0.6,0.7,0.9,1.6,0.9,2.6c0,1.4-0.8,2.8-2,3.5l-0.6,0.4l0.5,0.5c0.6,0.6,0.9,1.5,0.9,2.4c0,1.5-0.9,2.8-2.3,3.4L96.7,21l0.1,0.5
				c0.3,1.2,0,2.2-0.8,3.1C94.6,26.2,92.2,26.4,90,26.4C90,26.4,90,26.4,90,26.4z"/>
			<path class="st2" d="M84.4-19.5c0.1,0,0.2,0,0.2,0c2.6,0.2,3.6,2.6,3.6,4.9c0,2.3-0.9,3.8-1.9,5.7c-1.1,1.9-2.3,4-2.3,7.2l0,0.9
				l0.9,0.3C86.1-0.2,87.5,0,89.1,0h5c2.5,0,6.2,1.2,6.5,4.3c0.1,0.9-0.3,1.8-1,2.2l-1.1,0.8l0.9,1c0.5,0.6,0.8,1.4,0.8,2.2
				c0,1.2-0.7,2.4-1.7,3l-1.3,0.7l1,1.1c0.5,0.5,0.7,1.3,0.7,2c0,1.3-0.8,2.4-2,2.9l-1,0.4l0.3,1c0.2,1,0,1.8-0.7,2.6
				c-1.3,1.4-3.6,1.6-5.6,1.6c-0.7,0-1.3,0-2,0c-0.4,0-0.8,0-1.2,0c-0.4,0-0.8,0-1.2,0c-0.9,0-1.7,0-2.5,0c-0.7,0-1.4,0-2.1,0
				c-2.6,0-4.8-0.2-7.6-1.2l-0.2-0.1C70.9,23.7,69,23,66.8,23h-0.4L65.6,4.8l1.2,0c2.1,0,3.8-3,6.2-7.6c0.6-1.1,1.1-2.1,1.4-2.6
				c0.7-1,1.9-2.2,3.2-3.4c2.5-2.3,5-4.7,5-7.2v-3C82.8-19.2,83.6-19.5,84.4-19.5 M84.4-20.7c-1.2,0-2.8,0.4-2.8,1.8v3
				c0,3.1-6.1,7-8.1,9.9c-1.4,2.1-4.6,9.7-6.7,9.7c0,0,0,0,0,0l-1.5,0c0-0.5-0.4-0.9-0.9-0.9l0.9,21.4h1.5c2,0,3.9,0.7,6.2,1.5
				c3,1.1,5.4,1.3,8,1.3c1.4,0,2.9-0.1,4.6-0.1c0.4,0,0.8,0,1.2,0c1,0,2.1,0.1,3.2,0.1c2.4,0,4.9-0.3,6.5-2c1-1,1.3-2.3,1-3.7
				c1.6-0.7,2.7-2.2,2.7-4c0-1-0.3-2.1-1-2.8c1.4-0.8,2.2-2.3,2.3-4c0-1.1-0.3-2.2-1.1-3c1.1-0.7,1.6-2,1.5-3.3
				c-0.3-3.7-4.4-5.4-7.7-5.4h-5c-1.6,0-2.9-0.2-4-0.5c0-2.9,1.1-4.8,2.2-6.6c1.1-1.9,2.1-3.7,2.1-6.3c0-3.2-1.6-5.8-4.7-6.1
				C84.6-20.7,84.5-20.7,84.4-20.7L84.4-20.7z"/>
		</g>
		<path class="st2" d="M99.6,6.9c-1.6,0.3-3.4,0.2-5.1-0.1l-0.2,1.4c1.9,0.3,3.7,0.3,5.5,0"/>
		<path class="st2" d="M98.7,13.6c-1.6,0.3-3.4,0.2-5.1-0.1l-0.2,1.4c1.9,0.3,3.7,0.3,5.5,0"/>
		<path class="st2" d="M97.1,20.4c-1.6,0.3-3.4,0.2-5.1-0.1l-0.2,1.4c1.9,0.3,3.7,0.3,5.5,0"/>
		<path class="st3" d="M67.1,4.8c-2.3,0.2-2.5-1.5-2.5-1.5c0-0.5-0.4-0.9-0.9-0.9l0.9,21.4h1.5c2,0,0.6-1.4,2.9-0.6
			c6.4,2.1,7.5,2.8,15.8,2.5C84.8,25.7,70,24.4,67.1,4.8z"/>
		<path class="st4" d="M69.8,27.9c-0.2-0.5-0.4-1.1-0.7-1.9c-1.3-4.2-2.5-9.7-3.2-14.5C65.4,8.1,65,3.9,65.5,1.2
			c-1.4-0.1-3.1-0.1-5-0.1c-4,0-7.7,0.2-9.3,0.4c-1,7.2,1.1,14.2,3,18.8c1.3,3,2.7,5.5,3.6,7.1C60.6,27.5,66.7,27.9,69.8,27.9
			C69.7,27.9,69.7,27.9,69.8,27.9z"/>
		<path class="st5" d="M64.8,1.7c-1.4,0.1-3.5-0.1-4.2-0.1c-0.5,14,3.7,24,5.3,25.6c0.8,0.1,0.7,0.1,3.1,0.1
			C63.7,10.5,64.8,1.7,64.8,1.7z"/>
		<path class="st6" d="M54.2,10c-1-2.1-1-4.7-0.2-6.3"/>
		<path class="st7" d="M63.7,21.4L63.7,21.4c-1,0-1.7,0.8-1.7,1.7c0,0.9,0.8,1.7,1.7,1.7l0,0c0.9,0,1.7-0.8,1.7-1.7
			C65.4,22.2,64.6,21.4,63.7,21.4z"/>
	</g>
</g>
</svg>
