<?xml version="1.0" encoding="utf-8"?>
<!-- Generator: Adobe Illustrator 19.1.0, SVG Export Plug-In . SVG Version: 6.00 Build 0)  -->
<svg version="1.1" id="ëÎÓÈ_2" xmlns="http://www.w3.org/2000/svg" xmlns:xlink="http://www.w3.org/1999/xlink" x="0px" y="0px"
	 viewBox="0 0 126.8 126.8" style="enable-background:new 0 0 126.8 126.8;" xml:space="preserve">
<style type="text/css">
	.st0{fill:#F4F4F4;}
	.st1{fill:#F5F5F5;}
	.st2{fill:#FFFFFF;}
	.st3{fill:#A3A3EF;}
	.st4{fill:#415464;}
	.st5{fill:#F2B50A;}
	.st6{fill:#BABAF4;}
	.st7{fill:#FFD255;}
	.st8{fill:#FBBF4C;}
	.st9{fill:#FF8D11;}
	.st10{fill:#FFFFFD;}
	.st11{fill:#F69D16;}
	.st12{fill:#A3A3EF;stroke:#415464;stroke-miterlimit:10;}
</style>
<circle class="st0" cx="63.4" cy="63.4" r="63.4"/>
<g>
	<path class="st5" d="M91.3,85.5c1.6,1.6,1.6,4.2,0,5.8c-1.6,1.6-4.2,1.6-5.8,0L64.3,70c-1.6-1.6-1.6-4.2,0-5.8
		c1.6-1.6,4.2-1.6,5.8,0L91.3,85.5z"/>
	<path class="st2" d="M73.7,67.9l-3.7-3.7c-1.6-1.6-4.2-1.6-5.8,0c-1.6,1.6-1.6,4.2,0,5.8l3.7,3.7L73.7,67.9z"/>
	<path class="st4" d="M91.3,85.5l-0.5,0.5c0.7,0.7,1,1.5,1,2.4c0,0.9-0.3,1.8-1,2.4c-0.7,0.7-1.5,1-2.4,1c-0.9,0-1.8-0.3-2.4-1
		L64.7,69.5c-0.7-0.7-1-1.5-1-2.4c0-0.9,0.3-1.8,1-2.4c0.7-0.7,1.5-1,2.4-1c0.9,0,1.8,0.3,2.4,1l21.3,21.3L91.3,85.5l0.5-0.5
		L70.5,63.7c-0.9-0.9-2.1-1.4-3.4-1.4s-2.4,0.5-3.4,1.4c-0.9,0.9-1.4,2.1-1.4,3.4c0,1.2,0.5,2.4,1.4,3.4l21.3,21.3
		c0.9,0.9,2.1,1.4,3.4,1.4c1.2,0,2.4-0.5,3.4-1.4c0.9-0.9,1.4-2.1,1.4-3.4c0-1.2-0.5-2.4-1.4-3.4L91.3,85.5z"/>
	<circle class="st2" cx="53" cy="53.5" r="16.7"/>
	<path class="st4" d="M64.8,41.7l-0.5,0.5c3.1,3.1,4.7,7.2,4.7,11.4c0,4.1-1.6,8.2-4.7,11.3c-3.1,3.1-7.2,4.7-11.3,4.7
		c-4.1,0-8.2-1.6-11.3-4.7c-3.1-3.1-4.7-7.2-4.7-11.3c0-4.1,1.6-8.2,4.7-11.3c3.1-3.1,7.2-4.7,11.3-4.7c4.1,0,8.2,1.6,11.3,4.7
		L64.8,41.7l0.5-0.5c-3.4-3.4-7.8-5.1-12.3-5.1c-4.4,0-8.9,1.7-12.3,5.1c-3.4,3.4-5.1,7.8-5.1,12.3s1.7,8.9,5.1,12.3
		c3.4,3.4,7.8,5.1,12.3,5.1c4.4,0,8.9-1.7,12.3-5.1c3.4-3.4,5.1-7.8,5.1-12.3c0-4.4-1.7-8.9-5.1-12.3L64.8,41.7z"/>
	<path class="st2" d="M53.2,67.5c-0.2,0-0.5,0-0.7,0l-0.5,0c-0.3,0-0.6-0.1-0.9-0.1l-0.5-0.1c-0.3,0-0.5-0.1-0.8-0.2L49.2,67
		c-0.2-0.1-0.5-0.1-0.7-0.2l-0.3-0.1l-0.3-0.1c-0.2-0.1-0.4-0.2-0.6-0.3L47,66.1L46.7,66c-0.2-0.1-0.4-0.2-0.6-0.3l-0.3-0.2
		l-0.3-0.2c-0.2-0.1-0.4-0.3-0.6-0.4l-0.5-0.4c-0.4-0.3-0.7-0.6-1.1-1c-0.4-0.3-0.7-0.7-1.1-1.2L42,62.2l-0.2-0.3
		c-1.1-1.5-1.9-3.1-2.3-4.8l0-0.1c-0.4-1.7-0.5-3.3-0.4-5l0-0.3c0.1-0.7,0.2-1.2,0.3-1.7c0.2-0.7,0.4-1.3,0.6-1.8l0,0
		c0.4-0.9,0.9-1.8,1.4-2.6l0.6-0.8c0.3-0.4,0.6-0.7,0.9-1c0.3-0.3,0.6-0.6,1-0.9l0.2-0.2c0.3-0.3,0.6-0.4,0.8-0.6
		c0.1-0.1,0.3-0.2,0.4-0.3c0.2-0.2,0.5-0.3,0.7-0.4c0.2-0.1,0.3-0.2,0.4-0.2c0.3-0.1,0.6-0.3,0.9-0.4l0.3-0.1
		c0.4-0.2,0.7-0.3,1.1-0.4l0.5-0.1c0.2-0.1,0.5-0.1,0.7-0.2c0.2,0,0.4-0.1,0.6-0.1l0.3-0.1l0.1,0c0.7-0.1,1.4-0.1,2.1-0.1
		c3.7,0,7.2,1.4,9.8,4c2.7,2.6,4.2,6.1,4.2,9.9c0,3.7-1.4,7.3-4,10c-2.5,2.6-5.9,4-9.5,4.2l-0.1,0L53.2,67.5z"/>
	<path class="st3" d="M62.4,43.9c5.3,5.2,5.3,13.6,0.1,18.9c-5.2,5.3-13.6,5.3-18.9,0.2c-5.3-5.2-5.3-13.6-0.1-18.9
		C48.7,38.8,57.1,38.8,62.4,43.9z"/>
	<path class="st6" d="M55.6,44.3c-0.4-0.5-0.9-1.1-1.4-1.6c-1-1-2.1-1.8-3.3-2.5c-2.7,0.4-5.4,1.7-7.5,3.8c-0.3,0.3-0.6,0.6-0.9,1
		l-0.3,0.4c-0.2,0.2-0.3,0.5-0.5,0.7c-0.1,0.1-0.2,0.3-0.3,0.4c-0.1,0.2-0.3,0.4-0.4,0.7c-0.1,0.2-0.2,0.3-0.2,0.5
		c-0.1,0.2-0.2,0.4-0.3,0.7c-0.1,0.2-0.1,0.3-0.2,0.5c-0.1,0.2-0.2,0.4-0.2,0.6c-0.1,0.2-0.1,0.4-0.2,0.6c-0.1,0.2-0.1,0.4-0.2,0.7
		c0,0.2-0.1,0.4-0.1,0.6c0,0.2-0.1,0.4-0.1,0.7c0,0.2,0,0.4-0.1,0.6c0,0.2,0,0.4,0,0.6c0,0.2,0,0.4,0,0.6c0,0.2,0,0.4,0,0.6
		c0,0.2,0,0.4,0.1,0.6c0,0.2,0.1,0.4,0.1,0.6c0,0.2,0.1,0.4,0.1,0.6c0,0.2,0.1,0.4,0.1,0.6c0.1,0.2,0.1,0.4,0.2,0.6
		c0.1,0.2,0.1,0.3,0.2,0.5c0.3,0.9,0.7,1.7,1.2,2.5l0.2,0.3c0.1,0.2,0.3,0.4,0.5,0.7l0.2,0.3l0,0c0.3,0.4,0.7,0.8,1.1,1.2
		c2.7,2.7,6.3,3.9,9.8,3.8c0.4-0.3,0.7-0.6,1-1c4.1-4.2,5.5-10,4.2-15.3l0,0l-0.1-0.3c-0.1-0.5-0.3-1-0.5-1.5c0-0.1-0.1-0.3-0.1-0.4
		c-0.2-0.6-0.5-1.2-0.9-1.8c-0.1-0.1-0.2-0.3-0.2-0.4c-0.3-0.5-0.6-0.9-0.9-1.3C55.9,44.7,55.8,44.5,55.6,44.3z"/>
	<path class="st2" d="M52.3,43.8c-1.2,0-2.3,0.2-3.4,0.6c-1.1,0.4-2.1,0.9-3,1.6c-1.9,1.4-3.2,3.5-3.8,5.6l2.7,0.7
		c0.4-1.6,1.4-3.1,2.8-4.1c0.7-0.5,1.4-0.9,2.2-1.2c0.8-0.3,1.6-0.4,2.5-0.4L52.3,43.8z"/>
	<path class="st4" d="M53,38.8c-0.7,0-1.4,0.1-2.1,0.1l-0.2,0l-0.2,0l-0.1,0c-0.2,0-0.4,0.1-0.6,0.1c-0.2,0.1-0.5,0.1-0.7,0.2
		l-0.1,0c-0.1,0-0.3,0.1-0.4,0.1c-0.4,0.1-0.8,0.3-1.2,0.4L47.2,40l-0.1,0c-0.3,0.1-0.6,0.3-0.9,0.4l-0.3,0.2l-0.1,0
		c-0.3,0.1-0.5,0.3-0.7,0.4c-0.1,0.1-0.3,0.2-0.4,0.3c-0.2,0.2-0.5,0.4-0.7,0.6L43.8,42l-0.3,0.2c-0.4,0.3-0.7,0.6-1,0.9
		c-0.3,0.3-0.6,0.7-1,1.1l0,0l-0.1,0.2l-0.1,0.1l-0.1,0.1l0,0.1L41,45l0,0.1c-0.6,0.9-1.1,1.8-1.5,2.7l-0.1,0.1
		c-0.2,0.6-0.4,1.2-0.6,1.8l0,0.1c-0.1,0.6-0.2,1.1-0.3,1.6l0,0.1l0,0.2l0,0l0,0.1c-0.2,1.7-0.1,3.5,0.4,5.2l0,0.1l0,0
		c0.5,1.8,1.3,3.5,2.4,5l0,0.1l0.1,0.1l0.2,0.2l0.1,0.1c0.4,0.5,0.7,0.9,1.1,1.2c0.4,0.4,0.7,0.7,1.1,1l0.3,0.2l0.1,0.1l0.2,0.1
		c0.2,0.2,0.4,0.3,0.7,0.5c0.1,0.1,0.2,0.1,0.4,0.2l0.1,0.1l0.2,0.1c0.2,0.1,0.4,0.2,0.6,0.3c0.1,0.1,0.3,0.1,0.4,0.2l0.2,0.1
		l0.1,0.1c0.2,0.1,0.4,0.2,0.7,0.3c0.1,0,0.2,0.1,0.4,0.1l0.2,0.1l0.1,0c0.3,0.1,0.5,0.2,0.8,0.2c0.1,0,0.2,0.1,0.4,0.1l0.1,0l0.1,0
		c0.3,0.1,0.6,0.1,0.8,0.2l0.3,0l0.1,0c0.3,0,0.6,0.1,0.9,0.1l0.3,0l0.1,0c0.3,0,0.5,0,0.8,0l0.2,0l0.1,0l0.2,0
		c3.8-0.1,7.3-1.7,9.9-4.4c2.8-2.8,4.3-6.5,4.2-10.4c0-3.9-1.6-7.6-4.4-10.4C60.6,40.3,56.9,38.8,53,38.8z M62.6,62.8
		c-2.5,2.6-5.8,3.9-9.1,4l0,0h0l-0.1,0h0l-0.2,0c-0.2,0-0.5,0-0.7,0c-0.1,0-0.3,0-0.4,0c-0.3,0-0.6-0.1-0.9-0.1
		c-0.1,0-0.3,0-0.4-0.1c-0.3,0-0.5-0.1-0.8-0.2c-0.2,0-0.3-0.1-0.5-0.1c-0.3-0.1-0.5-0.2-0.8-0.3c-0.2-0.1-0.3-0.1-0.5-0.2
		c-0.2-0.1-0.5-0.2-0.7-0.3c-0.2-0.1-0.3-0.1-0.5-0.2c-0.2-0.1-0.5-0.3-0.7-0.4c-0.2-0.1-0.3-0.2-0.5-0.3c-0.2-0.2-0.5-0.3-0.7-0.5
		c-0.1-0.1-0.3-0.2-0.4-0.3c-0.4-0.3-0.7-0.6-1-0.9c-0.4-0.4-0.7-0.8-1.1-1.2l0,0l0,0l-0.2-0.3l0-0.1c-1-1.4-1.8-2.9-2.2-4.6l0,0
		l0-0.1c-0.4-1.6-0.5-3.2-0.3-4.8l0,0l0-0.3c0.1-0.5,0.2-1,0.3-1.5l0,0h0c0.1-0.6,0.3-1.2,0.6-1.7l0,0l0-0.1
		c0.4-0.9,0.8-1.7,1.4-2.5c0.1-0.1,0.2-0.3,0.3-0.4l0.1-0.1l0.2-0.3l0,0c0.3-0.3,0.6-0.7,0.9-1c0.3-0.3,0.6-0.6,0.9-0.9l0.3-0.2
		c0.2-0.2,0.5-0.3,0.7-0.5c0.1-0.1,0.2-0.2,0.4-0.2c0.2-0.1,0.5-0.3,0.7-0.4c0.1-0.1,0.3-0.1,0.4-0.2c0.3-0.1,0.5-0.3,0.8-0.4
		l0.3-0.1c0.4-0.1,0.7-0.3,1.1-0.4c0.2,0,0.3-0.1,0.5-0.1c0.2-0.1,0.4-0.1,0.7-0.2c0.2,0,0.4-0.1,0.5-0.1l0.3-0.1l0,0
		c0.7-0.1,1.4-0.2,2.1-0.2c3.4,0,6.8,1.3,9.4,3.8C67.7,49.1,67.7,57.6,62.6,62.8z"/>
</g>
</svg>
