<?xml version="1.0" encoding="utf-8"?>
<!-- Generator: Adobe Illustrator 19.1.0, SVG Export Plug-In . SVG Version: 6.00 Build 0)  -->
<svg version="1.1" id="ëÎÓÈ_2" xmlns="http://www.w3.org/2000/svg" xmlns:xlink="http://www.w3.org/1999/xlink" x="0px" y="0px"
	 viewBox="0 0 126.8 126.8" style="enable-background:new 0 0 126.8 126.8;" xml:space="preserve">
<style type="text/css">
	.st0{fill:#F4F4F4;}
	.st1{fill:#F5F5F5;}
	.st2{fill:#FFFFFF;}
	.st3{fill:#A3A3EF;}
	.st4{fill:#415464;}
	.st5{fill:#F2B50A;}
	.st6{fill:#BABAF4;}
	.st7{fill:#FFD255;}
	.st8{fill:#FBBF4C;}
	.st9{fill:#FF8D11;}
	.st10{fill:#FFFFFD;}
	.st11{fill:#F69D16;}
	.st12{fill:#A3A3EF;stroke:#415464;stroke-miterlimit:10;}
</style>
<circle class="st0" cx="63.4" cy="63.4" r="63.4"/>
<g>
	<path class="st4" d="M37,76.2c0.2,1.8,0.7,3.4,1.5,5c0.7,1.6,1.8,3,3,4.3l0,0l0,0c2.5,2.6,5.8,4.1,9.1,4.6l0.2-1.3
		c-3.1-0.5-6.1-1.9-8.4-4.3l0,0l0,0c-1.1-1.2-2.1-2.5-2.8-3.9c-0.7-1.4-1.1-3-1.3-4.6L37,76.2z"/>
	<path class="st4" d="M40.6,75.7c0.2,1.4,0.6,2.7,1.1,3.9c0.6,1.2,1.4,2.3,2.3,3.3l0,0l0,0c1.9,2,4.5,3.2,7.1,3.6l0.2-1.3
		C49,84.8,46.7,83.7,45,82l0,0l0,0c-0.9-0.9-1.6-1.9-2.1-3c-0.5-1.1-0.9-2.2-1-3.5L40.6,75.7z"/>
	<circle class="st5" cx="51.5" cy="75.5" r="5.7"/>
	<path class="st4" d="M55.5,79.5L55,79c-1,1-2.3,1.5-3.6,1.5c-1.3,0-2.6-0.5-3.6-1.5c-1-1-1.5-2.3-1.5-3.6c0-1.3,0.5-2.6,1.5-3.6
		c1-1,2.3-1.5,3.6-1.5c1.3,0,2.6,0.5,3.6,1.5c1,1,1.5,2.3,1.5,3.5c0,1.3-0.5,2.6-1.5,3.6L55.5,79.5l0.5,0.5c1.2-1.2,1.8-2.8,1.8-4.5
		c0-1.6-0.6-3.2-1.8-4.5c-1.2-1.2-2.8-1.8-4.5-1.8c-1.6,0-3.2,0.6-4.5,1.8c-1.2,1.2-1.8,2.8-1.8,4.5c0,1.6,0.6,3.2,1.8,4.5
		c1.2,1.2,2.8,1.8,4.5,1.8c1.6,0,3.2-0.6,4.5-1.8L55.5,79.5z"/>
	<path class="st7" d="M69.2,84.1c0.4-1.5,0.4-3.2,0-5l0,0L47.7,57.8l0,0c-1.8-0.4-3.5-0.4-5,0c-3.3,1-5.1,2.7-3.9,3.9
		c1.2,1.2,3.1,3.1,4.3,4.3c1.2,1.2,4.4,4.4,7.1,7.1l3.6,3.6c2.7,2.7,5.9,5.9,7.1,7.1c1.2,1.2,3.1,3.1,4.3,4.3
		C66.4,89.2,68.2,87.5,69.2,84.1z"/>
	<path class="st4" d="M69.2,84.1l0.6,0.2c0.2-0.8,0.3-1.6,0.3-2.5c0-0.9-0.1-1.9-0.3-2.8l-0.3-1.1l-0.4,0.4L48.2,57.4l-0.5,0.5
		l0.5,0.5l0,0l0.8-0.8l-1.1-0.3c-0.9-0.2-1.9-0.3-2.8-0.3c-0.9,0-1.7,0.1-2.5,0.3c-1.4,0.4-2.5,0.9-3.3,1.5c-0.4,0.3-0.8,0.6-1,1
		c-0.2,0.4-0.4,0.8-0.4,1.2c0,0.5,0.2,0.9,0.6,1.3c1.2,1.2,3.1,3.1,4.3,4.3c1.2,1.2,4.4,4.4,7.1,7.1l3.6,3.6
		c2.7,2.7,5.9,5.9,7.1,7.1c1.2,1.2,3.1,3.1,4.3,4.3c0.3,0.3,0.8,0.6,1.3,0.6c0.4,0,0.8-0.2,1.2-0.4c1.1-0.8,1.9-2.3,2.5-4.3
		L69.2,84.1L68.6,84c-0.4,1.3-0.8,2.3-1.3,2.9c-0.2,0.3-0.5,0.6-0.7,0.7c-0.2,0.1-0.4,0.2-0.5,0.2c-0.1,0-0.2,0-0.4-0.2
		c-1.2-1.2-3.1-3.1-4.3-4.3c-1.2-1.2-4.4-4.4-7.1-7.1l-3.6-3.6c-2.7-2.7-5.9-5.9-7.1-7.1c-1.2-1.2-3.1-3.1-4.3-4.3
		c-0.2-0.2-0.2-0.3-0.2-0.4c0-0.1,0-0.3,0.2-0.5c0.4-0.6,1.7-1.5,3.6-2c0.6-0.2,1.4-0.3,2.1-0.3c0.8,0,1.7,0.1,2.5,0.3l0.1-0.6
		l-0.5-0.5l0,0l-0.5,0.5l22.3,22.3l0.5-0.5l-0.4-0.5l-0.6,0.1c0.2,0.9,0.3,1.7,0.3,2.5c0,0.8-0.1,1.5-0.3,2.1L69.2,84.1z"/>
	<path class="st5" d="M78.1,48.8c-5.9-5.9-15.5-5.9-21.4,0l-9,9l0,0l21.4,21.4l0,0l9-9C84,64.3,84,54.7,78.1,48.8z"/>
	<path class="st4" d="M78.1,48.8l0.5-0.5c-3.1-3.1-7.1-4.6-11.1-4.6c-4,0-8.1,1.5-11.1,4.6l-9,9l0,0l-0.5,0.5l22.3,22.3l0.5-0.5l0,0
		l9-9c3.1-3.1,4.6-7.1,4.6-11.1c0-4-1.5-8.1-4.6-11.1L78.1,48.8l-0.5,0.5c2.8,2.8,4.2,6.5,4.2,10.2c0,3.7-1.4,7.4-4.2,10.2l-9,9
		l0.5,0.5l-0.4-0.5l0,0l0.4,0.5l0.5-0.5L48.2,57.4l-0.5,0.5l0.5,0.5l0,0l9-9C60,46.4,63.7,45,67.4,45c3.7,0,7.4,1.4,10.2,4.2
		L78.1,48.8z"/>
	<path class="st5" d="M88.3,38.6c-1.1-1.1-3-1.1-4.1,0L75.8,47l4.1,4.1l8.4-8.4C89.5,41.6,89.5,39.7,88.3,38.6z"/>
	<path class="st4" d="M88.3,38.6l0.5-0.5c-0.7-0.7-1.6-1-2.5-1c-0.9,0-1.8,0.3-2.5,1L74.9,47l5,5l8.8-8.8c0.7-0.7,1-1.6,1-2.5
		c0-0.9-0.3-1.8-1-2.5L88.3,38.6L87.9,39c0.4,0.4,0.7,1,0.7,1.6c0,0.6-0.2,1.2-0.7,1.6L80,50.2L76.7,47l7.9-7.9
		c0.4-0.4,1-0.7,1.6-0.7c0.6,0,1.2,0.2,1.6,0.7L88.3,38.6z"/>
	<path class="st2" d="M74.9,50.5c-0.8-0.8-1.6-1.4-2.5-1.8c-0.9-0.5-1.9-0.8-3-0.9c-2.1-0.3-4.3,0.2-6.1,1.2l1.3,2.2
		c1.3-0.8,2.9-1.1,4.4-0.9c0.8,0.1,1.5,0.3,2.2,0.7c0.7,0.3,1.3,0.8,1.9,1.3L74.9,50.5z"/>
</g>
</svg>
