<?xml version="1.0" encoding="utf-8"?>
<!-- Generator: Adobe Illustrator 19.1.0, SVG Export Plug-In . SVG Version: 6.00 Build 0)  -->
<svg version="1.1" id="Layer_1" xmlns="http://www.w3.org/2000/svg" xmlns:xlink="http://www.w3.org/1999/xlink" x="0px" y="0px"
	 viewBox="-713 370.3 512.7 160.7" style="enable-background:new -713 370.3 512.7 160.7;" xml:space="preserve">
<style type="text/css">
	.st0{fill:#0CB0A1;}
	.st1{fill:#5DC5C1;}
	.st2{enable-background:new    ;}
	.st3{fill:#425A5B;}
</style>
<g>
	<polygon class="st0" points="-663.4,522.1 -703.1,497.8 -703.1,449.9 -663.4,474.2 	"/>
	<polygon class="st1" points="-703.1,452.8 -663.4,428.5 -663.4,380.7 -703.1,405 	"/>
	<polygon class="st0" points="-623.6,452.8 -663.4,428.5 -663.4,380.7 -623.6,405 	"/>
	<polygon class="st1" points="-623.6,452.8 -583.9,428.5 -583.9,380.7 -623.6,405 	"/>
	<g>
		<g class="st2">
			<path class="st3" d="M-501.7,476.9h-11.2V468c-3.7,6-9.9,9.4-18.2,9.4c-14.9,0-24.8-10.8-24.8-26.6c0-15.6,10-26.2,24.6-26.2
				c8.4,0,14.6,3.4,18.4,9.4v-29.4h11.2V476.9z M-512.9,451.2c0-10-6.5-17-15.9-17s-15.9,7.1-16,17c0.1,9.8,6.5,16.9,16,16.9
				C-519.4,468-512.9,461-512.9,451.2z"/>
			<path class="st3" d="M-453.5,470.6c-3.7,4.6-9.6,6.8-17.1,6.8c-11.2,0-18.2-6.9-18.2-16.1c0-9.4,7.1-15.5,19.6-15.6h15.7v-1.6
				c0-6.5-4.2-10.4-12.4-10.4c-5,0-10.1,1.8-15.3,5.3l-4.6-7.8c7.2-4.3,12.5-6.5,22.3-6.5c13.3,0,20.8,6.8,20.9,18.2l0.1,34h-11
				V470.6z M-453.6,458.7v-4.8h-14c-7.3,0-10.7,1.9-10.7,6.9c0,4.7,3.8,7.7,10,7.7C-460.4,468.5-454.2,464.3-453.6,458.7z"/>
		</g>
		<g class="st2">
			<path class="st3" d="M-398.2,473.6c-4.1,2.4-8.4,3.8-12.8,3.8c-7.8,0-14.5-4.5-14.5-15.1v-26.9h-7.3V427h7.3v-14.2h11.1V427h15.3
				v8.4h-15.3v24.8c0,5.4,2,7,5.6,7c2.3,0,4.8-0.8,7.8-2.2L-398.2,473.6z"/>
			<path class="st3" d="M-355.9,470.6c-3.7,4.6-9.6,6.8-17.1,6.8c-11.2,0-18.2-6.9-18.2-16.1c0-9.4,7.1-15.5,19.6-15.6h15.7v-1.6
				c0-6.5-4.2-10.4-12.4-10.4c-5,0-10.1,1.8-15.3,5.3l-4.6-7.8c7.2-4.3,12.5-6.5,22.3-6.5c13.3,0,20.8,6.8,20.9,18.2l0.1,34h-11
				V470.6z M-356,458.7v-4.8h-14c-7.3,0-10.7,1.9-10.7,6.9c0,4.7,3.8,7.7,10,7.7C-362.7,468.5-356.5,464.3-356,458.7z"/>
		</g>
		<g class="st2">
			<path class="st3" d="M-315.9,478.3c0,12.3-8.5,17.9-16.8,17.9c-3.9,0-7.8-1.3-10.8-3.5l3.7-8.7c2,1.5,4.5,2.3,6.6,2.3
				c3.4,0,6.1-2,6.1-7v-54.4h11.1V478.3z M-314.6,410.3c0,3.9-2.8,6.8-6.9,6.8c-3.9,0-6.8-2.9-6.8-6.8c0-4,2.9-6.8,6.8-6.8
				C-317.4,403.4-314.6,406.3-314.6,410.3z"/>
			<path class="st3" d="M-253.4,455.3h-39.2c1.8,8,7.9,13,16.1,13c5.7,0,10.8-2.1,14.6-6l5.9,6.3c-5.1,5.6-12.5,8.8-21.4,8.8
				c-16,0-26.5-10.6-26.5-26.2c0-15.7,10.8-26.3,26.2-26.4C-259.4,424.7-252,436.6-253.4,455.3z M-263.2,447.1
				c-0.4-8.4-5.9-13.4-14.4-13.4c-8.2,0-13.9,5.2-15.2,13.4H-263.2z"/>
			<path class="st3" d="M-212.4,473.6c-4.1,2.4-8.4,3.8-12.8,3.8c-7.8,0-14.5-4.5-14.5-15.1v-26.9h-7.3V427h7.3v-14.2h11.1V427h15.3
				v8.4h-15.3v24.8c0,5.4,2,7,5.6,7c2.3,0,4.8-0.8,7.8-2.2L-212.4,473.6z"/>
		</g>
	</g>
</g>
</svg>
